G75*
%MOIN*%
%OFA0B0*%
%FSLAX24Y24*%
%IPPOS*%
%LPD*%
%AMOC8*
5,1,8,0,0,1.08239X$1,22.5*
%
%ADD10R,0.0400X0.1000*%
%ADD11R,0.0315X0.0138*%
%ADD12R,0.0591X0.0512*%
%ADD13R,0.0512X0.0591*%
%ADD14R,0.0472X0.0472*%
%ADD15R,0.0740X0.0740*%
%ADD16OC8,0.0740*%
%ADD17C,0.0740*%
%ADD18C,0.0397*%
%ADD19R,0.0600X0.0300*%
%ADD20R,0.0217X0.0472*%
%ADD21R,0.0110X0.0615*%
%ADD22R,0.0615X0.0110*%
%ADD23R,0.2540X0.2540*%
%ADD24R,0.0748X0.0433*%
%ADD25R,0.0476X0.0114*%
%ADD26R,0.0114X0.0476*%
%ADD27R,0.0220X0.0520*%
%ADD28R,0.0236X0.0315*%
%ADD29C,0.0320*%
%ADD30C,0.0100*%
%ADD31C,0.0160*%
%ADD32C,0.0240*%
D10*
X026503Y031973D03*
X029103Y031973D03*
D11*
X029018Y030729D03*
X029018Y030473D03*
X029018Y030217D03*
X028388Y030217D03*
X028388Y030473D03*
X028388Y030729D03*
D12*
X027183Y029948D03*
X027183Y029279D03*
X025983Y029539D03*
X025983Y030208D03*
X025003Y030208D03*
X025003Y029539D03*
X024003Y029539D03*
X024003Y030208D03*
X023103Y029968D03*
X023103Y029299D03*
X019913Y031609D03*
X019913Y032278D03*
X024453Y025607D03*
X024453Y024859D03*
X024413Y022698D03*
X024413Y022029D03*
X025863Y021999D03*
X025863Y022668D03*
X027293Y022668D03*
X027293Y021999D03*
X028733Y021769D03*
X028733Y022438D03*
X029683Y022438D03*
X029683Y021769D03*
X030613Y021759D03*
X030613Y022428D03*
X032873Y020828D03*
X032873Y020159D03*
X022943Y022009D03*
X022943Y022678D03*
X019923Y020798D03*
X019923Y020129D03*
X030203Y029239D03*
X030203Y029908D03*
X031703Y030108D03*
X031703Y029439D03*
X032883Y031679D03*
X032883Y032348D03*
D13*
X025098Y028323D03*
X024429Y028323D03*
X024429Y027523D03*
X025098Y027523D03*
X022677Y024313D03*
X021929Y024313D03*
X020808Y023913D03*
X020139Y023913D03*
X020139Y024803D03*
X020808Y024803D03*
X020808Y025823D03*
X020139Y025823D03*
X020139Y026703D03*
X020808Y026703D03*
X020827Y027643D03*
X020079Y027643D03*
X020059Y028573D03*
X020807Y028573D03*
X020769Y029873D03*
X021438Y029873D03*
X032229Y025563D03*
X032898Y025563D03*
X032888Y024283D03*
X032219Y024283D03*
D14*
X030563Y021047D03*
X030563Y020220D03*
X029643Y020230D03*
X029643Y021057D03*
X028693Y021057D03*
X028693Y020230D03*
D15*
X033973Y028453D03*
D16*
X032973Y028453D03*
X032973Y029453D03*
X032973Y030453D03*
X033973Y030453D03*
X033973Y029453D03*
D17*
X033993Y027263D03*
X033993Y026263D03*
X033993Y025263D03*
X033993Y024263D03*
X033993Y023263D03*
X033993Y022263D03*
X020313Y021873D03*
X020313Y022873D03*
X018933Y023063D03*
X018933Y022063D03*
X018933Y024063D03*
X018903Y025603D03*
X018903Y026603D03*
X018903Y027603D03*
X018903Y028603D03*
X018903Y029603D03*
X018903Y030603D03*
D18*
X018503Y031827D03*
X018503Y032319D03*
X018503Y020619D03*
X018503Y020127D03*
X034303Y020127D03*
X034303Y020619D03*
X034303Y031827D03*
X034303Y032319D03*
D19*
X023723Y032473D03*
X023723Y030973D03*
X021723Y030973D03*
X021723Y032473D03*
D20*
X022087Y022625D03*
X021339Y022625D03*
X021339Y021602D03*
X021713Y021602D03*
X022087Y021602D03*
D21*
X027227Y024332D03*
X027424Y024332D03*
X027621Y024332D03*
X027818Y024332D03*
X028014Y024332D03*
X028211Y024332D03*
X028408Y024332D03*
X028605Y024332D03*
X028802Y024332D03*
X028999Y024332D03*
X029195Y024332D03*
X029392Y024332D03*
X029589Y024332D03*
X029786Y024332D03*
X029983Y024332D03*
X030180Y024332D03*
X030180Y028175D03*
X029983Y028175D03*
X029786Y028175D03*
X029589Y028175D03*
X029392Y028175D03*
X029195Y028175D03*
X028999Y028175D03*
X028802Y028175D03*
X028605Y028175D03*
X028408Y028175D03*
X028211Y028175D03*
X028014Y028175D03*
X027818Y028175D03*
X027621Y028175D03*
X027424Y028175D03*
X027227Y028175D03*
D22*
X026782Y027730D03*
X026782Y027533D03*
X026782Y027336D03*
X026782Y027139D03*
X026782Y026942D03*
X026782Y026745D03*
X026782Y026549D03*
X026782Y026352D03*
X026782Y026155D03*
X026782Y025958D03*
X026782Y025761D03*
X026782Y025564D03*
X026782Y025368D03*
X026782Y025171D03*
X026782Y024974D03*
X026782Y024777D03*
X030625Y024777D03*
X030625Y024974D03*
X030625Y025171D03*
X030625Y025368D03*
X030625Y025564D03*
X030625Y025761D03*
X030625Y025958D03*
X030625Y026155D03*
X030625Y026352D03*
X030625Y026549D03*
X030625Y026745D03*
X030625Y026942D03*
X030625Y027139D03*
X030625Y027336D03*
X030625Y027533D03*
X030625Y027730D03*
D23*
X028703Y026253D03*
D24*
X031465Y022866D03*
X031465Y021961D03*
X032922Y021961D03*
X032922Y022866D03*
D25*
X023452Y026051D03*
X023452Y026248D03*
X023452Y026445D03*
X023452Y026642D03*
X023452Y026839D03*
X023452Y027035D03*
X021775Y027035D03*
X021775Y026839D03*
X021775Y026642D03*
X021775Y026445D03*
X021775Y026248D03*
X021775Y026051D03*
D26*
X022121Y025705D03*
X022318Y025705D03*
X022515Y025705D03*
X022712Y025705D03*
X022909Y025705D03*
X023105Y025705D03*
X023105Y027382D03*
X022909Y027382D03*
X022712Y027382D03*
X022515Y027382D03*
X022318Y027382D03*
X022121Y027382D03*
D27*
X022683Y021173D03*
X023423Y021173D03*
X024163Y021163D03*
X024903Y021163D03*
X025623Y021163D03*
X026363Y021163D03*
X027053Y021173D03*
X027793Y021173D03*
X027423Y020313D03*
X025993Y020303D03*
X024533Y020303D03*
X023053Y020313D03*
D28*
X020723Y019941D03*
X020723Y020925D03*
X032133Y020945D03*
X032133Y019961D03*
X032063Y031371D03*
X032063Y032355D03*
X020673Y032425D03*
X020673Y031441D03*
D29*
X020163Y029893D03*
X022403Y030173D03*
X021983Y028473D03*
X021373Y027293D03*
X019443Y026113D03*
X019053Y024793D03*
X021383Y023673D03*
X022103Y023153D03*
X022833Y023493D03*
X023453Y023183D03*
X023513Y024103D03*
X024383Y023443D03*
X025743Y023563D03*
X026303Y024373D03*
X025903Y024973D03*
X025486Y024682D03*
X025493Y025873D03*
X025463Y026443D03*
X028013Y028773D03*
X031493Y025763D03*
X032113Y024933D03*
X030473Y023863D03*
X030603Y023453D03*
X030103Y023433D03*
X029703Y023573D03*
X028303Y023463D03*
X027883Y023473D03*
X027433Y023463D03*
X027043Y020313D03*
X025613Y020313D03*
X024193Y020303D03*
X022663Y020313D03*
X032413Y026943D03*
X032993Y027363D03*
X032203Y027813D03*
X032843Y026223D03*
X033063Y023633D03*
D30*
X017643Y020472D02*
X017643Y019173D01*
X018871Y019173D01*
X018948Y019265D01*
X018948Y019274D01*
X018993Y019318D01*
X019034Y019367D01*
X019042Y019367D01*
X019048Y019373D01*
X019111Y019373D01*
X019174Y019379D01*
X019180Y019373D01*
X033784Y019373D01*
X033796Y019361D01*
X033798Y019361D01*
X033807Y019350D01*
X033883Y019274D01*
X033883Y019259D01*
X033956Y019173D01*
X035203Y019173D01*
X035203Y020447D01*
X035087Y020589D01*
X035043Y020633D01*
X035043Y020643D01*
X035037Y020650D01*
X035043Y020712D01*
X035043Y031765D01*
X035037Y031827D01*
X035043Y031834D01*
X035043Y031844D01*
X035087Y031888D01*
X035203Y032030D01*
X035203Y033303D01*
X033956Y033303D01*
X033883Y033217D01*
X033883Y033209D01*
X033839Y033164D01*
X033798Y033116D01*
X033790Y033115D01*
X033784Y033109D01*
X033721Y033109D01*
X033658Y033104D01*
X033651Y033109D01*
X031183Y033109D01*
X031183Y030933D01*
X031084Y030833D01*
X029346Y030833D01*
X029346Y030590D01*
X029324Y030568D01*
X029326Y030562D01*
X029326Y030473D01*
X029018Y030473D01*
X031683Y030473D01*
X031703Y030453D01*
X031703Y030108D01*
X031223Y030108D01*
X031223Y027139D01*
X030625Y027139D01*
X029079Y027139D01*
X028999Y027059D01*
X028408Y026469D01*
X028211Y026272D01*
X027683Y026272D01*
X027603Y026352D01*
X026782Y026352D01*
X026776Y026543D02*
X026782Y026549D01*
X026776Y026543D02*
X025913Y026543D01*
X025833Y026623D01*
X025833Y026843D01*
X025641Y027035D01*
X025098Y027035D01*
X023452Y027035D01*
X023452Y026839D02*
X025098Y026839D01*
X025098Y026642D01*
X023452Y026642D01*
X023452Y026445D02*
X025098Y026445D01*
X025103Y026445D01*
X025103Y024653D01*
X025103Y024353D01*
X023763Y024353D01*
X023513Y024103D01*
X023513Y024053D01*
X023263Y023803D01*
X022133Y023803D01*
X021343Y023013D01*
X021343Y022629D01*
X021339Y022625D01*
X021061Y022651D02*
X020784Y022651D01*
X020795Y022674D02*
X020821Y022752D01*
X020832Y022823D01*
X020363Y022823D01*
X020363Y022923D01*
X020263Y022923D01*
X020263Y022823D01*
X019854Y022823D01*
X019845Y022845D01*
X019775Y022915D01*
X019695Y022995D01*
X019678Y023002D01*
X019448Y023232D01*
X019391Y023369D01*
X019239Y023521D01*
X019137Y023563D01*
X019239Y023606D01*
X019391Y023757D01*
X019414Y023813D01*
X019480Y023813D01*
X019622Y023671D01*
X019713Y023634D01*
X019713Y023548D01*
X019812Y023448D01*
X020465Y023448D01*
X020495Y023478D01*
X020532Y023468D01*
X020758Y023468D01*
X020758Y023863D01*
X020858Y023863D01*
X020858Y023468D01*
X021084Y023468D01*
X021122Y023478D01*
X021156Y023498D01*
X021184Y023526D01*
X021204Y023560D01*
X021214Y023598D01*
X021214Y023863D01*
X020858Y023863D01*
X020858Y023963D01*
X021214Y023963D01*
X021214Y024228D01*
X021204Y024267D01*
X021184Y024301D01*
X021161Y024323D01*
X021393Y024323D01*
X021413Y023863D01*
X021882Y023863D01*
X021252Y023233D01*
X021123Y023104D01*
X021123Y022994D01*
X021061Y022932D01*
X021061Y022319D01*
X021161Y022219D01*
X021518Y022219D01*
X021618Y022319D01*
X021618Y022932D01*
X021595Y022954D01*
X021773Y023132D01*
X021773Y023088D01*
X021824Y022966D01*
X021834Y022956D01*
X021809Y022932D01*
X021809Y022319D01*
X021909Y022219D01*
X022266Y022219D01*
X022366Y022319D01*
X022366Y022932D01*
X022357Y022940D01*
X022383Y022966D01*
X022433Y023088D01*
X022433Y023219D01*
X022383Y023340D01*
X022290Y023433D01*
X022169Y023483D01*
X022124Y023483D01*
X022224Y023583D01*
X023354Y023583D01*
X023544Y023773D01*
X023579Y023773D01*
X023700Y023824D01*
X023740Y023863D01*
X025483Y023863D01*
X025481Y024352D01*
X025551Y024352D01*
X025673Y024402D01*
X025766Y024495D01*
X025816Y024616D01*
X025816Y024652D01*
X025838Y024643D01*
X025969Y024643D01*
X026083Y024691D01*
X026083Y024620D01*
X026024Y024560D01*
X025973Y024439D01*
X025973Y024308D01*
X026024Y024186D01*
X026116Y024094D01*
X026238Y024043D01*
X026369Y024043D01*
X026490Y024094D01*
X026583Y024186D01*
X026633Y024308D01*
X026633Y024439D01*
X026587Y024552D01*
X027022Y024552D01*
X027022Y024332D01*
X027199Y024332D01*
X027199Y024332D01*
X027022Y024332D01*
X027022Y024004D01*
X027032Y023966D01*
X027052Y023932D01*
X027080Y023904D01*
X027114Y023885D01*
X027012Y023783D01*
X025990Y023783D01*
X025930Y023843D01*
X025809Y023893D01*
X025678Y023893D01*
X025556Y023843D01*
X025464Y023750D01*
X025413Y023629D01*
X025413Y023498D01*
X025464Y023376D01*
X025556Y023284D01*
X025678Y023233D01*
X025809Y023233D01*
X025930Y023284D01*
X025990Y023343D01*
X027126Y023343D01*
X027134Y023323D01*
X026768Y023323D01*
X026332Y022888D01*
X026329Y022888D01*
X026329Y022994D01*
X026229Y023094D01*
X025498Y023094D01*
X025398Y022994D01*
X025398Y022342D01*
X025428Y022312D01*
X025418Y022274D01*
X025418Y022049D01*
X025813Y022049D01*
X025813Y021949D01*
X025418Y021949D01*
X025418Y021723D01*
X025428Y021685D01*
X025448Y021651D01*
X025476Y021623D01*
X025510Y021603D01*
X025548Y021593D01*
X025813Y021593D01*
X025813Y021949D01*
X025913Y021949D01*
X025913Y021593D01*
X026178Y021593D01*
X026203Y021599D01*
X026203Y021593D01*
X026183Y021593D01*
X026083Y021494D01*
X026083Y020833D01*
X026183Y020733D01*
X026544Y020733D01*
X026643Y020833D01*
X026643Y022577D01*
X026828Y022762D01*
X026828Y022342D01*
X026858Y022312D01*
X026848Y022274D01*
X026848Y022049D01*
X027243Y022049D01*
X027243Y021949D01*
X026848Y021949D01*
X026848Y021723D01*
X026858Y021685D01*
X026878Y021651D01*
X026906Y021623D01*
X026940Y021603D01*
X026978Y021593D01*
X027243Y021593D01*
X027243Y021949D01*
X027343Y021949D01*
X027343Y021593D01*
X027602Y021593D01*
X027513Y021504D01*
X027513Y020843D01*
X027613Y020743D01*
X027974Y020743D01*
X028073Y020843D01*
X028073Y022453D01*
X028268Y022453D01*
X028268Y022112D01*
X028276Y022103D01*
X028268Y022095D01*
X028268Y021442D01*
X028317Y021393D01*
X028287Y021363D01*
X028287Y020750D01*
X028387Y020650D01*
X029000Y020650D01*
X029100Y020750D01*
X029100Y021343D01*
X029199Y021442D01*
X029199Y022095D01*
X029190Y022103D01*
X029199Y022112D01*
X029199Y022287D01*
X029218Y022307D01*
X029218Y022112D01*
X029226Y022103D01*
X029218Y022095D01*
X029218Y021442D01*
X029267Y021393D01*
X029237Y021363D01*
X029237Y020750D01*
X029337Y020650D01*
X029950Y020650D01*
X030050Y020750D01*
X030050Y021343D01*
X030148Y021442D01*
X030148Y021432D01*
X030192Y021388D01*
X030157Y021353D01*
X030157Y020740D01*
X030257Y020640D01*
X030870Y020640D01*
X030970Y020740D01*
X030970Y021333D01*
X030979Y021333D01*
X031079Y021432D01*
X031079Y021574D01*
X031383Y021574D01*
X031353Y021503D01*
X031353Y020023D01*
X030950Y020023D01*
X030950Y020170D01*
X030613Y020170D01*
X030613Y020270D01*
X030513Y020270D01*
X030513Y020170D01*
X030177Y020170D01*
X030177Y020023D01*
X030030Y020023D01*
X030030Y020180D01*
X029693Y020180D01*
X029693Y020280D01*
X029593Y020280D01*
X029593Y020180D01*
X029257Y020180D01*
X029257Y020023D01*
X029080Y020023D01*
X029080Y020180D01*
X028743Y020180D01*
X028743Y020280D01*
X028643Y020280D01*
X028643Y020180D01*
X028307Y020180D01*
X028307Y020023D01*
X027703Y020023D01*
X027703Y020644D01*
X027604Y020743D01*
X027243Y020743D01*
X027143Y020644D01*
X027143Y020629D01*
X027109Y020643D01*
X026978Y020643D01*
X026856Y020593D01*
X026764Y020500D01*
X026713Y020379D01*
X026713Y020248D01*
X026764Y020126D01*
X026856Y020034D01*
X026881Y020023D01*
X026273Y020023D01*
X026273Y020634D01*
X026174Y020733D01*
X025813Y020733D01*
X025713Y020634D01*
X025713Y020629D01*
X025679Y020643D01*
X025548Y020643D01*
X025426Y020593D01*
X025334Y020500D01*
X025283Y020379D01*
X025283Y020248D01*
X025334Y020126D01*
X025426Y020034D01*
X025451Y020023D01*
X024813Y020023D01*
X024813Y020634D01*
X024714Y020733D01*
X024353Y020733D01*
X024253Y020634D01*
X024253Y020633D01*
X024128Y020633D01*
X024006Y020583D01*
X023914Y020490D01*
X023863Y020369D01*
X023863Y020238D01*
X023914Y020116D01*
X024006Y020024D01*
X024007Y020023D01*
X023333Y020023D01*
X023333Y020644D01*
X023234Y020743D01*
X022873Y020743D01*
X022773Y020644D01*
X022773Y020625D01*
X022729Y020643D01*
X022598Y020643D01*
X022476Y020593D01*
X022384Y020500D01*
X022333Y020379D01*
X022333Y020248D01*
X022384Y020126D01*
X022476Y020034D01*
X022501Y020023D01*
X021583Y020023D01*
X021583Y020693D01*
X022123Y020693D01*
X022215Y020731D01*
X022285Y020802D01*
X022323Y020894D01*
X022323Y021253D01*
X022366Y021295D01*
X022366Y021908D01*
X022266Y022008D01*
X021909Y022008D01*
X021879Y021978D01*
X021841Y021988D01*
X021717Y021988D01*
X021717Y021606D01*
X021709Y021606D01*
X021709Y021988D01*
X021585Y021988D01*
X021548Y021978D01*
X021518Y022008D01*
X021161Y022008D01*
X021061Y021908D01*
X021061Y021295D01*
X021093Y021263D01*
X021093Y021183D01*
X020981Y021183D01*
X020912Y021253D01*
X020535Y021253D01*
X020457Y021175D01*
X020337Y021175D01*
X020289Y021224D01*
X019558Y021224D01*
X019458Y021124D01*
X019458Y020869D01*
X018774Y020869D01*
X018712Y020932D01*
X018577Y020988D01*
X018573Y020988D01*
X018573Y021660D01*
X018627Y021606D01*
X018826Y021523D01*
X019041Y021523D01*
X019239Y021606D01*
X019391Y021757D01*
X019473Y021956D01*
X019473Y021980D01*
X019731Y021722D01*
X019802Y021651D01*
X019825Y021642D01*
X019856Y021567D01*
X019147Y021567D01*
X019300Y021666D02*
X019787Y021666D01*
X019856Y021567D02*
X020007Y021416D01*
X020206Y021333D01*
X020421Y021333D01*
X020619Y021416D01*
X020771Y021567D01*
X021061Y021567D01*
X021061Y021469D02*
X020673Y021469D01*
X020771Y021567D02*
X020853Y021766D01*
X020853Y021981D01*
X020771Y022179D01*
X020619Y022331D01*
X020491Y022384D01*
X020513Y022391D01*
X020586Y022429D01*
X020652Y022477D01*
X020710Y022535D01*
X020758Y022601D01*
X020795Y022674D01*
X020820Y022749D02*
X021061Y022749D01*
X021061Y022848D02*
X020363Y022848D01*
X020363Y022923D02*
X020832Y022923D01*
X020821Y022995D01*
X020795Y023073D01*
X020758Y023146D01*
X020710Y023212D01*
X020652Y023270D01*
X020586Y023318D01*
X020513Y023355D01*
X020435Y023381D01*
X020363Y023392D01*
X020363Y022923D01*
X020363Y022946D02*
X020263Y022946D01*
X020263Y022923D02*
X020263Y023392D01*
X020192Y023381D01*
X020114Y023355D01*
X020041Y023318D01*
X019975Y023270D01*
X019917Y023212D01*
X019869Y023146D01*
X019831Y023073D01*
X019806Y022995D01*
X019795Y022923D01*
X020263Y022923D01*
X020263Y022848D02*
X019842Y022848D01*
X019798Y022946D02*
X019744Y022946D01*
X019822Y023045D02*
X019635Y023045D01*
X019537Y023143D02*
X019867Y023143D01*
X019946Y023242D02*
X019444Y023242D01*
X019403Y023340D02*
X020084Y023340D01*
X020263Y023340D02*
X020363Y023340D01*
X020363Y023242D02*
X020263Y023242D01*
X020263Y023143D02*
X020363Y023143D01*
X020363Y023045D02*
X020263Y023045D01*
X020542Y023340D02*
X021359Y023340D01*
X021261Y023242D02*
X020680Y023242D01*
X020759Y023143D02*
X021162Y023143D01*
X021123Y023045D02*
X020804Y023045D01*
X020828Y022946D02*
X021076Y022946D01*
X021061Y022552D02*
X020723Y022552D01*
X020621Y022454D02*
X021061Y022454D01*
X021061Y022355D02*
X020561Y022355D01*
X020693Y022257D02*
X021123Y022257D01*
X021114Y021961D02*
X020853Y021961D01*
X020853Y021863D02*
X021061Y021863D01*
X021061Y021764D02*
X020853Y021764D01*
X020812Y021666D02*
X021061Y021666D01*
X021061Y021370D02*
X020510Y021370D01*
X020117Y021370D02*
X018573Y021370D01*
X018573Y021272D02*
X021084Y021272D01*
X021593Y021215D02*
X021593Y021193D01*
X021823Y021193D01*
X021823Y021215D01*
X021717Y021215D01*
X021717Y021597D01*
X021709Y021597D01*
X021709Y021215D01*
X021593Y021215D01*
X021709Y021272D02*
X021717Y021272D01*
X021709Y021370D02*
X021717Y021370D01*
X021709Y021469D02*
X021717Y021469D01*
X021709Y021567D02*
X021717Y021567D01*
X021709Y021666D02*
X021717Y021666D01*
X021709Y021764D02*
X021717Y021764D01*
X021709Y021863D02*
X021717Y021863D01*
X021709Y021961D02*
X021717Y021961D01*
X021871Y022257D02*
X021556Y022257D01*
X021618Y022355D02*
X021809Y022355D01*
X021809Y022454D02*
X021618Y022454D01*
X021618Y022552D02*
X021809Y022552D01*
X021809Y022651D02*
X021618Y022651D01*
X021618Y022749D02*
X021809Y022749D01*
X021809Y022848D02*
X021618Y022848D01*
X021603Y022946D02*
X021824Y022946D01*
X021791Y023045D02*
X021686Y023045D01*
X022103Y023153D02*
X022103Y022641D01*
X022087Y022625D01*
X022366Y022651D02*
X022478Y022651D01*
X022478Y022749D02*
X022366Y022749D01*
X022366Y022848D02*
X022478Y022848D01*
X022478Y022946D02*
X022363Y022946D01*
X022416Y023045D02*
X022519Y023045D01*
X022478Y023004D02*
X022478Y022352D01*
X022508Y022322D01*
X022498Y022284D01*
X022498Y022059D01*
X022893Y022059D01*
X022893Y021959D01*
X022498Y021959D01*
X022498Y021733D01*
X022508Y021695D01*
X022528Y021661D01*
X022556Y021633D01*
X022590Y021613D01*
X022628Y021603D01*
X022893Y021603D01*
X022893Y021959D01*
X022993Y021959D01*
X022993Y021603D01*
X023242Y021603D01*
X023143Y021504D01*
X023143Y020843D01*
X023243Y020743D01*
X023604Y020743D01*
X023703Y020843D01*
X023703Y021113D01*
X023715Y021130D01*
X023703Y021202D01*
X023703Y022769D01*
X023590Y022883D01*
X023640Y022904D01*
X023733Y022996D01*
X023783Y023118D01*
X023783Y023249D01*
X023733Y023370D01*
X023640Y023463D01*
X023519Y023513D01*
X023388Y023513D01*
X023266Y023463D01*
X023207Y023403D01*
X022852Y023403D01*
X022723Y023274D01*
X022723Y023104D01*
X022578Y023104D01*
X022478Y023004D01*
X022433Y023143D02*
X022723Y023143D01*
X022723Y023242D02*
X022424Y023242D01*
X022383Y023340D02*
X022789Y023340D01*
X022833Y023493D02*
X023873Y023493D01*
X023883Y023483D01*
X024203Y023803D01*
X025033Y023803D01*
X025273Y024043D01*
X026543Y024043D01*
X026903Y024403D01*
X027225Y024403D01*
X027227Y024332D01*
X027227Y024685D01*
X027624Y025082D01*
X027624Y024402D01*
X027621Y024332D01*
X027424Y024332D02*
X027423Y024401D01*
X027423Y023883D01*
X027103Y023563D01*
X025743Y023563D01*
X025438Y023439D02*
X024713Y023439D01*
X024713Y023378D02*
X024713Y023509D01*
X024663Y023630D01*
X024570Y023723D01*
X024449Y023773D01*
X024318Y023773D01*
X024196Y023723D01*
X024104Y023630D01*
X024053Y023509D01*
X024053Y023378D01*
X024104Y023256D01*
X024163Y023197D01*
X024163Y023124D01*
X024048Y023124D01*
X023948Y023024D01*
X023948Y022372D01*
X023978Y022342D01*
X023968Y022304D01*
X023968Y022079D01*
X024363Y022079D01*
X024363Y021979D01*
X023968Y021979D01*
X023968Y021753D01*
X023978Y021715D01*
X023998Y021681D01*
X024026Y021653D01*
X024060Y021633D01*
X024098Y021623D01*
X024363Y021623D01*
X024363Y021979D01*
X024463Y021979D01*
X024463Y021623D01*
X024728Y021623D01*
X024743Y021627D01*
X024743Y021593D01*
X024723Y021593D01*
X024623Y021494D01*
X024623Y020833D01*
X024723Y020733D01*
X025084Y020733D01*
X025183Y020833D01*
X025183Y022789D01*
X025054Y022918D01*
X024879Y022918D01*
X024879Y023024D01*
X024779Y023124D01*
X024603Y023124D01*
X024603Y023197D01*
X024663Y023256D01*
X024713Y023378D01*
X024698Y023340D02*
X025500Y023340D01*
X025657Y023242D02*
X024649Y023242D01*
X024603Y023143D02*
X026588Y023143D01*
X026686Y023242D02*
X025830Y023242D01*
X025987Y023340D02*
X027127Y023340D01*
X027433Y023463D02*
X027743Y023773D01*
X027823Y023773D01*
X028023Y023973D01*
X028023Y024411D01*
X028014Y024332D01*
X028211Y024332D02*
X028211Y023801D01*
X027883Y023473D01*
X028303Y023463D02*
X028403Y023563D01*
X028403Y024397D01*
X028408Y024332D01*
X028605Y024332D02*
X028605Y023105D01*
X028603Y023103D01*
X026859Y023103D01*
X026423Y022668D01*
X025863Y022668D01*
X025398Y022651D02*
X025183Y022651D01*
X025183Y022749D02*
X025398Y022749D01*
X025398Y022848D02*
X025125Y022848D01*
X024963Y022698D02*
X024413Y022698D01*
X024383Y022508D01*
X024383Y023443D01*
X024053Y023439D02*
X023665Y023439D01*
X023745Y023340D02*
X024069Y023340D01*
X024118Y023242D02*
X023783Y023242D01*
X023783Y023143D02*
X024163Y023143D01*
X023969Y023045D02*
X023753Y023045D01*
X023683Y022946D02*
X023948Y022946D01*
X023948Y022848D02*
X023625Y022848D01*
X023703Y022749D02*
X023948Y022749D01*
X023948Y022651D02*
X023703Y022651D01*
X023703Y022552D02*
X023948Y022552D01*
X023948Y022454D02*
X023703Y022454D01*
X023703Y022355D02*
X023964Y022355D01*
X023968Y022257D02*
X023703Y022257D01*
X023703Y022158D02*
X023968Y022158D01*
X023968Y021961D02*
X023703Y021961D01*
X023703Y021863D02*
X023968Y021863D01*
X023968Y021764D02*
X023703Y021764D01*
X023703Y021666D02*
X024013Y021666D01*
X024034Y021573D02*
X023995Y021563D01*
X023961Y021543D01*
X023933Y021515D01*
X023914Y021481D01*
X023903Y021443D01*
X023903Y021168D01*
X024158Y021168D01*
X024158Y021158D01*
X024168Y021158D01*
X024168Y020753D01*
X024293Y020753D01*
X024331Y020764D01*
X024365Y020783D01*
X024393Y020811D01*
X024413Y020845D01*
X024423Y020884D01*
X024423Y021158D01*
X024168Y021158D01*
X024168Y021168D01*
X024158Y021168D01*
X024158Y021573D01*
X024034Y021573D01*
X024011Y021567D02*
X023703Y021567D01*
X023703Y021469D02*
X023910Y021469D01*
X023903Y021370D02*
X023703Y021370D01*
X023703Y021272D02*
X023903Y021272D01*
X023903Y021173D02*
X023708Y021173D01*
X023703Y021075D02*
X023903Y021075D01*
X023903Y021158D02*
X023903Y020884D01*
X023914Y020845D01*
X023933Y020811D01*
X023961Y020783D01*
X023995Y020764D01*
X024034Y020753D01*
X024158Y020753D01*
X024158Y021158D01*
X023903Y021158D01*
X023903Y020976D02*
X023703Y020976D01*
X023703Y020878D02*
X023905Y020878D01*
X023968Y020779D02*
X023640Y020779D01*
X023296Y020681D02*
X024300Y020681D01*
X024359Y020779D02*
X024677Y020779D01*
X024623Y020878D02*
X024422Y020878D01*
X024423Y020976D02*
X024623Y020976D01*
X024623Y021075D02*
X024423Y021075D01*
X024423Y021168D02*
X024423Y021443D01*
X024413Y021481D01*
X024393Y021515D01*
X024365Y021543D01*
X024331Y021563D01*
X024293Y021573D01*
X024168Y021573D01*
X024168Y021168D01*
X024423Y021168D01*
X024423Y021173D02*
X024623Y021173D01*
X024623Y021272D02*
X024423Y021272D01*
X024423Y021370D02*
X024623Y021370D01*
X024623Y021469D02*
X024416Y021469D01*
X024315Y021567D02*
X024697Y021567D01*
X024463Y021666D02*
X024363Y021666D01*
X024363Y021764D02*
X024463Y021764D01*
X024463Y021863D02*
X024363Y021863D01*
X024363Y021961D02*
X024463Y021961D01*
X024413Y022029D02*
X024163Y021789D01*
X024163Y021163D01*
X024163Y020783D01*
X024183Y020763D01*
X025633Y020763D01*
X025623Y020773D01*
X025623Y021163D01*
X025623Y021779D01*
X025863Y021999D01*
X025963Y021789D01*
X025913Y021764D02*
X025813Y021764D01*
X025813Y021666D02*
X025913Y021666D01*
X025825Y021543D02*
X025791Y021563D01*
X025753Y021573D01*
X025628Y021573D01*
X025628Y021168D01*
X025618Y021168D01*
X025618Y021158D01*
X025628Y021158D01*
X025628Y020753D01*
X025753Y020753D01*
X025791Y020764D01*
X025825Y020783D01*
X025853Y020811D01*
X025873Y020845D01*
X025883Y020884D01*
X025883Y021158D01*
X025628Y021158D01*
X025628Y021168D01*
X025883Y021168D01*
X025883Y021443D01*
X025873Y021481D01*
X025853Y021515D01*
X025825Y021543D01*
X025775Y021567D02*
X026157Y021567D01*
X026083Y021469D02*
X025876Y021469D01*
X025883Y021370D02*
X026083Y021370D01*
X026083Y021272D02*
X025883Y021272D01*
X025883Y021173D02*
X026083Y021173D01*
X026083Y021075D02*
X025883Y021075D01*
X025883Y020976D02*
X026083Y020976D01*
X026083Y020878D02*
X025882Y020878D01*
X025819Y020779D02*
X026137Y020779D01*
X026226Y020681D02*
X027180Y020681D01*
X027183Y020763D02*
X027221Y020774D01*
X027255Y020793D01*
X027283Y020821D01*
X027303Y020855D01*
X027313Y020894D01*
X027313Y021168D01*
X027058Y021168D01*
X027058Y020763D01*
X027183Y020763D01*
X027231Y020779D02*
X027577Y020779D01*
X027513Y020878D02*
X027309Y020878D01*
X027313Y020976D02*
X027513Y020976D01*
X027513Y021075D02*
X027313Y021075D01*
X027313Y021178D02*
X027313Y021453D01*
X027303Y021491D01*
X027283Y021525D01*
X027255Y021553D01*
X027221Y021573D01*
X027183Y021583D01*
X027058Y021583D01*
X027058Y021178D01*
X027048Y021178D01*
X027048Y021168D01*
X027058Y021168D01*
X027058Y021178D01*
X027313Y021178D01*
X027313Y021272D02*
X027513Y021272D01*
X027513Y021370D02*
X027313Y021370D01*
X027309Y021469D02*
X027513Y021469D01*
X027577Y021567D02*
X027231Y021567D01*
X027243Y021666D02*
X027343Y021666D01*
X027343Y021764D02*
X027243Y021764D01*
X027243Y021863D02*
X027343Y021863D01*
X027393Y021779D02*
X027293Y021999D01*
X027053Y021769D01*
X027053Y021173D01*
X027053Y020803D01*
X027093Y020763D01*
X027813Y020763D01*
X028193Y020223D01*
X028687Y020223D01*
X028693Y020230D01*
X029643Y020230D01*
X030553Y020230D01*
X030563Y020220D01*
X030513Y020188D02*
X029693Y020188D01*
X029693Y020280D02*
X030030Y020280D01*
X030030Y020486D01*
X030019Y020524D01*
X030000Y020558D01*
X029972Y020586D01*
X029937Y020606D01*
X029899Y020616D01*
X029693Y020616D01*
X029693Y020280D01*
X029693Y020287D02*
X029593Y020287D01*
X029593Y020280D02*
X029593Y020616D01*
X029387Y020616D01*
X029349Y020606D01*
X029315Y020586D01*
X029287Y020558D01*
X029267Y020524D01*
X029257Y020486D01*
X029257Y020280D01*
X029593Y020280D01*
X029593Y020188D02*
X028743Y020188D01*
X028743Y020280D02*
X029080Y020280D01*
X029080Y020486D01*
X029069Y020524D01*
X029050Y020558D01*
X029022Y020586D01*
X028987Y020606D01*
X028949Y020616D01*
X028743Y020616D01*
X028743Y020280D01*
X028743Y020287D02*
X028643Y020287D01*
X028643Y020280D02*
X028643Y020616D01*
X028437Y020616D01*
X028399Y020606D01*
X028365Y020586D01*
X028337Y020558D01*
X028317Y020524D01*
X028307Y020486D01*
X028307Y020280D01*
X028643Y020280D01*
X028643Y020188D02*
X027703Y020188D01*
X027703Y020090D02*
X028307Y020090D01*
X028307Y020287D02*
X027703Y020287D01*
X027703Y020385D02*
X028307Y020385D01*
X028307Y020484D02*
X027703Y020484D01*
X027703Y020582D02*
X028361Y020582D01*
X028356Y020681D02*
X027666Y020681D01*
X028010Y020779D02*
X028287Y020779D01*
X028287Y020878D02*
X028073Y020878D01*
X028073Y020976D02*
X028287Y020976D01*
X028287Y021075D02*
X028073Y021075D01*
X028073Y021173D02*
X028287Y021173D01*
X028287Y021272D02*
X028073Y021272D01*
X028073Y021370D02*
X028294Y021370D01*
X028268Y021469D02*
X028073Y021469D01*
X028073Y021567D02*
X028268Y021567D01*
X028268Y021666D02*
X028073Y021666D01*
X028073Y021764D02*
X028268Y021764D01*
X028268Y021863D02*
X028073Y021863D01*
X028073Y021961D02*
X028268Y021961D01*
X028268Y022060D02*
X028073Y022060D01*
X028073Y022158D02*
X028268Y022158D01*
X028268Y022257D02*
X028073Y022257D01*
X028073Y022355D02*
X028268Y022355D01*
X028193Y022673D02*
X027853Y022673D01*
X027853Y022668D01*
X027293Y022668D01*
X026828Y022651D02*
X026717Y022651D01*
X026643Y022552D02*
X026828Y022552D01*
X026828Y022454D02*
X026643Y022454D01*
X026643Y022355D02*
X026828Y022355D01*
X026848Y022257D02*
X026643Y022257D01*
X026643Y022158D02*
X026848Y022158D01*
X026848Y022060D02*
X026643Y022060D01*
X026643Y021961D02*
X027243Y021961D01*
X026848Y021863D02*
X026643Y021863D01*
X026643Y021764D02*
X026848Y021764D01*
X026869Y021666D02*
X026643Y021666D01*
X026643Y021567D02*
X026875Y021567D01*
X026885Y021573D02*
X026851Y021553D01*
X026823Y021525D01*
X026804Y021491D01*
X026793Y021453D01*
X026793Y021178D01*
X027048Y021178D01*
X027048Y021583D01*
X026924Y021583D01*
X026885Y021573D01*
X026798Y021469D02*
X026643Y021469D01*
X026643Y021370D02*
X026793Y021370D01*
X026793Y021272D02*
X026643Y021272D01*
X026643Y021173D02*
X027048Y021173D01*
X027048Y021168D02*
X026793Y021168D01*
X026793Y020894D01*
X026804Y020855D01*
X026823Y020821D01*
X026851Y020793D01*
X026885Y020774D01*
X026924Y020763D01*
X027048Y020763D01*
X027048Y021168D01*
X027058Y021173D02*
X027513Y021173D01*
X027793Y021173D02*
X027853Y021173D01*
X027853Y022668D01*
X028193Y022673D02*
X028383Y022863D01*
X028793Y022863D01*
X028802Y022872D01*
X028802Y024332D01*
X028999Y024332D02*
X029003Y024397D01*
X029003Y022403D01*
X028983Y022393D01*
X028778Y022393D01*
X028733Y022438D01*
X028753Y022458D01*
X028743Y022458D02*
X028733Y022438D01*
X029199Y022257D02*
X029218Y022257D01*
X029218Y022158D02*
X029199Y022158D01*
X029199Y022060D02*
X029218Y022060D01*
X029218Y021961D02*
X029199Y021961D01*
X029199Y021863D02*
X029218Y021863D01*
X029218Y021764D02*
X029199Y021764D01*
X029199Y021666D02*
X029218Y021666D01*
X029218Y021567D02*
X029199Y021567D01*
X029199Y021469D02*
X029218Y021469D01*
X029244Y021370D02*
X029127Y021370D01*
X029100Y021272D02*
X029237Y021272D01*
X029237Y021173D02*
X029100Y021173D01*
X029100Y021075D02*
X029237Y021075D01*
X029237Y020976D02*
X029100Y020976D01*
X029100Y020878D02*
X029237Y020878D01*
X029237Y020779D02*
X029100Y020779D01*
X029030Y020681D02*
X029306Y020681D01*
X029311Y020582D02*
X029026Y020582D01*
X029080Y020484D02*
X029257Y020484D01*
X029257Y020385D02*
X029080Y020385D01*
X029080Y020287D02*
X029257Y020287D01*
X029257Y020090D02*
X029080Y020090D01*
X028743Y020385D02*
X028643Y020385D01*
X028643Y020484D02*
X028743Y020484D01*
X028743Y020582D02*
X028643Y020582D01*
X028693Y021057D02*
X028693Y021729D01*
X028733Y021769D01*
X029643Y021729D02*
X029643Y021057D01*
X030050Y021075D02*
X030157Y021075D01*
X030157Y021173D02*
X030050Y021173D01*
X030050Y021272D02*
X030157Y021272D01*
X030174Y021370D02*
X030077Y021370D01*
X030050Y020976D02*
X030157Y020976D01*
X030157Y020878D02*
X030050Y020878D01*
X030050Y020779D02*
X030157Y020779D01*
X030216Y020681D02*
X029980Y020681D01*
X029976Y020582D02*
X030246Y020582D01*
X030235Y020576D02*
X030207Y020548D01*
X030187Y020514D01*
X030177Y020476D01*
X030177Y020270D01*
X030513Y020270D01*
X030513Y020606D01*
X030307Y020606D01*
X030269Y020596D01*
X030235Y020576D01*
X030179Y020484D02*
X030030Y020484D01*
X030030Y020385D02*
X030177Y020385D01*
X030177Y020287D02*
X030030Y020287D01*
X030030Y020090D02*
X030177Y020090D01*
X030513Y020287D02*
X030613Y020287D01*
X030613Y020270D02*
X030613Y020606D01*
X030819Y020606D01*
X030857Y020596D01*
X030892Y020576D01*
X030920Y020548D01*
X030939Y020514D01*
X030950Y020476D01*
X030950Y020270D01*
X030613Y020270D01*
X030613Y020188D02*
X031353Y020188D01*
X031353Y020090D02*
X030950Y020090D01*
X030950Y020287D02*
X031353Y020287D01*
X031353Y020385D02*
X030950Y020385D01*
X030947Y020484D02*
X031353Y020484D01*
X031353Y020582D02*
X030881Y020582D01*
X030910Y020681D02*
X031353Y020681D01*
X031353Y020779D02*
X030970Y020779D01*
X030970Y020878D02*
X031353Y020878D01*
X031353Y020976D02*
X030970Y020976D01*
X030970Y021075D02*
X031353Y021075D01*
X031353Y021173D02*
X030970Y021173D01*
X030970Y021272D02*
X031353Y021272D01*
X031353Y021370D02*
X031017Y021370D01*
X031079Y021469D02*
X031353Y021469D01*
X031380Y021567D02*
X031079Y021567D01*
X030613Y021759D02*
X030563Y021709D01*
X030563Y021047D01*
X030513Y020582D02*
X030613Y020582D01*
X030613Y020484D02*
X030513Y020484D01*
X030513Y020385D02*
X030613Y020385D01*
X029693Y020385D02*
X029593Y020385D01*
X029593Y020484D02*
X029693Y020484D01*
X029693Y020582D02*
X029593Y020582D01*
X029643Y021729D02*
X029683Y021769D01*
X029683Y022438D02*
X029643Y022478D01*
X029643Y022803D01*
X029203Y023243D01*
X029203Y024394D01*
X029195Y024332D01*
X029392Y024332D02*
X029392Y024402D01*
X029383Y024393D01*
X029383Y023423D01*
X029803Y023003D01*
X030543Y023003D01*
X030623Y023003D01*
X031493Y023873D01*
X031493Y025763D01*
X031531Y025761D01*
X030625Y025761D01*
X030625Y025958D02*
X029604Y025958D01*
X029589Y025943D01*
X029589Y026388D01*
X029750Y026549D01*
X030625Y026549D01*
X030630Y026553D01*
X033123Y026553D01*
X033133Y026543D01*
X033133Y025609D01*
X032888Y025363D01*
X032888Y025553D01*
X032898Y025563D01*
X032948Y025606D02*
X033572Y025606D01*
X033536Y025569D02*
X033453Y025371D01*
X033453Y025156D01*
X033536Y024957D01*
X033687Y024806D01*
X033789Y024763D01*
X033687Y024721D01*
X033536Y024569D01*
X033491Y024462D01*
X033373Y024344D01*
X033262Y024233D01*
X032938Y024233D01*
X032938Y024333D01*
X033294Y024333D01*
X033294Y024598D01*
X033284Y024637D01*
X033264Y024671D01*
X033236Y024699D01*
X033202Y024718D01*
X033164Y024729D01*
X032938Y024729D01*
X032938Y024333D01*
X032838Y024333D01*
X032838Y024729D01*
X032612Y024729D01*
X032575Y024719D01*
X032545Y024749D01*
X032394Y024749D01*
X032443Y024868D01*
X032443Y024999D01*
X032402Y025098D01*
X032555Y025098D01*
X032585Y025128D01*
X032622Y025118D01*
X032848Y025118D01*
X032848Y025513D01*
X032948Y025513D01*
X032948Y025118D01*
X033174Y025118D01*
X033212Y025128D01*
X033246Y025148D01*
X033274Y025176D01*
X033294Y025210D01*
X033304Y025248D01*
X033304Y025513D01*
X032948Y025513D01*
X032948Y025613D01*
X033304Y025613D01*
X033304Y025878D01*
X033294Y025917D01*
X033274Y025951D01*
X033246Y025979D01*
X033212Y025998D01*
X033174Y026009D01*
X033095Y026009D01*
X033123Y026036D01*
X033173Y026158D01*
X033173Y026289D01*
X033123Y026410D01*
X033030Y026503D01*
X032909Y026553D01*
X032836Y026553D01*
X032822Y026569D01*
X032818Y026569D01*
X032814Y026572D01*
X032727Y026572D01*
X032640Y026575D01*
X032637Y026572D01*
X031803Y026572D01*
X032091Y026860D01*
X032134Y026756D01*
X032226Y026664D01*
X032348Y026613D01*
X032479Y026613D01*
X032600Y026664D01*
X032660Y026723D01*
X033414Y026723D01*
X033543Y026852D01*
X033543Y027001D01*
X033549Y026991D01*
X033597Y026925D01*
X033655Y026867D01*
X033721Y026819D01*
X033794Y026781D01*
X033816Y026774D01*
X033687Y026721D01*
X033536Y026569D01*
X033453Y026371D01*
X033453Y026156D01*
X033536Y025957D01*
X033687Y025806D01*
X033789Y025763D01*
X033687Y025721D01*
X033536Y025569D01*
X033510Y025507D02*
X033304Y025507D01*
X033304Y025409D02*
X033469Y025409D01*
X033453Y025310D02*
X033304Y025310D01*
X033294Y025212D02*
X033453Y025212D01*
X033471Y025113D02*
X032570Y025113D01*
X032437Y025015D02*
X033512Y025015D01*
X033577Y024916D02*
X032443Y024916D01*
X032423Y024818D02*
X033675Y024818D01*
X033686Y024719D02*
X033198Y024719D01*
X033288Y024621D02*
X033587Y024621D01*
X033516Y024522D02*
X033294Y024522D01*
X033294Y024424D02*
X033453Y024424D01*
X033354Y024325D02*
X032938Y024325D01*
X032888Y024283D02*
X032888Y025363D01*
X032848Y025409D02*
X032948Y025409D01*
X032948Y025507D02*
X032848Y025507D01*
X032848Y025310D02*
X032948Y025310D01*
X032948Y025212D02*
X032848Y025212D01*
X033304Y025704D02*
X033671Y025704D01*
X033694Y025803D02*
X033304Y025803D01*
X033298Y025901D02*
X033592Y025901D01*
X033518Y026000D02*
X033206Y026000D01*
X033149Y026098D02*
X033477Y026098D01*
X033453Y026197D02*
X033173Y026197D01*
X033171Y026295D02*
X033453Y026295D01*
X033463Y026394D02*
X033130Y026394D01*
X033041Y026492D02*
X033504Y026492D01*
X033453Y026553D02*
X033843Y026943D01*
X033843Y027113D01*
X033993Y027263D01*
X033993Y027233D01*
X033943Y027313D02*
X033943Y027782D01*
X033872Y027771D01*
X033794Y027745D01*
X033721Y027708D01*
X033655Y027660D01*
X033597Y027602D01*
X033549Y027536D01*
X033543Y027526D01*
X033543Y027712D01*
X033633Y027802D01*
X033633Y027802D01*
X033744Y027913D01*
X034353Y027913D01*
X034353Y027639D01*
X034332Y027660D01*
X034266Y027708D01*
X034193Y027745D01*
X034115Y027771D01*
X034043Y027782D01*
X034043Y027313D01*
X033943Y027313D01*
X033943Y027379D02*
X034043Y027379D01*
X034043Y027477D02*
X033943Y027477D01*
X033943Y027576D02*
X034043Y027576D01*
X034043Y027674D02*
X033943Y027674D01*
X033943Y027773D02*
X034043Y027773D01*
X034100Y027773D02*
X034353Y027773D01*
X034353Y027871D02*
X033702Y027871D01*
X033604Y027773D02*
X033886Y027773D01*
X033674Y027674D02*
X033543Y027674D01*
X033543Y027576D02*
X033578Y027576D01*
X033323Y027803D02*
X033413Y027893D01*
X033973Y028453D01*
X034312Y027674D02*
X034353Y027674D01*
X034853Y027674D02*
X035043Y027674D01*
X035043Y027576D02*
X034853Y027576D01*
X034853Y027477D02*
X035043Y027477D01*
X035043Y027379D02*
X034853Y027379D01*
X034853Y027280D02*
X035043Y027280D01*
X035043Y027182D02*
X034853Y027182D01*
X034853Y027083D02*
X035043Y027083D01*
X035043Y026985D02*
X034853Y026985D01*
X034853Y026886D02*
X035043Y026886D01*
X035043Y026788D02*
X034853Y026788D01*
X034853Y026689D02*
X035043Y026689D01*
X035043Y026591D02*
X034853Y026591D01*
X034853Y026492D02*
X035043Y026492D01*
X035043Y026394D02*
X034853Y026394D01*
X034853Y026295D02*
X035043Y026295D01*
X035043Y026197D02*
X034853Y026197D01*
X034853Y026098D02*
X035043Y026098D01*
X035043Y026000D02*
X034853Y026000D01*
X034853Y025901D02*
X035043Y025901D01*
X035043Y025803D02*
X034853Y025803D01*
X034853Y025704D02*
X035043Y025704D01*
X035043Y025606D02*
X034853Y025606D01*
X034853Y025507D02*
X035043Y025507D01*
X035043Y025409D02*
X034853Y025409D01*
X034853Y025310D02*
X035043Y025310D01*
X035043Y025212D02*
X034853Y025212D01*
X034853Y025113D02*
X035043Y025113D01*
X035043Y025015D02*
X034853Y025015D01*
X034853Y024916D02*
X035043Y024916D01*
X035043Y024818D02*
X034853Y024818D01*
X034853Y024719D02*
X035043Y024719D01*
X035043Y024621D02*
X034853Y024621D01*
X034853Y024522D02*
X035043Y024522D01*
X035043Y024424D02*
X034853Y024424D01*
X034853Y024325D02*
X035043Y024325D01*
X035043Y024227D02*
X034853Y024227D01*
X034853Y024128D02*
X035043Y024128D01*
X035043Y024030D02*
X034853Y024030D01*
X034853Y023931D02*
X035043Y023931D01*
X035043Y023833D02*
X034853Y023833D01*
X034853Y023734D02*
X035043Y023734D01*
X035043Y023636D02*
X034853Y023636D01*
X034853Y023537D02*
X035043Y023537D01*
X035043Y023439D02*
X034853Y023439D01*
X034853Y023340D02*
X035043Y023340D01*
X035043Y023242D02*
X034853Y023242D01*
X034853Y023143D02*
X035043Y023143D01*
X035043Y023045D02*
X034853Y023045D01*
X034853Y022946D02*
X035043Y022946D01*
X035043Y022848D02*
X034853Y022848D01*
X034853Y022749D02*
X035043Y022749D01*
X035043Y022651D02*
X034853Y022651D01*
X034853Y022552D02*
X035043Y022552D01*
X035043Y022454D02*
X034853Y022454D01*
X034853Y022355D02*
X035043Y022355D01*
X035043Y022257D02*
X034853Y022257D01*
X034853Y022158D02*
X035043Y022158D01*
X035043Y022060D02*
X034853Y022060D01*
X034853Y021961D02*
X035043Y021961D01*
X035043Y021863D02*
X034853Y021863D01*
X034853Y021764D02*
X035043Y021764D01*
X035043Y021666D02*
X034853Y021666D01*
X034853Y021567D02*
X035043Y021567D01*
X035043Y021469D02*
X034853Y021469D01*
X034853Y021404D02*
X034853Y031577D01*
X034815Y031669D01*
X034745Y031739D01*
X034672Y031812D01*
X034672Y031901D01*
X034616Y032036D01*
X034578Y032073D01*
X034616Y032111D01*
X034672Y032246D01*
X034672Y032393D01*
X034616Y032528D01*
X034512Y032632D01*
X034377Y032688D01*
X034230Y032688D01*
X034095Y032632D01*
X034061Y032598D01*
X033349Y032598D01*
X033349Y032674D01*
X033249Y032774D01*
X032518Y032774D01*
X032418Y032674D01*
X032418Y032605D01*
X032329Y032605D01*
X032252Y032683D01*
X031875Y032683D01*
X031775Y032583D01*
X031775Y032128D01*
X031875Y032028D01*
X032252Y032028D01*
X032329Y032105D01*
X032418Y032105D01*
X032418Y032022D01*
X032426Y032013D01*
X032418Y032005D01*
X032418Y031621D01*
X032329Y031621D01*
X032252Y031699D01*
X031875Y031699D01*
X031775Y031599D01*
X031775Y031143D01*
X031875Y031044D01*
X032252Y031044D01*
X032329Y031121D01*
X032626Y031121D01*
X032717Y031159D01*
X032811Y031253D01*
X033249Y031253D01*
X033349Y031352D01*
X033349Y031429D01*
X034204Y031429D01*
X034277Y031459D01*
X034318Y031459D01*
X034353Y031424D01*
X034353Y030837D01*
X034197Y030993D01*
X033750Y030993D01*
X033459Y030703D01*
X033189Y030973D01*
X033023Y030973D01*
X033023Y030503D01*
X032923Y030503D01*
X032923Y030403D01*
X032453Y030403D01*
X032453Y030238D01*
X032724Y029967D01*
X032433Y029677D01*
X032433Y029230D01*
X032436Y029227D01*
X032112Y028903D01*
X031983Y028774D01*
X031983Y028060D01*
X031924Y028000D01*
X031873Y027879D01*
X031873Y027748D01*
X031924Y027626D01*
X032016Y027534D01*
X032106Y027497D01*
X032063Y027454D01*
X031723Y027114D01*
X031723Y029013D01*
X032069Y029013D01*
X032169Y029112D01*
X032169Y029765D01*
X032139Y029795D01*
X032149Y029832D01*
X032149Y030058D01*
X031753Y030058D01*
X031753Y030158D01*
X031653Y030158D01*
X031653Y030058D01*
X031258Y030058D01*
X031258Y029832D01*
X031268Y029795D01*
X031238Y029765D01*
X031238Y029112D01*
X031283Y029067D01*
X031283Y027162D01*
X031082Y027162D01*
X031082Y027190D01*
X031102Y027210D01*
X031102Y027855D01*
X031003Y027955D01*
X030405Y027955D01*
X030405Y028553D01*
X030305Y028652D01*
X029070Y028652D01*
X029050Y028632D01*
X029022Y028632D01*
X029022Y029083D01*
X029738Y029083D01*
X029738Y028912D01*
X029838Y028813D01*
X030569Y028813D01*
X030669Y028912D01*
X030669Y029565D01*
X030660Y029573D01*
X030669Y029582D01*
X030669Y030234D01*
X030569Y030334D01*
X030089Y030334D01*
X029985Y030437D01*
X029326Y030437D01*
X029326Y030473D01*
X029018Y030473D01*
X029018Y030473D01*
X029018Y030217D02*
X029894Y030217D01*
X030203Y029908D01*
X030669Y029940D02*
X031258Y029940D01*
X031258Y030038D02*
X030669Y030038D01*
X030669Y030137D02*
X031653Y030137D01*
X031653Y030158D02*
X031258Y030158D01*
X031258Y030384D01*
X031268Y030422D01*
X031288Y030456D01*
X031316Y030484D01*
X031350Y030504D01*
X031388Y030514D01*
X031653Y030514D01*
X031653Y030158D01*
X031703Y030108D02*
X031708Y030103D01*
X032623Y030103D01*
X032973Y030453D01*
X032923Y030432D02*
X032132Y030432D01*
X032138Y030422D02*
X032119Y030456D01*
X032091Y030484D01*
X032057Y030504D01*
X032018Y030514D01*
X031753Y030514D01*
X031753Y030158D01*
X032149Y030158D01*
X032149Y030384D01*
X032138Y030422D01*
X032149Y030334D02*
X032453Y030334D01*
X032456Y030235D02*
X032149Y030235D01*
X032149Y030038D02*
X032653Y030038D01*
X032696Y029940D02*
X032149Y029940D01*
X032149Y029841D02*
X032598Y029841D01*
X032499Y029743D02*
X032169Y029743D01*
X032169Y029644D02*
X032433Y029644D01*
X032433Y029546D02*
X032169Y029546D01*
X032169Y029447D02*
X032433Y029447D01*
X032433Y029349D02*
X032169Y029349D01*
X032169Y029250D02*
X032433Y029250D01*
X032361Y029152D02*
X032169Y029152D01*
X032110Y029053D02*
X032262Y029053D01*
X032164Y028955D02*
X031723Y028955D01*
X031723Y028856D02*
X032065Y028856D01*
X031983Y028758D02*
X031723Y028758D01*
X031723Y028659D02*
X031983Y028659D01*
X031983Y028561D02*
X031723Y028561D01*
X031723Y028462D02*
X031983Y028462D01*
X031983Y028364D02*
X031723Y028364D01*
X031723Y028265D02*
X031983Y028265D01*
X031983Y028167D02*
X031723Y028167D01*
X031723Y028068D02*
X031983Y028068D01*
X031911Y027970D02*
X031723Y027970D01*
X031723Y027871D02*
X031873Y027871D01*
X031873Y027773D02*
X031723Y027773D01*
X031723Y027674D02*
X031904Y027674D01*
X031974Y027576D02*
X031723Y027576D01*
X031723Y027477D02*
X032086Y027477D01*
X031988Y027379D02*
X031723Y027379D01*
X031723Y027280D02*
X031889Y027280D01*
X031791Y027182D02*
X031723Y027182D01*
X031503Y026942D02*
X031503Y029239D01*
X031703Y029439D01*
X031733Y029409D01*
X031238Y029447D02*
X030669Y029447D01*
X030669Y029349D02*
X031238Y029349D01*
X031238Y029250D02*
X030669Y029250D01*
X030669Y029152D02*
X031238Y029152D01*
X031283Y029053D02*
X030669Y029053D01*
X030669Y028955D02*
X031283Y028955D01*
X031283Y028856D02*
X030613Y028856D01*
X030397Y028561D02*
X031283Y028561D01*
X031283Y028659D02*
X029022Y028659D01*
X029022Y028758D02*
X031283Y028758D01*
X031283Y028462D02*
X030405Y028462D01*
X030405Y028364D02*
X031283Y028364D01*
X031283Y028265D02*
X030405Y028265D01*
X030405Y028167D02*
X031283Y028167D01*
X031283Y028068D02*
X030405Y028068D01*
X030405Y027970D02*
X031283Y027970D01*
X031283Y027871D02*
X031086Y027871D01*
X031102Y027773D02*
X031283Y027773D01*
X031283Y027674D02*
X031102Y027674D01*
X031102Y027576D02*
X031283Y027576D01*
X031283Y027477D02*
X031102Y027477D01*
X031102Y027379D02*
X031283Y027379D01*
X031283Y027280D02*
X031102Y027280D01*
X031082Y027182D02*
X031283Y027182D01*
X031503Y026942D02*
X030625Y026942D01*
X030625Y026745D02*
X031665Y026745D01*
X032283Y027363D01*
X032993Y027363D01*
X033323Y026943D02*
X032413Y026943D01*
X032201Y026689D02*
X031920Y026689D01*
X031822Y026591D02*
X033557Y026591D01*
X033453Y026553D02*
X033123Y026553D01*
X033479Y026788D02*
X033781Y026788D01*
X033656Y026689D02*
X032626Y026689D01*
X032723Y026352D02*
X032843Y026223D01*
X032723Y026352D02*
X030625Y026352D01*
X030625Y026155D02*
X032433Y026155D01*
X032433Y025768D01*
X032229Y025563D01*
X032209Y025543D01*
X031873Y025543D01*
X031753Y025423D01*
X031753Y023453D01*
X031823Y023383D01*
X031833Y023383D01*
X032093Y023123D01*
X032093Y022043D01*
X032011Y021961D01*
X031465Y021961D01*
X030653Y022468D02*
X030613Y022428D01*
X030653Y022468D02*
X030653Y022893D01*
X030543Y023003D01*
X030603Y023453D02*
X031153Y024003D01*
X031153Y024853D01*
X031033Y024974D01*
X030625Y024974D01*
X030625Y024777D02*
X030625Y024015D01*
X030473Y023863D01*
X030103Y023773D02*
X030103Y023433D01*
X030103Y023773D02*
X029983Y023894D01*
X029983Y024332D01*
X029786Y024332D02*
X029786Y023656D01*
X029703Y023573D01*
X029589Y024332D02*
X029589Y025943D01*
X029589Y026388D02*
X029503Y026473D01*
X028348Y026473D01*
X028348Y027318D01*
X028203Y027173D01*
X028203Y027937D01*
X028211Y028175D01*
X028239Y028175D02*
X028380Y028175D01*
X028239Y028175D01*
X028239Y028175D01*
X028380Y028175D02*
X028380Y028175D01*
X028408Y028175D02*
X028408Y026178D01*
X028653Y026197D02*
X028753Y026197D01*
X028753Y026203D02*
X028753Y024833D01*
X029993Y024833D01*
X030031Y024844D01*
X030065Y024863D01*
X030093Y024891D01*
X030113Y024925D01*
X030123Y024964D01*
X030123Y026203D01*
X028753Y026203D01*
X028653Y026203D01*
X028653Y024833D01*
X027414Y024833D01*
X027375Y024844D01*
X027341Y024863D01*
X027313Y024891D01*
X027294Y024925D01*
X027283Y024964D01*
X027283Y026203D01*
X028653Y026203D01*
X028653Y026303D01*
X027283Y026303D01*
X027283Y027543D01*
X027294Y027581D01*
X027313Y027615D01*
X027341Y027643D01*
X027375Y027663D01*
X027414Y027673D01*
X028653Y027673D01*
X028653Y026303D01*
X028753Y026303D01*
X030123Y026303D01*
X030123Y027543D01*
X030113Y027581D01*
X030093Y027615D01*
X030065Y027643D01*
X030031Y027663D01*
X029993Y027673D01*
X028753Y027673D01*
X028753Y026303D01*
X028753Y026203D01*
X028703Y026253D02*
X028408Y026469D01*
X028408Y028175D01*
X028408Y027569D01*
X028479Y027698D02*
X028927Y027698D01*
X028947Y027718D01*
X028999Y027718D01*
X029050Y027718D01*
X029070Y027698D01*
X030148Y027698D01*
X030148Y027407D01*
X030148Y027210D01*
X030168Y027190D01*
X030168Y027139D01*
X030168Y027088D01*
X030148Y027068D01*
X030148Y026620D01*
X030168Y026600D01*
X030168Y026549D01*
X030219Y026549D01*
X030219Y026549D01*
X030219Y026549D01*
X030168Y026549D01*
X030168Y026497D01*
X030148Y026477D01*
X030148Y026029D01*
X030168Y026009D01*
X030168Y025958D01*
X030168Y025907D01*
X030148Y025887D01*
X030148Y024809D01*
X029660Y024809D01*
X029640Y024789D01*
X029589Y024789D01*
X029538Y024789D01*
X029518Y024809D01*
X027692Y024809D01*
X027672Y024789D01*
X027621Y024789D01*
X027621Y024738D01*
X027621Y024738D01*
X027621Y024738D01*
X027621Y024789D01*
X027569Y024789D01*
X027549Y024809D01*
X027298Y024809D01*
X027278Y024789D01*
X027259Y024789D01*
X027259Y026280D01*
X027239Y026300D01*
X027239Y026352D01*
X027239Y026403D01*
X027259Y026423D01*
X027259Y027068D01*
X027239Y027088D01*
X027239Y027139D01*
X027188Y027139D01*
X027188Y027139D01*
X027239Y027139D01*
X027239Y027190D01*
X027259Y027210D01*
X027259Y027698D01*
X028140Y027698D01*
X028160Y027718D01*
X028211Y027718D01*
X028211Y027769D01*
X028211Y027769D01*
X028211Y027718D01*
X028286Y027718D01*
X028310Y027724D01*
X028333Y027718D01*
X028408Y027718D01*
X028408Y027769D01*
X028408Y027769D01*
X028408Y027718D01*
X028459Y027718D01*
X028479Y027698D01*
X028653Y027576D02*
X028753Y027576D01*
X028753Y027477D02*
X028653Y027477D01*
X028653Y027379D02*
X028753Y027379D01*
X028753Y027280D02*
X028653Y027280D01*
X028653Y027182D02*
X028753Y027182D01*
X028753Y027083D02*
X028653Y027083D01*
X028653Y026985D02*
X028753Y026985D01*
X028753Y026886D02*
X028653Y026886D01*
X028653Y026788D02*
X028753Y026788D01*
X028753Y026689D02*
X028653Y026689D01*
X028653Y026591D02*
X028753Y026591D01*
X028753Y026492D02*
X028653Y026492D01*
X028653Y026394D02*
X028753Y026394D01*
X028753Y026295D02*
X030148Y026295D01*
X030148Y026197D02*
X030123Y026197D01*
X030123Y026098D02*
X030148Y026098D01*
X030168Y026000D02*
X030123Y026000D01*
X030168Y025958D02*
X030219Y025958D01*
X030219Y025958D01*
X030219Y025958D01*
X030168Y025958D01*
X030162Y025901D02*
X030123Y025901D01*
X030123Y025803D02*
X030148Y025803D01*
X030148Y025704D02*
X030123Y025704D01*
X030123Y025606D02*
X030148Y025606D01*
X030148Y025507D02*
X030123Y025507D01*
X030123Y025409D02*
X030148Y025409D01*
X030148Y025310D02*
X030123Y025310D01*
X030123Y025212D02*
X030148Y025212D01*
X030148Y025113D02*
X030123Y025113D01*
X030123Y025015D02*
X030148Y025015D01*
X030148Y024916D02*
X030108Y024916D01*
X030148Y024818D02*
X027259Y024818D01*
X027259Y024916D02*
X027299Y024916D01*
X027283Y025015D02*
X027259Y025015D01*
X027259Y025113D02*
X027283Y025113D01*
X027283Y025212D02*
X027259Y025212D01*
X027259Y025310D02*
X027283Y025310D01*
X027283Y025409D02*
X027259Y025409D01*
X027259Y025507D02*
X027283Y025507D01*
X027283Y025606D02*
X027259Y025606D01*
X027259Y025704D02*
X027283Y025704D01*
X027283Y025803D02*
X027259Y025803D01*
X027259Y025901D02*
X027283Y025901D01*
X027283Y026000D02*
X027259Y026000D01*
X027259Y026098D02*
X027283Y026098D01*
X027283Y026197D02*
X027259Y026197D01*
X027244Y026295D02*
X028653Y026295D01*
X028653Y026098D02*
X028753Y026098D01*
X028753Y026000D02*
X028653Y026000D01*
X028653Y025901D02*
X028753Y025901D01*
X028753Y025803D02*
X028653Y025803D01*
X028653Y025704D02*
X028753Y025704D01*
X028753Y025606D02*
X028653Y025606D01*
X028653Y025507D02*
X028753Y025507D01*
X028753Y025409D02*
X028653Y025409D01*
X028653Y025310D02*
X028753Y025310D01*
X028753Y025212D02*
X028653Y025212D01*
X028653Y025113D02*
X028753Y025113D01*
X028753Y025015D02*
X028653Y025015D01*
X028653Y024916D02*
X028753Y024916D01*
X029383Y024443D02*
X029383Y024393D01*
X029383Y024402D02*
X029392Y024332D01*
X029589Y024738D02*
X029589Y024738D01*
X029589Y024789D01*
X029589Y024738D01*
X029589Y024738D01*
X030123Y026394D02*
X030148Y026394D01*
X030163Y026492D02*
X030123Y026492D01*
X030123Y026591D02*
X030168Y026591D01*
X030148Y026689D02*
X030123Y026689D01*
X030123Y026788D02*
X030148Y026788D01*
X030148Y026886D02*
X030123Y026886D01*
X030123Y026985D02*
X030148Y026985D01*
X030163Y027083D02*
X030123Y027083D01*
X030168Y027139D02*
X030219Y027139D01*
X030219Y027139D01*
X030219Y027139D01*
X030168Y027139D01*
X030168Y027182D02*
X030123Y027182D01*
X030123Y027280D02*
X030148Y027280D01*
X030148Y027379D02*
X030123Y027379D01*
X030123Y027477D02*
X030148Y027477D01*
X030148Y027576D02*
X030115Y027576D01*
X030148Y027674D02*
X027259Y027674D01*
X027259Y027576D02*
X027292Y027576D01*
X027283Y027477D02*
X027259Y027477D01*
X027259Y027379D02*
X027283Y027379D01*
X027283Y027280D02*
X027259Y027280D01*
X027239Y027182D02*
X027283Y027182D01*
X027283Y027083D02*
X027244Y027083D01*
X027188Y027139D02*
X027188Y027139D01*
X027259Y026985D02*
X027283Y026985D01*
X027283Y026886D02*
X027259Y026886D01*
X027259Y026788D02*
X027283Y026788D01*
X027283Y026689D02*
X027259Y026689D01*
X027259Y026591D02*
X027283Y026591D01*
X027283Y026492D02*
X027259Y026492D01*
X027239Y026394D02*
X027283Y026394D01*
X027239Y026352D02*
X027188Y026352D01*
X027188Y026352D01*
X027188Y026352D01*
X027239Y026352D01*
X027683Y026272D02*
X027703Y026252D01*
X027703Y025173D01*
X027624Y025082D01*
X027022Y024522D02*
X026599Y024522D01*
X026633Y024424D02*
X027022Y024424D01*
X027022Y024325D02*
X026633Y024325D01*
X026600Y024227D02*
X027022Y024227D01*
X027022Y024128D02*
X026525Y024128D01*
X026303Y024373D02*
X026303Y025453D01*
X026414Y025564D01*
X026782Y025564D01*
X026774Y025753D02*
X026133Y025753D01*
X025903Y025523D01*
X025903Y024973D01*
X025816Y024621D02*
X026083Y024621D01*
X026008Y024522D02*
X025777Y024522D01*
X025694Y024424D02*
X025973Y024424D01*
X025973Y024325D02*
X025482Y024325D01*
X025482Y024227D02*
X026007Y024227D01*
X026082Y024128D02*
X025482Y024128D01*
X025483Y024030D02*
X027022Y024030D01*
X027053Y023931D02*
X025483Y023931D01*
X025546Y023833D02*
X023710Y023833D01*
X023505Y023734D02*
X024224Y023734D01*
X024109Y023636D02*
X023407Y023636D01*
X023242Y023439D02*
X022276Y023439D01*
X022178Y023537D02*
X024065Y023537D01*
X024543Y023734D02*
X025457Y023734D01*
X025416Y023636D02*
X024658Y023636D01*
X024702Y023537D02*
X025413Y023537D01*
X025449Y023045D02*
X024858Y023045D01*
X024879Y022946D02*
X025398Y022946D01*
X025398Y022552D02*
X025183Y022552D01*
X025183Y022454D02*
X025398Y022454D01*
X025398Y022355D02*
X025183Y022355D01*
X025183Y022257D02*
X025418Y022257D01*
X025418Y022158D02*
X025183Y022158D01*
X025183Y022060D02*
X025418Y022060D01*
X025418Y021863D02*
X025183Y021863D01*
X025183Y021961D02*
X025813Y021961D01*
X025813Y021863D02*
X025913Y021863D01*
X025628Y021567D02*
X025618Y021567D01*
X025618Y021573D02*
X025494Y021573D01*
X025455Y021563D01*
X025421Y021543D01*
X025393Y021515D01*
X025374Y021481D01*
X025363Y021443D01*
X025363Y021168D01*
X025618Y021168D01*
X025618Y021573D01*
X025618Y021469D02*
X025628Y021469D01*
X025618Y021370D02*
X025628Y021370D01*
X025618Y021272D02*
X025628Y021272D01*
X025618Y021173D02*
X025628Y021173D01*
X025618Y021158D02*
X025363Y021158D01*
X025363Y020884D01*
X025374Y020845D01*
X025393Y020811D01*
X025421Y020783D01*
X025455Y020764D01*
X025494Y020753D01*
X025618Y020753D01*
X025618Y021158D01*
X025618Y021075D02*
X025628Y021075D01*
X025618Y020976D02*
X025628Y020976D01*
X025618Y020878D02*
X025628Y020878D01*
X025618Y020779D02*
X025628Y020779D01*
X025633Y020763D02*
X027093Y020763D01*
X027058Y020779D02*
X027048Y020779D01*
X027048Y020878D02*
X027058Y020878D01*
X027048Y020976D02*
X027058Y020976D01*
X027048Y021075D02*
X027058Y021075D01*
X027048Y021272D02*
X027058Y021272D01*
X027048Y021370D02*
X027058Y021370D01*
X027048Y021469D02*
X027058Y021469D01*
X027048Y021567D02*
X027058Y021567D01*
X026793Y021075D02*
X026643Y021075D01*
X026643Y020976D02*
X026793Y020976D01*
X026798Y020878D02*
X026643Y020878D01*
X026590Y020779D02*
X026875Y020779D01*
X026846Y020582D02*
X026273Y020582D01*
X026273Y020484D02*
X026757Y020484D01*
X026716Y020385D02*
X026273Y020385D01*
X026273Y020287D02*
X026713Y020287D01*
X026738Y020188D02*
X026273Y020188D01*
X026273Y020090D02*
X026800Y020090D01*
X026423Y021163D02*
X026423Y022668D01*
X026391Y022946D02*
X026329Y022946D01*
X026278Y023045D02*
X026489Y023045D01*
X026816Y022749D02*
X026828Y022749D01*
X025418Y021764D02*
X025183Y021764D01*
X025183Y021666D02*
X025439Y021666D01*
X025471Y021567D02*
X025183Y021567D01*
X025183Y021469D02*
X025370Y021469D01*
X025363Y021370D02*
X025183Y021370D01*
X025183Y021272D02*
X025363Y021272D01*
X025363Y021173D02*
X025183Y021173D01*
X025183Y021075D02*
X025363Y021075D01*
X025363Y020976D02*
X025183Y020976D01*
X025183Y020878D02*
X025365Y020878D01*
X025428Y020779D02*
X025130Y020779D01*
X025416Y020582D02*
X024813Y020582D01*
X024813Y020484D02*
X025327Y020484D01*
X025286Y020385D02*
X024813Y020385D01*
X024813Y020287D02*
X025283Y020287D01*
X025308Y020188D02*
X024813Y020188D01*
X024813Y020090D02*
X025370Y020090D01*
X025760Y020681D02*
X024766Y020681D01*
X024903Y021163D02*
X024963Y021163D01*
X024963Y022698D01*
X024413Y022698D02*
X024413Y022493D01*
X024363Y022060D02*
X023703Y022060D01*
X023483Y022678D02*
X022943Y022678D01*
X022943Y023183D01*
X023453Y023183D01*
X023483Y022678D02*
X023483Y021183D01*
X023423Y021173D01*
X023143Y021173D02*
X022688Y021173D01*
X022683Y021173D02*
X022683Y020793D01*
X022713Y020763D01*
X024183Y020763D01*
X024168Y020779D02*
X024158Y020779D01*
X024158Y020878D02*
X024168Y020878D01*
X024158Y020976D02*
X024168Y020976D01*
X024158Y021075D02*
X024168Y021075D01*
X024158Y021173D02*
X024168Y021173D01*
X024158Y021272D02*
X024168Y021272D01*
X024158Y021370D02*
X024168Y021370D01*
X024158Y021469D02*
X024168Y021469D01*
X024158Y021567D02*
X024168Y021567D01*
X023207Y021567D02*
X022861Y021567D01*
X022851Y021573D02*
X022813Y021583D01*
X022688Y021583D01*
X022688Y021178D01*
X022678Y021178D01*
X022678Y021168D01*
X022688Y021168D01*
X022688Y020763D01*
X022813Y020763D01*
X022851Y020774D01*
X022885Y020793D01*
X022913Y020821D01*
X022933Y020855D01*
X022943Y020894D01*
X022943Y021168D01*
X022688Y021168D01*
X022688Y021178D01*
X022943Y021178D01*
X022943Y021453D01*
X022933Y021491D01*
X022913Y021525D01*
X022885Y021553D01*
X022851Y021573D01*
X022893Y021666D02*
X022993Y021666D01*
X022993Y021764D02*
X022893Y021764D01*
X022893Y021863D02*
X022993Y021863D01*
X022893Y021961D02*
X022312Y021961D01*
X022366Y021863D02*
X022498Y021863D01*
X022498Y021764D02*
X022366Y021764D01*
X022366Y021666D02*
X022525Y021666D01*
X022554Y021583D02*
X022515Y021573D01*
X022481Y021553D01*
X022453Y021525D01*
X022434Y021491D01*
X022423Y021453D01*
X022423Y021178D01*
X022678Y021178D01*
X022678Y021583D01*
X022554Y021583D01*
X022505Y021567D02*
X022366Y021567D01*
X022366Y021469D02*
X022428Y021469D01*
X022423Y021370D02*
X022366Y021370D01*
X022343Y021272D02*
X022423Y021272D01*
X022423Y021168D02*
X022423Y020894D01*
X022434Y020855D01*
X022453Y020821D01*
X022481Y020793D01*
X022515Y020774D01*
X022554Y020763D01*
X022678Y020763D01*
X022678Y021168D01*
X022423Y021168D01*
X022423Y021075D02*
X022323Y021075D01*
X022323Y021173D02*
X022678Y021173D01*
X022678Y021075D02*
X022688Y021075D01*
X022678Y020976D02*
X022688Y020976D01*
X022678Y020878D02*
X022688Y020878D01*
X022678Y020779D02*
X022688Y020779D01*
X022810Y020681D02*
X021583Y020681D01*
X021583Y020582D02*
X022466Y020582D01*
X022377Y020484D02*
X021583Y020484D01*
X021583Y020385D02*
X022336Y020385D01*
X022333Y020287D02*
X021583Y020287D01*
X021583Y020188D02*
X022358Y020188D01*
X022420Y020090D02*
X021583Y020090D01*
X021083Y020090D02*
X021011Y020090D01*
X021011Y020169D02*
X020912Y020269D01*
X020535Y020269D01*
X020457Y020191D01*
X020389Y020191D01*
X020389Y020455D01*
X020380Y020463D01*
X020389Y020472D01*
X020389Y020675D01*
X020457Y020675D01*
X020535Y020598D01*
X020912Y020598D01*
X020997Y020683D01*
X021083Y020683D01*
X021083Y019804D01*
X021121Y019712D01*
X021272Y019561D01*
X021364Y019523D01*
X031554Y019523D01*
X032104Y019523D01*
X032112Y019521D01*
X032154Y019523D01*
X032183Y019523D01*
X032222Y019520D01*
X032232Y019523D01*
X032933Y019523D01*
X033025Y019561D01*
X033095Y019632D01*
X033133Y019724D01*
X033133Y019733D01*
X033239Y019733D01*
X033339Y019832D01*
X033339Y019909D01*
X034001Y019909D01*
X034095Y019815D01*
X034230Y019759D01*
X034377Y019759D01*
X034512Y019815D01*
X034616Y019919D01*
X034672Y020054D01*
X034672Y020201D01*
X034616Y020336D01*
X034578Y020373D01*
X034616Y020411D01*
X034672Y020546D01*
X034672Y020693D01*
X034616Y020828D01*
X034512Y020932D01*
X034377Y020988D01*
X034288Y020988D01*
X034236Y021040D01*
X034144Y021078D01*
X033339Y021078D01*
X033339Y021154D01*
X033290Y021203D01*
X034653Y021203D01*
X034745Y021241D01*
X034815Y021312D01*
X034853Y021404D01*
X034840Y021370D02*
X035043Y021370D01*
X035043Y021272D02*
X034775Y021272D01*
X035043Y021173D02*
X033320Y021173D01*
X034152Y021075D02*
X035043Y021075D01*
X035043Y020976D02*
X034404Y020976D01*
X034566Y020878D02*
X035043Y020878D01*
X035043Y020779D02*
X034636Y020779D01*
X034672Y020681D02*
X035040Y020681D01*
X035093Y020582D02*
X034672Y020582D01*
X034646Y020484D02*
X035173Y020484D01*
X035203Y020385D02*
X034590Y020385D01*
X034636Y020287D02*
X035203Y020287D01*
X035203Y020188D02*
X034672Y020188D01*
X034672Y020090D02*
X035203Y020090D01*
X035203Y019991D02*
X034646Y019991D01*
X034590Y019893D02*
X035203Y019893D01*
X035203Y019794D02*
X034462Y019794D01*
X034144Y019794D02*
X033301Y019794D01*
X033339Y019893D02*
X034017Y019893D01*
X033855Y019302D02*
X035203Y019302D01*
X035203Y019400D02*
X017643Y019400D01*
X017643Y019302D02*
X018976Y019302D01*
X018896Y019203D02*
X017643Y019203D01*
X017643Y019499D02*
X035203Y019499D01*
X035203Y019597D02*
X033061Y019597D01*
X033122Y019696D02*
X035203Y019696D01*
X035203Y019203D02*
X033930Y019203D01*
X033106Y022866D02*
X033233Y023013D01*
X033233Y023173D01*
X033203Y023223D01*
X032333Y023223D01*
X032273Y023283D01*
X032273Y023343D01*
X032343Y023413D01*
X032553Y023413D01*
X032613Y023473D01*
X032613Y023613D01*
X032563Y023663D01*
X032133Y023663D01*
X032043Y023753D01*
X032043Y024183D01*
X032143Y024283D01*
X032219Y024283D01*
X032019Y024483D01*
X032113Y024578D01*
X032113Y024933D01*
X032574Y024719D02*
X032578Y024719D01*
X032838Y024719D02*
X032938Y024719D01*
X032938Y024621D02*
X032838Y024621D01*
X032838Y024522D02*
X032938Y024522D01*
X032938Y024424D02*
X032838Y024424D01*
X033453Y024113D02*
X033593Y024253D01*
X033983Y024253D01*
X033993Y024263D01*
X033453Y024113D02*
X033453Y023753D01*
X033323Y023633D01*
X033063Y023633D01*
X033106Y022866D02*
X032922Y022866D01*
X032121Y026788D02*
X032019Y026788D01*
X032203Y027813D02*
X032203Y028683D01*
X032973Y029453D01*
X032554Y030137D02*
X031753Y030137D01*
X031753Y030235D02*
X031653Y030235D01*
X031653Y030334D02*
X031753Y030334D01*
X031753Y030432D02*
X031653Y030432D01*
X031274Y030432D02*
X029990Y030432D01*
X030569Y030334D02*
X031258Y030334D01*
X031258Y030235D02*
X030668Y030235D01*
X030669Y029841D02*
X031258Y029841D01*
X031238Y029743D02*
X030669Y029743D01*
X030669Y029644D02*
X031238Y029644D01*
X031238Y029546D02*
X030669Y029546D01*
X030203Y029239D02*
X030139Y029303D01*
X028913Y029303D01*
X028802Y029192D01*
X028802Y028175D01*
X028999Y028175D02*
X028999Y027059D01*
X028603Y026973D02*
X028408Y027169D01*
X028408Y028175D01*
X028408Y027378D01*
X028348Y027318D01*
X028603Y026973D02*
X027703Y026973D01*
X027603Y027073D01*
X027603Y027139D01*
X026782Y027139D01*
X026782Y026942D02*
X026143Y026942D01*
X026143Y028503D01*
X025693Y028973D01*
X024583Y028973D01*
X024003Y029533D01*
X024003Y029539D01*
X024469Y029546D02*
X024953Y029546D01*
X024953Y029589D02*
X024953Y029489D01*
X024558Y029489D01*
X024558Y029304D01*
X024469Y029390D01*
X024469Y029865D01*
X024439Y029895D01*
X024449Y029932D01*
X024449Y030158D01*
X024053Y030158D01*
X024053Y030258D01*
X023953Y030258D01*
X023953Y030614D01*
X023688Y030614D01*
X023650Y030604D01*
X023616Y030584D01*
X023588Y030556D01*
X023568Y030522D01*
X023558Y030484D01*
X023558Y030305D01*
X023469Y030394D01*
X023303Y030394D01*
X023303Y030642D01*
X023334Y030673D01*
X023353Y030653D01*
X024094Y030653D01*
X024193Y030753D01*
X024193Y031194D01*
X024094Y031293D01*
X023353Y031293D01*
X023253Y031194D01*
X023253Y031193D01*
X023232Y031193D01*
X022992Y030953D01*
X022863Y030824D01*
X022863Y030394D01*
X022738Y030394D01*
X022737Y030393D01*
X022650Y030393D01*
X022590Y030453D01*
X022469Y030503D01*
X022338Y030503D01*
X022216Y030453D01*
X022157Y030393D01*
X021647Y030393D01*
X021592Y030339D01*
X021112Y030339D01*
X021103Y030330D01*
X021095Y030339D01*
X020442Y030339D01*
X020343Y030239D01*
X020343Y030176D01*
X020229Y030223D01*
X020098Y030223D01*
X019976Y030173D01*
X019884Y030080D01*
X019833Y029959D01*
X019833Y029828D01*
X019884Y029706D01*
X019976Y029614D01*
X020098Y029563D01*
X020229Y029563D01*
X020343Y029610D01*
X020343Y029508D01*
X020442Y029408D01*
X021095Y029408D01*
X021103Y029416D01*
X021112Y029408D01*
X021764Y029408D01*
X021864Y029508D01*
X021864Y029953D01*
X022157Y029953D01*
X022216Y029894D01*
X022338Y029843D01*
X022469Y029843D01*
X022590Y029894D01*
X022638Y029941D01*
X022638Y029642D01*
X022646Y029633D01*
X022638Y029625D01*
X022638Y029053D01*
X019217Y029053D01*
X019209Y029061D01*
X019107Y029103D01*
X019209Y029146D01*
X019361Y029297D01*
X019443Y029496D01*
X019443Y029711D01*
X019361Y029909D01*
X019209Y030061D01*
X019107Y030103D01*
X019209Y030146D01*
X019361Y030297D01*
X019443Y030496D01*
X019443Y030690D01*
X019484Y030673D01*
X020933Y030673D01*
X021025Y030711D01*
X021095Y030782D01*
X021253Y030940D01*
X021253Y030753D01*
X021353Y030653D01*
X022094Y030653D01*
X022193Y030753D01*
X022193Y031194D01*
X022094Y031293D01*
X021363Y031293D01*
X021363Y032153D01*
X022094Y032153D01*
X022193Y032253D01*
X022193Y032694D01*
X022094Y032793D01*
X021353Y032793D01*
X021253Y032694D01*
X021253Y032507D01*
X021185Y032575D01*
X021115Y032645D01*
X021023Y032683D01*
X020931Y032683D01*
X020862Y032753D01*
X020485Y032753D01*
X020407Y032675D01*
X020307Y032675D01*
X020279Y032704D01*
X019548Y032704D01*
X019448Y032604D01*
X019448Y032528D01*
X018816Y032528D01*
X018816Y032528D01*
X018712Y032632D01*
X018577Y032688D01*
X018430Y032688D01*
X018295Y032632D01*
X018191Y032528D01*
X018135Y032393D01*
X018135Y032246D01*
X018191Y032111D01*
X018228Y032073D01*
X018191Y032036D01*
X018135Y031901D01*
X018135Y031754D01*
X018191Y031619D01*
X018295Y031515D01*
X018383Y031478D01*
X018352Y031465D01*
X018281Y031395D01*
X018091Y031205D01*
X018053Y031113D01*
X018053Y030533D01*
X018053Y030532D01*
X018053Y030483D01*
X018053Y030434D01*
X018053Y030433D01*
X018058Y029053D01*
X017783Y029053D01*
X017783Y031775D01*
X017789Y031837D01*
X017783Y031844D01*
X017783Y031854D01*
X017740Y031898D01*
X017622Y032041D01*
X017613Y033223D01*
X017613Y033303D01*
X018881Y033303D01*
X018953Y033217D01*
X018953Y033209D01*
X018998Y033164D01*
X019039Y033116D01*
X019047Y033115D01*
X019053Y033109D01*
X019116Y033109D01*
X019179Y033104D01*
X019185Y033109D01*
X024243Y033109D01*
X024243Y030933D01*
X024343Y030833D01*
X024733Y030833D01*
X024667Y030768D01*
X024623Y030661D01*
X024623Y030620D01*
X024538Y030534D01*
X024538Y029882D01*
X024568Y029852D01*
X024558Y029814D01*
X024558Y029589D01*
X024953Y029589D01*
X025003Y029539D02*
X025983Y029539D01*
X025933Y029546D02*
X025053Y029546D01*
X025053Y029589D02*
X025449Y029589D01*
X025449Y029814D01*
X025439Y029852D01*
X025469Y029882D01*
X025469Y030483D01*
X025518Y030483D01*
X025518Y029882D01*
X025548Y029852D01*
X025538Y029814D01*
X025538Y029589D01*
X025933Y029589D01*
X025933Y029489D01*
X025538Y029489D01*
X025538Y029263D01*
X025548Y029225D01*
X025566Y029193D01*
X025420Y029193D01*
X025438Y029225D01*
X025449Y029263D01*
X025449Y029489D01*
X025053Y029489D01*
X025053Y029589D01*
X025003Y029539D02*
X024968Y029503D01*
X024613Y029503D01*
X024513Y029603D01*
X024513Y030103D01*
X024409Y030208D01*
X024283Y030208D01*
X024293Y030218D01*
X024293Y032073D01*
X023893Y032473D01*
X023723Y032473D01*
X023123Y032473D01*
X022723Y032073D01*
X022723Y030963D01*
X022233Y030473D01*
X020043Y030473D01*
X019673Y030103D01*
X019673Y029503D01*
X019883Y029293D01*
X020563Y029293D01*
X020813Y029043D01*
X020813Y028579D01*
X020813Y027933D01*
X022323Y027933D01*
X022523Y027933D01*
X022523Y027282D01*
X022515Y027382D01*
X022712Y027382D02*
X022723Y027282D01*
X022723Y028303D01*
X022553Y028473D01*
X021983Y028473D01*
X022638Y029053D02*
X019217Y029053D01*
X019216Y029152D02*
X022638Y029152D01*
X022638Y029250D02*
X019314Y029250D01*
X019382Y029349D02*
X022638Y029349D01*
X022638Y029447D02*
X021804Y029447D01*
X021864Y029546D02*
X022638Y029546D01*
X022638Y029644D02*
X021864Y029644D01*
X021864Y029743D02*
X022638Y029743D01*
X022638Y029841D02*
X021864Y029841D01*
X021864Y029940D02*
X022170Y029940D01*
X022403Y030173D02*
X021738Y030173D01*
X021438Y029873D01*
X021107Y030334D02*
X021100Y030334D01*
X021041Y030728D02*
X021278Y030728D01*
X021253Y030826D02*
X021140Y030826D01*
X021095Y030782D02*
X021095Y030782D01*
X021238Y030925D02*
X021253Y030925D01*
X021363Y031319D02*
X024243Y031319D01*
X024243Y031417D02*
X021363Y031417D01*
X021363Y031516D02*
X024243Y031516D01*
X024243Y031614D02*
X021363Y031614D01*
X021363Y031713D02*
X024243Y031713D01*
X024243Y031811D02*
X021363Y031811D01*
X021363Y031910D02*
X024243Y031910D01*
X024243Y032008D02*
X021363Y032008D01*
X021363Y032107D02*
X024243Y032107D01*
X024243Y032205D02*
X024117Y032205D01*
X024115Y032203D02*
X024143Y032231D01*
X024163Y032265D01*
X024173Y032304D01*
X024243Y032304D01*
X024173Y032304D02*
X024173Y032448D01*
X023748Y032448D01*
X023748Y032173D01*
X024043Y032173D01*
X024081Y032184D01*
X024115Y032203D01*
X024173Y032402D02*
X024243Y032402D01*
X024243Y032501D02*
X024173Y032501D01*
X024173Y032498D02*
X024173Y032643D01*
X024163Y032681D01*
X024143Y032715D01*
X024115Y032743D01*
X024081Y032763D01*
X024043Y032773D01*
X023748Y032773D01*
X023748Y032498D01*
X023698Y032498D01*
X023698Y032448D01*
X023748Y032448D01*
X023748Y032498D01*
X024173Y032498D01*
X024173Y032599D02*
X024243Y032599D01*
X024243Y032698D02*
X024154Y032698D01*
X024243Y032796D02*
X017616Y032796D01*
X017617Y032698D02*
X019542Y032698D01*
X019448Y032599D02*
X018744Y032599D01*
X018262Y032599D02*
X017618Y032599D01*
X017619Y032501D02*
X018180Y032501D01*
X018139Y032402D02*
X017619Y032402D01*
X017620Y032304D02*
X018135Y032304D01*
X018152Y032205D02*
X017621Y032205D01*
X017621Y032107D02*
X018195Y032107D01*
X018180Y032008D02*
X017649Y032008D01*
X017729Y031910D02*
X018139Y031910D01*
X018135Y031811D02*
X017787Y031811D01*
X017783Y031713D02*
X018152Y031713D01*
X018195Y031614D02*
X017783Y031614D01*
X017783Y031516D02*
X018294Y031516D01*
X018304Y031417D02*
X017783Y031417D01*
X017783Y031319D02*
X018205Y031319D01*
X018107Y031220D02*
X017783Y031220D01*
X017783Y031122D02*
X018057Y031122D01*
X018053Y031023D02*
X017783Y031023D01*
X017783Y030925D02*
X018053Y030925D01*
X018053Y030826D02*
X017783Y030826D01*
X017783Y030728D02*
X018053Y030728D01*
X018053Y030629D02*
X017783Y030629D01*
X017783Y030531D02*
X018053Y030531D01*
X018053Y030432D02*
X017783Y030432D01*
X017783Y030334D02*
X018054Y030334D01*
X018054Y030235D02*
X017783Y030235D01*
X017783Y030137D02*
X018054Y030137D01*
X018055Y030038D02*
X017783Y030038D01*
X017783Y029940D02*
X018055Y029940D01*
X018055Y029841D02*
X017783Y029841D01*
X017783Y029743D02*
X018056Y029743D01*
X018056Y029644D02*
X017783Y029644D01*
X017783Y029546D02*
X018056Y029546D01*
X018057Y029447D02*
X017783Y029447D01*
X017783Y029349D02*
X018057Y029349D01*
X018057Y029250D02*
X017783Y029250D01*
X017783Y029152D02*
X018058Y029152D01*
X018058Y029053D02*
X017783Y029053D01*
X019423Y029447D02*
X020403Y029447D01*
X020343Y029546D02*
X019443Y029546D01*
X019443Y029644D02*
X019946Y029644D01*
X019868Y029743D02*
X019430Y029743D01*
X019389Y029841D02*
X019833Y029841D01*
X019833Y029940D02*
X019330Y029940D01*
X019232Y030038D02*
X019866Y030038D01*
X019940Y030137D02*
X019188Y030137D01*
X019299Y030235D02*
X020343Y030235D01*
X020438Y030334D02*
X019376Y030334D01*
X019417Y030432D02*
X022196Y030432D01*
X022168Y030728D02*
X022863Y030728D01*
X022865Y030826D02*
X022193Y030826D01*
X022193Y030925D02*
X022964Y030925D01*
X023062Y031023D02*
X022193Y031023D01*
X022193Y031122D02*
X023161Y031122D01*
X023280Y031220D02*
X022167Y031220D01*
X022611Y030432D02*
X022863Y030432D01*
X022863Y030531D02*
X019443Y030531D01*
X019443Y030629D02*
X022863Y030629D01*
X023083Y030733D02*
X023083Y029988D01*
X023103Y029968D01*
X023069Y030173D01*
X022403Y030173D01*
X022637Y029940D02*
X022638Y029940D01*
X023074Y029510D02*
X023103Y029299D01*
X023103Y029053D01*
X023433Y028783D01*
X025113Y028783D01*
X025113Y028339D01*
X025098Y028323D01*
X025098Y027523D01*
X025098Y027035D01*
X025098Y026839D01*
X025098Y026642D02*
X025098Y026445D01*
X025463Y026443D02*
X025752Y026155D01*
X026782Y026155D01*
X026782Y025958D02*
X025578Y025958D01*
X025493Y025873D01*
X024453Y025607D02*
X024447Y025613D01*
X023933Y025613D01*
X023532Y025252D01*
X022515Y025252D01*
X022515Y025705D01*
X022318Y025705D02*
X022313Y025805D01*
X022313Y025023D01*
X024289Y025023D01*
X024453Y024859D01*
X024453Y024863D01*
X024449Y024863D02*
X024453Y024859D01*
X024453Y025422D02*
X024453Y025607D01*
X024449Y025603D01*
X025119Y024669D02*
X025103Y024653D01*
X025119Y024669D02*
X025487Y024669D01*
X025487Y024680D01*
X025486Y024682D01*
X025941Y023833D02*
X027062Y023833D01*
X026774Y025753D02*
X026782Y025761D01*
X026782Y026745D02*
X026143Y026745D01*
X026143Y026942D01*
X026363Y027914D02*
X026363Y028501D01*
X026365Y028590D01*
X026363Y028592D01*
X026363Y028594D01*
X026301Y028657D01*
X025913Y029062D01*
X025913Y029064D01*
X025851Y029127D01*
X025845Y029133D01*
X025933Y029133D01*
X025933Y029489D01*
X026033Y029489D01*
X026033Y029589D01*
X026429Y029589D01*
X026429Y029814D01*
X026419Y029852D01*
X026449Y029882D01*
X026449Y030253D01*
X026718Y030253D01*
X026718Y029622D01*
X026726Y029613D01*
X026718Y029605D01*
X026718Y028952D01*
X026818Y028853D01*
X027549Y028853D01*
X027649Y028952D01*
X027649Y029059D01*
X027840Y029059D01*
X027826Y029053D01*
X027734Y028960D01*
X027683Y028839D01*
X027683Y028708D01*
X027706Y028652D01*
X027101Y028652D01*
X027002Y028553D01*
X027002Y027955D01*
X026404Y027955D01*
X026363Y027914D01*
X026363Y027970D02*
X027002Y027970D01*
X027002Y028068D02*
X026363Y028068D01*
X026363Y028167D02*
X027002Y028167D01*
X027002Y028265D02*
X026363Y028265D01*
X026363Y028364D02*
X027002Y028364D01*
X027002Y028462D02*
X026363Y028462D01*
X026365Y028561D02*
X027010Y028561D01*
X026814Y028856D02*
X026110Y028856D01*
X026204Y028758D02*
X027683Y028758D01*
X027691Y028856D02*
X027553Y028856D01*
X027649Y028955D02*
X027731Y028955D01*
X027649Y029053D02*
X027827Y029053D01*
X028013Y028773D02*
X028013Y027956D01*
X028014Y028175D01*
X027703Y028659D02*
X026299Y028659D01*
X026016Y028955D02*
X026718Y028955D01*
X026718Y029053D02*
X025921Y029053D01*
X025933Y029152D02*
X026033Y029152D01*
X026033Y029133D02*
X026298Y029133D01*
X026337Y029143D01*
X026371Y029163D01*
X026399Y029191D01*
X026418Y029225D01*
X026429Y029263D01*
X026429Y029489D01*
X026033Y029489D01*
X026033Y029133D01*
X026033Y029250D02*
X025933Y029250D01*
X025933Y029349D02*
X026033Y029349D01*
X026033Y029447D02*
X025933Y029447D01*
X026033Y029546D02*
X026718Y029546D01*
X026718Y029644D02*
X026429Y029644D01*
X026429Y029743D02*
X026718Y029743D01*
X026718Y029841D02*
X026421Y029841D01*
X026449Y029940D02*
X026718Y029940D01*
X026718Y030038D02*
X026449Y030038D01*
X026449Y030137D02*
X026718Y030137D01*
X026718Y030235D02*
X026449Y030235D01*
X026249Y030473D02*
X025983Y030208D01*
X026249Y030473D02*
X028388Y030473D01*
X028388Y030217D02*
X027453Y030217D01*
X027183Y029948D01*
X026718Y029447D02*
X026429Y029447D01*
X026429Y029349D02*
X026718Y029349D01*
X026718Y029250D02*
X026425Y029250D01*
X026352Y029152D02*
X026718Y029152D01*
X027183Y029279D02*
X028538Y029279D01*
X028613Y029203D01*
X028613Y027953D01*
X028605Y028175D01*
X028603Y027947D01*
X028999Y027769D02*
X028999Y027769D01*
X028999Y027718D01*
X028999Y027769D01*
X028999Y027769D01*
X029022Y028856D02*
X029794Y028856D01*
X029738Y028955D02*
X029022Y028955D01*
X029022Y029053D02*
X029738Y029053D01*
X029028Y030208D02*
X029018Y030217D01*
X029326Y030531D02*
X032453Y030531D01*
X032453Y030503D02*
X032923Y030503D01*
X032923Y030973D01*
X032758Y030973D01*
X032453Y030669D01*
X032453Y030503D01*
X032453Y030629D02*
X029346Y030629D01*
X029346Y030728D02*
X032512Y030728D01*
X032611Y030826D02*
X029346Y030826D01*
X028388Y030773D02*
X028388Y030729D01*
X028388Y030773D02*
X028344Y030773D01*
X031175Y030925D02*
X032709Y030925D01*
X032627Y031122D02*
X034353Y031122D01*
X034353Y031220D02*
X032779Y031220D01*
X032923Y030925D02*
X033023Y030925D01*
X033023Y030826D02*
X032923Y030826D01*
X032923Y030728D02*
X033023Y030728D01*
X033023Y030629D02*
X032923Y030629D01*
X032923Y030531D02*
X033023Y030531D01*
X033336Y030826D02*
X033583Y030826D01*
X033484Y030728D02*
X033434Y030728D01*
X033237Y030925D02*
X033681Y030925D01*
X033315Y031319D02*
X034353Y031319D01*
X034353Y031417D02*
X033349Y031417D01*
X034265Y030925D02*
X034353Y030925D01*
X034353Y031023D02*
X031183Y031023D01*
X031183Y031122D02*
X031797Y031122D01*
X031775Y031220D02*
X031183Y031220D01*
X031183Y031319D02*
X031775Y031319D01*
X031775Y031417D02*
X031183Y031417D01*
X031183Y031516D02*
X031775Y031516D01*
X031790Y031614D02*
X031183Y031614D01*
X031183Y031713D02*
X032418Y031713D01*
X032418Y031811D02*
X031183Y031811D01*
X031183Y031910D02*
X032418Y031910D01*
X032421Y032008D02*
X031183Y032008D01*
X031183Y032107D02*
X031796Y032107D01*
X031775Y032205D02*
X031183Y032205D01*
X031183Y032304D02*
X031775Y032304D01*
X031775Y032402D02*
X031183Y032402D01*
X031183Y032501D02*
X031775Y032501D01*
X031791Y032599D02*
X031183Y032599D01*
X031183Y032698D02*
X032442Y032698D01*
X033325Y032698D02*
X035203Y032698D01*
X035203Y032796D02*
X031183Y032796D01*
X031183Y032895D02*
X035203Y032895D01*
X035203Y032993D02*
X031183Y032993D01*
X031183Y033092D02*
X035203Y033092D01*
X035203Y033190D02*
X033865Y033190D01*
X033944Y033289D02*
X035203Y033289D01*
X035203Y032599D02*
X034544Y032599D01*
X034627Y032501D02*
X035203Y032501D01*
X035203Y032402D02*
X034668Y032402D01*
X034672Y032304D02*
X035203Y032304D01*
X035203Y032205D02*
X034655Y032205D01*
X034612Y032107D02*
X035203Y032107D01*
X035186Y032008D02*
X034627Y032008D01*
X034668Y031910D02*
X035105Y031910D01*
X035039Y031811D02*
X034673Y031811D01*
X034745Y031739D02*
X034745Y031739D01*
X034771Y031713D02*
X035043Y031713D01*
X035043Y031614D02*
X034838Y031614D01*
X034853Y031516D02*
X035043Y031516D01*
X035043Y031417D02*
X034853Y031417D01*
X034853Y031319D02*
X035043Y031319D01*
X035043Y031220D02*
X034853Y031220D01*
X034853Y031122D02*
X035043Y031122D01*
X035043Y031023D02*
X034853Y031023D01*
X034853Y030925D02*
X035043Y030925D01*
X035043Y030826D02*
X034853Y030826D01*
X034853Y030728D02*
X035043Y030728D01*
X035043Y030629D02*
X034853Y030629D01*
X034853Y030531D02*
X035043Y030531D01*
X035043Y030432D02*
X034853Y030432D01*
X034853Y030334D02*
X035043Y030334D01*
X035043Y030235D02*
X034853Y030235D01*
X034853Y030137D02*
X035043Y030137D01*
X035043Y030038D02*
X034853Y030038D01*
X034853Y029940D02*
X035043Y029940D01*
X035043Y029841D02*
X034853Y029841D01*
X034853Y029743D02*
X035043Y029743D01*
X035043Y029644D02*
X034853Y029644D01*
X034853Y029546D02*
X035043Y029546D01*
X035043Y029447D02*
X034853Y029447D01*
X034853Y029349D02*
X035043Y029349D01*
X035043Y029250D02*
X034853Y029250D01*
X034853Y029152D02*
X035043Y029152D01*
X035043Y029053D02*
X034853Y029053D01*
X034853Y028955D02*
X035043Y028955D01*
X035043Y028856D02*
X034853Y028856D01*
X034853Y028758D02*
X035043Y028758D01*
X035043Y028659D02*
X034853Y028659D01*
X034853Y028561D02*
X035043Y028561D01*
X035043Y028462D02*
X034853Y028462D01*
X034853Y028364D02*
X035043Y028364D01*
X035043Y028265D02*
X034853Y028265D01*
X034853Y028167D02*
X035043Y028167D01*
X035043Y028068D02*
X034853Y028068D01*
X034853Y027970D02*
X035043Y027970D01*
X035043Y027871D02*
X034853Y027871D01*
X034853Y027773D02*
X035043Y027773D01*
X033635Y026886D02*
X033543Y026886D01*
X033543Y026985D02*
X033553Y026985D01*
X033323Y026943D02*
X033323Y027803D01*
X027603Y027073D02*
X027589Y027059D01*
X025541Y029250D02*
X025445Y029250D01*
X025449Y029349D02*
X025538Y029349D01*
X025538Y029447D02*
X025449Y029447D01*
X025449Y029644D02*
X025538Y029644D01*
X025538Y029743D02*
X025449Y029743D01*
X025441Y029841D02*
X025545Y029841D01*
X025518Y029940D02*
X025469Y029940D01*
X025469Y030038D02*
X025518Y030038D01*
X025518Y030137D02*
X025469Y030137D01*
X025469Y030235D02*
X025518Y030235D01*
X025518Y030334D02*
X025469Y030334D01*
X025469Y030432D02*
X025518Y030432D01*
X024726Y030826D02*
X024193Y030826D01*
X024193Y030925D02*
X024251Y030925D01*
X024243Y031023D02*
X024193Y031023D01*
X024193Y031122D02*
X024243Y031122D01*
X024243Y031220D02*
X024167Y031220D01*
X024168Y030728D02*
X024651Y030728D01*
X024623Y030629D02*
X023303Y030629D01*
X023303Y030531D02*
X023574Y030531D01*
X023558Y030432D02*
X023303Y030432D01*
X023529Y030334D02*
X023558Y030334D01*
X023953Y030334D02*
X024053Y030334D01*
X024053Y030258D02*
X024053Y030614D01*
X024318Y030614D01*
X024357Y030604D01*
X024391Y030584D01*
X024419Y030556D01*
X024438Y030522D01*
X024449Y030484D01*
X024449Y030258D01*
X024053Y030258D01*
X024053Y030235D02*
X024538Y030235D01*
X024538Y030137D02*
X024449Y030137D01*
X024449Y030038D02*
X024538Y030038D01*
X024538Y029940D02*
X024449Y029940D01*
X024469Y029841D02*
X024565Y029841D01*
X024558Y029743D02*
X024469Y029743D01*
X024469Y029644D02*
X024558Y029644D01*
X024558Y029447D02*
X024469Y029447D01*
X024511Y029349D02*
X024558Y029349D01*
X024283Y030208D02*
X024003Y030208D01*
X024013Y030218D01*
X024053Y030432D02*
X023953Y030432D01*
X023953Y030531D02*
X024053Y030531D01*
X024433Y030531D02*
X024538Y030531D01*
X024538Y030432D02*
X024449Y030432D01*
X024449Y030334D02*
X024538Y030334D01*
X023723Y030973D02*
X023323Y030973D01*
X023083Y030733D01*
X023404Y032173D02*
X023698Y032173D01*
X023698Y032448D01*
X023273Y032448D01*
X023273Y032304D01*
X022193Y032304D01*
X022193Y032402D02*
X023273Y032402D01*
X023273Y032498D02*
X023698Y032498D01*
X023698Y032773D01*
X023404Y032773D01*
X023365Y032763D01*
X023331Y032743D01*
X023303Y032715D01*
X023284Y032681D01*
X023273Y032643D01*
X023273Y032498D01*
X023273Y032501D02*
X022193Y032501D01*
X022193Y032599D02*
X023273Y032599D01*
X023293Y032698D02*
X022189Y032698D01*
X022146Y032205D02*
X023329Y032205D01*
X023331Y032203D02*
X023365Y032184D01*
X023404Y032173D01*
X023331Y032203D02*
X023303Y032231D01*
X023284Y032265D01*
X023273Y032304D01*
X023698Y032304D02*
X023748Y032304D01*
X023748Y032402D02*
X023698Y032402D01*
X023698Y032501D02*
X023748Y032501D01*
X023748Y032599D02*
X023698Y032599D01*
X023698Y032698D02*
X023748Y032698D01*
X023748Y032205D02*
X023698Y032205D01*
X024243Y032895D02*
X017616Y032895D01*
X017615Y032993D02*
X024243Y032993D01*
X024243Y033092D02*
X017614Y033092D01*
X017614Y033190D02*
X018972Y033190D01*
X018893Y033289D02*
X017613Y033289D01*
X020285Y032698D02*
X020430Y032698D01*
X020917Y032698D02*
X021257Y032698D01*
X021253Y032599D02*
X021161Y032599D01*
X020769Y029873D02*
X020183Y029873D01*
X020163Y029893D01*
X020059Y028573D02*
X020059Y027683D01*
X020079Y027643D01*
X018943Y027643D01*
X018903Y027603D01*
X019623Y026703D02*
X019453Y026533D01*
X019453Y026123D01*
X019443Y026113D01*
X019293Y025603D02*
X018903Y025603D01*
X019293Y025603D02*
X019593Y025303D01*
X020758Y025303D01*
X020808Y025353D01*
X020838Y025323D01*
X021733Y025323D01*
X021733Y024543D01*
X021929Y024313D01*
X021852Y023833D02*
X021214Y023833D01*
X021214Y023734D02*
X021753Y023734D01*
X021655Y023636D02*
X021214Y023636D01*
X021190Y023537D02*
X021556Y023537D01*
X021458Y023439D02*
X019321Y023439D01*
X019200Y023537D02*
X019723Y023537D01*
X019708Y023636D02*
X019270Y023636D01*
X019368Y023734D02*
X019559Y023734D01*
X020758Y023734D02*
X020858Y023734D01*
X020858Y023636D02*
X020758Y023636D01*
X020758Y023537D02*
X020858Y023537D01*
X020858Y023833D02*
X020758Y023833D01*
X020808Y023913D02*
X020808Y024803D01*
X020808Y025353D01*
X020808Y025823D01*
X020808Y025774D01*
X020808Y026053D01*
X021873Y026053D01*
X021775Y026051D01*
X021783Y026051D01*
X021783Y026053D01*
X021775Y026248D02*
X021875Y026243D01*
X020808Y026243D01*
X020808Y026453D01*
X021875Y026453D01*
X021775Y026445D01*
X021775Y026642D02*
X020808Y026642D01*
X020808Y026703D01*
X020808Y026839D01*
X021775Y026839D01*
X021775Y026642D02*
X021867Y026633D01*
X021870Y026253D02*
X021775Y026248D01*
X022113Y025805D02*
X022113Y024793D01*
X022677Y024793D01*
X022677Y024313D01*
X023493Y024103D02*
X023513Y024103D01*
X022478Y022552D02*
X022366Y022552D01*
X022366Y022454D02*
X022478Y022454D01*
X022478Y022355D02*
X022366Y022355D01*
X022304Y022257D02*
X022498Y022257D01*
X022498Y022158D02*
X020780Y022158D01*
X020821Y022060D02*
X022498Y022060D01*
X022678Y021567D02*
X022688Y021567D01*
X022678Y021469D02*
X022688Y021469D01*
X022678Y021370D02*
X022688Y021370D01*
X022678Y021272D02*
X022688Y021272D01*
X022943Y021272D02*
X023143Y021272D01*
X023143Y021370D02*
X022943Y021370D01*
X022939Y021469D02*
X023143Y021469D01*
X023143Y021075D02*
X022943Y021075D01*
X022943Y020976D02*
X023143Y020976D01*
X023143Y020878D02*
X022939Y020878D01*
X022861Y020779D02*
X023207Y020779D01*
X023333Y020582D02*
X024006Y020582D01*
X023911Y020484D02*
X023333Y020484D01*
X023333Y020385D02*
X023870Y020385D01*
X023863Y020287D02*
X023333Y020287D01*
X023333Y020188D02*
X023884Y020188D01*
X023940Y020090D02*
X023333Y020090D01*
X022505Y020779D02*
X022263Y020779D01*
X022317Y020878D02*
X022428Y020878D01*
X022423Y020976D02*
X022323Y020976D01*
X021083Y020681D02*
X020995Y020681D01*
X021083Y020582D02*
X020389Y020582D01*
X020389Y020484D02*
X021083Y020484D01*
X021083Y020385D02*
X020389Y020385D01*
X020389Y020287D02*
X021083Y020287D01*
X021083Y020188D02*
X020992Y020188D01*
X021011Y020169D02*
X021011Y019713D01*
X020912Y019614D01*
X020535Y019614D01*
X020457Y019691D01*
X020061Y019691D01*
X020033Y019703D01*
X019558Y019703D01*
X019458Y019802D01*
X019458Y019879D01*
X018776Y019879D01*
X018712Y019815D01*
X018577Y019759D01*
X018430Y019759D01*
X018295Y019815D01*
X018191Y019919D01*
X018135Y020054D01*
X018135Y020201D01*
X018191Y020336D01*
X018228Y020373D01*
X018191Y020411D01*
X018135Y020546D01*
X018135Y020634D01*
X018111Y020658D01*
X018073Y020750D01*
X018073Y024123D01*
X018073Y024323D01*
X017783Y024323D01*
X017783Y020712D01*
X017789Y020650D01*
X017783Y020643D01*
X017783Y020633D01*
X017740Y020589D01*
X017643Y020472D01*
X017653Y020484D02*
X018161Y020484D01*
X018135Y020582D02*
X017734Y020582D01*
X017786Y020681D02*
X018102Y020681D01*
X018073Y020779D02*
X017783Y020779D01*
X017783Y020878D02*
X018073Y020878D01*
X018073Y020976D02*
X017783Y020976D01*
X017783Y021075D02*
X018073Y021075D01*
X018073Y021173D02*
X017783Y021173D01*
X017783Y021272D02*
X018073Y021272D01*
X018073Y021370D02*
X017783Y021370D01*
X017783Y021469D02*
X018073Y021469D01*
X018073Y021567D02*
X017783Y021567D01*
X017783Y021666D02*
X018073Y021666D01*
X018073Y021764D02*
X017783Y021764D01*
X017783Y021863D02*
X018073Y021863D01*
X018073Y021961D02*
X017783Y021961D01*
X017783Y022060D02*
X018073Y022060D01*
X018073Y022158D02*
X017783Y022158D01*
X017783Y022257D02*
X018073Y022257D01*
X018073Y022355D02*
X017783Y022355D01*
X017783Y022454D02*
X018073Y022454D01*
X018073Y022552D02*
X017783Y022552D01*
X017783Y022651D02*
X018073Y022651D01*
X018073Y022749D02*
X017783Y022749D01*
X017783Y022848D02*
X018073Y022848D01*
X018073Y022946D02*
X017783Y022946D01*
X017783Y023045D02*
X018073Y023045D01*
X018073Y023143D02*
X017783Y023143D01*
X017783Y023242D02*
X018073Y023242D01*
X018073Y023340D02*
X017783Y023340D01*
X017783Y023439D02*
X018073Y023439D01*
X018073Y023537D02*
X017783Y023537D01*
X017783Y023636D02*
X018073Y023636D01*
X018073Y023734D02*
X017783Y023734D01*
X017783Y023833D02*
X018073Y023833D01*
X018073Y023931D02*
X017783Y023931D01*
X017783Y024030D02*
X018073Y024030D01*
X018073Y024128D02*
X017783Y024128D01*
X017783Y024227D02*
X018073Y024227D01*
X019053Y024793D02*
X019063Y024803D01*
X020139Y024803D01*
X020139Y025823D02*
X020139Y026703D01*
X019623Y026703D01*
X020099Y026703D02*
X020139Y026703D01*
X020099Y026703D02*
X020079Y027643D01*
X020808Y027643D02*
X020808Y026703D01*
X020808Y026453D01*
X020808Y026243D02*
X020808Y026243D01*
X020808Y026053D01*
X020808Y026664D02*
X020808Y026703D01*
X020808Y026833D01*
X020808Y026843D02*
X020808Y026703D01*
X021373Y027293D02*
X021373Y027433D01*
X022121Y027433D01*
X022121Y027382D01*
X022318Y027382D02*
X022323Y027282D01*
X022323Y027933D01*
X022909Y028323D02*
X022909Y027382D01*
X023105Y027382D02*
X023105Y027603D01*
X024429Y027523D01*
X024429Y028323D02*
X022909Y028323D01*
X020813Y028579D02*
X020807Y028573D01*
X020813Y027933D02*
X020813Y027649D01*
X020808Y027643D02*
X020827Y027643D01*
X022113Y025805D02*
X022121Y025705D01*
X021398Y024227D02*
X021214Y024227D01*
X021214Y024128D02*
X021402Y024128D01*
X021406Y024030D02*
X021214Y024030D01*
X021410Y023931D02*
X020858Y023931D01*
X020808Y023913D02*
X020918Y023843D01*
X019492Y021961D02*
X019473Y021961D01*
X019435Y021863D02*
X019590Y021863D01*
X019689Y021764D02*
X019394Y021764D01*
X019507Y021173D02*
X018573Y021173D01*
X018573Y021075D02*
X019458Y021075D01*
X019458Y020976D02*
X018604Y020976D01*
X018766Y020878D02*
X019458Y020878D01*
X019954Y021469D02*
X018573Y021469D01*
X018573Y021567D02*
X018720Y021567D01*
X018216Y020385D02*
X017643Y020385D01*
X017643Y020287D02*
X018171Y020287D01*
X018135Y020188D02*
X017643Y020188D01*
X017643Y020090D02*
X018135Y020090D01*
X018161Y019991D02*
X017643Y019991D01*
X017643Y019893D02*
X018217Y019893D01*
X018344Y019794D02*
X017643Y019794D01*
X017643Y019696D02*
X020050Y019696D01*
X019466Y019794D02*
X018662Y019794D01*
X017643Y019597D02*
X021236Y019597D01*
X021137Y019696D02*
X020994Y019696D01*
X021011Y019794D02*
X021087Y019794D01*
X021083Y019893D02*
X021011Y019893D01*
X021011Y019991D02*
X021083Y019991D01*
X026363Y021163D02*
X026423Y021163D01*
X033349Y032599D02*
X034062Y032599D01*
D31*
X034275Y032348D02*
X034303Y032319D01*
X034275Y032348D02*
X032883Y032348D01*
X032876Y032355D01*
X032063Y032355D01*
X032063Y031371D02*
X032576Y031371D01*
X032883Y031679D01*
X034155Y031679D01*
X034303Y031827D01*
X034603Y031527D01*
X034603Y021453D01*
X031603Y021453D01*
X031603Y019773D01*
X021413Y019773D01*
X021333Y019853D01*
X021333Y020933D01*
X021343Y020933D01*
X021343Y020943D01*
X022073Y020943D01*
X022073Y021602D01*
X022087Y021602D01*
X021713Y021602D02*
X021713Y022053D01*
X021753Y022093D01*
X022673Y022093D01*
X022683Y022083D01*
X022683Y021173D01*
X022848Y022009D02*
X022763Y022093D01*
X022673Y022093D01*
X022848Y022009D02*
X022943Y022009D01*
X021753Y022093D02*
X021093Y022093D01*
X020813Y022373D01*
X020813Y022883D01*
X020803Y022873D01*
X020313Y022873D01*
X020813Y022883D02*
X020813Y023713D01*
X020853Y023673D01*
X021383Y023673D01*
X020813Y023713D02*
X020813Y023908D01*
X020808Y023913D01*
X020139Y023913D02*
X020069Y023883D01*
X019763Y023883D01*
X019583Y024063D01*
X018933Y024063D01*
X018343Y024063D01*
X018323Y024083D01*
X018323Y020799D01*
X018503Y020619D01*
X019745Y020619D01*
X019923Y020798D01*
X019923Y020925D01*
X020723Y020925D01*
X020723Y020933D01*
X021333Y020933D01*
X021343Y020943D02*
X021343Y021602D01*
X021339Y021602D01*
X020723Y020925D02*
X020723Y020862D01*
X019987Y020862D02*
X019923Y020798D01*
X019923Y020129D02*
X018505Y020129D01*
X018503Y020127D01*
X019923Y020129D02*
X020111Y019941D01*
X020723Y019941D01*
X022663Y020313D02*
X023053Y020313D01*
X024193Y020303D02*
X024533Y020303D01*
X025613Y020313D02*
X025623Y020303D01*
X025993Y020303D01*
X027043Y020313D02*
X027423Y020313D01*
X031603Y019773D02*
X032145Y019773D01*
X032133Y019961D01*
X032193Y019773D01*
X032883Y019773D01*
X032883Y020159D01*
X032873Y020159D01*
X034303Y020159D01*
X034303Y020127D01*
X034303Y020619D02*
X034095Y020828D01*
X032873Y020828D01*
X032756Y020945D01*
X032133Y020945D01*
X020313Y021873D02*
X020303Y021863D01*
X019943Y021863D01*
X019633Y022173D01*
X019633Y022703D01*
X019553Y022783D01*
X019543Y022783D01*
X019263Y023063D01*
X018933Y023063D01*
X018323Y024083D02*
X018323Y024123D01*
X018303Y030483D01*
X018303Y031063D01*
X018493Y031253D01*
X019213Y031253D01*
X019473Y030993D01*
X019473Y030983D01*
X019533Y030923D01*
X020883Y030923D01*
X021113Y031153D01*
X021113Y032293D01*
X020973Y032433D01*
X020681Y032433D01*
X020673Y032425D01*
X020061Y032425D01*
X019913Y032278D01*
X019926Y032265D01*
X019913Y032278D02*
X018545Y032278D01*
X018503Y032319D01*
X018503Y031827D02*
X018722Y031609D01*
X019913Y031609D01*
X020081Y031441D01*
X020673Y031441D01*
X019913Y032278D02*
X019929Y032293D01*
D32*
X024913Y030603D02*
X024913Y030218D01*
X025003Y030208D01*
X024913Y030603D02*
X025083Y030773D01*
X026503Y030773D01*
X028344Y030773D01*
X026503Y030773D02*
X026503Y031973D01*
M02*
