G75*
%MOIN*%
%OFA0B0*%
%FSLAX24Y24*%
%IPPOS*%
%LPD*%
%AMOC8*
5,1,8,0,0,1.08239X$1,22.5*
%
%ADD10C,0.0040*%
%ADD11C,0.0000*%
%ADD12C,0.0080*%
%ADD13C,0.0050*%
%ADD14R,0.0059X0.0118*%
%ADD15R,0.0118X0.0118*%
%ADD16C,0.0060*%
%ADD17R,0.0433X0.0236*%
D10*
X019549Y019560D02*
X019596Y019513D01*
X019689Y019513D01*
X019736Y019560D01*
X019844Y019513D02*
X020031Y019513D01*
X019937Y019513D02*
X019937Y019794D01*
X019844Y019700D01*
X019736Y019747D02*
X019689Y019794D01*
X019596Y019794D01*
X019549Y019747D01*
X019549Y019560D01*
X020139Y019560D02*
X020185Y019513D01*
X020279Y019513D01*
X020326Y019560D01*
X020326Y019607D01*
X020279Y019653D01*
X020232Y019653D01*
X020279Y019653D02*
X020326Y019700D01*
X020326Y019747D01*
X020279Y019794D01*
X020185Y019794D01*
X020139Y019747D01*
X020507Y020099D02*
X020507Y020768D01*
X020940Y020768D02*
X020940Y020099D01*
X020954Y019828D02*
X021094Y019828D01*
X021140Y019782D01*
X021140Y019595D01*
X021094Y019548D01*
X020954Y019548D01*
X020954Y019828D01*
X021248Y019782D02*
X021295Y019828D01*
X021388Y019828D01*
X021435Y019782D01*
X021435Y019735D01*
X021388Y019688D01*
X021435Y019641D01*
X021435Y019595D01*
X021388Y019548D01*
X021295Y019548D01*
X021248Y019595D01*
X021342Y019688D02*
X021388Y019688D01*
X021378Y020910D02*
X021425Y020957D01*
X021425Y021191D01*
X021532Y021144D02*
X021579Y021191D01*
X021673Y021191D01*
X021719Y021144D01*
X021719Y021097D01*
X021532Y020910D01*
X021719Y020910D01*
X021378Y020910D02*
X021284Y020910D01*
X021238Y020957D01*
X021238Y021191D01*
X019663Y021447D02*
X019570Y021540D01*
X019383Y021540D01*
X019383Y021648D02*
X019383Y021788D01*
X019430Y021835D01*
X019477Y021835D01*
X019523Y021788D01*
X019523Y021648D01*
X019663Y021648D02*
X019383Y021648D01*
X019523Y021788D02*
X019570Y021835D01*
X019617Y021835D01*
X019663Y021788D01*
X019663Y021648D01*
X019663Y021447D02*
X019570Y021353D01*
X019383Y021353D01*
X019050Y021429D02*
X019050Y021476D01*
X019003Y021523D01*
X018957Y021523D01*
X019003Y021523D02*
X019050Y021569D01*
X019050Y021616D01*
X019003Y021663D01*
X018910Y021663D01*
X018863Y021616D01*
X018755Y021663D02*
X018568Y021476D01*
X018615Y021523D02*
X018755Y021383D01*
X018863Y021429D02*
X018910Y021383D01*
X019003Y021383D01*
X019050Y021429D01*
X018568Y021383D02*
X018568Y021663D01*
X019383Y022036D02*
X019477Y022129D01*
X019663Y022129D01*
X019523Y022129D02*
X019523Y021943D01*
X019477Y021943D02*
X019383Y022036D01*
X019477Y021943D02*
X019663Y021943D01*
X019663Y022331D02*
X019383Y022331D01*
X019383Y022424D02*
X019383Y022237D01*
X019440Y022663D02*
X019627Y022663D01*
X019673Y022710D01*
X019673Y022803D01*
X019627Y022850D01*
X019533Y022850D01*
X019533Y022757D01*
X019440Y022850D02*
X019393Y022803D01*
X019393Y022710D01*
X019440Y022663D01*
X019393Y022958D02*
X019673Y023145D01*
X019393Y023145D01*
X019393Y023253D02*
X019393Y023393D01*
X019440Y023439D01*
X019627Y023439D01*
X019673Y023393D01*
X019673Y023253D01*
X019393Y023253D01*
X019393Y022958D02*
X019673Y022958D01*
X020035Y023473D02*
X020082Y023473D01*
X020128Y023520D01*
X020128Y023753D01*
X020082Y023753D02*
X020175Y023753D01*
X020283Y023753D02*
X020423Y023753D01*
X020470Y023707D01*
X020470Y023613D01*
X020423Y023566D01*
X020283Y023566D01*
X020283Y023473D02*
X020283Y023753D01*
X020578Y023707D02*
X020624Y023753D01*
X020718Y023753D01*
X020765Y023707D01*
X020765Y023660D01*
X020718Y023613D01*
X020765Y023566D01*
X020765Y023520D01*
X020718Y023473D01*
X020624Y023473D01*
X020578Y023520D01*
X020671Y023613D02*
X020718Y023613D01*
X021289Y023578D02*
X021289Y023484D01*
X021335Y023438D01*
X021522Y023438D01*
X021569Y023484D01*
X021569Y023578D01*
X021522Y023624D01*
X021569Y023732D02*
X021382Y023919D01*
X021335Y023919D01*
X021289Y023872D01*
X021289Y023779D01*
X021335Y023732D01*
X021335Y023624D02*
X021289Y023578D01*
X021569Y023732D02*
X021569Y023919D01*
X021522Y024027D02*
X021569Y024074D01*
X021569Y024167D01*
X021522Y024214D01*
X021476Y024214D01*
X021429Y024167D01*
X021429Y024120D01*
X021429Y024167D02*
X021382Y024214D01*
X021335Y024214D01*
X021289Y024167D01*
X021289Y024074D01*
X021335Y024027D01*
X021336Y024357D02*
X021523Y024357D01*
X021570Y024404D01*
X021570Y024497D01*
X021523Y024544D01*
X021570Y024652D02*
X021570Y024839D01*
X021570Y024745D02*
X021289Y024745D01*
X021383Y024652D01*
X021336Y024544D02*
X021289Y024497D01*
X021289Y024404D01*
X021336Y024357D01*
X021336Y024946D02*
X021289Y024993D01*
X021289Y025086D01*
X021336Y025133D01*
X021383Y025133D01*
X021570Y024946D01*
X021570Y025133D01*
X021551Y025328D02*
X021598Y025374D01*
X021598Y025468D01*
X021551Y025514D01*
X021598Y025622D02*
X021598Y025809D01*
X021598Y025716D02*
X021317Y025716D01*
X021411Y025622D01*
X021364Y025514D02*
X021317Y025468D01*
X021317Y025374D01*
X021364Y025328D01*
X021551Y025328D01*
X021551Y025917D02*
X021364Y026104D01*
X021551Y026104D01*
X021598Y026057D01*
X021598Y025964D01*
X021551Y025917D01*
X021364Y025917D01*
X021317Y025964D01*
X021317Y026057D01*
X021364Y026104D01*
X021366Y026408D02*
X021553Y026408D01*
X021600Y026454D01*
X021600Y026548D01*
X021553Y026594D01*
X021553Y026702D02*
X021600Y026749D01*
X021600Y026842D01*
X021553Y026889D01*
X021506Y026889D01*
X021459Y026842D01*
X021459Y026796D01*
X021459Y026842D02*
X021413Y026889D01*
X021366Y026889D01*
X021319Y026842D01*
X021319Y026749D01*
X021366Y026702D01*
X021366Y026594D02*
X021319Y026548D01*
X021319Y026454D01*
X021366Y026408D01*
X021325Y027554D02*
X021512Y027554D01*
X021558Y027601D01*
X021558Y027694D01*
X021512Y027741D01*
X021418Y027849D02*
X021418Y028036D01*
X021278Y027989D02*
X021418Y027849D01*
X021325Y027741D02*
X021278Y027694D01*
X021278Y027601D01*
X021325Y027554D01*
X021278Y027989D02*
X021558Y027989D01*
X021522Y028303D02*
X021568Y028350D01*
X021568Y028443D01*
X021522Y028490D01*
X021568Y028598D02*
X021382Y028785D01*
X021335Y028785D01*
X021288Y028738D01*
X021288Y028645D01*
X021335Y028598D01*
X021335Y028490D02*
X021288Y028443D01*
X021288Y028350D01*
X021335Y028303D01*
X021522Y028303D01*
X021568Y028598D02*
X021568Y028785D01*
X021428Y028893D02*
X021428Y029079D01*
X021288Y029033D02*
X021428Y028893D01*
X021568Y029033D02*
X021288Y029033D01*
X021936Y029519D02*
X021983Y029473D01*
X022170Y029473D01*
X022216Y029519D01*
X022216Y029613D01*
X022170Y029660D01*
X022216Y029767D02*
X022216Y029954D01*
X022216Y029861D02*
X021936Y029861D01*
X022029Y029767D01*
X021983Y029660D02*
X021936Y029613D01*
X021936Y029519D01*
X021936Y030062D02*
X022076Y030062D01*
X022029Y030155D01*
X022029Y030202D01*
X022076Y030249D01*
X022170Y030249D01*
X022216Y030202D01*
X022216Y030109D01*
X022170Y030062D01*
X021936Y030062D02*
X021936Y030249D01*
X023695Y030777D02*
X023695Y030964D01*
X023742Y031011D01*
X023835Y031011D01*
X023882Y030964D01*
X023990Y030964D02*
X024037Y031011D01*
X024130Y031011D01*
X024177Y030964D01*
X024177Y030917D01*
X023990Y030730D01*
X024177Y030730D01*
X023882Y030777D02*
X023835Y030730D01*
X023742Y030730D01*
X023695Y030777D01*
X024011Y031589D02*
X023965Y031636D01*
X024011Y031589D02*
X024105Y031589D01*
X024151Y031636D01*
X024151Y031683D01*
X024105Y031729D01*
X024011Y031729D01*
X023965Y031776D01*
X023965Y031823D01*
X024011Y031870D01*
X024105Y031870D01*
X024151Y031823D01*
X024259Y031776D02*
X024353Y031870D01*
X024353Y031589D01*
X024446Y031589D02*
X024259Y031589D01*
X024776Y030987D02*
X024729Y030940D01*
X024729Y030754D01*
X024776Y030707D01*
X024869Y030707D01*
X024916Y030754D01*
X025024Y030754D02*
X025070Y030707D01*
X025164Y030707D01*
X025210Y030754D01*
X025210Y030940D01*
X025164Y030987D01*
X025070Y030987D01*
X025024Y030940D01*
X025024Y030894D01*
X025070Y030847D01*
X025210Y030847D01*
X024916Y030940D02*
X024869Y030987D01*
X024776Y030987D01*
X025690Y030925D02*
X025690Y030738D01*
X025736Y030691D01*
X025830Y030691D01*
X025877Y030738D01*
X025984Y030691D02*
X026171Y030691D01*
X026078Y030691D02*
X026078Y030971D01*
X025984Y030878D01*
X025877Y030925D02*
X025830Y030971D01*
X025736Y030971D01*
X025690Y030925D01*
X026279Y030878D02*
X026373Y030971D01*
X026373Y030691D01*
X026466Y030691D02*
X026279Y030691D01*
X026923Y030765D02*
X026923Y030578D01*
X026969Y030531D01*
X027063Y030531D01*
X027110Y030578D01*
X027217Y030531D02*
X027404Y030531D01*
X027311Y030531D02*
X027311Y030811D01*
X027217Y030718D01*
X027110Y030765D02*
X027063Y030811D01*
X026969Y030811D01*
X026923Y030765D01*
X027512Y030811D02*
X027699Y030811D01*
X027699Y030765D01*
X027512Y030578D01*
X027512Y030531D01*
X028466Y029946D02*
X028606Y029946D01*
X028653Y029899D01*
X028653Y029853D01*
X028606Y029806D01*
X028466Y029806D01*
X028606Y029806D02*
X028653Y029759D01*
X028653Y029712D01*
X028606Y029666D01*
X028466Y029666D01*
X028466Y029946D01*
X028761Y029853D02*
X028854Y029946D01*
X028854Y029666D01*
X028761Y029666D02*
X028947Y029666D01*
X029774Y030481D02*
X029821Y030434D01*
X029914Y030434D01*
X029961Y030481D01*
X030069Y030434D02*
X030256Y030434D01*
X030162Y030434D02*
X030162Y030715D01*
X030069Y030621D01*
X029961Y030668D02*
X029914Y030715D01*
X029821Y030715D01*
X029774Y030668D01*
X029774Y030481D01*
X030364Y030481D02*
X030410Y030434D01*
X030504Y030434D01*
X030550Y030481D01*
X030550Y030528D01*
X030504Y030574D01*
X030364Y030574D01*
X030364Y030481D01*
X030364Y030574D02*
X030457Y030668D01*
X030550Y030715D01*
X031446Y030675D02*
X031446Y030862D01*
X031492Y030909D01*
X031586Y030909D01*
X031633Y030862D01*
X031740Y030816D02*
X031834Y030909D01*
X031834Y030629D01*
X031927Y030629D02*
X031740Y030629D01*
X031633Y030675D02*
X031586Y030629D01*
X031492Y030629D01*
X031446Y030675D01*
X032363Y031110D02*
X032410Y031063D01*
X032503Y031063D01*
X032550Y031110D01*
X032658Y031063D02*
X032845Y031063D01*
X032751Y031063D02*
X032751Y031344D01*
X032658Y031250D01*
X032550Y031297D02*
X032503Y031344D01*
X032410Y031344D01*
X032363Y031297D01*
X032363Y031110D01*
X032280Y031529D02*
X032280Y032198D01*
X031847Y032198D02*
X031847Y031529D01*
X031728Y031614D02*
X031728Y031754D01*
X031681Y031801D01*
X031495Y031801D01*
X031448Y031754D01*
X031448Y031614D01*
X031728Y031614D01*
X031588Y031908D02*
X031588Y032095D01*
X031728Y032048D02*
X031448Y032048D01*
X031588Y031908D01*
X031572Y032623D02*
X031572Y032904D01*
X031479Y032810D01*
X031479Y032623D02*
X031666Y032623D01*
X031077Y032810D02*
X030983Y032623D01*
X030890Y032810D01*
X030782Y032763D02*
X030782Y032717D01*
X030595Y032717D01*
X030595Y032763D02*
X030642Y032810D01*
X030735Y032810D01*
X030782Y032763D01*
X030735Y032623D02*
X030642Y032623D01*
X030595Y032670D01*
X030595Y032763D01*
X030487Y032763D02*
X030441Y032717D01*
X030300Y032717D01*
X030300Y032623D02*
X030300Y032904D01*
X030441Y032904D01*
X030487Y032857D01*
X030487Y032763D01*
X030394Y032717D02*
X030487Y032623D01*
X030112Y032196D02*
X030018Y032103D01*
X029911Y032103D02*
X029911Y031916D01*
X030018Y031916D02*
X030205Y031916D01*
X030112Y031916D02*
X030112Y032196D01*
X029911Y032103D02*
X029817Y032196D01*
X029724Y032103D01*
X029724Y031916D01*
X029724Y032056D02*
X029911Y032056D01*
X029760Y032623D02*
X029760Y032810D01*
X029760Y032717D02*
X029854Y032810D01*
X029900Y032810D01*
X029652Y032763D02*
X029652Y032717D01*
X029466Y032717D01*
X029466Y032763D02*
X029512Y032810D01*
X029606Y032810D01*
X029652Y032763D01*
X029606Y032623D02*
X029512Y032623D01*
X029466Y032670D01*
X029466Y032763D01*
X029363Y032810D02*
X029269Y032810D01*
X029316Y032857D02*
X029316Y032670D01*
X029363Y032623D01*
X029161Y032670D02*
X029161Y032763D01*
X029115Y032810D01*
X028975Y032810D01*
X028975Y032530D01*
X028975Y032623D02*
X029115Y032623D01*
X029161Y032670D01*
X028867Y032670D02*
X028867Y032763D01*
X028820Y032810D01*
X028727Y032810D01*
X028680Y032763D01*
X028680Y032670D01*
X028727Y032623D01*
X028820Y032623D01*
X028867Y032670D01*
X028572Y032670D02*
X028525Y032623D01*
X028432Y032623D01*
X028385Y032670D01*
X028385Y032857D01*
X028432Y032904D01*
X028525Y032904D01*
X028572Y032857D01*
X028277Y032904D02*
X028277Y032623D01*
X028137Y032623D01*
X028091Y032670D01*
X028091Y032763D01*
X028137Y032810D01*
X028277Y032810D01*
X027983Y032763D02*
X027983Y032623D01*
X027843Y032623D01*
X027796Y032670D01*
X027843Y032717D01*
X027983Y032717D01*
X027983Y032763D02*
X027936Y032810D01*
X027843Y032810D01*
X027688Y032810D02*
X027688Y032623D01*
X027548Y032623D01*
X027501Y032670D01*
X027501Y032810D01*
X027393Y032857D02*
X027393Y032670D01*
X027347Y032623D01*
X027253Y032623D01*
X027207Y032670D01*
X027207Y032857D01*
X027253Y032904D01*
X027347Y032904D01*
X027393Y032857D01*
X027300Y032717D02*
X027393Y032623D01*
X026804Y032670D02*
X026804Y032857D01*
X026757Y032904D01*
X026617Y032904D01*
X026617Y032623D01*
X026757Y032623D01*
X026804Y032670D01*
X026509Y032670D02*
X026463Y032623D01*
X026369Y032623D01*
X026323Y032670D01*
X026369Y032763D02*
X026463Y032763D01*
X026509Y032717D01*
X026509Y032670D01*
X026369Y032763D02*
X026323Y032810D01*
X026323Y032857D01*
X026369Y032904D01*
X026463Y032904D01*
X026509Y032857D01*
X026215Y032857D02*
X026168Y032904D01*
X026075Y032904D01*
X026028Y032857D01*
X026028Y032670D01*
X026075Y032623D01*
X026168Y032623D01*
X026215Y032670D01*
X025920Y032670D02*
X025920Y032904D01*
X025733Y032904D02*
X025733Y032670D01*
X025780Y032623D01*
X025873Y032623D01*
X025920Y032670D01*
X021349Y032075D02*
X021349Y031888D01*
X021162Y032075D01*
X021115Y032075D01*
X021068Y032028D01*
X021068Y031935D01*
X021115Y031888D01*
X021115Y031780D02*
X021068Y031734D01*
X021068Y031594D01*
X021349Y031594D01*
X021349Y031734D01*
X021302Y031780D01*
X021115Y031780D01*
X020890Y031599D02*
X020890Y032268D01*
X020457Y032268D02*
X020457Y031599D01*
X020128Y031264D02*
X020035Y031264D01*
X019988Y031217D01*
X019988Y031170D01*
X020035Y031123D01*
X020128Y031123D01*
X020175Y031077D01*
X020175Y031030D01*
X020128Y030983D01*
X020035Y030983D01*
X019988Y031030D01*
X019988Y031077D01*
X020035Y031123D01*
X020128Y031123D02*
X020175Y031170D01*
X020175Y031217D01*
X020128Y031264D01*
X019880Y031217D02*
X019833Y031264D01*
X019740Y031264D01*
X019693Y031217D01*
X019693Y031030D01*
X019740Y030983D01*
X019833Y030983D01*
X019880Y031030D01*
X018283Y031029D02*
X018190Y030936D01*
X018190Y030983D02*
X018190Y030843D01*
X018283Y030843D02*
X018003Y030843D01*
X018003Y030983D01*
X018050Y031029D01*
X018143Y031029D01*
X018190Y030983D01*
X018003Y030735D02*
X018003Y030548D01*
X018003Y030641D02*
X018283Y030641D01*
X018237Y030440D02*
X018050Y030440D01*
X018003Y030393D01*
X018003Y030253D01*
X018283Y030253D01*
X018283Y030393D01*
X018237Y030440D01*
X018227Y030099D02*
X018273Y030053D01*
X018273Y029959D01*
X018227Y029913D01*
X018040Y030099D01*
X018227Y030099D01*
X018227Y029913D02*
X018040Y029913D01*
X017993Y029959D01*
X017993Y030053D01*
X018040Y030099D01*
X017993Y029805D02*
X018273Y029618D01*
X018273Y029510D02*
X018180Y029417D01*
X018180Y029463D02*
X018180Y029323D01*
X018273Y029323D02*
X017993Y029323D01*
X017993Y029463D01*
X018040Y029510D01*
X018133Y029510D01*
X018180Y029463D01*
X017993Y029618D02*
X018273Y029805D01*
X018237Y029099D02*
X018283Y029053D01*
X018283Y028959D01*
X018237Y028913D01*
X018050Y029099D01*
X018237Y029099D01*
X018237Y028913D02*
X018050Y028913D01*
X018003Y028959D01*
X018003Y029053D01*
X018050Y029099D01*
X018003Y028805D02*
X018283Y028618D01*
X018283Y028805D02*
X018003Y028618D01*
X018003Y028510D02*
X018003Y028323D01*
X018003Y028417D02*
X018283Y028417D01*
X018200Y028147D02*
X018013Y028147D01*
X018200Y028147D02*
X018293Y028053D01*
X018200Y027960D01*
X018013Y027960D01*
X018060Y027852D02*
X018107Y027852D01*
X018153Y027805D01*
X018200Y027852D01*
X018247Y027852D01*
X018293Y027805D01*
X018293Y027712D01*
X018247Y027665D01*
X018247Y027565D02*
X018293Y027565D01*
X018293Y027518D01*
X018247Y027518D01*
X018247Y027565D01*
X018247Y027410D02*
X018293Y027363D01*
X018293Y027270D01*
X018247Y027223D01*
X018153Y027317D02*
X018153Y027363D01*
X018200Y027410D01*
X018247Y027410D01*
X018153Y027363D02*
X018107Y027410D01*
X018060Y027410D01*
X018013Y027363D01*
X018013Y027270D01*
X018060Y027223D01*
X018060Y027665D02*
X018013Y027712D01*
X018013Y027805D01*
X018060Y027852D01*
X018153Y027805D02*
X018153Y027759D01*
X018070Y026029D02*
X018023Y025983D01*
X018023Y025843D01*
X018303Y025843D01*
X018303Y025983D01*
X018257Y026029D01*
X018070Y026029D01*
X018023Y025735D02*
X018303Y025735D01*
X018023Y025548D01*
X018303Y025548D01*
X018257Y025440D02*
X018163Y025440D01*
X018163Y025347D01*
X018070Y025440D02*
X018023Y025393D01*
X018023Y025300D01*
X018070Y025253D01*
X018257Y025253D01*
X018303Y025300D01*
X018303Y025393D01*
X018257Y025440D01*
X018421Y024949D02*
X018515Y024949D01*
X018468Y024949D02*
X018468Y024715D01*
X018421Y024669D01*
X018374Y024669D01*
X018328Y024715D01*
X018622Y024669D02*
X018622Y024949D01*
X018763Y024949D01*
X018809Y024902D01*
X018809Y024809D01*
X018763Y024762D01*
X018622Y024762D01*
X018917Y024715D02*
X018964Y024669D01*
X019057Y024669D01*
X019104Y024715D01*
X019104Y024902D01*
X019057Y024949D01*
X018964Y024949D01*
X018917Y024902D01*
X018917Y024856D01*
X018964Y024809D01*
X019104Y024809D01*
X019988Y023520D02*
X020035Y023473D01*
X018333Y023425D02*
X018333Y023238D01*
X018147Y023425D01*
X018100Y023425D01*
X018053Y023378D01*
X018053Y023285D01*
X018100Y023238D01*
X018100Y023130D02*
X018053Y023083D01*
X018053Y022990D01*
X018100Y022943D01*
X018147Y022943D01*
X018193Y022990D01*
X018193Y023083D01*
X018240Y023130D01*
X018287Y023130D01*
X018333Y023083D01*
X018333Y022990D01*
X018287Y022943D01*
X022183Y024785D02*
X022230Y024738D01*
X022323Y024738D01*
X022370Y024785D01*
X022478Y024738D02*
X022665Y024925D01*
X022665Y024972D01*
X022618Y025019D01*
X022525Y025019D01*
X022478Y024972D01*
X022370Y024972D02*
X022323Y025019D01*
X022230Y025019D01*
X022183Y024972D01*
X022183Y024785D01*
X022478Y024738D02*
X022665Y024738D01*
X022773Y024785D02*
X022819Y024738D01*
X022913Y024738D01*
X022959Y024785D01*
X022959Y024832D01*
X022913Y024878D01*
X022773Y024878D01*
X022773Y024785D01*
X022773Y024878D02*
X022866Y024972D01*
X022959Y025019D01*
X023758Y024999D02*
X023758Y024906D01*
X023805Y024859D01*
X023992Y024859D01*
X024038Y024906D01*
X024038Y024999D01*
X023992Y025046D01*
X024038Y025154D02*
X023852Y025341D01*
X023805Y025341D01*
X023758Y025294D01*
X023758Y025201D01*
X023805Y025154D01*
X023805Y025046D02*
X023758Y024999D01*
X024038Y025154D02*
X024038Y025341D01*
X023992Y025449D02*
X024038Y025495D01*
X024038Y025589D01*
X023992Y025636D01*
X023898Y025636D01*
X023852Y025589D01*
X023852Y025542D01*
X023898Y025449D01*
X023758Y025449D01*
X023758Y025636D01*
X023775Y027133D02*
X023775Y027273D01*
X023728Y027320D01*
X023635Y027320D01*
X023588Y027273D01*
X023588Y027133D01*
X023868Y027133D01*
X023775Y027227D02*
X023868Y027320D01*
X023822Y027428D02*
X023868Y027475D01*
X023868Y027568D01*
X023822Y027615D01*
X023775Y027615D01*
X023728Y027568D01*
X023728Y027521D01*
X023728Y027568D02*
X023682Y027615D01*
X023635Y027615D01*
X023588Y027568D01*
X023588Y027475D01*
X023635Y027428D01*
X022500Y027873D02*
X022313Y027873D01*
X022453Y028014D01*
X022453Y027733D01*
X022206Y027780D02*
X022206Y028014D01*
X022019Y028014D02*
X022019Y027780D01*
X022065Y027733D01*
X022159Y027733D01*
X022206Y027780D01*
X022754Y028496D02*
X022754Y028776D01*
X022894Y028776D01*
X022941Y028729D01*
X022941Y028636D01*
X022894Y028589D01*
X022754Y028589D01*
X022847Y028589D02*
X022941Y028496D01*
X023048Y028496D02*
X023235Y028496D01*
X023142Y028496D02*
X023142Y028776D01*
X023048Y028683D01*
X023548Y028649D02*
X023548Y028743D01*
X023595Y028789D01*
X023782Y028603D01*
X023828Y028649D01*
X023828Y028743D01*
X023782Y028789D01*
X023595Y028789D01*
X023548Y028649D02*
X023595Y028603D01*
X023782Y028603D01*
X023828Y028495D02*
X023828Y028308D01*
X023828Y028401D02*
X023548Y028401D01*
X023642Y028308D01*
X023688Y028200D02*
X023735Y028153D01*
X023735Y028013D01*
X023828Y028013D02*
X023548Y028013D01*
X023548Y028153D01*
X023595Y028200D01*
X023688Y028200D01*
X023735Y028107D02*
X023828Y028200D01*
X026552Y028249D02*
X026598Y028203D01*
X026692Y028203D01*
X026738Y028249D01*
X026738Y028483D01*
X026846Y028390D02*
X026940Y028483D01*
X026940Y028203D01*
X027033Y028203D02*
X026846Y028203D01*
X026552Y028249D02*
X026552Y028483D01*
X032172Y026248D02*
X032172Y026061D01*
X032219Y026015D01*
X032312Y026015D01*
X032359Y026061D01*
X032467Y026061D02*
X032467Y026155D01*
X032607Y026155D01*
X032654Y026108D01*
X032654Y026061D01*
X032607Y026015D01*
X032513Y026015D01*
X032467Y026061D01*
X032467Y026155D02*
X032560Y026248D01*
X032654Y026295D01*
X032359Y026248D02*
X032312Y026295D01*
X032219Y026295D01*
X032172Y026248D01*
X034593Y025757D02*
X034780Y025757D01*
X034873Y025663D01*
X034780Y025570D01*
X034593Y025570D01*
X034640Y025462D02*
X034687Y025462D01*
X034733Y025415D01*
X034780Y025462D01*
X034827Y025462D01*
X034873Y025415D01*
X034873Y025322D01*
X034827Y025275D01*
X034827Y025175D02*
X034873Y025175D01*
X034873Y025128D01*
X034827Y025128D01*
X034827Y025175D01*
X034827Y025020D02*
X034873Y024973D01*
X034873Y024880D01*
X034827Y024833D01*
X034733Y024927D02*
X034733Y024973D01*
X034780Y025020D01*
X034827Y025020D01*
X034733Y024973D02*
X034687Y025020D01*
X034640Y025020D01*
X034593Y024973D01*
X034593Y024880D01*
X034640Y024833D01*
X034593Y024526D02*
X034873Y024526D01*
X034873Y024433D02*
X034873Y024619D01*
X034687Y024433D02*
X034593Y024526D01*
X034593Y024325D02*
X034873Y024138D01*
X034873Y024030D02*
X034780Y023937D01*
X034780Y023983D02*
X034780Y023843D01*
X034873Y023843D02*
X034593Y023843D01*
X034593Y023983D01*
X034640Y024030D01*
X034733Y024030D01*
X034780Y023983D01*
X034593Y024138D02*
X034873Y024325D01*
X034873Y023539D02*
X034873Y023353D01*
X034873Y023446D02*
X034593Y023446D01*
X034687Y023353D01*
X034593Y023245D02*
X034873Y023058D01*
X034873Y023245D02*
X034593Y023058D01*
X034593Y022950D02*
X034593Y022763D01*
X034593Y022857D02*
X034873Y022857D01*
X034757Y021694D02*
X034664Y021601D01*
X034757Y021694D02*
X034757Y021414D01*
X034664Y021414D02*
X034850Y021414D01*
X034556Y021414D02*
X034416Y021554D01*
X034369Y021508D02*
X034556Y021694D01*
X034369Y021694D02*
X034369Y021414D01*
X033116Y021447D02*
X032929Y021260D01*
X032929Y021213D01*
X032821Y021260D02*
X032774Y021213D01*
X032681Y021213D01*
X032634Y021260D01*
X032634Y021447D01*
X032681Y021494D01*
X032774Y021494D01*
X032821Y021447D01*
X032929Y021494D02*
X033116Y021494D01*
X033116Y021447D01*
X032350Y020788D02*
X032350Y020119D01*
X031917Y020119D02*
X031917Y020788D01*
X031778Y020715D02*
X031778Y020528D01*
X031778Y020622D02*
X031498Y020622D01*
X031591Y020528D01*
X031545Y020421D02*
X031498Y020374D01*
X031498Y020234D01*
X031778Y020234D01*
X031778Y020374D01*
X031731Y020421D01*
X031545Y020421D01*
X031093Y019966D02*
X031140Y019919D01*
X031140Y019826D01*
X031093Y019779D01*
X030953Y019779D01*
X030953Y019686D02*
X030953Y019966D01*
X031093Y019966D01*
X031047Y019779D02*
X031140Y019686D01*
X030845Y019686D02*
X030845Y019966D01*
X030659Y019966D02*
X030659Y019686D01*
X030752Y019779D01*
X030845Y019686D01*
X030551Y019826D02*
X030504Y019779D01*
X030364Y019779D01*
X030364Y019686D02*
X030364Y019966D01*
X030504Y019966D01*
X030551Y019919D01*
X030551Y019826D01*
X030086Y019959D02*
X029900Y019959D01*
X029993Y019959D02*
X029993Y019679D01*
X029792Y019726D02*
X029792Y019913D01*
X029745Y019959D01*
X029652Y019959D01*
X029605Y019913D01*
X029605Y019726D01*
X029652Y019679D01*
X029745Y019679D01*
X029792Y019726D01*
X029497Y019726D02*
X029450Y019679D01*
X029310Y019679D01*
X029310Y019959D01*
X029450Y019959D01*
X029497Y019913D01*
X029497Y019866D01*
X029450Y019819D01*
X029310Y019819D01*
X029450Y019819D02*
X029497Y019773D01*
X029497Y019726D01*
X028792Y019693D02*
X028792Y019973D01*
X028699Y019880D01*
X028605Y019973D01*
X028605Y019693D01*
X028498Y019693D02*
X028404Y019786D01*
X028451Y019786D02*
X028311Y019786D01*
X028311Y019693D02*
X028311Y019973D01*
X028451Y019973D01*
X028498Y019926D01*
X028498Y019833D01*
X028451Y019786D01*
X028203Y019833D02*
X028016Y019833D01*
X028016Y019880D02*
X028110Y019973D01*
X028203Y019880D01*
X028203Y019693D01*
X028016Y019693D02*
X028016Y019880D01*
X028055Y020093D02*
X028008Y020140D01*
X028055Y020093D02*
X028148Y020093D01*
X028195Y020140D01*
X028195Y020187D01*
X028148Y020233D01*
X028101Y020233D01*
X028148Y020233D02*
X028195Y020280D01*
X028195Y020327D01*
X028148Y020374D01*
X028055Y020374D01*
X028008Y020327D01*
X027900Y020374D02*
X027900Y020140D01*
X027853Y020093D01*
X027760Y020093D01*
X027713Y020140D01*
X027713Y020374D01*
X026725Y020344D02*
X026631Y020297D01*
X026538Y020203D01*
X026678Y020203D01*
X026725Y020157D01*
X026725Y020110D01*
X026678Y020063D01*
X026585Y020063D01*
X026538Y020110D01*
X026538Y020203D01*
X026430Y020110D02*
X026430Y020344D01*
X026243Y020344D02*
X026243Y020110D01*
X026290Y020063D01*
X026383Y020063D01*
X026430Y020110D01*
X025265Y020130D02*
X025218Y020083D01*
X025125Y020083D01*
X025078Y020130D01*
X025078Y020223D02*
X025171Y020270D01*
X025218Y020270D01*
X025265Y020223D01*
X025265Y020130D01*
X025078Y020223D02*
X025078Y020364D01*
X025265Y020364D01*
X024970Y020364D02*
X024970Y020130D01*
X024923Y020083D01*
X024830Y020083D01*
X024783Y020130D01*
X024783Y020364D01*
X023825Y020334D02*
X023825Y020287D01*
X023638Y020100D01*
X023638Y020053D01*
X023530Y020100D02*
X023483Y020053D01*
X023390Y020053D01*
X023343Y020100D01*
X023343Y020334D01*
X023530Y020334D02*
X023530Y020100D01*
X023638Y020334D02*
X023825Y020334D01*
X023683Y021849D02*
X023403Y021849D01*
X023403Y021989D01*
X023450Y022036D01*
X023543Y022036D01*
X023590Y021989D01*
X023590Y021849D01*
X023590Y021943D02*
X023683Y022036D01*
X023683Y022144D02*
X023683Y022331D01*
X023683Y022237D02*
X023403Y022237D01*
X023497Y022144D01*
X023543Y022439D02*
X023543Y022626D01*
X023403Y022579D02*
X023543Y022439D01*
X023683Y022579D02*
X023403Y022579D01*
X024873Y022532D02*
X025153Y022532D01*
X025153Y022439D02*
X025153Y022626D01*
X024967Y022439D02*
X024873Y022532D01*
X024873Y022237D02*
X025153Y022237D01*
X025153Y022144D02*
X025153Y022331D01*
X024967Y022144D02*
X024873Y022237D01*
X024920Y022036D02*
X025013Y022036D01*
X025060Y021989D01*
X025060Y021849D01*
X025153Y021849D02*
X024873Y021849D01*
X024873Y021989D01*
X024920Y022036D01*
X025060Y021943D02*
X025153Y022036D01*
X026353Y022039D02*
X026353Y021899D01*
X026633Y021899D01*
X026540Y021899D02*
X026540Y022039D01*
X026493Y022086D01*
X026400Y022086D01*
X026353Y022039D01*
X026447Y022194D02*
X026353Y022287D01*
X026633Y022287D01*
X026633Y022194D02*
X026633Y022381D01*
X026587Y022489D02*
X026633Y022535D01*
X026633Y022629D01*
X026587Y022676D01*
X026540Y022676D01*
X026493Y022629D01*
X026493Y022582D01*
X026493Y022629D02*
X026447Y022676D01*
X026400Y022676D01*
X026353Y022629D01*
X026353Y022535D01*
X026400Y022489D01*
X026633Y022086D02*
X026540Y021993D01*
X027783Y022043D02*
X027783Y021903D01*
X028063Y021903D01*
X027970Y021903D02*
X027970Y022043D01*
X027923Y022090D01*
X027830Y022090D01*
X027783Y022043D01*
X027877Y022198D02*
X027783Y022291D01*
X028063Y022291D01*
X028063Y022198D02*
X028063Y022385D01*
X028063Y022493D02*
X027877Y022679D01*
X027830Y022679D01*
X027783Y022633D01*
X027783Y022539D01*
X027830Y022493D01*
X028063Y022493D02*
X028063Y022679D01*
X028399Y022960D02*
X028399Y023240D01*
X028539Y023240D01*
X028585Y023193D01*
X028585Y023100D01*
X028539Y023053D01*
X028399Y023053D01*
X028492Y023053D02*
X028585Y022960D01*
X028693Y023007D02*
X028740Y022960D01*
X028833Y022960D01*
X028880Y023007D01*
X028880Y023100D01*
X028833Y023147D01*
X028787Y023147D01*
X028693Y023100D01*
X028693Y023240D01*
X028880Y023240D01*
X029452Y023236D02*
X029592Y023236D01*
X029639Y023190D01*
X029639Y023096D01*
X029592Y023050D01*
X029452Y023050D01*
X029546Y023050D02*
X029639Y022956D01*
X029747Y023003D02*
X029793Y022956D01*
X029887Y022956D01*
X029934Y023003D01*
X029934Y023050D01*
X029887Y023096D01*
X029747Y023096D01*
X029747Y023003D01*
X029747Y023096D02*
X029840Y023190D01*
X029934Y023236D01*
X030277Y023232D02*
X030417Y023232D01*
X030464Y023186D01*
X030464Y023092D01*
X030417Y023045D01*
X030277Y023045D01*
X030277Y022952D02*
X030277Y023232D01*
X030370Y023045D02*
X030464Y022952D01*
X030572Y022952D02*
X030758Y023139D01*
X030758Y023186D01*
X030712Y023232D01*
X030618Y023232D01*
X030572Y023186D01*
X030572Y022952D02*
X030758Y022952D01*
X029452Y022956D02*
X029452Y023236D01*
X028063Y022090D02*
X027970Y021997D01*
X031151Y021487D02*
X031245Y021394D01*
X031198Y021286D02*
X031151Y021286D01*
X031198Y021286D02*
X031292Y021192D01*
X031432Y021192D01*
X031292Y021192D02*
X031198Y021099D01*
X031151Y021099D01*
X031151Y021487D02*
X031432Y021487D01*
X031432Y021394D02*
X031432Y021580D01*
X031429Y023821D02*
X031616Y023821D01*
X031663Y023868D01*
X031663Y023962D01*
X031616Y024008D01*
X031616Y024116D02*
X031663Y024163D01*
X031663Y024256D01*
X031616Y024303D01*
X031523Y024303D01*
X031476Y024256D01*
X031476Y024210D01*
X031523Y024116D01*
X031382Y024116D01*
X031382Y024303D01*
X031429Y024008D02*
X031382Y023962D01*
X031382Y023868D01*
X031429Y023821D01*
X034593Y025322D02*
X034593Y025415D01*
X034640Y025462D01*
X034733Y025415D02*
X034733Y025369D01*
X034640Y025275D02*
X034593Y025322D01*
X034630Y026883D02*
X034817Y026883D01*
X034863Y026930D01*
X034863Y027023D01*
X034817Y027070D01*
X034723Y027070D01*
X034723Y026977D01*
X034630Y027070D02*
X034583Y027023D01*
X034583Y026930D01*
X034630Y026883D01*
X034583Y027178D02*
X034863Y027365D01*
X034583Y027365D01*
X034583Y027473D02*
X034583Y027613D01*
X034630Y027659D01*
X034817Y027659D01*
X034863Y027613D01*
X034863Y027473D01*
X034583Y027473D01*
X034583Y027178D02*
X034863Y027178D01*
X034827Y028113D02*
X034640Y028113D01*
X034593Y028160D01*
X034593Y028253D01*
X034640Y028300D01*
X034733Y028300D02*
X034733Y028207D01*
X034733Y028300D02*
X034827Y028300D01*
X034873Y028253D01*
X034873Y028160D01*
X034827Y028113D01*
X034873Y028408D02*
X034593Y028408D01*
X034873Y028595D01*
X034593Y028595D01*
X034593Y028703D02*
X034593Y028843D01*
X034640Y028889D01*
X034827Y028889D01*
X034873Y028843D01*
X034873Y028703D01*
X034593Y028703D01*
X034789Y030153D02*
X034835Y030200D01*
X034835Y030246D01*
X034789Y030293D01*
X034555Y030293D01*
X034555Y030246D02*
X034555Y030340D01*
X034648Y030448D02*
X034555Y030541D01*
X034835Y030541D01*
X034835Y030448D02*
X034835Y030635D01*
X033139Y031203D02*
X032953Y031203D01*
X033093Y031344D01*
X033093Y031063D01*
X032997Y032698D02*
X032856Y032838D01*
X032810Y032791D02*
X032997Y032978D01*
X033104Y032838D02*
X033291Y032838D01*
X033245Y032978D02*
X033104Y032838D01*
X033245Y032698D02*
X033245Y032978D01*
X032810Y032978D02*
X032810Y032698D01*
D11*
X008903Y007073D02*
X008903Y006203D01*
X011323Y007533D01*
X011323Y009953D01*
X019113Y019207D01*
X019118Y019203D02*
X033713Y019203D01*
X033713Y019197D02*
X041503Y009943D01*
X041503Y007523D01*
X043923Y006193D01*
X043923Y007063D01*
X043842Y007065D01*
X043761Y007071D01*
X043681Y007081D01*
X043602Y007094D01*
X043523Y007112D01*
X043445Y007133D01*
X043368Y007159D01*
X043292Y007187D01*
X043218Y007220D01*
X043146Y007256D01*
X043076Y007296D01*
X043007Y007339D01*
X042941Y007385D01*
X042877Y007434D01*
X042815Y007487D01*
X042756Y007542D01*
X042700Y007600D01*
X042647Y007661D01*
X042597Y007725D01*
X042550Y007790D01*
X042506Y007858D01*
X042466Y007928D01*
X042429Y008000D01*
X042395Y008074D01*
X042365Y008149D01*
X042339Y008225D01*
X042317Y008303D01*
X042298Y008382D01*
X042284Y008461D01*
X042273Y008541D01*
X042266Y008622D01*
X042263Y008703D01*
X042264Y008784D01*
X042269Y008864D01*
X042278Y008945D01*
X042291Y009024D01*
X042307Y009104D01*
X042328Y009182D01*
X042352Y009259D01*
X042380Y009335D01*
X042411Y009409D01*
X042447Y009482D01*
X042485Y009553D01*
X042527Y009622D01*
X042573Y009689D01*
X042622Y009753D01*
X042673Y009816D01*
X042728Y009875D01*
X042785Y009932D01*
X042846Y009986D01*
X042908Y010037D01*
X042974Y010085D01*
X043041Y010129D01*
X043111Y010171D01*
X043182Y010208D01*
X043255Y010243D01*
X043330Y010273D01*
X043406Y010300D01*
X043484Y010324D01*
X043562Y010343D01*
X043641Y010359D01*
X043721Y010371D01*
X043802Y010379D01*
X043882Y010383D01*
X043963Y010383D01*
X044044Y010379D01*
X044125Y010371D01*
X044205Y010359D01*
X044284Y010343D01*
X044362Y010324D01*
X044440Y010301D01*
X044516Y010274D01*
X044591Y010243D01*
X044664Y010208D01*
X044735Y010171D01*
X044805Y010129D01*
X044872Y010085D01*
X044937Y010037D01*
X045000Y009986D01*
X045060Y009932D01*
X045118Y009875D01*
X045173Y009816D01*
X045224Y009754D01*
X045273Y009689D01*
X045318Y009622D01*
X045361Y009553D01*
X045399Y009482D01*
X045434Y009409D01*
X045466Y009335D01*
X045494Y009259D01*
X045518Y009182D01*
X045539Y009104D01*
X045555Y009025D01*
X045568Y008945D01*
X045577Y008864D01*
X045582Y008784D01*
X045583Y008703D01*
X046453Y008703D01*
X045113Y011133D01*
X043043Y011133D01*
X043033Y011143D01*
X035213Y020703D01*
X035213Y031773D01*
X043033Y041333D01*
X043043Y041343D01*
X045113Y041343D01*
X046453Y043773D01*
X045583Y043773D01*
X045582Y043692D01*
X045577Y043612D01*
X045568Y043531D01*
X045555Y043451D01*
X045539Y043372D01*
X045518Y043294D01*
X045494Y043217D01*
X045466Y043141D01*
X045434Y043067D01*
X045399Y042994D01*
X045361Y042923D01*
X045318Y042854D01*
X045273Y042787D01*
X045224Y042722D01*
X045173Y042660D01*
X045118Y042601D01*
X045060Y042544D01*
X045000Y042490D01*
X044937Y042439D01*
X044872Y042391D01*
X044805Y042347D01*
X044735Y042305D01*
X044664Y042268D01*
X044591Y042233D01*
X044516Y042202D01*
X044440Y042175D01*
X044362Y042152D01*
X044284Y042133D01*
X044205Y042117D01*
X044125Y042105D01*
X044044Y042097D01*
X043963Y042093D01*
X043882Y042093D01*
X043802Y042097D01*
X043721Y042105D01*
X043641Y042117D01*
X043562Y042133D01*
X043484Y042152D01*
X043406Y042176D01*
X043330Y042203D01*
X043255Y042233D01*
X043182Y042268D01*
X043111Y042305D01*
X043041Y042347D01*
X042974Y042391D01*
X042908Y042439D01*
X042846Y042490D01*
X042785Y042544D01*
X042728Y042601D01*
X042673Y042660D01*
X042622Y042723D01*
X042573Y042787D01*
X042527Y042854D01*
X042485Y042923D01*
X042447Y042994D01*
X042411Y043067D01*
X042380Y043141D01*
X042352Y043217D01*
X042328Y043294D01*
X042307Y043372D01*
X042291Y043452D01*
X042278Y043531D01*
X042269Y043612D01*
X042264Y043692D01*
X042263Y043773D01*
X042266Y043854D01*
X042273Y043935D01*
X042284Y044015D01*
X042298Y044094D01*
X042317Y044173D01*
X042339Y044251D01*
X042365Y044327D01*
X042395Y044402D01*
X042429Y044476D01*
X042466Y044548D01*
X042506Y044618D01*
X042550Y044686D01*
X042597Y044751D01*
X042647Y044815D01*
X042700Y044876D01*
X042756Y044934D01*
X042815Y044989D01*
X042877Y045042D01*
X042941Y045091D01*
X043007Y045137D01*
X043076Y045180D01*
X043146Y045220D01*
X043218Y045256D01*
X043292Y045289D01*
X043368Y045317D01*
X043445Y045343D01*
X043523Y045364D01*
X043602Y045382D01*
X043681Y045395D01*
X043761Y045405D01*
X043842Y045411D01*
X043923Y045413D01*
X043923Y046283D01*
X041503Y044953D01*
X041503Y042533D01*
X033713Y033279D01*
X019123Y033279D01*
X019113Y033289D02*
X011323Y042543D01*
X011323Y044963D01*
X008903Y046293D01*
X008903Y045423D01*
X008984Y045421D01*
X009065Y045415D01*
X009145Y045405D01*
X009224Y045392D01*
X009303Y045374D01*
X009381Y045353D01*
X009458Y045327D01*
X009534Y045299D01*
X009608Y045266D01*
X009680Y045230D01*
X009750Y045190D01*
X009819Y045147D01*
X009885Y045101D01*
X009949Y045052D01*
X010011Y044999D01*
X010070Y044944D01*
X010126Y044886D01*
X010179Y044825D01*
X010229Y044761D01*
X010276Y044696D01*
X010320Y044628D01*
X010360Y044558D01*
X010397Y044486D01*
X010431Y044412D01*
X010461Y044337D01*
X010487Y044261D01*
X010509Y044183D01*
X010528Y044104D01*
X010542Y044025D01*
X010553Y043945D01*
X010560Y043864D01*
X010563Y043783D01*
X010562Y043702D01*
X010557Y043622D01*
X010548Y043541D01*
X010535Y043462D01*
X010519Y043382D01*
X010498Y043304D01*
X010474Y043227D01*
X010446Y043151D01*
X010415Y043077D01*
X010379Y043004D01*
X010341Y042933D01*
X010299Y042864D01*
X010253Y042797D01*
X010204Y042733D01*
X010153Y042670D01*
X010098Y042611D01*
X010041Y042554D01*
X009980Y042500D01*
X009918Y042449D01*
X009852Y042401D01*
X009785Y042357D01*
X009715Y042315D01*
X009644Y042278D01*
X009571Y042243D01*
X009496Y042213D01*
X009420Y042186D01*
X009342Y042162D01*
X009264Y042143D01*
X009185Y042127D01*
X009105Y042115D01*
X009024Y042107D01*
X008944Y042103D01*
X008863Y042103D01*
X008782Y042107D01*
X008701Y042115D01*
X008621Y042127D01*
X008542Y042143D01*
X008464Y042162D01*
X008386Y042185D01*
X008310Y042212D01*
X008235Y042243D01*
X008162Y042278D01*
X008091Y042315D01*
X008021Y042357D01*
X007954Y042401D01*
X007889Y042449D01*
X007826Y042500D01*
X007766Y042554D01*
X007708Y042611D01*
X007653Y042670D01*
X007602Y042732D01*
X007553Y042797D01*
X007508Y042864D01*
X007465Y042933D01*
X007427Y043004D01*
X007392Y043077D01*
X007360Y043151D01*
X007332Y043227D01*
X007308Y043304D01*
X007287Y043382D01*
X007271Y043461D01*
X007258Y043541D01*
X007249Y043622D01*
X007244Y043702D01*
X007243Y043783D01*
X006373Y043783D01*
X007713Y041353D01*
X009783Y041353D01*
X009793Y041343D01*
X017613Y031783D01*
X017613Y020703D01*
X017613Y020713D02*
X009793Y011153D01*
X009783Y011143D01*
X007713Y011143D01*
X006373Y008713D01*
X007243Y008713D01*
X007244Y008794D01*
X007249Y008874D01*
X007258Y008955D01*
X007271Y009035D01*
X007287Y009114D01*
X007308Y009192D01*
X007332Y009269D01*
X007360Y009345D01*
X007392Y009419D01*
X007427Y009492D01*
X007465Y009563D01*
X007508Y009632D01*
X007553Y009699D01*
X007602Y009764D01*
X007653Y009826D01*
X007708Y009885D01*
X007766Y009942D01*
X007826Y009996D01*
X007889Y010047D01*
X007954Y010095D01*
X008021Y010139D01*
X008091Y010181D01*
X008162Y010218D01*
X008235Y010253D01*
X008310Y010284D01*
X008386Y010311D01*
X008464Y010334D01*
X008542Y010353D01*
X008621Y010369D01*
X008701Y010381D01*
X008782Y010389D01*
X008863Y010393D01*
X008944Y010393D01*
X009024Y010389D01*
X009105Y010381D01*
X009185Y010369D01*
X009264Y010353D01*
X009342Y010334D01*
X009420Y010310D01*
X009496Y010283D01*
X009571Y010253D01*
X009644Y010218D01*
X009715Y010181D01*
X009785Y010139D01*
X009852Y010095D01*
X009918Y010047D01*
X009980Y009996D01*
X010041Y009942D01*
X010098Y009885D01*
X010153Y009826D01*
X010204Y009763D01*
X010253Y009699D01*
X010299Y009632D01*
X010341Y009563D01*
X010379Y009492D01*
X010415Y009419D01*
X010446Y009345D01*
X010474Y009269D01*
X010498Y009192D01*
X010519Y009114D01*
X010535Y009034D01*
X010548Y008955D01*
X010557Y008874D01*
X010562Y008794D01*
X010563Y008713D01*
X010560Y008632D01*
X010553Y008551D01*
X010542Y008471D01*
X010528Y008392D01*
X010509Y008313D01*
X010487Y008235D01*
X010461Y008159D01*
X010431Y008084D01*
X010397Y008010D01*
X010360Y007938D01*
X010320Y007868D01*
X010276Y007800D01*
X010229Y007735D01*
X010179Y007671D01*
X010126Y007610D01*
X010070Y007552D01*
X010011Y007497D01*
X009949Y007444D01*
X009885Y007395D01*
X009819Y007349D01*
X009750Y007306D01*
X009680Y007266D01*
X009608Y007230D01*
X009534Y007197D01*
X009458Y007169D01*
X009381Y007143D01*
X009303Y007122D01*
X009224Y007104D01*
X009145Y007091D01*
X009065Y007081D01*
X008984Y007075D01*
X008903Y007073D01*
X011479Y012193D02*
X011481Y012232D01*
X011487Y012271D01*
X011497Y012309D01*
X011510Y012346D01*
X011527Y012381D01*
X011547Y012415D01*
X011571Y012446D01*
X011598Y012475D01*
X011627Y012501D01*
X011659Y012524D01*
X011693Y012544D01*
X011729Y012560D01*
X011766Y012572D01*
X011805Y012581D01*
X011844Y012586D01*
X011883Y012587D01*
X011922Y012584D01*
X011961Y012577D01*
X011998Y012566D01*
X012035Y012552D01*
X012070Y012534D01*
X012103Y012513D01*
X012134Y012488D01*
X012162Y012461D01*
X012187Y012431D01*
X012209Y012398D01*
X012228Y012364D01*
X012243Y012328D01*
X012255Y012290D01*
X012263Y012252D01*
X012267Y012213D01*
X012267Y012173D01*
X012263Y012134D01*
X012255Y012096D01*
X012243Y012058D01*
X012228Y012022D01*
X012209Y011988D01*
X012187Y011955D01*
X012162Y011925D01*
X012134Y011898D01*
X012103Y011873D01*
X012070Y011852D01*
X012035Y011834D01*
X011998Y011820D01*
X011961Y011809D01*
X011922Y011802D01*
X011883Y011799D01*
X011844Y011800D01*
X011805Y011805D01*
X011766Y011814D01*
X011729Y011826D01*
X011693Y011842D01*
X011659Y011862D01*
X011627Y011885D01*
X011598Y011911D01*
X011571Y011940D01*
X011547Y011971D01*
X011527Y012005D01*
X011510Y012040D01*
X011497Y012077D01*
X011487Y012115D01*
X011481Y012154D01*
X011479Y012193D01*
X013769Y014973D02*
X013771Y015012D01*
X013777Y015051D01*
X013787Y015089D01*
X013800Y015126D01*
X013817Y015161D01*
X013837Y015195D01*
X013861Y015226D01*
X013888Y015255D01*
X013917Y015281D01*
X013949Y015304D01*
X013983Y015324D01*
X014019Y015340D01*
X014056Y015352D01*
X014095Y015361D01*
X014134Y015366D01*
X014173Y015367D01*
X014212Y015364D01*
X014251Y015357D01*
X014288Y015346D01*
X014325Y015332D01*
X014360Y015314D01*
X014393Y015293D01*
X014424Y015268D01*
X014452Y015241D01*
X014477Y015211D01*
X014499Y015178D01*
X014518Y015144D01*
X014533Y015108D01*
X014545Y015070D01*
X014553Y015032D01*
X014557Y014993D01*
X014557Y014953D01*
X014553Y014914D01*
X014545Y014876D01*
X014533Y014838D01*
X014518Y014802D01*
X014499Y014768D01*
X014477Y014735D01*
X014452Y014705D01*
X014424Y014678D01*
X014393Y014653D01*
X014360Y014632D01*
X014325Y014614D01*
X014288Y014600D01*
X014251Y014589D01*
X014212Y014582D01*
X014173Y014579D01*
X014134Y014580D01*
X014095Y014585D01*
X014056Y014594D01*
X014019Y014606D01*
X013983Y014622D01*
X013949Y014642D01*
X013917Y014665D01*
X013888Y014691D01*
X013861Y014720D01*
X013837Y014751D01*
X013817Y014785D01*
X013800Y014820D01*
X013787Y014857D01*
X013777Y014895D01*
X013771Y014934D01*
X013769Y014973D01*
X016369Y018003D02*
X016371Y018042D01*
X016377Y018081D01*
X016387Y018119D01*
X016400Y018156D01*
X016417Y018191D01*
X016437Y018225D01*
X016461Y018256D01*
X016488Y018285D01*
X016517Y018311D01*
X016549Y018334D01*
X016583Y018354D01*
X016619Y018370D01*
X016656Y018382D01*
X016695Y018391D01*
X016734Y018396D01*
X016773Y018397D01*
X016812Y018394D01*
X016851Y018387D01*
X016888Y018376D01*
X016925Y018362D01*
X016960Y018344D01*
X016993Y018323D01*
X017024Y018298D01*
X017052Y018271D01*
X017077Y018241D01*
X017099Y018208D01*
X017118Y018174D01*
X017133Y018138D01*
X017145Y018100D01*
X017153Y018062D01*
X017157Y018023D01*
X017157Y017983D01*
X017153Y017944D01*
X017145Y017906D01*
X017133Y017868D01*
X017118Y017832D01*
X017099Y017798D01*
X017077Y017765D01*
X017052Y017735D01*
X017024Y017708D01*
X016993Y017683D01*
X016960Y017662D01*
X016925Y017644D01*
X016888Y017630D01*
X016851Y017619D01*
X016812Y017612D01*
X016773Y017609D01*
X016734Y017610D01*
X016695Y017615D01*
X016656Y017624D01*
X016619Y017636D01*
X016583Y017652D01*
X016549Y017672D01*
X016517Y017695D01*
X016488Y017721D01*
X016461Y017750D01*
X016437Y017781D01*
X016417Y017815D01*
X016400Y017850D01*
X016387Y017887D01*
X016377Y017925D01*
X016371Y017964D01*
X016369Y018003D01*
X035669Y017993D02*
X035671Y018032D01*
X035677Y018071D01*
X035687Y018109D01*
X035700Y018146D01*
X035717Y018181D01*
X035737Y018215D01*
X035761Y018246D01*
X035788Y018275D01*
X035817Y018301D01*
X035849Y018324D01*
X035883Y018344D01*
X035919Y018360D01*
X035956Y018372D01*
X035995Y018381D01*
X036034Y018386D01*
X036073Y018387D01*
X036112Y018384D01*
X036151Y018377D01*
X036188Y018366D01*
X036225Y018352D01*
X036260Y018334D01*
X036293Y018313D01*
X036324Y018288D01*
X036352Y018261D01*
X036377Y018231D01*
X036399Y018198D01*
X036418Y018164D01*
X036433Y018128D01*
X036445Y018090D01*
X036453Y018052D01*
X036457Y018013D01*
X036457Y017973D01*
X036453Y017934D01*
X036445Y017896D01*
X036433Y017858D01*
X036418Y017822D01*
X036399Y017788D01*
X036377Y017755D01*
X036352Y017725D01*
X036324Y017698D01*
X036293Y017673D01*
X036260Y017652D01*
X036225Y017634D01*
X036188Y017620D01*
X036151Y017609D01*
X036112Y017602D01*
X036073Y017599D01*
X036034Y017600D01*
X035995Y017605D01*
X035956Y017614D01*
X035919Y017626D01*
X035883Y017642D01*
X035849Y017662D01*
X035817Y017685D01*
X035788Y017711D01*
X035761Y017740D01*
X035737Y017771D01*
X035717Y017805D01*
X035700Y017840D01*
X035687Y017877D01*
X035677Y017915D01*
X035671Y017954D01*
X035669Y017993D01*
X038269Y014963D02*
X038271Y015002D01*
X038277Y015041D01*
X038287Y015079D01*
X038300Y015116D01*
X038317Y015151D01*
X038337Y015185D01*
X038361Y015216D01*
X038388Y015245D01*
X038417Y015271D01*
X038449Y015294D01*
X038483Y015314D01*
X038519Y015330D01*
X038556Y015342D01*
X038595Y015351D01*
X038634Y015356D01*
X038673Y015357D01*
X038712Y015354D01*
X038751Y015347D01*
X038788Y015336D01*
X038825Y015322D01*
X038860Y015304D01*
X038893Y015283D01*
X038924Y015258D01*
X038952Y015231D01*
X038977Y015201D01*
X038999Y015168D01*
X039018Y015134D01*
X039033Y015098D01*
X039045Y015060D01*
X039053Y015022D01*
X039057Y014983D01*
X039057Y014943D01*
X039053Y014904D01*
X039045Y014866D01*
X039033Y014828D01*
X039018Y014792D01*
X038999Y014758D01*
X038977Y014725D01*
X038952Y014695D01*
X038924Y014668D01*
X038893Y014643D01*
X038860Y014622D01*
X038825Y014604D01*
X038788Y014590D01*
X038751Y014579D01*
X038712Y014572D01*
X038673Y014569D01*
X038634Y014570D01*
X038595Y014575D01*
X038556Y014584D01*
X038519Y014596D01*
X038483Y014612D01*
X038449Y014632D01*
X038417Y014655D01*
X038388Y014681D01*
X038361Y014710D01*
X038337Y014741D01*
X038317Y014775D01*
X038300Y014810D01*
X038287Y014847D01*
X038277Y014885D01*
X038271Y014924D01*
X038269Y014963D01*
X040559Y012183D02*
X040561Y012222D01*
X040567Y012261D01*
X040577Y012299D01*
X040590Y012336D01*
X040607Y012371D01*
X040627Y012405D01*
X040651Y012436D01*
X040678Y012465D01*
X040707Y012491D01*
X040739Y012514D01*
X040773Y012534D01*
X040809Y012550D01*
X040846Y012562D01*
X040885Y012571D01*
X040924Y012576D01*
X040963Y012577D01*
X041002Y012574D01*
X041041Y012567D01*
X041078Y012556D01*
X041115Y012542D01*
X041150Y012524D01*
X041183Y012503D01*
X041214Y012478D01*
X041242Y012451D01*
X041267Y012421D01*
X041289Y012388D01*
X041308Y012354D01*
X041323Y012318D01*
X041335Y012280D01*
X041343Y012242D01*
X041347Y012203D01*
X041347Y012163D01*
X041343Y012124D01*
X041335Y012086D01*
X041323Y012048D01*
X041308Y012012D01*
X041289Y011978D01*
X041267Y011945D01*
X041242Y011915D01*
X041214Y011888D01*
X041183Y011863D01*
X041150Y011842D01*
X041115Y011824D01*
X041078Y011810D01*
X041041Y011799D01*
X041002Y011792D01*
X040963Y011789D01*
X040924Y011790D01*
X040885Y011795D01*
X040846Y011804D01*
X040809Y011816D01*
X040773Y011832D01*
X040739Y011852D01*
X040707Y011875D01*
X040678Y011901D01*
X040651Y011930D01*
X040627Y011961D01*
X040607Y011995D01*
X040590Y012030D01*
X040577Y012067D01*
X040567Y012105D01*
X040561Y012144D01*
X040559Y012183D01*
X035669Y034483D02*
X035671Y034522D01*
X035677Y034561D01*
X035687Y034599D01*
X035700Y034636D01*
X035717Y034671D01*
X035737Y034705D01*
X035761Y034736D01*
X035788Y034765D01*
X035817Y034791D01*
X035849Y034814D01*
X035883Y034834D01*
X035919Y034850D01*
X035956Y034862D01*
X035995Y034871D01*
X036034Y034876D01*
X036073Y034877D01*
X036112Y034874D01*
X036151Y034867D01*
X036188Y034856D01*
X036225Y034842D01*
X036260Y034824D01*
X036293Y034803D01*
X036324Y034778D01*
X036352Y034751D01*
X036377Y034721D01*
X036399Y034688D01*
X036418Y034654D01*
X036433Y034618D01*
X036445Y034580D01*
X036453Y034542D01*
X036457Y034503D01*
X036457Y034463D01*
X036453Y034424D01*
X036445Y034386D01*
X036433Y034348D01*
X036418Y034312D01*
X036399Y034278D01*
X036377Y034245D01*
X036352Y034215D01*
X036324Y034188D01*
X036293Y034163D01*
X036260Y034142D01*
X036225Y034124D01*
X036188Y034110D01*
X036151Y034099D01*
X036112Y034092D01*
X036073Y034089D01*
X036034Y034090D01*
X035995Y034095D01*
X035956Y034104D01*
X035919Y034116D01*
X035883Y034132D01*
X035849Y034152D01*
X035817Y034175D01*
X035788Y034201D01*
X035761Y034230D01*
X035737Y034261D01*
X035717Y034295D01*
X035700Y034330D01*
X035687Y034367D01*
X035677Y034405D01*
X035671Y034444D01*
X035669Y034483D01*
X038269Y037513D02*
X038271Y037552D01*
X038277Y037591D01*
X038287Y037629D01*
X038300Y037666D01*
X038317Y037701D01*
X038337Y037735D01*
X038361Y037766D01*
X038388Y037795D01*
X038417Y037821D01*
X038449Y037844D01*
X038483Y037864D01*
X038519Y037880D01*
X038556Y037892D01*
X038595Y037901D01*
X038634Y037906D01*
X038673Y037907D01*
X038712Y037904D01*
X038751Y037897D01*
X038788Y037886D01*
X038825Y037872D01*
X038860Y037854D01*
X038893Y037833D01*
X038924Y037808D01*
X038952Y037781D01*
X038977Y037751D01*
X038999Y037718D01*
X039018Y037684D01*
X039033Y037648D01*
X039045Y037610D01*
X039053Y037572D01*
X039057Y037533D01*
X039057Y037493D01*
X039053Y037454D01*
X039045Y037416D01*
X039033Y037378D01*
X039018Y037342D01*
X038999Y037308D01*
X038977Y037275D01*
X038952Y037245D01*
X038924Y037218D01*
X038893Y037193D01*
X038860Y037172D01*
X038825Y037154D01*
X038788Y037140D01*
X038751Y037129D01*
X038712Y037122D01*
X038673Y037119D01*
X038634Y037120D01*
X038595Y037125D01*
X038556Y037134D01*
X038519Y037146D01*
X038483Y037162D01*
X038449Y037182D01*
X038417Y037205D01*
X038388Y037231D01*
X038361Y037260D01*
X038337Y037291D01*
X038317Y037325D01*
X038300Y037360D01*
X038287Y037397D01*
X038277Y037435D01*
X038271Y037474D01*
X038269Y037513D01*
X040559Y040293D02*
X040561Y040332D01*
X040567Y040371D01*
X040577Y040409D01*
X040590Y040446D01*
X040607Y040481D01*
X040627Y040515D01*
X040651Y040546D01*
X040678Y040575D01*
X040707Y040601D01*
X040739Y040624D01*
X040773Y040644D01*
X040809Y040660D01*
X040846Y040672D01*
X040885Y040681D01*
X040924Y040686D01*
X040963Y040687D01*
X041002Y040684D01*
X041041Y040677D01*
X041078Y040666D01*
X041115Y040652D01*
X041150Y040634D01*
X041183Y040613D01*
X041214Y040588D01*
X041242Y040561D01*
X041267Y040531D01*
X041289Y040498D01*
X041308Y040464D01*
X041323Y040428D01*
X041335Y040390D01*
X041343Y040352D01*
X041347Y040313D01*
X041347Y040273D01*
X041343Y040234D01*
X041335Y040196D01*
X041323Y040158D01*
X041308Y040122D01*
X041289Y040088D01*
X041267Y040055D01*
X041242Y040025D01*
X041214Y039998D01*
X041183Y039973D01*
X041150Y039952D01*
X041115Y039934D01*
X041078Y039920D01*
X041041Y039909D01*
X041002Y039902D01*
X040963Y039899D01*
X040924Y039900D01*
X040885Y039905D01*
X040846Y039914D01*
X040809Y039926D01*
X040773Y039942D01*
X040739Y039962D01*
X040707Y039985D01*
X040678Y040011D01*
X040651Y040040D01*
X040627Y040071D01*
X040607Y040105D01*
X040590Y040140D01*
X040577Y040177D01*
X040567Y040215D01*
X040561Y040254D01*
X040559Y040293D01*
X016369Y034493D02*
X016371Y034532D01*
X016377Y034571D01*
X016387Y034609D01*
X016400Y034646D01*
X016417Y034681D01*
X016437Y034715D01*
X016461Y034746D01*
X016488Y034775D01*
X016517Y034801D01*
X016549Y034824D01*
X016583Y034844D01*
X016619Y034860D01*
X016656Y034872D01*
X016695Y034881D01*
X016734Y034886D01*
X016773Y034887D01*
X016812Y034884D01*
X016851Y034877D01*
X016888Y034866D01*
X016925Y034852D01*
X016960Y034834D01*
X016993Y034813D01*
X017024Y034788D01*
X017052Y034761D01*
X017077Y034731D01*
X017099Y034698D01*
X017118Y034664D01*
X017133Y034628D01*
X017145Y034590D01*
X017153Y034552D01*
X017157Y034513D01*
X017157Y034473D01*
X017153Y034434D01*
X017145Y034396D01*
X017133Y034358D01*
X017118Y034322D01*
X017099Y034288D01*
X017077Y034255D01*
X017052Y034225D01*
X017024Y034198D01*
X016993Y034173D01*
X016960Y034152D01*
X016925Y034134D01*
X016888Y034120D01*
X016851Y034109D01*
X016812Y034102D01*
X016773Y034099D01*
X016734Y034100D01*
X016695Y034105D01*
X016656Y034114D01*
X016619Y034126D01*
X016583Y034142D01*
X016549Y034162D01*
X016517Y034185D01*
X016488Y034211D01*
X016461Y034240D01*
X016437Y034271D01*
X016417Y034305D01*
X016400Y034340D01*
X016387Y034377D01*
X016377Y034415D01*
X016371Y034454D01*
X016369Y034493D01*
X013769Y037523D02*
X013771Y037562D01*
X013777Y037601D01*
X013787Y037639D01*
X013800Y037676D01*
X013817Y037711D01*
X013837Y037745D01*
X013861Y037776D01*
X013888Y037805D01*
X013917Y037831D01*
X013949Y037854D01*
X013983Y037874D01*
X014019Y037890D01*
X014056Y037902D01*
X014095Y037911D01*
X014134Y037916D01*
X014173Y037917D01*
X014212Y037914D01*
X014251Y037907D01*
X014288Y037896D01*
X014325Y037882D01*
X014360Y037864D01*
X014393Y037843D01*
X014424Y037818D01*
X014452Y037791D01*
X014477Y037761D01*
X014499Y037728D01*
X014518Y037694D01*
X014533Y037658D01*
X014545Y037620D01*
X014553Y037582D01*
X014557Y037543D01*
X014557Y037503D01*
X014553Y037464D01*
X014545Y037426D01*
X014533Y037388D01*
X014518Y037352D01*
X014499Y037318D01*
X014477Y037285D01*
X014452Y037255D01*
X014424Y037228D01*
X014393Y037203D01*
X014360Y037182D01*
X014325Y037164D01*
X014288Y037150D01*
X014251Y037139D01*
X014212Y037132D01*
X014173Y037129D01*
X014134Y037130D01*
X014095Y037135D01*
X014056Y037144D01*
X014019Y037156D01*
X013983Y037172D01*
X013949Y037192D01*
X013917Y037215D01*
X013888Y037241D01*
X013861Y037270D01*
X013837Y037301D01*
X013817Y037335D01*
X013800Y037370D01*
X013787Y037407D01*
X013777Y037445D01*
X013771Y037484D01*
X013769Y037523D01*
X011479Y040303D02*
X011481Y040342D01*
X011487Y040381D01*
X011497Y040419D01*
X011510Y040456D01*
X011527Y040491D01*
X011547Y040525D01*
X011571Y040556D01*
X011598Y040585D01*
X011627Y040611D01*
X011659Y040634D01*
X011693Y040654D01*
X011729Y040670D01*
X011766Y040682D01*
X011805Y040691D01*
X011844Y040696D01*
X011883Y040697D01*
X011922Y040694D01*
X011961Y040687D01*
X011998Y040676D01*
X012035Y040662D01*
X012070Y040644D01*
X012103Y040623D01*
X012134Y040598D01*
X012162Y040571D01*
X012187Y040541D01*
X012209Y040508D01*
X012228Y040474D01*
X012243Y040438D01*
X012255Y040400D01*
X012263Y040362D01*
X012267Y040323D01*
X012267Y040283D01*
X012263Y040244D01*
X012255Y040206D01*
X012243Y040168D01*
X012228Y040132D01*
X012209Y040098D01*
X012187Y040065D01*
X012162Y040035D01*
X012134Y040008D01*
X012103Y039983D01*
X012070Y039962D01*
X012035Y039944D01*
X011998Y039930D01*
X011961Y039919D01*
X011922Y039912D01*
X011883Y039909D01*
X011844Y039910D01*
X011805Y039915D01*
X011766Y039924D01*
X011729Y039936D01*
X011693Y039952D01*
X011659Y039972D01*
X011627Y039995D01*
X011598Y040021D01*
X011571Y040050D01*
X011547Y040081D01*
X011527Y040115D01*
X011510Y040150D01*
X011497Y040187D01*
X011487Y040225D01*
X011481Y040264D01*
X011479Y040303D01*
D12*
X022117Y032723D02*
X023330Y032723D01*
X023723Y032212D02*
X023723Y031223D01*
X023330Y030723D02*
X022117Y030723D01*
X021723Y031235D02*
X021723Y032212D01*
X022223Y031723D02*
X022225Y031767D01*
X022231Y031811D01*
X022241Y031854D01*
X022254Y031896D01*
X022271Y031937D01*
X022292Y031976D01*
X022316Y032013D01*
X022343Y032048D01*
X022373Y032080D01*
X022406Y032110D01*
X022442Y032136D01*
X022479Y032160D01*
X022519Y032179D01*
X022560Y032196D01*
X022603Y032208D01*
X022646Y032217D01*
X022690Y032222D01*
X022734Y032223D01*
X022778Y032220D01*
X022822Y032213D01*
X022865Y032202D01*
X022907Y032188D01*
X022947Y032170D01*
X022986Y032148D01*
X023022Y032124D01*
X023056Y032096D01*
X023088Y032065D01*
X023117Y032031D01*
X023143Y031995D01*
X023165Y031957D01*
X023184Y031917D01*
X023199Y031875D01*
X023211Y031833D01*
X023219Y031789D01*
X023223Y031745D01*
X023223Y031701D01*
X023219Y031657D01*
X023211Y031613D01*
X023199Y031571D01*
X023184Y031529D01*
X023165Y031489D01*
X023143Y031451D01*
X023117Y031415D01*
X023088Y031381D01*
X023056Y031350D01*
X023022Y031322D01*
X022986Y031298D01*
X022947Y031276D01*
X022907Y031258D01*
X022865Y031244D01*
X022822Y031233D01*
X022778Y031226D01*
X022734Y031223D01*
X022690Y031224D01*
X022646Y031229D01*
X022603Y031238D01*
X022560Y031250D01*
X022519Y031267D01*
X022479Y031286D01*
X022442Y031310D01*
X022406Y031336D01*
X022373Y031366D01*
X022343Y031398D01*
X022316Y031433D01*
X022292Y031470D01*
X022271Y031509D01*
X022254Y031550D01*
X022241Y031592D01*
X022231Y031635D01*
X022225Y031679D01*
X022223Y031723D01*
X019403Y030853D02*
X019403Y030353D01*
X019153Y030103D01*
X019403Y029853D01*
X019403Y029353D01*
X019153Y029103D01*
X019403Y028853D01*
X019403Y028353D01*
X019153Y028103D01*
X019403Y027853D01*
X019403Y027353D01*
X019153Y027103D01*
X019403Y026853D01*
X019403Y026353D01*
X019153Y026103D01*
X019403Y025853D01*
X019403Y025353D01*
X019153Y025103D01*
X018653Y025103D01*
X018403Y025353D01*
X018403Y025853D01*
X018653Y026103D01*
X018403Y026353D01*
X018403Y026853D01*
X018653Y027103D01*
X018403Y027353D01*
X018403Y027853D01*
X018653Y028103D01*
X018403Y028353D01*
X018403Y028853D01*
X018653Y029103D01*
X018403Y029353D01*
X018403Y029853D01*
X018653Y030103D01*
X018403Y030353D01*
X018403Y030853D01*
X018653Y031103D01*
X019153Y031103D01*
X019403Y030853D01*
X026853Y031523D02*
X028753Y031523D01*
X028503Y031823D02*
X028653Y031973D01*
X028503Y032123D01*
X028653Y031973D02*
X028303Y031973D01*
X028753Y032423D02*
X026853Y032423D01*
X032473Y030703D02*
X032473Y030203D01*
X032723Y029953D01*
X034223Y029953D01*
X034473Y030203D01*
X034473Y030703D01*
X034223Y030953D01*
X032723Y030953D01*
X032473Y030703D01*
X032723Y029953D02*
X032473Y029703D01*
X032473Y029203D01*
X032723Y028953D02*
X034223Y028953D01*
X034473Y029203D01*
X034473Y029703D01*
X034223Y029953D01*
X034223Y028953D02*
X034473Y028703D01*
X034473Y028203D01*
X034223Y027953D01*
X032723Y027953D01*
X032473Y028203D01*
X032473Y028703D01*
X032723Y028953D01*
X033743Y027763D02*
X034243Y027763D01*
X034493Y027513D01*
X034493Y027013D01*
X034243Y026763D01*
X034493Y026513D01*
X034493Y026013D01*
X034243Y025763D01*
X034493Y025513D01*
X034493Y025013D01*
X034243Y024763D01*
X034493Y024513D01*
X034493Y024013D01*
X034243Y023763D01*
X034493Y023513D01*
X034493Y023013D01*
X034243Y022763D01*
X034493Y022513D01*
X034493Y022013D01*
X034243Y021763D01*
X033743Y021763D01*
X033493Y022013D01*
X033493Y022513D01*
X033743Y022763D01*
X033493Y023013D01*
X033493Y023513D01*
X033743Y023763D01*
X033493Y024013D01*
X033493Y024513D01*
X033743Y024763D01*
X033493Y025013D01*
X033493Y025513D01*
X033743Y025763D01*
X033493Y026013D01*
X033493Y026513D01*
X033743Y026763D01*
X033493Y027013D01*
X033493Y027513D01*
X033743Y027763D01*
X030475Y027907D02*
X030357Y028025D01*
X027050Y028025D02*
X026932Y028025D01*
X026932Y027907D01*
X026932Y024600D02*
X026932Y024482D01*
X027050Y024482D01*
X030357Y024482D02*
X030475Y024482D01*
X030475Y024600D01*
X031957Y023043D02*
X032430Y023043D01*
X033178Y022531D02*
X033178Y022295D01*
X032430Y021783D02*
X031957Y021783D01*
X031209Y022295D02*
X031209Y022531D01*
X020813Y022623D02*
X020563Y022373D01*
X020813Y022123D01*
X020813Y021623D01*
X020563Y021373D01*
X020063Y021373D01*
X019813Y021623D01*
X019813Y022123D01*
X020063Y022373D01*
X019813Y022623D01*
X019813Y023123D01*
X020063Y023373D01*
X020563Y023373D01*
X020813Y023123D01*
X020813Y022623D01*
D13*
X019350Y021259D02*
X017972Y021259D01*
X017972Y019488D01*
X019350Y019488D01*
X019350Y021259D01*
X021826Y027173D02*
X021983Y027331D01*
X028457Y030080D02*
X028949Y030080D01*
X028634Y030773D02*
X028636Y030781D01*
X028641Y030787D01*
X028648Y030791D01*
X028656Y030791D01*
X028663Y030787D01*
X028668Y030781D01*
X028670Y030773D01*
X028668Y030765D01*
X028663Y030759D01*
X028656Y030755D01*
X028648Y030755D01*
X028641Y030759D01*
X028636Y030765D01*
X028634Y030773D01*
X028457Y030867D02*
X028949Y030867D01*
X033457Y031188D02*
X033457Y032959D01*
X034835Y032959D01*
X034835Y031188D01*
X033457Y031188D01*
X033248Y023979D02*
X033248Y023679D01*
X032948Y023979D01*
X032873Y023979D01*
X032798Y023904D01*
X032798Y023754D01*
X032873Y023679D01*
X032873Y023519D02*
X033023Y023519D01*
X033098Y023444D01*
X033098Y023219D01*
X033248Y023219D02*
X032798Y023219D01*
X032798Y023444D01*
X032873Y023519D01*
X032798Y023059D02*
X032798Y022908D01*
X032798Y022984D02*
X033173Y022984D01*
X033248Y022908D01*
X033248Y022833D01*
X033173Y022758D01*
X033457Y021259D02*
X034835Y021259D01*
X034835Y019488D01*
X033457Y019488D01*
X033457Y021259D01*
D14*
X030870Y020624D03*
X030397Y020624D03*
X029950Y020634D03*
X029477Y020634D03*
X028940Y020634D03*
X028467Y020634D03*
D15*
X028703Y020634D03*
X029713Y020634D03*
X030633Y020624D03*
D16*
X028043Y020613D02*
X028043Y020453D01*
X027683Y020453D01*
X028043Y020613D02*
X028043Y020843D01*
X027933Y020774D02*
X027927Y020754D01*
X027925Y020733D01*
X027927Y020712D01*
X027932Y020692D01*
X027940Y020673D01*
X027952Y020656D01*
X027967Y020642D01*
X027984Y020629D01*
X028002Y020621D01*
X028022Y020615D01*
X028043Y020613D01*
X027573Y021013D02*
X027313Y021013D01*
X026843Y020843D02*
X026843Y020453D01*
X027203Y020453D01*
X026593Y020453D02*
X026593Y020613D01*
X026593Y020843D01*
X026483Y020774D02*
X026477Y020754D01*
X026475Y020733D01*
X026477Y020712D01*
X026482Y020692D01*
X026490Y020673D01*
X026502Y020656D01*
X026517Y020642D01*
X026534Y020629D01*
X026552Y020621D01*
X026572Y020615D01*
X026593Y020613D01*
X026593Y020453D02*
X026233Y020453D01*
X025753Y020453D02*
X025393Y020453D01*
X025393Y020843D01*
X025133Y020843D02*
X025133Y020613D01*
X025133Y020453D01*
X024773Y020453D01*
X025133Y020613D02*
X025112Y020615D01*
X025092Y020621D01*
X025074Y020629D01*
X025057Y020642D01*
X025042Y020656D01*
X025030Y020673D01*
X025022Y020692D01*
X025017Y020712D01*
X025015Y020733D01*
X025017Y020754D01*
X025023Y020774D01*
X024663Y021013D02*
X024403Y021013D01*
X023933Y020843D02*
X023933Y020453D01*
X024293Y020453D01*
X023653Y020463D02*
X023653Y020623D01*
X023653Y020853D01*
X023543Y020784D02*
X023537Y020764D01*
X023535Y020743D01*
X023537Y020722D01*
X023542Y020702D01*
X023550Y020683D01*
X023562Y020666D01*
X023577Y020652D01*
X023594Y020639D01*
X023612Y020631D01*
X023632Y020625D01*
X023653Y020623D01*
X023653Y020463D02*
X023293Y020463D01*
X022813Y020463D02*
X022453Y020463D01*
X022453Y020853D01*
X022923Y021023D02*
X023183Y021023D01*
X022113Y021794D02*
X022076Y021794D01*
X022113Y021794D02*
X022113Y022432D01*
X022076Y022432D01*
X021759Y022432D02*
X021348Y022432D01*
X021030Y022432D02*
X020993Y022432D01*
X020993Y021794D01*
X021030Y021794D01*
X021348Y021794D02*
X021385Y021794D01*
X021722Y021794D02*
X021759Y021794D01*
X025863Y021013D02*
X026123Y021013D01*
D17*
X020723Y020571D03*
X032133Y020316D03*
X032063Y031726D03*
X020673Y032071D03*
M02*
