G75*
%MOIN*%
%OFA0B0*%
%FSLAX24Y24*%
%IPPOS*%
%LPD*%
%AMOC8*
5,1,8,0,0,1.08239X$1,22.5*
%
%ADD10C,0.0000*%
D10*
X008903Y006203D02*
X008903Y007073D01*
X008903Y006203D02*
X011323Y007533D01*
X011323Y009953D01*
X019113Y019207D01*
X019118Y019203D02*
X033713Y019203D01*
X033713Y019197D02*
X041503Y009943D01*
X041503Y007523D01*
X043923Y006193D01*
X043923Y007063D01*
X043842Y007065D01*
X043761Y007071D01*
X043681Y007081D01*
X043602Y007094D01*
X043523Y007112D01*
X043445Y007133D01*
X043368Y007159D01*
X043292Y007187D01*
X043218Y007220D01*
X043146Y007256D01*
X043076Y007296D01*
X043007Y007339D01*
X042941Y007385D01*
X042877Y007434D01*
X042815Y007487D01*
X042756Y007542D01*
X042700Y007600D01*
X042647Y007661D01*
X042597Y007725D01*
X042550Y007790D01*
X042506Y007858D01*
X042466Y007928D01*
X042429Y008000D01*
X042395Y008074D01*
X042365Y008149D01*
X042339Y008225D01*
X042317Y008303D01*
X042298Y008382D01*
X042284Y008461D01*
X042273Y008541D01*
X042266Y008622D01*
X042263Y008703D01*
X042264Y008784D01*
X042269Y008864D01*
X042278Y008945D01*
X042291Y009024D01*
X042307Y009104D01*
X042328Y009182D01*
X042352Y009259D01*
X042380Y009335D01*
X042411Y009409D01*
X042447Y009482D01*
X042485Y009553D01*
X042527Y009622D01*
X042573Y009689D01*
X042622Y009753D01*
X042673Y009816D01*
X042728Y009875D01*
X042785Y009932D01*
X042846Y009986D01*
X042908Y010037D01*
X042974Y010085D01*
X043041Y010129D01*
X043111Y010171D01*
X043182Y010208D01*
X043255Y010243D01*
X043330Y010273D01*
X043406Y010300D01*
X043484Y010324D01*
X043562Y010343D01*
X043641Y010359D01*
X043721Y010371D01*
X043802Y010379D01*
X043882Y010383D01*
X043963Y010383D01*
X044044Y010379D01*
X044125Y010371D01*
X044205Y010359D01*
X044284Y010343D01*
X044362Y010324D01*
X044440Y010301D01*
X044516Y010274D01*
X044591Y010243D01*
X044664Y010208D01*
X044735Y010171D01*
X044805Y010129D01*
X044872Y010085D01*
X044937Y010037D01*
X045000Y009986D01*
X045060Y009932D01*
X045118Y009875D01*
X045173Y009816D01*
X045224Y009754D01*
X045273Y009689D01*
X045318Y009622D01*
X045361Y009553D01*
X045399Y009482D01*
X045434Y009409D01*
X045466Y009335D01*
X045494Y009259D01*
X045518Y009182D01*
X045539Y009104D01*
X045555Y009025D01*
X045568Y008945D01*
X045577Y008864D01*
X045582Y008784D01*
X045583Y008703D01*
X046453Y008703D01*
X045113Y011133D01*
X043043Y011133D01*
X043033Y011143D01*
X035213Y020703D01*
X035213Y031773D01*
X043033Y041333D01*
X043043Y041343D01*
X045113Y041343D01*
X046453Y043773D01*
X045583Y043773D01*
X045582Y043692D01*
X045577Y043612D01*
X045568Y043531D01*
X045555Y043451D01*
X045539Y043372D01*
X045518Y043294D01*
X045494Y043217D01*
X045466Y043141D01*
X045434Y043067D01*
X045399Y042994D01*
X045361Y042923D01*
X045318Y042854D01*
X045273Y042787D01*
X045224Y042722D01*
X045173Y042660D01*
X045118Y042601D01*
X045060Y042544D01*
X045000Y042490D01*
X044937Y042439D01*
X044872Y042391D01*
X044805Y042347D01*
X044735Y042305D01*
X044664Y042268D01*
X044591Y042233D01*
X044516Y042202D01*
X044440Y042175D01*
X044362Y042152D01*
X044284Y042133D01*
X044205Y042117D01*
X044125Y042105D01*
X044044Y042097D01*
X043963Y042093D01*
X043882Y042093D01*
X043802Y042097D01*
X043721Y042105D01*
X043641Y042117D01*
X043562Y042133D01*
X043484Y042152D01*
X043406Y042176D01*
X043330Y042203D01*
X043255Y042233D01*
X043182Y042268D01*
X043111Y042305D01*
X043041Y042347D01*
X042974Y042391D01*
X042908Y042439D01*
X042846Y042490D01*
X042785Y042544D01*
X042728Y042601D01*
X042673Y042660D01*
X042622Y042723D01*
X042573Y042787D01*
X042527Y042854D01*
X042485Y042923D01*
X042447Y042994D01*
X042411Y043067D01*
X042380Y043141D01*
X042352Y043217D01*
X042328Y043294D01*
X042307Y043372D01*
X042291Y043452D01*
X042278Y043531D01*
X042269Y043612D01*
X042264Y043692D01*
X042263Y043773D01*
X042266Y043854D01*
X042273Y043935D01*
X042284Y044015D01*
X042298Y044094D01*
X042317Y044173D01*
X042339Y044251D01*
X042365Y044327D01*
X042395Y044402D01*
X042429Y044476D01*
X042466Y044548D01*
X042506Y044618D01*
X042550Y044686D01*
X042597Y044751D01*
X042647Y044815D01*
X042700Y044876D01*
X042756Y044934D01*
X042815Y044989D01*
X042877Y045042D01*
X042941Y045091D01*
X043007Y045137D01*
X043076Y045180D01*
X043146Y045220D01*
X043218Y045256D01*
X043292Y045289D01*
X043368Y045317D01*
X043445Y045343D01*
X043523Y045364D01*
X043602Y045382D01*
X043681Y045395D01*
X043761Y045405D01*
X043842Y045411D01*
X043923Y045413D01*
X043923Y046283D01*
X041503Y044953D01*
X041503Y042533D01*
X033713Y033279D01*
X019123Y033279D01*
X019113Y033289D02*
X011323Y042543D01*
X011323Y044963D01*
X008903Y046293D01*
X008903Y045423D01*
X008984Y045421D01*
X009065Y045415D01*
X009145Y045405D01*
X009224Y045392D01*
X009303Y045374D01*
X009381Y045353D01*
X009458Y045327D01*
X009534Y045299D01*
X009608Y045266D01*
X009680Y045230D01*
X009750Y045190D01*
X009819Y045147D01*
X009885Y045101D01*
X009949Y045052D01*
X010011Y044999D01*
X010070Y044944D01*
X010126Y044886D01*
X010179Y044825D01*
X010229Y044761D01*
X010276Y044696D01*
X010320Y044628D01*
X010360Y044558D01*
X010397Y044486D01*
X010431Y044412D01*
X010461Y044337D01*
X010487Y044261D01*
X010509Y044183D01*
X010528Y044104D01*
X010542Y044025D01*
X010553Y043945D01*
X010560Y043864D01*
X010563Y043783D01*
X010562Y043702D01*
X010557Y043622D01*
X010548Y043541D01*
X010535Y043462D01*
X010519Y043382D01*
X010498Y043304D01*
X010474Y043227D01*
X010446Y043151D01*
X010415Y043077D01*
X010379Y043004D01*
X010341Y042933D01*
X010299Y042864D01*
X010253Y042797D01*
X010204Y042733D01*
X010153Y042670D01*
X010098Y042611D01*
X010041Y042554D01*
X009980Y042500D01*
X009918Y042449D01*
X009852Y042401D01*
X009785Y042357D01*
X009715Y042315D01*
X009644Y042278D01*
X009571Y042243D01*
X009496Y042213D01*
X009420Y042186D01*
X009342Y042162D01*
X009264Y042143D01*
X009185Y042127D01*
X009105Y042115D01*
X009024Y042107D01*
X008944Y042103D01*
X008863Y042103D01*
X008782Y042107D01*
X008701Y042115D01*
X008621Y042127D01*
X008542Y042143D01*
X008464Y042162D01*
X008386Y042185D01*
X008310Y042212D01*
X008235Y042243D01*
X008162Y042278D01*
X008091Y042315D01*
X008021Y042357D01*
X007954Y042401D01*
X007889Y042449D01*
X007826Y042500D01*
X007766Y042554D01*
X007708Y042611D01*
X007653Y042670D01*
X007602Y042732D01*
X007553Y042797D01*
X007508Y042864D01*
X007465Y042933D01*
X007427Y043004D01*
X007392Y043077D01*
X007360Y043151D01*
X007332Y043227D01*
X007308Y043304D01*
X007287Y043382D01*
X007271Y043461D01*
X007258Y043541D01*
X007249Y043622D01*
X007244Y043702D01*
X007243Y043783D01*
X006373Y043783D01*
X007713Y041353D01*
X009783Y041353D01*
X009793Y041343D01*
X017613Y031783D01*
X017613Y020703D01*
X017613Y020713D02*
X009793Y011153D01*
X009783Y011143D01*
X007713Y011143D01*
X006373Y008713D01*
X007243Y008713D01*
X007244Y008794D01*
X007249Y008874D01*
X007258Y008955D01*
X007271Y009035D01*
X007287Y009114D01*
X007308Y009192D01*
X007332Y009269D01*
X007360Y009345D01*
X007392Y009419D01*
X007427Y009492D01*
X007465Y009563D01*
X007508Y009632D01*
X007553Y009699D01*
X007602Y009764D01*
X007653Y009826D01*
X007708Y009885D01*
X007766Y009942D01*
X007826Y009996D01*
X007889Y010047D01*
X007954Y010095D01*
X008021Y010139D01*
X008091Y010181D01*
X008162Y010218D01*
X008235Y010253D01*
X008310Y010284D01*
X008386Y010311D01*
X008464Y010334D01*
X008542Y010353D01*
X008621Y010369D01*
X008701Y010381D01*
X008782Y010389D01*
X008863Y010393D01*
X008944Y010393D01*
X009024Y010389D01*
X009105Y010381D01*
X009185Y010369D01*
X009264Y010353D01*
X009342Y010334D01*
X009420Y010310D01*
X009496Y010283D01*
X009571Y010253D01*
X009644Y010218D01*
X009715Y010181D01*
X009785Y010139D01*
X009852Y010095D01*
X009918Y010047D01*
X009980Y009996D01*
X010041Y009942D01*
X010098Y009885D01*
X010153Y009826D01*
X010204Y009763D01*
X010253Y009699D01*
X010299Y009632D01*
X010341Y009563D01*
X010379Y009492D01*
X010415Y009419D01*
X010446Y009345D01*
X010474Y009269D01*
X010498Y009192D01*
X010519Y009114D01*
X010535Y009034D01*
X010548Y008955D01*
X010557Y008874D01*
X010562Y008794D01*
X010563Y008713D01*
X010560Y008632D01*
X010553Y008551D01*
X010542Y008471D01*
X010528Y008392D01*
X010509Y008313D01*
X010487Y008235D01*
X010461Y008159D01*
X010431Y008084D01*
X010397Y008010D01*
X010360Y007938D01*
X010320Y007868D01*
X010276Y007800D01*
X010229Y007735D01*
X010179Y007671D01*
X010126Y007610D01*
X010070Y007552D01*
X010011Y007497D01*
X009949Y007444D01*
X009885Y007395D01*
X009819Y007349D01*
X009750Y007306D01*
X009680Y007266D01*
X009608Y007230D01*
X009534Y007197D01*
X009458Y007169D01*
X009381Y007143D01*
X009303Y007122D01*
X009224Y007104D01*
X009145Y007091D01*
X009065Y007081D01*
X008984Y007075D01*
X008903Y007073D01*
X011479Y012193D02*
X011481Y012232D01*
X011487Y012271D01*
X011497Y012309D01*
X011510Y012346D01*
X011527Y012381D01*
X011547Y012415D01*
X011571Y012446D01*
X011598Y012475D01*
X011627Y012501D01*
X011659Y012524D01*
X011693Y012544D01*
X011729Y012560D01*
X011766Y012572D01*
X011805Y012581D01*
X011844Y012586D01*
X011883Y012587D01*
X011922Y012584D01*
X011961Y012577D01*
X011998Y012566D01*
X012035Y012552D01*
X012070Y012534D01*
X012103Y012513D01*
X012134Y012488D01*
X012162Y012461D01*
X012187Y012431D01*
X012209Y012398D01*
X012228Y012364D01*
X012243Y012328D01*
X012255Y012290D01*
X012263Y012252D01*
X012267Y012213D01*
X012267Y012173D01*
X012263Y012134D01*
X012255Y012096D01*
X012243Y012058D01*
X012228Y012022D01*
X012209Y011988D01*
X012187Y011955D01*
X012162Y011925D01*
X012134Y011898D01*
X012103Y011873D01*
X012070Y011852D01*
X012035Y011834D01*
X011998Y011820D01*
X011961Y011809D01*
X011922Y011802D01*
X011883Y011799D01*
X011844Y011800D01*
X011805Y011805D01*
X011766Y011814D01*
X011729Y011826D01*
X011693Y011842D01*
X011659Y011862D01*
X011627Y011885D01*
X011598Y011911D01*
X011571Y011940D01*
X011547Y011971D01*
X011527Y012005D01*
X011510Y012040D01*
X011497Y012077D01*
X011487Y012115D01*
X011481Y012154D01*
X011479Y012193D01*
X013769Y014973D02*
X013771Y015012D01*
X013777Y015051D01*
X013787Y015089D01*
X013800Y015126D01*
X013817Y015161D01*
X013837Y015195D01*
X013861Y015226D01*
X013888Y015255D01*
X013917Y015281D01*
X013949Y015304D01*
X013983Y015324D01*
X014019Y015340D01*
X014056Y015352D01*
X014095Y015361D01*
X014134Y015366D01*
X014173Y015367D01*
X014212Y015364D01*
X014251Y015357D01*
X014288Y015346D01*
X014325Y015332D01*
X014360Y015314D01*
X014393Y015293D01*
X014424Y015268D01*
X014452Y015241D01*
X014477Y015211D01*
X014499Y015178D01*
X014518Y015144D01*
X014533Y015108D01*
X014545Y015070D01*
X014553Y015032D01*
X014557Y014993D01*
X014557Y014953D01*
X014553Y014914D01*
X014545Y014876D01*
X014533Y014838D01*
X014518Y014802D01*
X014499Y014768D01*
X014477Y014735D01*
X014452Y014705D01*
X014424Y014678D01*
X014393Y014653D01*
X014360Y014632D01*
X014325Y014614D01*
X014288Y014600D01*
X014251Y014589D01*
X014212Y014582D01*
X014173Y014579D01*
X014134Y014580D01*
X014095Y014585D01*
X014056Y014594D01*
X014019Y014606D01*
X013983Y014622D01*
X013949Y014642D01*
X013917Y014665D01*
X013888Y014691D01*
X013861Y014720D01*
X013837Y014751D01*
X013817Y014785D01*
X013800Y014820D01*
X013787Y014857D01*
X013777Y014895D01*
X013771Y014934D01*
X013769Y014973D01*
X016369Y018003D02*
X016371Y018042D01*
X016377Y018081D01*
X016387Y018119D01*
X016400Y018156D01*
X016417Y018191D01*
X016437Y018225D01*
X016461Y018256D01*
X016488Y018285D01*
X016517Y018311D01*
X016549Y018334D01*
X016583Y018354D01*
X016619Y018370D01*
X016656Y018382D01*
X016695Y018391D01*
X016734Y018396D01*
X016773Y018397D01*
X016812Y018394D01*
X016851Y018387D01*
X016888Y018376D01*
X016925Y018362D01*
X016960Y018344D01*
X016993Y018323D01*
X017024Y018298D01*
X017052Y018271D01*
X017077Y018241D01*
X017099Y018208D01*
X017118Y018174D01*
X017133Y018138D01*
X017145Y018100D01*
X017153Y018062D01*
X017157Y018023D01*
X017157Y017983D01*
X017153Y017944D01*
X017145Y017906D01*
X017133Y017868D01*
X017118Y017832D01*
X017099Y017798D01*
X017077Y017765D01*
X017052Y017735D01*
X017024Y017708D01*
X016993Y017683D01*
X016960Y017662D01*
X016925Y017644D01*
X016888Y017630D01*
X016851Y017619D01*
X016812Y017612D01*
X016773Y017609D01*
X016734Y017610D01*
X016695Y017615D01*
X016656Y017624D01*
X016619Y017636D01*
X016583Y017652D01*
X016549Y017672D01*
X016517Y017695D01*
X016488Y017721D01*
X016461Y017750D01*
X016437Y017781D01*
X016417Y017815D01*
X016400Y017850D01*
X016387Y017887D01*
X016377Y017925D01*
X016371Y017964D01*
X016369Y018003D01*
X035669Y017993D02*
X035671Y018032D01*
X035677Y018071D01*
X035687Y018109D01*
X035700Y018146D01*
X035717Y018181D01*
X035737Y018215D01*
X035761Y018246D01*
X035788Y018275D01*
X035817Y018301D01*
X035849Y018324D01*
X035883Y018344D01*
X035919Y018360D01*
X035956Y018372D01*
X035995Y018381D01*
X036034Y018386D01*
X036073Y018387D01*
X036112Y018384D01*
X036151Y018377D01*
X036188Y018366D01*
X036225Y018352D01*
X036260Y018334D01*
X036293Y018313D01*
X036324Y018288D01*
X036352Y018261D01*
X036377Y018231D01*
X036399Y018198D01*
X036418Y018164D01*
X036433Y018128D01*
X036445Y018090D01*
X036453Y018052D01*
X036457Y018013D01*
X036457Y017973D01*
X036453Y017934D01*
X036445Y017896D01*
X036433Y017858D01*
X036418Y017822D01*
X036399Y017788D01*
X036377Y017755D01*
X036352Y017725D01*
X036324Y017698D01*
X036293Y017673D01*
X036260Y017652D01*
X036225Y017634D01*
X036188Y017620D01*
X036151Y017609D01*
X036112Y017602D01*
X036073Y017599D01*
X036034Y017600D01*
X035995Y017605D01*
X035956Y017614D01*
X035919Y017626D01*
X035883Y017642D01*
X035849Y017662D01*
X035817Y017685D01*
X035788Y017711D01*
X035761Y017740D01*
X035737Y017771D01*
X035717Y017805D01*
X035700Y017840D01*
X035687Y017877D01*
X035677Y017915D01*
X035671Y017954D01*
X035669Y017993D01*
X038269Y014963D02*
X038271Y015002D01*
X038277Y015041D01*
X038287Y015079D01*
X038300Y015116D01*
X038317Y015151D01*
X038337Y015185D01*
X038361Y015216D01*
X038388Y015245D01*
X038417Y015271D01*
X038449Y015294D01*
X038483Y015314D01*
X038519Y015330D01*
X038556Y015342D01*
X038595Y015351D01*
X038634Y015356D01*
X038673Y015357D01*
X038712Y015354D01*
X038751Y015347D01*
X038788Y015336D01*
X038825Y015322D01*
X038860Y015304D01*
X038893Y015283D01*
X038924Y015258D01*
X038952Y015231D01*
X038977Y015201D01*
X038999Y015168D01*
X039018Y015134D01*
X039033Y015098D01*
X039045Y015060D01*
X039053Y015022D01*
X039057Y014983D01*
X039057Y014943D01*
X039053Y014904D01*
X039045Y014866D01*
X039033Y014828D01*
X039018Y014792D01*
X038999Y014758D01*
X038977Y014725D01*
X038952Y014695D01*
X038924Y014668D01*
X038893Y014643D01*
X038860Y014622D01*
X038825Y014604D01*
X038788Y014590D01*
X038751Y014579D01*
X038712Y014572D01*
X038673Y014569D01*
X038634Y014570D01*
X038595Y014575D01*
X038556Y014584D01*
X038519Y014596D01*
X038483Y014612D01*
X038449Y014632D01*
X038417Y014655D01*
X038388Y014681D01*
X038361Y014710D01*
X038337Y014741D01*
X038317Y014775D01*
X038300Y014810D01*
X038287Y014847D01*
X038277Y014885D01*
X038271Y014924D01*
X038269Y014963D01*
X040559Y012183D02*
X040561Y012222D01*
X040567Y012261D01*
X040577Y012299D01*
X040590Y012336D01*
X040607Y012371D01*
X040627Y012405D01*
X040651Y012436D01*
X040678Y012465D01*
X040707Y012491D01*
X040739Y012514D01*
X040773Y012534D01*
X040809Y012550D01*
X040846Y012562D01*
X040885Y012571D01*
X040924Y012576D01*
X040963Y012577D01*
X041002Y012574D01*
X041041Y012567D01*
X041078Y012556D01*
X041115Y012542D01*
X041150Y012524D01*
X041183Y012503D01*
X041214Y012478D01*
X041242Y012451D01*
X041267Y012421D01*
X041289Y012388D01*
X041308Y012354D01*
X041323Y012318D01*
X041335Y012280D01*
X041343Y012242D01*
X041347Y012203D01*
X041347Y012163D01*
X041343Y012124D01*
X041335Y012086D01*
X041323Y012048D01*
X041308Y012012D01*
X041289Y011978D01*
X041267Y011945D01*
X041242Y011915D01*
X041214Y011888D01*
X041183Y011863D01*
X041150Y011842D01*
X041115Y011824D01*
X041078Y011810D01*
X041041Y011799D01*
X041002Y011792D01*
X040963Y011789D01*
X040924Y011790D01*
X040885Y011795D01*
X040846Y011804D01*
X040809Y011816D01*
X040773Y011832D01*
X040739Y011852D01*
X040707Y011875D01*
X040678Y011901D01*
X040651Y011930D01*
X040627Y011961D01*
X040607Y011995D01*
X040590Y012030D01*
X040577Y012067D01*
X040567Y012105D01*
X040561Y012144D01*
X040559Y012183D01*
X035669Y034483D02*
X035671Y034522D01*
X035677Y034561D01*
X035687Y034599D01*
X035700Y034636D01*
X035717Y034671D01*
X035737Y034705D01*
X035761Y034736D01*
X035788Y034765D01*
X035817Y034791D01*
X035849Y034814D01*
X035883Y034834D01*
X035919Y034850D01*
X035956Y034862D01*
X035995Y034871D01*
X036034Y034876D01*
X036073Y034877D01*
X036112Y034874D01*
X036151Y034867D01*
X036188Y034856D01*
X036225Y034842D01*
X036260Y034824D01*
X036293Y034803D01*
X036324Y034778D01*
X036352Y034751D01*
X036377Y034721D01*
X036399Y034688D01*
X036418Y034654D01*
X036433Y034618D01*
X036445Y034580D01*
X036453Y034542D01*
X036457Y034503D01*
X036457Y034463D01*
X036453Y034424D01*
X036445Y034386D01*
X036433Y034348D01*
X036418Y034312D01*
X036399Y034278D01*
X036377Y034245D01*
X036352Y034215D01*
X036324Y034188D01*
X036293Y034163D01*
X036260Y034142D01*
X036225Y034124D01*
X036188Y034110D01*
X036151Y034099D01*
X036112Y034092D01*
X036073Y034089D01*
X036034Y034090D01*
X035995Y034095D01*
X035956Y034104D01*
X035919Y034116D01*
X035883Y034132D01*
X035849Y034152D01*
X035817Y034175D01*
X035788Y034201D01*
X035761Y034230D01*
X035737Y034261D01*
X035717Y034295D01*
X035700Y034330D01*
X035687Y034367D01*
X035677Y034405D01*
X035671Y034444D01*
X035669Y034483D01*
X038269Y037513D02*
X038271Y037552D01*
X038277Y037591D01*
X038287Y037629D01*
X038300Y037666D01*
X038317Y037701D01*
X038337Y037735D01*
X038361Y037766D01*
X038388Y037795D01*
X038417Y037821D01*
X038449Y037844D01*
X038483Y037864D01*
X038519Y037880D01*
X038556Y037892D01*
X038595Y037901D01*
X038634Y037906D01*
X038673Y037907D01*
X038712Y037904D01*
X038751Y037897D01*
X038788Y037886D01*
X038825Y037872D01*
X038860Y037854D01*
X038893Y037833D01*
X038924Y037808D01*
X038952Y037781D01*
X038977Y037751D01*
X038999Y037718D01*
X039018Y037684D01*
X039033Y037648D01*
X039045Y037610D01*
X039053Y037572D01*
X039057Y037533D01*
X039057Y037493D01*
X039053Y037454D01*
X039045Y037416D01*
X039033Y037378D01*
X039018Y037342D01*
X038999Y037308D01*
X038977Y037275D01*
X038952Y037245D01*
X038924Y037218D01*
X038893Y037193D01*
X038860Y037172D01*
X038825Y037154D01*
X038788Y037140D01*
X038751Y037129D01*
X038712Y037122D01*
X038673Y037119D01*
X038634Y037120D01*
X038595Y037125D01*
X038556Y037134D01*
X038519Y037146D01*
X038483Y037162D01*
X038449Y037182D01*
X038417Y037205D01*
X038388Y037231D01*
X038361Y037260D01*
X038337Y037291D01*
X038317Y037325D01*
X038300Y037360D01*
X038287Y037397D01*
X038277Y037435D01*
X038271Y037474D01*
X038269Y037513D01*
X040559Y040293D02*
X040561Y040332D01*
X040567Y040371D01*
X040577Y040409D01*
X040590Y040446D01*
X040607Y040481D01*
X040627Y040515D01*
X040651Y040546D01*
X040678Y040575D01*
X040707Y040601D01*
X040739Y040624D01*
X040773Y040644D01*
X040809Y040660D01*
X040846Y040672D01*
X040885Y040681D01*
X040924Y040686D01*
X040963Y040687D01*
X041002Y040684D01*
X041041Y040677D01*
X041078Y040666D01*
X041115Y040652D01*
X041150Y040634D01*
X041183Y040613D01*
X041214Y040588D01*
X041242Y040561D01*
X041267Y040531D01*
X041289Y040498D01*
X041308Y040464D01*
X041323Y040428D01*
X041335Y040390D01*
X041343Y040352D01*
X041347Y040313D01*
X041347Y040273D01*
X041343Y040234D01*
X041335Y040196D01*
X041323Y040158D01*
X041308Y040122D01*
X041289Y040088D01*
X041267Y040055D01*
X041242Y040025D01*
X041214Y039998D01*
X041183Y039973D01*
X041150Y039952D01*
X041115Y039934D01*
X041078Y039920D01*
X041041Y039909D01*
X041002Y039902D01*
X040963Y039899D01*
X040924Y039900D01*
X040885Y039905D01*
X040846Y039914D01*
X040809Y039926D01*
X040773Y039942D01*
X040739Y039962D01*
X040707Y039985D01*
X040678Y040011D01*
X040651Y040040D01*
X040627Y040071D01*
X040607Y040105D01*
X040590Y040140D01*
X040577Y040177D01*
X040567Y040215D01*
X040561Y040254D01*
X040559Y040293D01*
X016369Y034493D02*
X016371Y034532D01*
X016377Y034571D01*
X016387Y034609D01*
X016400Y034646D01*
X016417Y034681D01*
X016437Y034715D01*
X016461Y034746D01*
X016488Y034775D01*
X016517Y034801D01*
X016549Y034824D01*
X016583Y034844D01*
X016619Y034860D01*
X016656Y034872D01*
X016695Y034881D01*
X016734Y034886D01*
X016773Y034887D01*
X016812Y034884D01*
X016851Y034877D01*
X016888Y034866D01*
X016925Y034852D01*
X016960Y034834D01*
X016993Y034813D01*
X017024Y034788D01*
X017052Y034761D01*
X017077Y034731D01*
X017099Y034698D01*
X017118Y034664D01*
X017133Y034628D01*
X017145Y034590D01*
X017153Y034552D01*
X017157Y034513D01*
X017157Y034473D01*
X017153Y034434D01*
X017145Y034396D01*
X017133Y034358D01*
X017118Y034322D01*
X017099Y034288D01*
X017077Y034255D01*
X017052Y034225D01*
X017024Y034198D01*
X016993Y034173D01*
X016960Y034152D01*
X016925Y034134D01*
X016888Y034120D01*
X016851Y034109D01*
X016812Y034102D01*
X016773Y034099D01*
X016734Y034100D01*
X016695Y034105D01*
X016656Y034114D01*
X016619Y034126D01*
X016583Y034142D01*
X016549Y034162D01*
X016517Y034185D01*
X016488Y034211D01*
X016461Y034240D01*
X016437Y034271D01*
X016417Y034305D01*
X016400Y034340D01*
X016387Y034377D01*
X016377Y034415D01*
X016371Y034454D01*
X016369Y034493D01*
X013769Y037523D02*
X013771Y037562D01*
X013777Y037601D01*
X013787Y037639D01*
X013800Y037676D01*
X013817Y037711D01*
X013837Y037745D01*
X013861Y037776D01*
X013888Y037805D01*
X013917Y037831D01*
X013949Y037854D01*
X013983Y037874D01*
X014019Y037890D01*
X014056Y037902D01*
X014095Y037911D01*
X014134Y037916D01*
X014173Y037917D01*
X014212Y037914D01*
X014251Y037907D01*
X014288Y037896D01*
X014325Y037882D01*
X014360Y037864D01*
X014393Y037843D01*
X014424Y037818D01*
X014452Y037791D01*
X014477Y037761D01*
X014499Y037728D01*
X014518Y037694D01*
X014533Y037658D01*
X014545Y037620D01*
X014553Y037582D01*
X014557Y037543D01*
X014557Y037503D01*
X014553Y037464D01*
X014545Y037426D01*
X014533Y037388D01*
X014518Y037352D01*
X014499Y037318D01*
X014477Y037285D01*
X014452Y037255D01*
X014424Y037228D01*
X014393Y037203D01*
X014360Y037182D01*
X014325Y037164D01*
X014288Y037150D01*
X014251Y037139D01*
X014212Y037132D01*
X014173Y037129D01*
X014134Y037130D01*
X014095Y037135D01*
X014056Y037144D01*
X014019Y037156D01*
X013983Y037172D01*
X013949Y037192D01*
X013917Y037215D01*
X013888Y037241D01*
X013861Y037270D01*
X013837Y037301D01*
X013817Y037335D01*
X013800Y037370D01*
X013787Y037407D01*
X013777Y037445D01*
X013771Y037484D01*
X013769Y037523D01*
X011479Y040303D02*
X011481Y040342D01*
X011487Y040381D01*
X011497Y040419D01*
X011510Y040456D01*
X011527Y040491D01*
X011547Y040525D01*
X011571Y040556D01*
X011598Y040585D01*
X011627Y040611D01*
X011659Y040634D01*
X011693Y040654D01*
X011729Y040670D01*
X011766Y040682D01*
X011805Y040691D01*
X011844Y040696D01*
X011883Y040697D01*
X011922Y040694D01*
X011961Y040687D01*
X011998Y040676D01*
X012035Y040662D01*
X012070Y040644D01*
X012103Y040623D01*
X012134Y040598D01*
X012162Y040571D01*
X012187Y040541D01*
X012209Y040508D01*
X012228Y040474D01*
X012243Y040438D01*
X012255Y040400D01*
X012263Y040362D01*
X012267Y040323D01*
X012267Y040283D01*
X012263Y040244D01*
X012255Y040206D01*
X012243Y040168D01*
X012228Y040132D01*
X012209Y040098D01*
X012187Y040065D01*
X012162Y040035D01*
X012134Y040008D01*
X012103Y039983D01*
X012070Y039962D01*
X012035Y039944D01*
X011998Y039930D01*
X011961Y039919D01*
X011922Y039912D01*
X011883Y039909D01*
X011844Y039910D01*
X011805Y039915D01*
X011766Y039924D01*
X011729Y039936D01*
X011693Y039952D01*
X011659Y039972D01*
X011627Y039995D01*
X011598Y040021D01*
X011571Y040050D01*
X011547Y040081D01*
X011527Y040115D01*
X011510Y040150D01*
X011497Y040187D01*
X011487Y040225D01*
X011481Y040264D01*
X011479Y040303D01*
M02*
