G75*
%MOIN*%
%OFA0B0*%
%FSLAX24Y24*%
%IPPOS*%
%LPD*%
%AMOC8*
5,1,8,0,0,1.08239X$1,22.5*
%
%ADD10R,0.0740X0.0740*%
%ADD11OC8,0.0740*%
%ADD12C,0.0740*%
%ADD13C,0.0397*%
%ADD14C,0.0320*%
%ADD15C,0.0160*%
%ADD16C,0.0100*%
%ADD17C,0.0200*%
D10*
X033973Y028453D03*
D11*
X032973Y028453D03*
X032973Y029453D03*
X032973Y030453D03*
X033973Y030453D03*
X033973Y029453D03*
D12*
X033993Y027263D03*
X033993Y026263D03*
X033993Y025263D03*
X033993Y024263D03*
X033993Y023263D03*
X033993Y022263D03*
X020313Y021873D03*
X018933Y022063D03*
X018933Y023063D03*
X018933Y024063D03*
X020313Y022873D03*
X018903Y025603D03*
X018903Y026603D03*
X018903Y027603D03*
X018903Y028603D03*
X018903Y029603D03*
X018903Y030603D03*
D13*
X018503Y031827D03*
X018503Y032319D03*
X034303Y032319D03*
X034303Y031827D03*
X034303Y020619D03*
X034303Y020127D03*
X018503Y020127D03*
X018503Y020619D03*
D14*
X022323Y020313D03*
X022333Y020883D03*
X023813Y021163D03*
X023813Y020303D03*
X025303Y020303D03*
X025283Y021163D03*
X026733Y021163D03*
X026763Y020303D03*
X029213Y020693D03*
X030103Y023433D03*
X029703Y023573D03*
X030473Y023863D03*
X030603Y023453D03*
X032113Y024933D03*
X031493Y025763D03*
X032843Y026223D03*
X032413Y026943D03*
X032993Y027363D03*
X032203Y027813D03*
X028013Y028773D03*
X025463Y026443D03*
X025493Y025873D03*
X025903Y024973D03*
X025486Y024682D03*
X026303Y024373D03*
X025743Y023563D03*
X024383Y023443D03*
X023453Y023183D03*
X022833Y023493D03*
X022103Y023153D03*
X021383Y023673D03*
X023513Y024103D03*
X027433Y023463D03*
X027883Y023473D03*
X028303Y023463D03*
X033063Y023633D03*
X021983Y028473D03*
X021373Y027293D03*
X019443Y026113D03*
X019053Y024793D03*
X020163Y029893D03*
X022403Y030173D03*
D15*
X018849Y019203D02*
X017613Y019203D01*
X017613Y020397D01*
X017717Y020524D01*
X017813Y020620D01*
X017813Y020642D01*
X017821Y020651D01*
X017813Y020723D01*
X017813Y031773D01*
X017821Y031846D01*
X017813Y031855D01*
X017813Y031866D01*
X017762Y031918D01*
X017613Y032099D01*
X017613Y033303D01*
X018840Y033303D01*
X018923Y033204D01*
X018923Y033196D01*
X018966Y033154D01*
X019014Y033097D01*
X019024Y033096D01*
X019040Y033079D01*
X024213Y033079D01*
X024213Y030920D01*
X024330Y030803D01*
X031096Y030803D01*
X031213Y030920D01*
X031213Y033079D01*
X033640Y033079D01*
X033648Y033073D01*
X033722Y033079D01*
X033796Y033079D01*
X033803Y033086D01*
X033813Y033087D01*
X033861Y033144D01*
X033913Y033196D01*
X033913Y033206D01*
X033995Y033303D01*
X035213Y033303D01*
X035213Y032089D01*
X035065Y031908D01*
X035013Y031856D01*
X035013Y031845D01*
X035006Y031836D01*
X035013Y031763D01*
X035013Y020713D01*
X035006Y020641D01*
X035013Y020632D01*
X035013Y020620D01*
X035065Y020569D01*
X035213Y020387D01*
X035213Y019203D01*
X033970Y019203D01*
X033913Y019270D01*
X033913Y019286D01*
X033829Y019371D01*
X033813Y019390D01*
X033810Y019390D01*
X033796Y019403D01*
X033652Y019403D01*
X033648Y019404D01*
X033647Y019403D01*
X019191Y019403D01*
X019179Y019414D01*
X019058Y019403D01*
X019035Y019403D01*
X019033Y019401D01*
X019014Y019400D01*
X018849Y019203D01*
X017613Y019203D01*
X017613Y019362D02*
X018982Y019362D01*
X019262Y019520D02*
X017613Y019520D01*
X017613Y019679D02*
X019104Y019679D01*
X018959Y019823D02*
X019263Y019519D01*
X019374Y019473D01*
X023883Y019473D01*
X023993Y019519D01*
X024078Y019603D01*
X024123Y019714D01*
X024123Y019833D01*
X024113Y019857D01*
X024113Y020094D01*
X024119Y020099D01*
X024173Y020232D01*
X024173Y020375D01*
X024119Y020507D01*
X024017Y020609D01*
X023885Y020663D01*
X023742Y020663D01*
X023609Y020609D01*
X023508Y020507D01*
X023453Y020375D01*
X023453Y020232D01*
X023508Y020099D01*
X023513Y020094D01*
X023513Y020073D01*
X022592Y020073D01*
X022629Y020109D01*
X022683Y020242D01*
X022683Y020385D01*
X022629Y020517D01*
X022527Y020619D01*
X022395Y020673D01*
X022252Y020673D01*
X022119Y020619D01*
X022114Y020613D01*
X020318Y020613D01*
X019658Y021273D01*
X019658Y021273D01*
X019573Y021358D01*
X019463Y021403D01*
X018888Y021403D01*
X018782Y021509D01*
X018820Y021493D01*
X019047Y021493D01*
X019256Y021580D01*
X019417Y021740D01*
X019503Y021950D01*
X019503Y022177D01*
X019417Y022386D01*
X019256Y022547D01*
X019216Y022563D01*
X019256Y022580D01*
X019417Y022740D01*
X019503Y022950D01*
X019503Y023177D01*
X019417Y023386D01*
X019256Y023547D01*
X019216Y023563D01*
X019256Y023580D01*
X019417Y023740D01*
X019503Y023950D01*
X019503Y023990D01*
X019600Y023893D01*
X019621Y023842D01*
X019692Y023771D01*
X019784Y023733D01*
X020780Y023733D01*
X020853Y023660D01*
X020853Y023294D01*
X020891Y023202D01*
X021081Y023012D01*
X021152Y022941D01*
X021244Y022903D01*
X021844Y022903D01*
X021899Y022848D01*
X022032Y022793D01*
X022175Y022793D01*
X022307Y022848D01*
X022409Y022949D01*
X022463Y023082D01*
X022463Y023225D01*
X022409Y023357D01*
X022307Y023459D01*
X022175Y023513D01*
X022032Y023513D01*
X021899Y023459D01*
X021844Y023403D01*
X021397Y023403D01*
X021353Y023447D01*
X021353Y023813D01*
X021315Y023905D01*
X021245Y023975D01*
X021157Y024063D01*
X023153Y024063D01*
X023153Y024032D01*
X023208Y023899D01*
X023309Y023798D01*
X023442Y023743D01*
X023585Y023743D01*
X023717Y023798D01*
X023819Y023899D01*
X023873Y024032D01*
X023873Y024175D01*
X023819Y024307D01*
X023762Y024363D01*
X024100Y024363D01*
X024483Y023980D01*
X024483Y023792D01*
X024455Y023803D01*
X024312Y023803D01*
X024179Y023749D01*
X024078Y023647D01*
X024023Y023515D01*
X024023Y023372D01*
X024056Y023293D01*
X023797Y023293D01*
X023759Y023387D01*
X023657Y023489D01*
X023525Y023543D01*
X023382Y023543D01*
X023249Y023489D01*
X023148Y023387D01*
X023093Y023255D01*
X023093Y023112D01*
X023148Y022979D01*
X023249Y022878D01*
X023382Y022823D01*
X023509Y022823D01*
X023519Y022815D01*
X023552Y022806D01*
X023584Y022793D01*
X023600Y022793D01*
X023615Y022789D01*
X023649Y022793D01*
X024320Y022793D01*
X024514Y022599D01*
X024521Y022582D01*
X024592Y022511D01*
X025702Y021401D01*
X025794Y021363D01*
X030763Y021363D01*
X030855Y021401D01*
X031265Y021812D01*
X031303Y021904D01*
X031303Y023593D01*
X031265Y023685D01*
X031195Y023755D01*
X031027Y023923D01*
X031030Y023923D01*
X031461Y023492D01*
X031532Y023421D01*
X031624Y023383D01*
X032804Y023383D01*
X032859Y023328D01*
X032992Y023273D01*
X033135Y023273D01*
X033267Y023328D01*
X033369Y023429D01*
X033412Y023535D01*
X033465Y023477D01*
X033423Y023377D01*
X033423Y023150D01*
X033510Y022940D01*
X033670Y022780D01*
X033711Y022763D01*
X033670Y022747D01*
X033510Y022586D01*
X033423Y022377D01*
X033423Y022150D01*
X033510Y021940D01*
X033670Y021780D01*
X033880Y021693D01*
X034107Y021693D01*
X034294Y021771D01*
X034293Y021468D01*
X034229Y021403D01*
X033574Y021403D01*
X033463Y021358D01*
X033379Y021273D01*
X032719Y020613D01*
X026972Y020604D01*
X026967Y020609D01*
X026835Y020663D01*
X026692Y020663D01*
X026559Y020609D01*
X026458Y020507D01*
X026403Y020375D01*
X026403Y020232D01*
X026458Y020099D01*
X026484Y020073D01*
X025827Y020073D01*
X025803Y020083D01*
X025618Y020083D01*
X025605Y020096D01*
X025609Y020099D01*
X025663Y020232D01*
X025663Y020375D01*
X025609Y020507D01*
X025507Y020609D01*
X025375Y020663D01*
X025232Y020663D01*
X025099Y020609D01*
X024998Y020507D01*
X024943Y020375D01*
X024943Y020232D01*
X024998Y020099D01*
X025003Y020094D01*
X025003Y019914D01*
X025049Y019803D01*
X025239Y019613D01*
X025323Y019529D01*
X025434Y019483D01*
X025670Y019483D01*
X025694Y019473D01*
X032963Y019473D01*
X033073Y019519D01*
X033878Y020323D01*
X033953Y020323D01*
X033905Y020207D01*
X033905Y020048D01*
X033966Y019902D01*
X034078Y019790D01*
X034224Y019729D01*
X034383Y019729D01*
X034529Y019790D01*
X034641Y019902D01*
X034702Y020048D01*
X034702Y020207D01*
X034641Y020353D01*
X034621Y020373D01*
X034641Y020394D01*
X034702Y020540D01*
X034702Y020699D01*
X034641Y020845D01*
X034580Y020906D01*
X034806Y021131D01*
X034847Y021173D01*
X034848Y021173D01*
X034871Y021229D01*
X034893Y021283D01*
X034893Y021284D01*
X034893Y021344D01*
X034903Y030724D01*
X034903Y030783D01*
X034903Y030843D01*
X034880Y030898D01*
X034858Y030953D01*
X034858Y030953D01*
X034858Y030953D01*
X034815Y030996D01*
X034774Y031037D01*
X034773Y031038D01*
X034382Y031429D01*
X034383Y031429D01*
X034529Y031490D01*
X034641Y031602D01*
X034702Y031748D01*
X034702Y031907D01*
X034641Y032053D01*
X034621Y032073D01*
X034641Y032094D01*
X034702Y032240D01*
X034702Y032399D01*
X034641Y032545D01*
X034529Y032657D01*
X034383Y032718D01*
X034224Y032718D01*
X034078Y032657D01*
X034040Y032619D01*
X033850Y032619D01*
X033739Y032574D01*
X033733Y032568D01*
X033649Y032483D01*
X033603Y032373D01*
X033603Y031424D01*
X033649Y031313D01*
X033699Y031263D01*
X032594Y031263D01*
X032502Y031225D01*
X030300Y029023D01*
X028272Y029023D01*
X028217Y029079D01*
X028085Y029133D01*
X027942Y029133D01*
X027809Y029079D01*
X027754Y029023D01*
X024447Y029023D01*
X024045Y029425D01*
X023953Y029463D01*
X023077Y029463D01*
X022653Y029887D01*
X022653Y029914D01*
X022709Y029969D01*
X022763Y030102D01*
X022763Y030245D01*
X022709Y030377D01*
X022607Y030479D01*
X022475Y030533D01*
X022332Y030533D01*
X022199Y030479D01*
X022098Y030377D01*
X022043Y030245D01*
X022043Y030102D01*
X022098Y029969D01*
X022153Y029914D01*
X022153Y029734D01*
X022191Y029642D01*
X022761Y029072D01*
X022832Y029001D01*
X022924Y028963D01*
X023800Y028963D01*
X024131Y028632D01*
X024202Y028561D01*
X024294Y028523D01*
X027754Y028523D01*
X027809Y028468D01*
X027942Y028413D01*
X028085Y028413D01*
X028217Y028468D01*
X028272Y028523D01*
X030453Y028523D01*
X030545Y028561D01*
X032457Y030473D01*
X032953Y030473D01*
X032953Y030433D01*
X032423Y030433D01*
X032423Y030226D01*
X032681Y029967D01*
X032403Y029689D01*
X032403Y029217D01*
X032434Y029187D01*
X032382Y029165D01*
X032311Y029095D01*
X031692Y028475D01*
X031621Y028405D01*
X031583Y028313D01*
X031583Y027557D01*
X031550Y027523D01*
X029554Y027523D01*
X029462Y027485D01*
X027162Y025185D01*
X027162Y025185D01*
X027091Y025115D01*
X027073Y025071D01*
X027073Y025443D01*
X027035Y025535D01*
X026965Y025605D01*
X026875Y025695D01*
X026783Y025733D01*
X025825Y025733D01*
X025853Y025802D01*
X025853Y025945D01*
X025799Y026077D01*
X025702Y026173D01*
X025769Y026239D01*
X025823Y026372D01*
X025823Y026515D01*
X025769Y026647D01*
X025667Y026749D01*
X025535Y026803D01*
X025392Y026803D01*
X025259Y026749D01*
X025216Y026705D01*
X023995Y027925D01*
X023903Y027963D01*
X022213Y027963D01*
X022213Y028194D01*
X022289Y028269D01*
X022343Y028402D01*
X022343Y028545D01*
X022289Y028677D01*
X022187Y028779D01*
X022055Y028833D01*
X021912Y028833D01*
X021779Y028779D01*
X021678Y028677D01*
X021623Y028545D01*
X021623Y028402D01*
X021678Y028269D01*
X021713Y028234D01*
X021713Y027744D01*
X021751Y027652D01*
X021831Y027572D01*
X021902Y027501D01*
X021994Y027463D01*
X023750Y027463D01*
X024911Y026302D01*
X024982Y026231D01*
X025074Y026193D01*
X025204Y026193D01*
X025254Y026143D01*
X025234Y026123D01*
X024874Y026123D01*
X024782Y026085D01*
X024711Y026015D01*
X024280Y025583D01*
X021747Y025583D01*
X021623Y025707D01*
X021623Y027034D01*
X021679Y027089D01*
X021733Y027222D01*
X021733Y027365D01*
X021679Y027497D01*
X021577Y027599D01*
X021445Y027653D01*
X021302Y027653D01*
X021169Y027599D01*
X021068Y027497D01*
X021013Y027365D01*
X021013Y027222D01*
X021068Y027089D01*
X021123Y027034D01*
X021123Y025554D01*
X021161Y025462D01*
X021431Y025192D01*
X021502Y025121D01*
X021569Y025093D01*
X020537Y025093D01*
X020353Y025277D01*
X020353Y029363D01*
X020315Y029455D01*
X020236Y029534D01*
X020367Y029588D01*
X020469Y029689D01*
X020523Y029822D01*
X020523Y029965D01*
X020469Y030097D01*
X020367Y030199D01*
X020235Y030253D01*
X020157Y030253D01*
X019595Y030815D01*
X019503Y030853D01*
X019417Y030853D01*
X019387Y030926D01*
X019226Y031087D01*
X019017Y031173D01*
X018790Y031173D01*
X018623Y031104D01*
X018623Y031446D01*
X018729Y031490D01*
X018841Y031602D01*
X018902Y031748D01*
X018902Y031907D01*
X018841Y032053D01*
X018821Y032073D01*
X018841Y032094D01*
X018902Y032240D01*
X018902Y032399D01*
X018841Y032545D01*
X018729Y032657D01*
X018583Y032718D01*
X018424Y032718D01*
X018278Y032657D01*
X018166Y032545D01*
X018105Y032399D01*
X018105Y032240D01*
X018166Y032094D01*
X018186Y032073D01*
X018166Y032053D01*
X018105Y031907D01*
X018105Y031853D01*
X018069Y031817D01*
X018023Y031707D01*
X018023Y021484D01*
X018069Y021373D01*
X018153Y021289D01*
X018425Y021018D01*
X018424Y021018D01*
X018278Y020957D01*
X018166Y020845D01*
X018105Y020699D01*
X018105Y020540D01*
X018166Y020394D01*
X018186Y020373D01*
X018166Y020353D01*
X018105Y020207D01*
X018105Y020048D01*
X018166Y019902D01*
X018278Y019790D01*
X018424Y019729D01*
X018583Y019729D01*
X018729Y019790D01*
X018763Y019823D01*
X018959Y019823D01*
X018507Y020123D02*
X018503Y020127D01*
X018230Y019837D02*
X017613Y019837D01*
X017613Y019996D02*
X018127Y019996D01*
X018105Y020154D02*
X017613Y020154D01*
X017613Y020313D02*
X018149Y020313D01*
X018133Y020471D02*
X017674Y020471D01*
X017813Y020630D02*
X018105Y020630D01*
X018142Y020788D02*
X017813Y020788D01*
X017813Y020947D02*
X018267Y020947D01*
X018337Y021105D02*
X017813Y021105D01*
X017813Y021264D02*
X018179Y021264D01*
X018049Y021422D02*
X017813Y021422D01*
X017813Y021581D02*
X018023Y021581D01*
X018023Y021739D02*
X017813Y021739D01*
X017813Y021898D02*
X018023Y021898D01*
X018023Y022056D02*
X017813Y022056D01*
X017813Y022215D02*
X018023Y022215D01*
X018023Y022373D02*
X017813Y022373D01*
X017813Y022532D02*
X018023Y022532D01*
X018023Y022690D02*
X017813Y022690D01*
X017813Y022849D02*
X018023Y022849D01*
X018023Y023007D02*
X017813Y023007D01*
X017813Y023166D02*
X018023Y023166D01*
X018023Y023324D02*
X017813Y023324D01*
X017813Y023483D02*
X018023Y023483D01*
X018023Y023641D02*
X017813Y023641D01*
X017813Y023800D02*
X018023Y023800D01*
X018023Y023958D02*
X017813Y023958D01*
X017813Y024117D02*
X018023Y024117D01*
X018023Y024275D02*
X017813Y024275D01*
X017813Y024434D02*
X018023Y024434D01*
X018023Y024592D02*
X017813Y024592D01*
X017813Y024751D02*
X018023Y024751D01*
X018023Y024909D02*
X017813Y024909D01*
X017813Y025068D02*
X018023Y025068D01*
X018023Y025226D02*
X017813Y025226D01*
X017813Y025385D02*
X018023Y025385D01*
X018023Y025543D02*
X017813Y025543D01*
X017813Y025702D02*
X018023Y025702D01*
X018023Y025860D02*
X017813Y025860D01*
X017813Y026019D02*
X018023Y026019D01*
X018023Y026177D02*
X017813Y026177D01*
X017813Y026336D02*
X018023Y026336D01*
X018023Y026494D02*
X017813Y026494D01*
X017813Y026653D02*
X018023Y026653D01*
X018023Y026811D02*
X017813Y026811D01*
X017813Y026970D02*
X018023Y026970D01*
X018023Y027128D02*
X017813Y027128D01*
X017813Y027287D02*
X018023Y027287D01*
X018023Y027445D02*
X017813Y027445D01*
X017813Y027604D02*
X018023Y027604D01*
X018023Y027762D02*
X017813Y027762D01*
X017813Y027921D02*
X018023Y027921D01*
X018023Y028079D02*
X017813Y028079D01*
X017813Y028238D02*
X018023Y028238D01*
X018023Y028396D02*
X017813Y028396D01*
X017813Y028555D02*
X018023Y028555D01*
X018023Y028713D02*
X017813Y028713D01*
X017813Y028872D02*
X018023Y028872D01*
X018023Y029030D02*
X017813Y029030D01*
X017813Y029189D02*
X018023Y029189D01*
X018023Y029347D02*
X017813Y029347D01*
X017813Y029506D02*
X018023Y029506D01*
X018023Y029664D02*
X017813Y029664D01*
X017813Y029823D02*
X018023Y029823D01*
X018023Y029981D02*
X017813Y029981D01*
X017813Y030140D02*
X018023Y030140D01*
X018023Y030298D02*
X017813Y030298D01*
X017813Y030457D02*
X018023Y030457D01*
X018023Y030615D02*
X017813Y030615D01*
X017813Y030774D02*
X018023Y030774D01*
X018023Y030932D02*
X017813Y030932D01*
X017813Y031091D02*
X018023Y031091D01*
X018023Y031249D02*
X017813Y031249D01*
X017813Y031408D02*
X018023Y031408D01*
X018023Y031566D02*
X017813Y031566D01*
X017813Y031725D02*
X018031Y031725D01*
X018105Y031883D02*
X017796Y031883D01*
X017660Y032042D02*
X018161Y032042D01*
X018121Y032200D02*
X017613Y032200D01*
X017613Y032359D02*
X018105Y032359D01*
X018154Y032517D02*
X017613Y032517D01*
X017613Y032676D02*
X018323Y032676D01*
X018684Y032676D02*
X024213Y032676D01*
X024213Y032834D02*
X017613Y032834D01*
X017613Y032993D02*
X024213Y032993D01*
X024213Y032517D02*
X018853Y032517D01*
X018902Y032359D02*
X024213Y032359D01*
X024213Y032200D02*
X018885Y032200D01*
X018846Y032042D02*
X024213Y032042D01*
X024213Y031883D02*
X018902Y031883D01*
X018892Y031725D02*
X024213Y031725D01*
X024213Y031566D02*
X018806Y031566D01*
X018623Y031408D02*
X024213Y031408D01*
X024213Y031249D02*
X018623Y031249D01*
X019216Y031091D02*
X024213Y031091D01*
X024213Y030932D02*
X019380Y030932D01*
X019636Y030774D02*
X032050Y030774D01*
X031892Y030615D02*
X019795Y030615D01*
X019953Y030457D02*
X022178Y030457D01*
X022065Y030298D02*
X020112Y030298D01*
X020426Y030140D02*
X022043Y030140D01*
X022093Y029981D02*
X020517Y029981D01*
X020523Y029823D02*
X022153Y029823D01*
X022182Y029664D02*
X020443Y029664D01*
X020264Y029506D02*
X022327Y029506D01*
X022486Y029347D02*
X020353Y029347D01*
X020353Y029189D02*
X022644Y029189D01*
X022803Y029030D02*
X020353Y029030D01*
X020353Y028872D02*
X023891Y028872D01*
X024050Y028713D02*
X022252Y028713D01*
X022339Y028555D02*
X024218Y028555D01*
X024440Y029030D02*
X027761Y029030D01*
X028265Y029030D02*
X030307Y029030D01*
X030465Y029189D02*
X024281Y029189D01*
X024123Y029347D02*
X030624Y029347D01*
X030782Y029506D02*
X023034Y029506D01*
X022876Y029664D02*
X030941Y029664D01*
X031099Y029823D02*
X022717Y029823D01*
X022713Y029981D02*
X031258Y029981D01*
X031416Y030140D02*
X022763Y030140D01*
X022741Y030298D02*
X031575Y030298D01*
X031733Y030457D02*
X022629Y030457D01*
X021714Y028713D02*
X020353Y028713D01*
X020353Y028555D02*
X021627Y028555D01*
X021626Y028396D02*
X020353Y028396D01*
X020353Y028238D02*
X021710Y028238D01*
X021713Y028079D02*
X020353Y028079D01*
X020353Y027921D02*
X021713Y027921D01*
X021713Y027762D02*
X020353Y027762D01*
X020353Y027604D02*
X021182Y027604D01*
X021047Y027445D02*
X020353Y027445D01*
X020353Y027287D02*
X021013Y027287D01*
X021052Y027128D02*
X020353Y027128D01*
X020353Y026970D02*
X021123Y026970D01*
X021123Y026811D02*
X020353Y026811D01*
X020353Y026653D02*
X021123Y026653D01*
X021123Y026494D02*
X020353Y026494D01*
X020353Y026336D02*
X021123Y026336D01*
X021123Y026177D02*
X020353Y026177D01*
X020353Y026019D02*
X021123Y026019D01*
X021123Y025860D02*
X020353Y025860D01*
X020353Y025702D02*
X021123Y025702D01*
X021128Y025543D02*
X020353Y025543D01*
X020353Y025385D02*
X021238Y025385D01*
X021397Y025226D02*
X020404Y025226D01*
X021628Y025702D02*
X024398Y025702D01*
X024557Y025860D02*
X023383Y025860D01*
X023403Y025880D02*
X023286Y025763D01*
X021910Y025763D01*
X021793Y025880D01*
X021793Y027206D01*
X021910Y027323D01*
X023286Y027323D01*
X023403Y027206D01*
X023403Y025880D01*
X023403Y026019D02*
X024715Y026019D01*
X024877Y026336D02*
X023403Y026336D01*
X023403Y026494D02*
X024719Y026494D01*
X024560Y026653D02*
X023403Y026653D01*
X023403Y026811D02*
X024402Y026811D01*
X024243Y026970D02*
X023403Y026970D01*
X023403Y027128D02*
X024085Y027128D01*
X023926Y027287D02*
X023323Y027287D01*
X023768Y027445D02*
X021700Y027445D01*
X021733Y027287D02*
X021874Y027287D01*
X021793Y027128D02*
X021695Y027128D01*
X021623Y026970D02*
X021793Y026970D01*
X021793Y026811D02*
X021623Y026811D01*
X021623Y026653D02*
X021793Y026653D01*
X021793Y026494D02*
X021623Y026494D01*
X021623Y026336D02*
X021793Y026336D01*
X021793Y026177D02*
X021623Y026177D01*
X021623Y026019D02*
X021793Y026019D01*
X021813Y025860D02*
X021623Y025860D01*
X023403Y026177D02*
X025220Y026177D01*
X025706Y026177D02*
X028154Y026177D01*
X027995Y026019D02*
X025823Y026019D01*
X025853Y025860D02*
X027837Y025860D01*
X027678Y025702D02*
X026859Y025702D01*
X027027Y025543D02*
X027520Y025543D01*
X027361Y025385D02*
X027073Y025385D01*
X027073Y025226D02*
X027203Y025226D01*
X028312Y026336D02*
X025808Y026336D01*
X025823Y026494D02*
X028471Y026494D01*
X028629Y026653D02*
X025763Y026653D01*
X025109Y026811D02*
X028788Y026811D01*
X028946Y026970D02*
X024950Y026970D01*
X024792Y027128D02*
X029105Y027128D01*
X029263Y027287D02*
X024633Y027287D01*
X024475Y027445D02*
X029422Y027445D01*
X031583Y027604D02*
X024316Y027604D01*
X024158Y027762D02*
X031583Y027762D01*
X031583Y027921D02*
X023999Y027921D01*
X022341Y028396D02*
X031618Y028396D01*
X031583Y028238D02*
X022257Y028238D01*
X022213Y028079D02*
X031583Y028079D01*
X032083Y028153D02*
X032083Y028160D01*
X032403Y028480D01*
X032403Y028217D01*
X032737Y027883D01*
X033209Y027883D01*
X033403Y028077D01*
X033403Y028000D01*
X033520Y027883D01*
X034300Y027883D01*
X034300Y027720D01*
X034282Y027734D01*
X034204Y027773D01*
X034122Y027800D01*
X034037Y027813D01*
X034013Y027813D01*
X034013Y027283D01*
X033973Y027283D01*
X033973Y027243D01*
X033443Y027243D01*
X033443Y027220D01*
X033457Y027135D01*
X033484Y027052D01*
X033523Y026975D01*
X033574Y026905D01*
X033635Y026844D01*
X033705Y026793D01*
X033740Y026775D01*
X033670Y026747D01*
X033577Y026653D01*
X033515Y026715D01*
X033445Y026785D01*
X033353Y026823D01*
X033243Y026823D01*
X033243Y027104D01*
X033299Y027159D01*
X033353Y027292D01*
X033353Y027435D01*
X033299Y027567D01*
X033197Y027669D01*
X033065Y027723D01*
X032922Y027723D01*
X032789Y027669D01*
X032688Y027567D01*
X032633Y027435D01*
X032633Y027292D01*
X032675Y027191D01*
X032617Y027249D01*
X032485Y027303D01*
X032433Y027303D01*
X032433Y027304D01*
X032433Y027534D01*
X032509Y027609D01*
X032563Y027742D01*
X032563Y027885D01*
X032509Y028017D01*
X032407Y028119D01*
X032275Y028173D01*
X032132Y028173D01*
X032083Y028153D01*
X032161Y028238D02*
X032403Y028238D01*
X032403Y028396D02*
X032320Y028396D01*
X032446Y028079D02*
X032541Y028079D01*
X032548Y027921D02*
X032700Y027921D01*
X032563Y027762D02*
X033761Y027762D01*
X033782Y027773D02*
X033705Y027734D01*
X033635Y027683D01*
X033574Y027622D01*
X033523Y027552D01*
X033484Y027474D01*
X033457Y027392D01*
X033443Y027307D01*
X033443Y027283D01*
X033973Y027283D01*
X033973Y027813D01*
X033950Y027813D01*
X033865Y027800D01*
X033782Y027773D01*
X033973Y027762D02*
X034013Y027762D01*
X034013Y027604D02*
X033973Y027604D01*
X033973Y027445D02*
X034013Y027445D01*
X034013Y027287D02*
X033973Y027287D01*
X033561Y027604D02*
X033262Y027604D01*
X033349Y027445D02*
X033474Y027445D01*
X033443Y027287D02*
X033351Y027287D01*
X033267Y027128D02*
X033459Y027128D01*
X033527Y026970D02*
X033243Y026970D01*
X033382Y026811D02*
X033680Y026811D01*
X032635Y027287D02*
X032525Y027287D01*
X032433Y027445D02*
X032638Y027445D01*
X032725Y027604D02*
X032503Y027604D01*
X033247Y027921D02*
X033483Y027921D01*
X034225Y027762D02*
X034300Y027762D01*
X034900Y027762D02*
X035013Y027762D01*
X035013Y027604D02*
X034900Y027604D01*
X034900Y027445D02*
X035013Y027445D01*
X035013Y027287D02*
X034900Y027287D01*
X034899Y027128D02*
X035013Y027128D01*
X035013Y026970D02*
X034899Y026970D01*
X034899Y026811D02*
X035013Y026811D01*
X035013Y026653D02*
X034899Y026653D01*
X034899Y026494D02*
X035013Y026494D01*
X035013Y026336D02*
X034899Y026336D01*
X034898Y026177D02*
X035013Y026177D01*
X035013Y026019D02*
X034898Y026019D01*
X034898Y025860D02*
X035013Y025860D01*
X035013Y025702D02*
X034898Y025702D01*
X034898Y025543D02*
X035013Y025543D01*
X035013Y025385D02*
X034898Y025385D01*
X034897Y025226D02*
X035013Y025226D01*
X035013Y025068D02*
X034897Y025068D01*
X034897Y024909D02*
X035013Y024909D01*
X035013Y024751D02*
X034897Y024751D01*
X034897Y024592D02*
X035013Y024592D01*
X035013Y024434D02*
X034897Y024434D01*
X034896Y024275D02*
X035013Y024275D01*
X035013Y024117D02*
X034896Y024117D01*
X034896Y023958D02*
X035013Y023958D01*
X035013Y023800D02*
X034896Y023800D01*
X034896Y023641D02*
X035013Y023641D01*
X035013Y023483D02*
X034896Y023483D01*
X034895Y023324D02*
X035013Y023324D01*
X035013Y023166D02*
X034895Y023166D01*
X034895Y023007D02*
X035013Y023007D01*
X035013Y022849D02*
X034895Y022849D01*
X034895Y022690D02*
X035013Y022690D01*
X035013Y022532D02*
X034895Y022532D01*
X034894Y022373D02*
X035013Y022373D01*
X035013Y022215D02*
X034894Y022215D01*
X034894Y022056D02*
X035013Y022056D01*
X035013Y021898D02*
X034894Y021898D01*
X034894Y021739D02*
X035013Y021739D01*
X035013Y021581D02*
X034894Y021581D01*
X034893Y021422D02*
X035013Y021422D01*
X035013Y021264D02*
X034885Y021264D01*
X034893Y021284D02*
X034893Y021284D01*
X034848Y021173D02*
X034848Y021173D01*
X034780Y021105D02*
X035013Y021105D01*
X035013Y020947D02*
X034621Y020947D01*
X034665Y020788D02*
X035013Y020788D01*
X035013Y020630D02*
X034702Y020630D01*
X034673Y020471D02*
X035145Y020471D01*
X035213Y020313D02*
X034658Y020313D01*
X034702Y020154D02*
X035213Y020154D01*
X035213Y019996D02*
X034680Y019996D01*
X034577Y019837D02*
X035213Y019837D01*
X035213Y019679D02*
X033233Y019679D01*
X033392Y019837D02*
X034030Y019837D01*
X033927Y019996D02*
X033550Y019996D01*
X033709Y020154D02*
X033905Y020154D01*
X033867Y020313D02*
X033949Y020313D01*
X034299Y020623D02*
X034303Y020619D01*
X034248Y021422D02*
X030876Y021422D01*
X031034Y021581D02*
X034294Y021581D01*
X034294Y021739D02*
X034218Y021739D01*
X033769Y021739D02*
X031193Y021739D01*
X031301Y021898D02*
X033553Y021898D01*
X033462Y022056D02*
X031303Y022056D01*
X031303Y022215D02*
X033423Y022215D01*
X033423Y022373D02*
X031303Y022373D01*
X031303Y022532D02*
X033488Y022532D01*
X033614Y022690D02*
X031303Y022690D01*
X031303Y022849D02*
X033602Y022849D01*
X033482Y023007D02*
X031303Y023007D01*
X031303Y023166D02*
X033423Y023166D01*
X033423Y023324D02*
X033258Y023324D01*
X033391Y023483D02*
X033459Y023483D01*
X032869Y023324D02*
X031303Y023324D01*
X031303Y023483D02*
X031470Y023483D01*
X031312Y023641D02*
X031283Y023641D01*
X031153Y023800D02*
X031150Y023800D01*
X033370Y021264D02*
X019667Y021264D01*
X019826Y021105D02*
X033211Y021105D01*
X033053Y020947D02*
X019984Y020947D01*
X020143Y020788D02*
X032894Y020788D01*
X032736Y020630D02*
X026916Y020630D01*
X026611Y020630D02*
X025456Y020630D01*
X025623Y020471D02*
X026443Y020471D01*
X026403Y020313D02*
X025663Y020313D01*
X025631Y020154D02*
X026435Y020154D01*
X025344Y019520D02*
X023995Y019520D01*
X024109Y019679D02*
X025174Y019679D01*
X025035Y019837D02*
X024122Y019837D01*
X024113Y019996D02*
X025003Y019996D01*
X024975Y020154D02*
X024141Y020154D01*
X024173Y020313D02*
X024943Y020313D01*
X024983Y020471D02*
X024133Y020471D01*
X023966Y020630D02*
X025151Y020630D01*
X025681Y021422D02*
X020668Y021422D01*
X020636Y021390D02*
X020797Y021550D01*
X020883Y021760D01*
X020883Y021987D01*
X020797Y022196D01*
X020636Y022357D01*
X020567Y022385D01*
X020602Y022403D01*
X020672Y022454D01*
X020733Y022515D01*
X020784Y022585D01*
X020823Y022662D01*
X020850Y022745D01*
X020863Y022830D01*
X020863Y022853D01*
X020333Y022853D01*
X020333Y022893D01*
X020863Y022893D01*
X020863Y022917D01*
X020850Y023002D01*
X020823Y023084D01*
X020784Y023162D01*
X020733Y023232D01*
X020672Y023293D01*
X020602Y023344D01*
X020524Y023383D01*
X020442Y023410D01*
X020357Y023423D01*
X020333Y023423D01*
X020333Y022893D01*
X020293Y022893D01*
X020293Y022853D01*
X019763Y022853D01*
X019763Y022830D01*
X019777Y022745D01*
X019804Y022662D01*
X019843Y022585D01*
X019894Y022515D01*
X019955Y022454D01*
X020025Y022403D01*
X020060Y022385D01*
X019990Y022357D01*
X019830Y022196D01*
X019743Y021987D01*
X019743Y021760D01*
X019830Y021550D01*
X019990Y021390D01*
X020200Y021303D01*
X020427Y021303D01*
X020636Y021390D01*
X020809Y021581D02*
X025522Y021581D01*
X025364Y021739D02*
X020875Y021739D01*
X020883Y021898D02*
X025205Y021898D01*
X025047Y022056D02*
X020854Y022056D01*
X020778Y022215D02*
X024888Y022215D01*
X024730Y022373D02*
X020596Y022373D01*
X020745Y022532D02*
X024571Y022532D01*
X024592Y022511D02*
X024592Y022511D01*
X024423Y022690D02*
X020832Y022690D01*
X020863Y022849D02*
X021899Y022849D01*
X022308Y022849D02*
X023320Y022849D01*
X023137Y023007D02*
X022433Y023007D01*
X022463Y023166D02*
X023093Y023166D01*
X023122Y023324D02*
X022422Y023324D01*
X022249Y023483D02*
X023244Y023483D01*
X023308Y023800D02*
X021353Y023800D01*
X021353Y023641D02*
X024076Y023641D01*
X024023Y023483D02*
X023663Y023483D01*
X023785Y023324D02*
X024043Y023324D01*
X024303Y023800D02*
X023719Y023800D01*
X023843Y023958D02*
X024483Y023958D01*
X024483Y023800D02*
X024463Y023800D01*
X024346Y024117D02*
X023873Y024117D01*
X023832Y024275D02*
X024188Y024275D01*
X023184Y023958D02*
X021262Y023958D01*
X021353Y023483D02*
X021958Y023483D01*
X021086Y023007D02*
X020848Y023007D01*
X020781Y023166D02*
X020927Y023166D01*
X020853Y023324D02*
X020628Y023324D01*
X020853Y023483D02*
X019320Y023483D01*
X019317Y023641D02*
X020853Y023641D01*
X020293Y023423D02*
X020293Y022893D01*
X019763Y022893D01*
X019763Y022917D01*
X019777Y023002D01*
X019804Y023084D01*
X019843Y023162D01*
X019894Y023232D01*
X019955Y023293D01*
X020025Y023344D01*
X020102Y023383D01*
X020185Y023410D01*
X020270Y023423D01*
X020293Y023423D01*
X020293Y023324D02*
X020333Y023324D01*
X020333Y023166D02*
X020293Y023166D01*
X020293Y023007D02*
X020333Y023007D01*
X019998Y023324D02*
X019442Y023324D01*
X019503Y023166D02*
X019846Y023166D01*
X019779Y023007D02*
X019503Y023007D01*
X019461Y022849D02*
X019763Y022849D01*
X019794Y022690D02*
X019366Y022690D01*
X019271Y022532D02*
X019882Y022532D01*
X020031Y022373D02*
X019422Y022373D01*
X019488Y022215D02*
X019849Y022215D01*
X019772Y022056D02*
X019503Y022056D01*
X019482Y021898D02*
X019743Y021898D01*
X019752Y021739D02*
X019415Y021739D01*
X019257Y021581D02*
X019818Y021581D01*
X019958Y021422D02*
X018869Y021422D01*
X020301Y020630D02*
X022147Y020630D01*
X022500Y020630D02*
X023661Y020630D01*
X023493Y020471D02*
X022648Y020471D01*
X022683Y020313D02*
X023453Y020313D01*
X023485Y020154D02*
X022647Y020154D01*
X019663Y023800D02*
X019441Y023800D01*
X019503Y023958D02*
X019535Y023958D01*
X021564Y027604D02*
X021799Y027604D01*
X030529Y028555D02*
X031771Y028555D01*
X031930Y028713D02*
X030697Y028713D01*
X030855Y028872D02*
X032088Y028872D01*
X032247Y029030D02*
X031014Y029030D01*
X031172Y029189D02*
X032432Y029189D01*
X032403Y029347D02*
X031331Y029347D01*
X031489Y029506D02*
X032403Y029506D01*
X032403Y029664D02*
X031648Y029664D01*
X031806Y029823D02*
X032537Y029823D01*
X032667Y029981D02*
X031965Y029981D01*
X032123Y030140D02*
X032509Y030140D01*
X032423Y030298D02*
X032282Y030298D01*
X032440Y030457D02*
X032953Y030457D01*
X032367Y031091D02*
X031213Y031091D01*
X031213Y031249D02*
X032560Y031249D01*
X032209Y030932D02*
X031213Y030932D01*
X031213Y031408D02*
X033610Y031408D01*
X033603Y031566D02*
X031213Y031566D01*
X031213Y031725D02*
X033603Y031725D01*
X033603Y031883D02*
X031213Y031883D01*
X031213Y032042D02*
X033603Y032042D01*
X033603Y032200D02*
X031213Y032200D01*
X031213Y032359D02*
X033603Y032359D01*
X033683Y032517D02*
X031213Y032517D01*
X031213Y032676D02*
X034123Y032676D01*
X034484Y032676D02*
X035213Y032676D01*
X035213Y032834D02*
X031213Y032834D01*
X031213Y032993D02*
X035213Y032993D01*
X035213Y033151D02*
X033868Y033151D01*
X033909Y032319D02*
X033903Y032313D01*
X034653Y032517D02*
X035213Y032517D01*
X035213Y032359D02*
X034702Y032359D01*
X034685Y032200D02*
X035213Y032200D01*
X035175Y032042D02*
X034646Y032042D01*
X034702Y031883D02*
X035041Y031883D01*
X035013Y031725D02*
X034692Y031725D01*
X034606Y031566D02*
X035013Y031566D01*
X035013Y031408D02*
X034403Y031408D01*
X034562Y031249D02*
X035013Y031249D01*
X035013Y031091D02*
X034720Y031091D01*
X034866Y030932D02*
X035013Y030932D01*
X034903Y030843D02*
X034903Y030843D01*
X034903Y030843D01*
X034903Y030774D02*
X035013Y030774D01*
X034903Y030724D02*
X034903Y030724D01*
X034903Y030615D02*
X035013Y030615D01*
X035013Y030457D02*
X034903Y030457D01*
X034903Y030298D02*
X035013Y030298D01*
X035013Y030140D02*
X034903Y030140D01*
X034902Y029981D02*
X035013Y029981D01*
X035013Y029823D02*
X034902Y029823D01*
X034902Y029664D02*
X035013Y029664D01*
X035013Y029506D02*
X034902Y029506D01*
X034902Y029347D02*
X035013Y029347D01*
X035013Y029189D02*
X034902Y029189D01*
X034901Y029030D02*
X035013Y029030D01*
X035013Y028872D02*
X034901Y028872D01*
X034901Y028713D02*
X035013Y028713D01*
X035013Y028555D02*
X034901Y028555D01*
X034901Y028396D02*
X035013Y028396D01*
X035013Y028238D02*
X034901Y028238D01*
X034900Y028079D02*
X035013Y028079D01*
X035013Y027921D02*
X034900Y027921D01*
X035213Y019520D02*
X033075Y019520D01*
X033838Y019362D02*
X035213Y019362D01*
X035213Y019203D02*
X033970Y019203D01*
X018968Y033151D02*
X017613Y033151D01*
D16*
X018903Y030603D02*
X019453Y030603D01*
X020163Y029893D01*
X019823Y029593D02*
X018913Y029593D01*
X018903Y029603D01*
X019823Y029593D02*
X020103Y029313D01*
X020103Y025173D01*
X020433Y024843D01*
X024453Y024843D01*
X024993Y024303D01*
X024993Y023503D01*
X026193Y022303D01*
X029403Y022303D01*
X029403Y023873D01*
X030003Y023873D01*
X030103Y023773D01*
X030103Y023433D01*
X029703Y023573D02*
X029703Y022093D01*
X026053Y022093D01*
X024733Y023413D01*
X024733Y024083D01*
X024203Y024613D01*
X020363Y024613D01*
X019903Y025073D01*
X019903Y028243D01*
X019553Y028593D01*
X018913Y028593D01*
X018903Y028603D01*
X021373Y027293D02*
X021373Y025603D01*
X021643Y025333D01*
X024383Y025333D01*
X024923Y025873D01*
X025493Y025873D01*
X025822Y025483D02*
X025486Y025147D01*
X025486Y024682D01*
X025486Y023791D01*
X025743Y023563D01*
X025903Y023833D02*
X027223Y022513D01*
X029203Y022513D01*
X029203Y024173D01*
X031133Y024173D01*
X031673Y023633D01*
X033063Y023633D01*
X033363Y023963D02*
X031683Y023963D01*
X031003Y024573D01*
X028973Y024573D01*
X028973Y022693D01*
X027383Y022693D01*
X026303Y023773D01*
X026303Y024373D01*
X025903Y023833D02*
X025903Y024973D01*
X025822Y025483D02*
X026733Y025483D01*
X026823Y025393D01*
X026823Y023553D01*
X027463Y022913D01*
X028723Y022913D01*
X028723Y024723D01*
X029763Y025763D01*
X031493Y025763D01*
X031493Y026123D01*
X031683Y026293D01*
X032233Y026303D01*
X032503Y026573D01*
X032963Y026573D01*
X032993Y026603D01*
X033023Y026573D01*
X033303Y026573D01*
X033473Y026403D01*
X033473Y025723D01*
X033823Y025373D01*
X033883Y025373D01*
X033993Y025263D01*
X032843Y025113D02*
X032843Y026223D01*
X032993Y026603D02*
X032993Y027363D01*
X033033Y027353D01*
X032413Y026943D02*
X032043Y026573D01*
X029803Y026573D01*
X028203Y024973D01*
X028203Y023563D01*
X028303Y023463D01*
X027883Y023473D02*
X027803Y023553D01*
X027803Y025073D01*
X029703Y026973D01*
X031803Y026973D01*
X032183Y027353D01*
X032183Y027793D01*
X032203Y027813D01*
X031833Y027453D02*
X031833Y028263D01*
X032523Y028953D01*
X033473Y028953D01*
X033973Y029453D01*
X033973Y030453D02*
X033973Y030713D01*
X033673Y031013D01*
X032643Y031013D01*
X030403Y028773D01*
X028013Y028773D01*
X024343Y028773D01*
X023903Y029213D01*
X022973Y029213D01*
X022403Y029783D01*
X022403Y030173D01*
X021983Y028473D02*
X021963Y028453D01*
X021963Y027793D01*
X022043Y027713D01*
X023853Y027713D01*
X025123Y026443D01*
X025463Y026443D01*
X027303Y024973D02*
X027303Y023593D01*
X027433Y023463D01*
X027303Y024973D02*
X029603Y027273D01*
X031653Y027273D01*
X031833Y027453D01*
X032113Y024933D02*
X032663Y024933D01*
X032843Y025113D01*
X033363Y023963D02*
X033993Y023263D01*
X031053Y023543D02*
X031053Y021953D01*
X030713Y021613D01*
X025843Y021613D01*
X024733Y022723D01*
X024733Y022733D01*
X024423Y023043D01*
X023633Y023043D01*
X023453Y023183D01*
X022833Y023493D02*
X021563Y023493D01*
X021383Y023673D01*
X021103Y023763D02*
X021103Y023343D01*
X021293Y023153D01*
X022103Y023153D01*
X021103Y023763D02*
X020883Y023983D01*
X019833Y023983D01*
X019833Y024013D01*
X019053Y024793D01*
X019443Y024833D02*
X019953Y024323D01*
X019953Y024313D01*
X023323Y024313D01*
X023513Y024123D01*
X023513Y024103D01*
X024383Y023443D02*
X024643Y023183D01*
X024643Y023163D01*
X025913Y021893D01*
X030393Y021893D01*
X030603Y022103D01*
X030603Y023453D01*
X030473Y023863D02*
X030733Y023863D01*
X031053Y023543D01*
X019443Y024833D02*
X019443Y026113D01*
D17*
X018323Y021543D02*
X018323Y031647D01*
X018503Y031827D01*
X018509Y031833D01*
X033903Y031483D02*
X033903Y032313D01*
X033909Y032319D02*
X034303Y032319D01*
X033903Y031483D02*
X034603Y030783D01*
X034593Y021343D01*
X034353Y021103D01*
X033633Y021103D01*
X032843Y020313D01*
X026763Y020303D01*
X025753Y019773D02*
X025743Y019783D01*
X025493Y019783D01*
X025303Y019973D01*
X025303Y020303D01*
X025753Y019773D02*
X032903Y019773D01*
X033753Y020623D01*
X034299Y020623D01*
X029213Y020693D02*
X029213Y020953D01*
X029003Y021163D01*
X026733Y021163D01*
X025343Y021173D01*
X025283Y021163D01*
X023813Y021163D01*
X023803Y021153D01*
X022593Y021153D01*
X022333Y020893D01*
X022333Y020883D01*
X022323Y020313D02*
X020193Y020313D01*
X019403Y021103D01*
X018763Y021103D01*
X018323Y021543D01*
X018507Y020123D02*
X019083Y020123D01*
X019433Y019773D01*
X023823Y019773D01*
X023813Y019783D01*
X023813Y020303D01*
M02*
