%
M48
M72
T01C0.0160
T02C0.0197
T03C0.0400
T04C0.0787
%
T01
X22323Y20313
X22333Y20883
X23813Y21163
X23813Y20303
X25303Y20303
X25283Y21163
X26733Y21163
X26763Y20303
X29213Y20693
X30103Y23433
X29703Y23573
X30473Y23863
X30603Y23453
X32113Y24933
X31493Y25763
X32843Y26223
X32413Y26943
X32993Y27363
X32203Y27813
X28013Y28773
X25463Y26443
X25493Y25873
X25903Y24973
X25486Y24682
X26303Y24373
X25743Y23563
X24383Y23443
X23453Y23183
X22833Y23493
X22103Y23153
X21383Y23673
X23513Y24103
X27433Y23463
X27883Y23473
X28303Y23463
X33063Y23633
X21983Y28473
X21373Y27293
X19443Y26113
X19053Y24793
X20163Y29893
X22403Y30173
T02
X18503Y31827
X18503Y32319
X34303Y32319
X34303Y31827
X34303Y20619
X34303Y20127
X18503Y20127
X18503Y20619
T03
X18933Y22063
X18933Y23063
X18933Y24063
X20313Y22873
X20313Y21873
X18903Y25603
X18903Y26603
X18903Y27603
X18903Y28603
X18903Y29603
X18903Y30603
X32973Y30453
X32973Y29453
X33973Y29453
X33973Y30453
X33973Y28453
X32973Y28453
X33993Y27263
X33993Y26263
X33993Y25263
X33993Y24263
X33993Y23263
X33993Y22263
T04
X11873Y12193
X14163Y14973
X16763Y18003
X36063Y17993
X38663Y14963
X40953Y12183
X36063Y34483
X38663Y37513
X40953Y40293
X16763Y34493
X14163Y37523
X11873Y40303
M30
