G75*
%MOIN*%
%OFA0B0*%
%FSLAX24Y24*%
%IPPOS*%
%LPD*%
%AMOC8*
5,1,8,0,0,1.08239X$1,22.5*
%
%ADD10C,0.0867*%
%ADD11R,0.0820X0.0820*%
%ADD12OC8,0.0820*%
%ADD13C,0.0820*%
%ADD14C,0.0477*%
%ADD15C,0.0400*%
D10*
X011873Y012193D03*
X014163Y014973D03*
X016763Y018003D03*
X036063Y017993D03*
X038663Y014963D03*
X040953Y012183D03*
X036063Y034483D03*
X038663Y037513D03*
X040953Y040293D03*
X016763Y034493D03*
X014163Y037523D03*
X011873Y040303D03*
D11*
X033973Y028453D03*
D12*
X032973Y028453D03*
X032973Y029453D03*
X032973Y030453D03*
X033973Y030453D03*
X033973Y029453D03*
D13*
X033993Y027263D03*
X033993Y026263D03*
X033993Y025263D03*
X033993Y024263D03*
X033993Y023263D03*
X033993Y022263D03*
X020313Y021873D03*
X018933Y022063D03*
X018933Y023063D03*
X018933Y024063D03*
X020313Y022873D03*
X018903Y025603D03*
X018903Y026603D03*
X018903Y027603D03*
X018903Y028603D03*
X018903Y029603D03*
X018903Y030603D03*
D14*
X018503Y031827D03*
X018503Y032319D03*
X034303Y032319D03*
X034303Y031827D03*
X034303Y020619D03*
X034303Y020127D03*
X018503Y020127D03*
X018503Y020619D03*
D15*
X022323Y020313D03*
X022333Y020883D03*
X023813Y021163D03*
X023813Y020303D03*
X025303Y020303D03*
X025283Y021163D03*
X026733Y021163D03*
X026763Y020303D03*
X029213Y020693D03*
X030103Y023433D03*
X029703Y023573D03*
X030473Y023863D03*
X030603Y023453D03*
X032113Y024933D03*
X031493Y025763D03*
X032843Y026223D03*
X032413Y026943D03*
X032993Y027363D03*
X032203Y027813D03*
X028013Y028773D03*
X025463Y026443D03*
X025493Y025873D03*
X025903Y024973D03*
X025486Y024682D03*
X026303Y024373D03*
X025743Y023563D03*
X024383Y023443D03*
X023453Y023183D03*
X022833Y023493D03*
X022103Y023153D03*
X021383Y023673D03*
X023513Y024103D03*
X027433Y023463D03*
X027883Y023473D03*
X028303Y023463D03*
X033063Y023633D03*
X021983Y028473D03*
X021373Y027293D03*
X019443Y026113D03*
X019053Y024793D03*
X020163Y029893D03*
X022403Y030173D03*
M02*
