%
M48
M72
T01C0.0160
T02C0.0197
T03C0.0400
T04C0.0787
%
T01
X20783Y13863
X21483Y15163
X22983Y14863
X24383Y14963
X25383Y14863
X25701Y15406
X25703Y14263
X25293Y14063
X29023Y13863
X29033Y14733
X28193Y16953
X27783Y17263
X27383Y17123
X26983Y17263
X25583Y17263
X25083Y17263
X24583Y17263
X23383Y16863
X22756Y17572
X23583Y18063
X23183Y18663
X22773Y19563
X22743Y20133
X25283Y22463
X29103Y21433
X29483Y20763
X29453Y20293
X29183Y19963
X28873Y18963
X28193Y18943
X28823Y18303
X30343Y17323
X20183Y16063
X19993Y16593
X19383Y17063
X18683Y17063
X18783Y15563
X16713Y15563
X16713Y16443
X16783Y17563
X18653Y20983
X19263Y22163
X17443Y23583
X19683Y23863
T02
X15783Y25517
X15783Y26009
X31583Y26009
X31583Y25517
X31583Y14309
X31583Y13817
X15783Y13817
X15783Y14309
T03
X16183Y16063
X16183Y17063
X16183Y18663
X16183Y19663
X16183Y20663
X16183Y21663
X16183Y22663
X16183Y23663
X30283Y23583
X30283Y22583
X31283Y22583
X31283Y23583
X31283Y21583
X30283Y21583
X31263Y20333
X31263Y19333
X31263Y18333
X31263Y17333
T04
X13303Y9663
X34073Y9673
X34043Y30203
X13313Y30193
M30
