G75*
%MOIN*%
%OFA0B0*%
%FSLAX24Y24*%
%IPPOS*%
%LPD*%
%AMOC8*
5,1,8,0,0,1.08239X$1,22.5*
%
%ADD10C,0.0000*%
D10*
X009583Y007363D02*
X010333Y009253D01*
X011743Y009253D01*
X014893Y014393D01*
X014893Y025473D01*
X011743Y030613D01*
X010333Y030613D01*
X009583Y032503D01*
X010293Y032503D01*
X010293Y032493D01*
X010295Y032425D01*
X010301Y032357D01*
X010311Y032289D01*
X010324Y032222D01*
X010342Y032156D01*
X010363Y032091D01*
X010388Y032028D01*
X010416Y031966D01*
X010448Y031906D01*
X010484Y031847D01*
X010522Y031791D01*
X010564Y031737D01*
X010609Y031686D01*
X010657Y031637D01*
X010707Y031591D01*
X010760Y031548D01*
X010815Y031508D01*
X010873Y031471D01*
X010933Y031438D01*
X010994Y031408D01*
X011057Y031382D01*
X011121Y031359D01*
X011187Y031340D01*
X011254Y031325D01*
X011321Y031314D01*
X011389Y031307D01*
X011457Y031303D01*
X011525Y031304D01*
X011593Y031308D01*
X011661Y031316D01*
X011728Y031329D01*
X011795Y031345D01*
X011860Y031364D01*
X011924Y031388D01*
X011987Y031415D01*
X012048Y031445D01*
X012107Y031480D01*
X012164Y031517D01*
X012219Y031558D01*
X012271Y031601D01*
X012321Y031648D01*
X012368Y031697D01*
X012412Y031750D01*
X012453Y031804D01*
X012491Y031861D01*
X012526Y031920D01*
X012557Y031980D01*
X012585Y032043D01*
X012609Y032107D01*
X012629Y032172D01*
X012645Y032238D01*
X012658Y032305D01*
X012667Y032373D01*
X012672Y032441D01*
X012673Y032509D01*
X012670Y032577D01*
X012663Y032645D01*
X012653Y032713D01*
X012638Y032779D01*
X012620Y032845D01*
X012598Y032910D01*
X012572Y032973D01*
X012543Y033035D01*
X012510Y033094D01*
X012474Y033152D01*
X012434Y033208D01*
X012392Y033261D01*
X012346Y033312D01*
X012298Y033360D01*
X012247Y033406D01*
X012193Y033448D01*
X012137Y033487D01*
X012079Y033523D01*
X012019Y033555D01*
X011957Y033584D01*
X011894Y033610D01*
X011829Y033632D01*
X011763Y033649D01*
X011697Y033664D01*
X011629Y033674D01*
X011561Y033680D01*
X011493Y033683D01*
X011493Y034423D01*
X011503Y034423D01*
X013393Y033673D01*
X013393Y031883D01*
X016393Y026983D01*
X016393Y026963D01*
X016393Y026969D02*
X030993Y026969D01*
X030993Y026973D02*
X033993Y031873D01*
X033993Y033663D01*
X035883Y034413D01*
X035893Y034413D01*
X035893Y033673D01*
X035825Y033670D01*
X035757Y033664D01*
X035689Y033654D01*
X035623Y033639D01*
X035557Y033622D01*
X035492Y033600D01*
X035429Y033574D01*
X035367Y033545D01*
X035307Y033513D01*
X035249Y033477D01*
X035193Y033438D01*
X035139Y033396D01*
X035088Y033350D01*
X035040Y033302D01*
X034994Y033251D01*
X034952Y033198D01*
X034912Y033142D01*
X034876Y033084D01*
X034843Y033025D01*
X034814Y032963D01*
X034788Y032900D01*
X034766Y032835D01*
X034748Y032769D01*
X034733Y032703D01*
X034723Y032635D01*
X034716Y032567D01*
X034713Y032499D01*
X034714Y032431D01*
X034719Y032363D01*
X034728Y032295D01*
X034741Y032228D01*
X034757Y032162D01*
X034777Y032097D01*
X034801Y032033D01*
X034829Y031970D01*
X034860Y031910D01*
X034895Y031851D01*
X034933Y031794D01*
X034974Y031740D01*
X035018Y031687D01*
X035065Y031638D01*
X035115Y031591D01*
X035167Y031548D01*
X035222Y031507D01*
X035279Y031470D01*
X035338Y031435D01*
X035399Y031405D01*
X035462Y031378D01*
X035526Y031354D01*
X035591Y031335D01*
X035658Y031319D01*
X035725Y031306D01*
X035793Y031298D01*
X035861Y031294D01*
X035929Y031293D01*
X035997Y031297D01*
X036065Y031304D01*
X036132Y031315D01*
X036199Y031330D01*
X036265Y031349D01*
X036329Y031372D01*
X036392Y031398D01*
X036453Y031428D01*
X036513Y031461D01*
X036571Y031498D01*
X036626Y031538D01*
X036679Y031581D01*
X036729Y031627D01*
X036777Y031676D01*
X036822Y031727D01*
X036864Y031781D01*
X036902Y031837D01*
X036938Y031896D01*
X036970Y031956D01*
X036998Y032018D01*
X037023Y032081D01*
X037044Y032146D01*
X037062Y032212D01*
X037075Y032279D01*
X037085Y032347D01*
X037091Y032415D01*
X037093Y032483D01*
X037093Y032493D01*
X037803Y032493D01*
X037053Y030603D01*
X035643Y030603D01*
X032493Y025463D01*
X032493Y014393D01*
X032483Y014403D02*
X035633Y009263D01*
X037043Y009263D01*
X037793Y007373D01*
X037083Y007373D01*
X037083Y007383D01*
X037081Y007451D01*
X037075Y007519D01*
X037065Y007587D01*
X037052Y007654D01*
X037034Y007720D01*
X037013Y007785D01*
X036988Y007848D01*
X036960Y007910D01*
X036928Y007970D01*
X036892Y008029D01*
X036854Y008085D01*
X036812Y008139D01*
X036767Y008190D01*
X036719Y008239D01*
X036669Y008285D01*
X036616Y008328D01*
X036561Y008368D01*
X036503Y008405D01*
X036443Y008438D01*
X036382Y008468D01*
X036319Y008494D01*
X036255Y008517D01*
X036189Y008536D01*
X036122Y008551D01*
X036055Y008562D01*
X035987Y008569D01*
X035919Y008573D01*
X035851Y008572D01*
X035783Y008568D01*
X035715Y008560D01*
X035648Y008547D01*
X035581Y008531D01*
X035516Y008512D01*
X035452Y008488D01*
X035389Y008461D01*
X035328Y008431D01*
X035269Y008396D01*
X035212Y008359D01*
X035157Y008318D01*
X035105Y008275D01*
X035055Y008228D01*
X035008Y008179D01*
X034964Y008126D01*
X034923Y008072D01*
X034885Y008015D01*
X034850Y007956D01*
X034819Y007896D01*
X034791Y007833D01*
X034767Y007769D01*
X034747Y007704D01*
X034731Y007638D01*
X034718Y007571D01*
X034709Y007503D01*
X034704Y007435D01*
X034703Y007367D01*
X034706Y007299D01*
X034713Y007231D01*
X034723Y007163D01*
X034738Y007097D01*
X034756Y007031D01*
X034778Y006966D01*
X034804Y006903D01*
X034833Y006841D01*
X034866Y006782D01*
X034902Y006724D01*
X034942Y006668D01*
X034984Y006615D01*
X035030Y006564D01*
X035078Y006516D01*
X035129Y006470D01*
X035183Y006428D01*
X035239Y006389D01*
X035297Y006353D01*
X035357Y006321D01*
X035419Y006292D01*
X035482Y006266D01*
X035547Y006244D01*
X035613Y006227D01*
X035679Y006212D01*
X035747Y006202D01*
X035815Y006196D01*
X035883Y006193D01*
X035883Y005453D01*
X035873Y005453D01*
X033983Y006203D01*
X033983Y007993D01*
X030983Y012893D01*
X030993Y012893D02*
X016393Y012893D01*
X016393Y012883D01*
X013393Y007983D01*
X013393Y006193D01*
X011503Y005443D01*
X011493Y005443D01*
X011493Y006183D01*
X011561Y006186D01*
X011629Y006192D01*
X011697Y006202D01*
X011763Y006217D01*
X011829Y006234D01*
X011894Y006256D01*
X011957Y006282D01*
X012019Y006311D01*
X012079Y006343D01*
X012137Y006379D01*
X012193Y006418D01*
X012247Y006460D01*
X012298Y006506D01*
X012346Y006554D01*
X012392Y006605D01*
X012434Y006658D01*
X012474Y006714D01*
X012510Y006772D01*
X012543Y006831D01*
X012572Y006893D01*
X012598Y006956D01*
X012620Y007021D01*
X012638Y007087D01*
X012653Y007153D01*
X012663Y007221D01*
X012670Y007289D01*
X012673Y007357D01*
X012672Y007425D01*
X012667Y007493D01*
X012658Y007561D01*
X012645Y007628D01*
X012629Y007694D01*
X012609Y007759D01*
X012585Y007823D01*
X012557Y007886D01*
X012526Y007946D01*
X012491Y008005D01*
X012453Y008062D01*
X012412Y008116D01*
X012368Y008169D01*
X012321Y008218D01*
X012271Y008265D01*
X012219Y008308D01*
X012164Y008349D01*
X012107Y008386D01*
X012048Y008421D01*
X011987Y008451D01*
X011924Y008478D01*
X011860Y008502D01*
X011795Y008521D01*
X011728Y008537D01*
X011661Y008550D01*
X011593Y008558D01*
X011525Y008562D01*
X011457Y008563D01*
X011389Y008559D01*
X011321Y008552D01*
X011254Y008541D01*
X011187Y008526D01*
X011121Y008507D01*
X011057Y008484D01*
X010994Y008458D01*
X010933Y008428D01*
X010873Y008395D01*
X010815Y008358D01*
X010760Y008318D01*
X010707Y008275D01*
X010657Y008229D01*
X010609Y008180D01*
X010564Y008129D01*
X010522Y008075D01*
X010484Y008019D01*
X010448Y007960D01*
X010416Y007900D01*
X010388Y007838D01*
X010363Y007775D01*
X010342Y007710D01*
X010324Y007644D01*
X010311Y007577D01*
X010301Y007509D01*
X010295Y007441D01*
X010293Y007373D01*
X010293Y007363D01*
X009583Y007363D01*
X012909Y009663D02*
X012911Y009702D01*
X012917Y009741D01*
X012927Y009779D01*
X012940Y009816D01*
X012957Y009851D01*
X012977Y009885D01*
X013001Y009916D01*
X013028Y009945D01*
X013057Y009971D01*
X013089Y009994D01*
X013123Y010014D01*
X013159Y010030D01*
X013196Y010042D01*
X013235Y010051D01*
X013274Y010056D01*
X013313Y010057D01*
X013352Y010054D01*
X013391Y010047D01*
X013428Y010036D01*
X013465Y010022D01*
X013500Y010004D01*
X013533Y009983D01*
X013564Y009958D01*
X013592Y009931D01*
X013617Y009901D01*
X013639Y009868D01*
X013658Y009834D01*
X013673Y009798D01*
X013685Y009760D01*
X013693Y009722D01*
X013697Y009683D01*
X013697Y009643D01*
X013693Y009604D01*
X013685Y009566D01*
X013673Y009528D01*
X013658Y009492D01*
X013639Y009458D01*
X013617Y009425D01*
X013592Y009395D01*
X013564Y009368D01*
X013533Y009343D01*
X013500Y009322D01*
X013465Y009304D01*
X013428Y009290D01*
X013391Y009279D01*
X013352Y009272D01*
X013313Y009269D01*
X013274Y009270D01*
X013235Y009275D01*
X013196Y009284D01*
X013159Y009296D01*
X013123Y009312D01*
X013089Y009332D01*
X013057Y009355D01*
X013028Y009381D01*
X013001Y009410D01*
X012977Y009441D01*
X012957Y009475D01*
X012940Y009510D01*
X012927Y009547D01*
X012917Y009585D01*
X012911Y009624D01*
X012909Y009663D01*
X033679Y009673D02*
X033681Y009712D01*
X033687Y009751D01*
X033697Y009789D01*
X033710Y009826D01*
X033727Y009861D01*
X033747Y009895D01*
X033771Y009926D01*
X033798Y009955D01*
X033827Y009981D01*
X033859Y010004D01*
X033893Y010024D01*
X033929Y010040D01*
X033966Y010052D01*
X034005Y010061D01*
X034044Y010066D01*
X034083Y010067D01*
X034122Y010064D01*
X034161Y010057D01*
X034198Y010046D01*
X034235Y010032D01*
X034270Y010014D01*
X034303Y009993D01*
X034334Y009968D01*
X034362Y009941D01*
X034387Y009911D01*
X034409Y009878D01*
X034428Y009844D01*
X034443Y009808D01*
X034455Y009770D01*
X034463Y009732D01*
X034467Y009693D01*
X034467Y009653D01*
X034463Y009614D01*
X034455Y009576D01*
X034443Y009538D01*
X034428Y009502D01*
X034409Y009468D01*
X034387Y009435D01*
X034362Y009405D01*
X034334Y009378D01*
X034303Y009353D01*
X034270Y009332D01*
X034235Y009314D01*
X034198Y009300D01*
X034161Y009289D01*
X034122Y009282D01*
X034083Y009279D01*
X034044Y009280D01*
X034005Y009285D01*
X033966Y009294D01*
X033929Y009306D01*
X033893Y009322D01*
X033859Y009342D01*
X033827Y009365D01*
X033798Y009391D01*
X033771Y009420D01*
X033747Y009451D01*
X033727Y009485D01*
X033710Y009520D01*
X033697Y009557D01*
X033687Y009595D01*
X033681Y009634D01*
X033679Y009673D01*
X033649Y030203D02*
X033651Y030242D01*
X033657Y030281D01*
X033667Y030319D01*
X033680Y030356D01*
X033697Y030391D01*
X033717Y030425D01*
X033741Y030456D01*
X033768Y030485D01*
X033797Y030511D01*
X033829Y030534D01*
X033863Y030554D01*
X033899Y030570D01*
X033936Y030582D01*
X033975Y030591D01*
X034014Y030596D01*
X034053Y030597D01*
X034092Y030594D01*
X034131Y030587D01*
X034168Y030576D01*
X034205Y030562D01*
X034240Y030544D01*
X034273Y030523D01*
X034304Y030498D01*
X034332Y030471D01*
X034357Y030441D01*
X034379Y030408D01*
X034398Y030374D01*
X034413Y030338D01*
X034425Y030300D01*
X034433Y030262D01*
X034437Y030223D01*
X034437Y030183D01*
X034433Y030144D01*
X034425Y030106D01*
X034413Y030068D01*
X034398Y030032D01*
X034379Y029998D01*
X034357Y029965D01*
X034332Y029935D01*
X034304Y029908D01*
X034273Y029883D01*
X034240Y029862D01*
X034205Y029844D01*
X034168Y029830D01*
X034131Y029819D01*
X034092Y029812D01*
X034053Y029809D01*
X034014Y029810D01*
X033975Y029815D01*
X033936Y029824D01*
X033899Y029836D01*
X033863Y029852D01*
X033829Y029872D01*
X033797Y029895D01*
X033768Y029921D01*
X033741Y029950D01*
X033717Y029981D01*
X033697Y030015D01*
X033680Y030050D01*
X033667Y030087D01*
X033657Y030125D01*
X033651Y030164D01*
X033649Y030203D01*
X012919Y030193D02*
X012921Y030232D01*
X012927Y030271D01*
X012937Y030309D01*
X012950Y030346D01*
X012967Y030381D01*
X012987Y030415D01*
X013011Y030446D01*
X013038Y030475D01*
X013067Y030501D01*
X013099Y030524D01*
X013133Y030544D01*
X013169Y030560D01*
X013206Y030572D01*
X013245Y030581D01*
X013284Y030586D01*
X013323Y030587D01*
X013362Y030584D01*
X013401Y030577D01*
X013438Y030566D01*
X013475Y030552D01*
X013510Y030534D01*
X013543Y030513D01*
X013574Y030488D01*
X013602Y030461D01*
X013627Y030431D01*
X013649Y030398D01*
X013668Y030364D01*
X013683Y030328D01*
X013695Y030290D01*
X013703Y030252D01*
X013707Y030213D01*
X013707Y030173D01*
X013703Y030134D01*
X013695Y030096D01*
X013683Y030058D01*
X013668Y030022D01*
X013649Y029988D01*
X013627Y029955D01*
X013602Y029925D01*
X013574Y029898D01*
X013543Y029873D01*
X013510Y029852D01*
X013475Y029834D01*
X013438Y029820D01*
X013401Y029809D01*
X013362Y029802D01*
X013323Y029799D01*
X013284Y029800D01*
X013245Y029805D01*
X013206Y029814D01*
X013169Y029826D01*
X013133Y029842D01*
X013099Y029862D01*
X013067Y029885D01*
X013038Y029911D01*
X013011Y029940D01*
X012987Y029971D01*
X012967Y030005D01*
X012950Y030040D01*
X012937Y030077D01*
X012927Y030115D01*
X012921Y030154D01*
X012919Y030193D01*
M02*
