G75*
%MOIN*%
%OFA0B0*%
%FSLAX24Y24*%
%IPPOS*%
%LPD*%
%AMOC8*
5,1,8,0,0,1.08239X$1,22.5*
%
%ADD10C,0.0867*%
%ADD11R,0.0820X0.0820*%
%ADD12OC8,0.0820*%
%ADD13C,0.0820*%
%ADD14C,0.0477*%
%ADD15C,0.0400*%
D10*
X013303Y009663D03*
X034073Y009673D03*
X034043Y030203D03*
X013313Y030193D03*
D11*
X031283Y021583D03*
X031263Y017333D03*
D12*
X030283Y021583D03*
X030283Y022583D03*
X030283Y023583D03*
X031283Y023583D03*
X031283Y022583D03*
D13*
X031263Y020333D03*
X031263Y019333D03*
X031263Y018333D03*
X016183Y018663D03*
X016183Y019663D03*
X016183Y020663D03*
X016183Y021663D03*
X016183Y022663D03*
X016183Y023663D03*
X016183Y017063D03*
X016183Y016063D03*
D14*
X015783Y014309D03*
X015783Y013817D03*
X031583Y013817D03*
X031583Y014309D03*
X031583Y025517D03*
X031583Y026009D03*
X015783Y026009D03*
X015783Y025517D03*
D15*
X017443Y023583D03*
X019683Y023863D03*
X019263Y022163D03*
X018653Y020983D03*
X022743Y020133D03*
X022773Y019563D03*
X023183Y018663D03*
X023583Y018063D03*
X022756Y017572D03*
X023383Y016863D03*
X024583Y017263D03*
X025083Y017263D03*
X025583Y017263D03*
X026983Y017263D03*
X027383Y017123D03*
X027783Y017263D03*
X028193Y016953D03*
X028823Y018303D03*
X028873Y018963D03*
X028193Y018943D03*
X029183Y019963D03*
X029453Y020293D03*
X029483Y020763D03*
X029103Y021433D03*
X025283Y022463D03*
X030343Y017323D03*
X029033Y014733D03*
X029023Y013863D03*
X025703Y014263D03*
X025293Y014063D03*
X025383Y014863D03*
X025701Y015406D03*
X024383Y014963D03*
X022983Y014863D03*
X021483Y015163D03*
X020183Y016063D03*
X019993Y016593D03*
X019383Y017063D03*
X018683Y017063D03*
X018783Y015563D03*
X016713Y015563D03*
X016713Y016443D03*
X016783Y017563D03*
X020783Y013863D03*
M02*
