G75*
%MOIN*%
%OFA0B0*%
%FSLAX24Y24*%
%IPPOS*%
%LPD*%
%AMOC8*
5,1,8,0,0,1.08239X$1,22.5*
%
%ADD10R,0.0400X0.1000*%
%ADD11R,0.0315X0.0138*%
%ADD12R,0.0591X0.0512*%
%ADD13R,0.0512X0.0591*%
%ADD14R,0.0472X0.0472*%
%ADD15R,0.0740X0.0740*%
%ADD16OC8,0.0740*%
%ADD17C,0.0740*%
%ADD18C,0.0397*%
%ADD19R,0.0600X0.0300*%
%ADD20R,0.0217X0.0472*%
%ADD21R,0.0315X0.0110*%
%ADD22R,0.0110X0.0315*%
%ADD23R,0.3012X0.3012*%
%ADD24R,0.0240X0.0810*%
%ADD25R,0.0748X0.0433*%
%ADD26R,0.0114X0.0276*%
%ADD27R,0.0276X0.0114*%
%ADD28R,0.0315X0.0472*%
%ADD29C,0.0100*%
%ADD30C,0.0320*%
%ADD31C,0.0240*%
%ADD32C,0.0160*%
D10*
X023783Y025663D03*
X026383Y025663D03*
D11*
X026298Y024419D03*
X026298Y024163D03*
X026298Y023907D03*
X025668Y023907D03*
X025668Y024163D03*
X025668Y024419D03*
D12*
X024463Y023638D03*
X024463Y022969D03*
X023263Y023229D03*
X023263Y023898D03*
X022283Y023898D03*
X022283Y023229D03*
X021283Y023229D03*
X021283Y023898D03*
X020383Y023658D03*
X020383Y022989D03*
X017193Y025299D03*
X017193Y025968D03*
X027483Y023598D03*
X027483Y022929D03*
X028983Y023129D03*
X028983Y023798D03*
X030163Y025369D03*
X030163Y026038D03*
X028283Y016128D03*
X028283Y015459D03*
X027283Y015459D03*
X027283Y016128D03*
X026283Y016108D03*
X026283Y015439D03*
X030153Y014518D03*
X030153Y013849D03*
X017203Y013819D03*
X017203Y014488D03*
D13*
X017419Y015533D03*
X018088Y015533D03*
X018088Y016363D03*
X017419Y016363D03*
X017399Y017253D03*
X018068Y017253D03*
X018078Y018213D03*
X017409Y018213D03*
X017339Y021473D03*
X018087Y021473D03*
X018049Y023563D03*
X018718Y023563D03*
X029509Y018883D03*
X030178Y018883D03*
X030168Y017973D03*
X029499Y017973D03*
D14*
X028283Y014747D03*
X028283Y013920D03*
X027283Y013930D03*
X027283Y014757D03*
X026293Y014747D03*
X026293Y013920D03*
D15*
X031263Y017333D03*
X031283Y021583D03*
D16*
X030283Y021583D03*
X030283Y022583D03*
X030283Y023583D03*
X031283Y023583D03*
X031283Y022583D03*
D17*
X031263Y020333D03*
X031263Y019333D03*
X031263Y018333D03*
X016183Y018663D03*
X016183Y019663D03*
X016183Y020663D03*
X016183Y021663D03*
X016183Y022663D03*
X016183Y023663D03*
X016183Y017063D03*
X016183Y016063D03*
D18*
X015783Y014309D03*
X015783Y013817D03*
X031583Y013817D03*
X031583Y014309D03*
X031583Y025517D03*
X031583Y026009D03*
X015783Y026009D03*
X015783Y025517D03*
D19*
X018383Y025993D03*
X018383Y024493D03*
X020383Y024493D03*
X020383Y025993D03*
D20*
X020157Y015575D03*
X019409Y015575D03*
X019409Y014552D03*
X019783Y014552D03*
X020157Y014552D03*
D21*
X024212Y018387D03*
X024212Y018584D03*
X024212Y018781D03*
X024212Y018978D03*
X024212Y019174D03*
X024212Y019371D03*
X024212Y019568D03*
X024212Y019765D03*
X024212Y019962D03*
X024212Y020159D03*
X024212Y020355D03*
X024212Y020552D03*
X024212Y020749D03*
X024212Y020946D03*
X024212Y021143D03*
X024212Y021340D03*
X027755Y021340D03*
X027755Y021143D03*
X027755Y020946D03*
X027755Y020749D03*
X027755Y020552D03*
X027755Y020355D03*
X027755Y020159D03*
X027755Y019962D03*
X027755Y019765D03*
X027755Y019568D03*
X027755Y019371D03*
X027755Y019174D03*
X027755Y018978D03*
X027755Y018781D03*
X027755Y018584D03*
X027755Y018387D03*
D22*
X027460Y018092D03*
X027263Y018092D03*
X027066Y018092D03*
X026869Y018092D03*
X026672Y018092D03*
X026475Y018092D03*
X026279Y018092D03*
X026082Y018092D03*
X025885Y018092D03*
X025688Y018092D03*
X025491Y018092D03*
X025294Y018092D03*
X025098Y018092D03*
X024901Y018092D03*
X024704Y018092D03*
X024507Y018092D03*
X024507Y021635D03*
X024704Y021635D03*
X024901Y021635D03*
X025098Y021635D03*
X025294Y021635D03*
X025491Y021635D03*
X025688Y021635D03*
X025885Y021635D03*
X026082Y021635D03*
X026279Y021635D03*
X026475Y021635D03*
X026672Y021635D03*
X026869Y021635D03*
X027066Y021635D03*
X027263Y021635D03*
X027460Y021635D03*
D23*
X025983Y019863D03*
D24*
X024883Y016053D03*
X024383Y016053D03*
X023883Y016053D03*
X023383Y016053D03*
X022883Y016053D03*
X022383Y016053D03*
X021883Y016053D03*
X021383Y016053D03*
X021383Y014163D03*
X021883Y014163D03*
X022383Y014163D03*
X022883Y014163D03*
X023383Y014163D03*
X023883Y014163D03*
X024383Y014163D03*
X024883Y014163D03*
D25*
X029665Y015551D03*
X029665Y016456D03*
X031122Y016456D03*
X031122Y015551D03*
D26*
X020385Y019495D03*
X020189Y019495D03*
X019992Y019495D03*
X019795Y019495D03*
X019598Y019495D03*
X019401Y019495D03*
X019401Y020972D03*
X019598Y020972D03*
X019795Y020972D03*
X019992Y020972D03*
X020189Y020972D03*
X020385Y020972D03*
D27*
X020632Y020725D03*
X020632Y020529D03*
X020632Y020332D03*
X020632Y020135D03*
X020632Y019938D03*
X020632Y019741D03*
X019155Y019741D03*
X019155Y019938D03*
X019155Y020135D03*
X019155Y020332D03*
X019155Y020529D03*
X019155Y020725D03*
D28*
X018118Y019273D03*
X017409Y019273D03*
X019209Y018253D03*
X019918Y018253D03*
X020769Y018273D03*
X021478Y018273D03*
X021669Y021293D03*
X022378Y021293D03*
X022378Y022013D03*
X021669Y022013D03*
D29*
X014923Y014117D02*
X014923Y012863D01*
X016182Y012863D01*
X016223Y012931D01*
X016223Y012964D01*
X016275Y013015D01*
X016285Y013032D01*
X016294Y013034D01*
X016323Y013063D01*
X016415Y013063D01*
X016422Y013065D01*
X016425Y013063D01*
X030935Y013063D01*
X030955Y013075D01*
X031003Y013063D01*
X031064Y013063D01*
X031083Y013044D01*
X031092Y013042D01*
X031102Y013025D01*
X031163Y012964D01*
X031163Y012925D01*
X031201Y012863D01*
X032483Y012863D01*
X032483Y014078D01*
X032349Y014297D01*
X032323Y014323D01*
X032323Y014339D01*
X032302Y014375D01*
X032323Y014465D01*
X032323Y025443D01*
X032312Y025492D01*
X032323Y025511D01*
X032323Y025534D01*
X032359Y025569D01*
X032483Y025772D01*
X032483Y026993D01*
X031205Y026993D01*
X031163Y026925D01*
X031163Y026899D01*
X031121Y026857D01*
X031102Y026825D01*
X031085Y026821D01*
X031064Y026799D01*
X030997Y026799D01*
X030965Y026792D01*
X030952Y026799D01*
X028463Y026799D01*
X028463Y024623D01*
X028364Y024523D01*
X026626Y024523D01*
X026626Y024280D01*
X026604Y024258D01*
X026606Y024252D01*
X026606Y024163D01*
X026298Y024163D01*
X028293Y024163D01*
X028293Y023793D01*
X028298Y023798D01*
X028983Y023798D01*
X028988Y023793D01*
X030073Y023793D01*
X030283Y023583D01*
X030233Y023630D02*
X029429Y023630D01*
X029429Y023728D02*
X029763Y023728D01*
X029763Y023799D02*
X029763Y023633D01*
X030233Y023633D01*
X030233Y023533D01*
X029763Y023533D01*
X029763Y023368D01*
X030034Y023097D01*
X029743Y022807D01*
X029743Y022684D01*
X029723Y022664D01*
X029263Y022204D01*
X029263Y021724D01*
X029169Y021763D01*
X029038Y021763D01*
X029003Y021749D01*
X029003Y022703D01*
X029349Y022703D01*
X029449Y022802D01*
X029449Y023455D01*
X029419Y023485D01*
X029429Y023522D01*
X029429Y023748D01*
X029033Y023748D01*
X029033Y023848D01*
X028933Y023848D01*
X028933Y023748D01*
X028538Y023748D01*
X028538Y023522D01*
X028548Y023485D01*
X028518Y023455D01*
X028518Y022802D01*
X028563Y022757D01*
X028563Y021054D01*
X028292Y020783D01*
X028062Y020783D01*
X028062Y020800D01*
X028082Y020820D01*
X028082Y021465D01*
X027983Y021565D01*
X027685Y021565D01*
X027685Y021863D01*
X027585Y021962D01*
X026350Y021962D01*
X026330Y021942D01*
X026302Y021942D01*
X026302Y022773D01*
X027018Y022773D01*
X027018Y022602D01*
X027118Y022503D01*
X027849Y022503D01*
X027949Y022602D01*
X027949Y023255D01*
X027940Y023263D01*
X027949Y023272D01*
X027949Y023924D01*
X027849Y024024D01*
X027369Y024024D01*
X027265Y024127D01*
X026606Y024127D01*
X026606Y024163D01*
X026298Y024163D01*
X026298Y024163D01*
X026298Y023907D02*
X027174Y023907D01*
X027483Y023598D01*
X027949Y023630D02*
X028538Y023630D01*
X028538Y023728D02*
X027949Y023728D01*
X027949Y023827D02*
X028933Y023827D01*
X028933Y023848D02*
X028538Y023848D01*
X028538Y024074D01*
X028548Y024112D01*
X028568Y024146D01*
X028596Y024174D01*
X028630Y024194D01*
X028668Y024204D01*
X028933Y024204D01*
X028933Y023848D01*
X028933Y023925D02*
X029033Y023925D01*
X029033Y023848D02*
X029033Y024204D01*
X029298Y024204D01*
X029337Y024194D01*
X029371Y024174D01*
X029399Y024146D01*
X029418Y024112D01*
X029429Y024074D01*
X029429Y023848D01*
X029033Y023848D01*
X029033Y023827D02*
X029791Y023827D01*
X029763Y023799D02*
X030068Y024103D01*
X030233Y024103D01*
X030233Y023633D01*
X030333Y023633D01*
X030333Y024103D01*
X030499Y024103D01*
X030769Y023833D01*
X031060Y024123D01*
X031507Y024123D01*
X031633Y023997D01*
X031633Y025114D01*
X031598Y025149D01*
X031557Y025149D01*
X031484Y025119D01*
X030629Y025119D01*
X030629Y025042D01*
X030529Y024943D01*
X029798Y024943D01*
X029698Y025042D01*
X029698Y025695D01*
X029706Y025703D01*
X029698Y025712D01*
X029698Y026364D01*
X029798Y026464D01*
X030529Y026464D01*
X030629Y026364D01*
X030629Y026288D01*
X031341Y026288D01*
X031375Y026322D01*
X031510Y026378D01*
X031657Y026378D01*
X031792Y026322D01*
X031896Y026218D01*
X031952Y026083D01*
X031952Y025936D01*
X031896Y025801D01*
X031858Y025763D01*
X031896Y025726D01*
X031952Y025591D01*
X031952Y025502D01*
X032095Y025359D01*
X032133Y025267D01*
X032133Y025168D01*
X032133Y015193D01*
X032133Y015094D01*
X032095Y015002D01*
X032025Y014931D01*
X031933Y014893D01*
X030570Y014893D01*
X030619Y014844D01*
X030619Y014768D01*
X031424Y014768D01*
X031516Y014730D01*
X031568Y014678D01*
X031657Y014678D01*
X031792Y014622D01*
X031896Y014518D01*
X031952Y014383D01*
X031952Y014236D01*
X031896Y014101D01*
X031858Y014063D01*
X031896Y014026D01*
X031952Y013891D01*
X031952Y013744D01*
X031896Y013609D01*
X031792Y013505D01*
X031657Y013449D01*
X031510Y013449D01*
X031375Y013505D01*
X031281Y013599D01*
X030619Y013599D01*
X030619Y013522D01*
X030519Y013423D01*
X030403Y013423D01*
X030403Y013414D01*
X030365Y013322D01*
X030295Y013251D01*
X030203Y013213D01*
X019334Y013213D01*
X019242Y013251D01*
X019171Y013322D01*
X019133Y013414D01*
X019133Y013513D01*
X019159Y013576D01*
X019159Y014217D01*
X019131Y014245D01*
X019131Y014302D01*
X017669Y014302D01*
X017669Y014162D01*
X017660Y014153D01*
X017669Y014145D01*
X017669Y013492D01*
X017569Y013393D01*
X016838Y013393D01*
X016738Y013492D01*
X016738Y013569D01*
X016056Y013569D01*
X015992Y013505D01*
X015857Y013449D01*
X015710Y013449D01*
X015575Y013505D01*
X015471Y013609D01*
X015415Y013744D01*
X015415Y013891D01*
X015471Y014026D01*
X015508Y014063D01*
X015471Y014101D01*
X015415Y014236D01*
X015415Y014383D01*
X015471Y014518D01*
X015575Y014622D01*
X015710Y014678D01*
X015798Y014678D01*
X015820Y014700D01*
X015912Y014738D01*
X015933Y014738D01*
X015933Y015582D01*
X015877Y015606D01*
X015726Y015757D01*
X015643Y015956D01*
X015643Y016171D01*
X015666Y016227D01*
X015442Y016451D01*
X015442Y016451D01*
X015371Y016522D01*
X015333Y016614D01*
X015333Y018013D01*
X015063Y018013D01*
X015063Y014413D01*
X015075Y014365D01*
X015063Y014345D01*
X015063Y014323D01*
X015028Y014287D01*
X014923Y014117D01*
X014923Y014075D02*
X015496Y014075D01*
X015451Y013977D02*
X014923Y013977D01*
X014923Y013878D02*
X015415Y013878D01*
X015415Y013780D02*
X014923Y013780D01*
X014923Y013681D02*
X015441Y013681D01*
X015497Y013583D02*
X014923Y013583D01*
X014923Y013484D02*
X015624Y013484D01*
X015942Y013484D02*
X016746Y013484D01*
X016251Y012992D02*
X014923Y012992D01*
X014923Y013090D02*
X032483Y013090D01*
X032483Y012992D02*
X031135Y012992D01*
X031183Y012893D02*
X032483Y012893D01*
X032483Y013189D02*
X014923Y013189D01*
X014923Y013287D02*
X019206Y013287D01*
X019145Y013386D02*
X014923Y013386D01*
X014923Y012893D02*
X016200Y012893D01*
X017661Y013484D02*
X019133Y013484D01*
X019159Y013583D02*
X017669Y013583D01*
X017669Y013681D02*
X019159Y013681D01*
X019159Y013780D02*
X017669Y013780D01*
X017669Y013878D02*
X019159Y013878D01*
X019159Y013977D02*
X017669Y013977D01*
X017669Y014075D02*
X019159Y014075D01*
X019159Y014174D02*
X017669Y014174D01*
X017669Y014272D02*
X019131Y014272D01*
X019659Y014165D02*
X019779Y014165D01*
X019779Y014547D01*
X019787Y014547D01*
X019787Y014165D01*
X019907Y014165D01*
X019907Y013713D01*
X019659Y013713D01*
X019659Y014165D01*
X019659Y014075D02*
X019907Y014075D01*
X019907Y013977D02*
X019659Y013977D01*
X019659Y013878D02*
X019907Y013878D01*
X019907Y013780D02*
X019659Y013780D01*
X019409Y013489D02*
X019383Y013463D01*
X020157Y013489D02*
X020183Y013463D01*
X020407Y013713D02*
X020407Y014217D01*
X020436Y014245D01*
X020436Y014858D01*
X020336Y014958D01*
X019979Y014958D01*
X019949Y014928D01*
X019911Y014938D01*
X019787Y014938D01*
X019787Y014556D01*
X019779Y014556D01*
X019779Y014938D01*
X019655Y014938D01*
X019618Y014928D01*
X019588Y014958D01*
X019231Y014958D01*
X019131Y014858D01*
X019131Y014802D01*
X017669Y014802D01*
X017669Y014814D01*
X017588Y014895D01*
X017625Y014932D01*
X017663Y015024D01*
X017663Y015068D01*
X017745Y015068D01*
X017775Y015098D01*
X017812Y015088D01*
X018038Y015088D01*
X018038Y015483D01*
X018138Y015483D01*
X018138Y015088D01*
X018364Y015088D01*
X018402Y015098D01*
X018436Y015118D01*
X018464Y015146D01*
X018484Y015180D01*
X018494Y015218D01*
X018494Y015400D01*
X018504Y015376D01*
X018596Y015284D01*
X018718Y015233D01*
X018849Y015233D01*
X018970Y015284D01*
X019030Y015343D01*
X019131Y015343D01*
X019131Y015269D01*
X019231Y015169D01*
X019588Y015169D01*
X019688Y015269D01*
X019688Y015882D01*
X019629Y015940D01*
X019629Y016713D01*
X022743Y016713D01*
X022743Y017242D01*
X022821Y017242D01*
X022943Y017292D01*
X023036Y017385D01*
X023086Y017506D01*
X023086Y017638D01*
X023036Y017759D01*
X022943Y017852D01*
X022821Y017902D01*
X022743Y017902D01*
X022743Y019233D01*
X022839Y019233D01*
X022960Y019284D01*
X023020Y019343D01*
X023352Y019343D01*
X023092Y019083D01*
X022963Y018954D01*
X022963Y018910D01*
X022904Y018850D01*
X022853Y018729D01*
X022853Y018598D01*
X022904Y018476D01*
X022996Y018384D01*
X023118Y018333D01*
X023249Y018333D01*
X023363Y018381D01*
X023363Y018310D01*
X023304Y018250D01*
X023253Y018129D01*
X023253Y017998D01*
X023304Y017876D01*
X023396Y017784D01*
X023518Y017733D01*
X023649Y017733D01*
X023770Y017784D01*
X023863Y017876D01*
X023913Y017998D01*
X023913Y018129D01*
X023863Y018250D01*
X023803Y018310D01*
X023803Y018772D01*
X023884Y018853D01*
X023884Y018261D01*
X023984Y018162D01*
X024302Y018162D01*
X024302Y018092D01*
X024479Y018092D01*
X024479Y018092D01*
X024302Y018092D01*
X024302Y017914D01*
X024312Y017876D01*
X024332Y017842D01*
X024341Y017833D01*
X024192Y017683D01*
X023892Y017683D01*
X023402Y017193D01*
X023318Y017193D01*
X023196Y017143D01*
X023104Y017050D01*
X023053Y016929D01*
X023053Y016798D01*
X023104Y016676D01*
X023172Y016608D01*
X023119Y016555D01*
X023095Y016578D01*
X023061Y016598D01*
X023023Y016608D01*
X022893Y016608D01*
X022893Y016063D01*
X022873Y016063D01*
X022873Y016043D01*
X022393Y016043D01*
X022393Y015498D01*
X022523Y015498D01*
X022561Y015509D01*
X022595Y015528D01*
X022623Y015556D01*
X022633Y015574D01*
X022643Y015556D01*
X022671Y015528D01*
X022705Y015509D01*
X022744Y015498D01*
X022790Y015498D01*
X022778Y015496D01*
X022761Y015483D01*
X022742Y015475D01*
X022721Y015455D01*
X022103Y015013D01*
X020734Y015013D01*
X020642Y014975D01*
X020571Y014905D01*
X020533Y014813D01*
X020533Y014080D01*
X020504Y014050D01*
X020453Y013929D01*
X020453Y013798D01*
X020488Y013713D01*
X020407Y013713D01*
X020407Y013780D02*
X020461Y013780D01*
X020453Y013878D02*
X020407Y013878D01*
X020407Y013977D02*
X020473Y013977D01*
X020529Y014075D02*
X020407Y014075D01*
X020407Y014174D02*
X020533Y014174D01*
X020533Y014272D02*
X020436Y014272D01*
X020436Y014371D02*
X020533Y014371D01*
X020533Y014469D02*
X020436Y014469D01*
X020436Y014568D02*
X020533Y014568D01*
X020533Y014666D02*
X020436Y014666D01*
X020436Y014765D02*
X020533Y014765D01*
X020554Y014863D02*
X020430Y014863D01*
X020628Y014962D02*
X017638Y014962D01*
X017620Y014863D02*
X019136Y014863D01*
X019142Y015257D02*
X018907Y015257D01*
X018660Y015257D02*
X018494Y015257D01*
X018494Y015356D02*
X018524Y015356D01*
X018471Y015159D02*
X022307Y015159D01*
X022445Y015257D02*
X020424Y015257D01*
X020436Y015269D02*
X020336Y015169D01*
X019979Y015169D01*
X019879Y015269D01*
X019879Y015882D01*
X019895Y015898D01*
X019853Y015998D01*
X019853Y016129D01*
X019904Y016250D01*
X019996Y016343D01*
X020118Y016393D01*
X020249Y016393D01*
X020370Y016343D01*
X020463Y016250D01*
X020513Y016129D01*
X020513Y015998D01*
X020463Y015876D01*
X020436Y015849D01*
X020436Y015269D01*
X020436Y015356D02*
X022583Y015356D01*
X022721Y015454D02*
X020436Y015454D01*
X020436Y015553D02*
X021147Y015553D01*
X021143Y015556D02*
X021171Y015528D01*
X021205Y015509D01*
X021244Y015498D01*
X021373Y015498D01*
X021373Y016043D01*
X021393Y016043D01*
X021393Y015498D01*
X021523Y015498D01*
X021561Y015509D01*
X021595Y015528D01*
X021623Y015556D01*
X021633Y015574D01*
X021643Y015556D01*
X021671Y015528D01*
X021705Y015509D01*
X021744Y015498D01*
X021873Y015498D01*
X021873Y016043D01*
X021393Y016043D01*
X021393Y016063D01*
X021653Y016063D01*
X021873Y016063D01*
X021873Y016043D01*
X021893Y016043D01*
X021893Y015498D01*
X022023Y015498D01*
X022061Y015509D01*
X022095Y015528D01*
X022123Y015556D01*
X022133Y015574D01*
X022143Y015556D01*
X022171Y015528D01*
X022205Y015509D01*
X022244Y015498D01*
X022373Y015498D01*
X022373Y016043D01*
X022393Y016043D01*
X022393Y016063D01*
X022653Y016063D01*
X022873Y016063D01*
X022873Y016608D01*
X022744Y016608D01*
X022705Y016598D01*
X022671Y016578D01*
X022643Y016550D01*
X022633Y016533D01*
X022623Y016550D01*
X022595Y016578D01*
X022561Y016598D01*
X022523Y016608D01*
X022393Y016608D01*
X022393Y016063D01*
X022373Y016063D01*
X022373Y016043D01*
X021893Y016043D01*
X021893Y016063D01*
X021873Y016063D01*
X021873Y016608D01*
X021744Y016608D01*
X021705Y016598D01*
X021671Y016578D01*
X021643Y016550D01*
X021633Y016533D01*
X021623Y016550D01*
X021595Y016578D01*
X021561Y016598D01*
X021523Y016608D01*
X021393Y016608D01*
X021393Y016063D01*
X021373Y016063D01*
X021373Y016043D01*
X021113Y016043D01*
X021113Y015629D01*
X021124Y015590D01*
X021143Y015556D01*
X021113Y015651D02*
X020436Y015651D01*
X020436Y015750D02*
X021113Y015750D01*
X021113Y015848D02*
X020436Y015848D01*
X020492Y015947D02*
X021113Y015947D01*
X021113Y016063D02*
X021373Y016063D01*
X021373Y016608D01*
X021244Y016608D01*
X021205Y016598D01*
X021171Y016578D01*
X021143Y016550D01*
X021124Y016516D01*
X021113Y016478D01*
X021113Y016063D01*
X021173Y016053D02*
X020883Y015763D01*
X020883Y015163D01*
X019783Y015163D01*
X019783Y014552D01*
X019779Y014568D02*
X019787Y014568D01*
X019779Y014666D02*
X019787Y014666D01*
X019779Y014765D02*
X019787Y014765D01*
X019779Y014863D02*
X019787Y014863D01*
X019779Y014469D02*
X019787Y014469D01*
X019779Y014371D02*
X019787Y014371D01*
X019779Y014272D02*
X019787Y014272D01*
X019779Y014174D02*
X019787Y014174D01*
X019890Y015257D02*
X019676Y015257D01*
X019688Y015356D02*
X019879Y015356D01*
X019879Y015454D02*
X019688Y015454D01*
X019688Y015553D02*
X019879Y015553D01*
X019879Y015651D02*
X019688Y015651D01*
X019688Y015750D02*
X019879Y015750D01*
X019879Y015848D02*
X019688Y015848D01*
X019629Y015947D02*
X019874Y015947D01*
X019853Y016045D02*
X019629Y016045D01*
X019629Y016144D02*
X019859Y016144D01*
X019900Y016242D02*
X019629Y016242D01*
X019629Y016341D02*
X019994Y016341D01*
X019993Y016593D02*
X020191Y016791D01*
X022333Y016791D01*
X022383Y016741D01*
X022383Y016053D01*
X022883Y016053D01*
X022873Y016045D02*
X022393Y016045D01*
X022383Y016053D02*
X021883Y016053D01*
X021383Y016053D01*
X021173Y016053D01*
X021113Y016144D02*
X020507Y016144D01*
X020513Y016045D02*
X021373Y016045D01*
X021393Y016045D02*
X021873Y016045D01*
X021893Y016045D02*
X022373Y016045D01*
X022373Y016063D02*
X022153Y016063D01*
X021893Y016063D01*
X021893Y016608D01*
X022023Y016608D01*
X022061Y016598D01*
X022095Y016578D01*
X022123Y016550D01*
X022133Y016533D01*
X022143Y016550D01*
X022171Y016578D01*
X022205Y016598D01*
X022244Y016608D01*
X022373Y016608D01*
X022373Y016063D01*
X022373Y016144D02*
X022393Y016144D01*
X022393Y016242D02*
X022373Y016242D01*
X022373Y016341D02*
X022393Y016341D01*
X022393Y016439D02*
X022373Y016439D01*
X022373Y016538D02*
X022393Y016538D01*
X022631Y016538D02*
X022636Y016538D01*
X022743Y016735D02*
X023079Y016735D01*
X023053Y016833D02*
X022743Y016833D01*
X022743Y016932D02*
X023055Y016932D01*
X023095Y017030D02*
X022743Y017030D01*
X022743Y017129D02*
X023182Y017129D01*
X023436Y017227D02*
X022743Y017227D01*
X022882Y017063D02*
X022610Y016791D01*
X022333Y016791D01*
X022283Y017063D02*
X022383Y017163D01*
X022383Y017578D01*
X022378Y017584D01*
X022378Y020135D01*
X020632Y020135D01*
X020632Y020332D02*
X022378Y020332D01*
X022378Y020135D01*
X022378Y020332D02*
X022378Y020529D01*
X020632Y020529D01*
X020632Y020725D02*
X022378Y020725D01*
X022791Y020725D01*
X023353Y020163D01*
X024207Y020163D01*
X024212Y020159D01*
X024212Y020353D02*
X024212Y020355D01*
X024212Y020353D02*
X023673Y020353D01*
X023673Y020523D01*
X023673Y020552D01*
X024212Y020552D01*
X024212Y020749D02*
X024869Y020749D01*
X024883Y020763D01*
X024983Y020663D01*
X025883Y020663D01*
X025688Y020859D01*
X025688Y021635D01*
X025688Y019868D01*
X025491Y019962D02*
X024963Y019962D01*
X024983Y019942D01*
X024983Y018863D01*
X024904Y018772D01*
X024904Y018092D01*
X024901Y018092D01*
X024704Y018092D02*
X024703Y018091D01*
X024703Y017883D01*
X024283Y017463D01*
X023983Y017463D01*
X023383Y016863D01*
X023144Y016636D02*
X019629Y016636D01*
X019629Y016538D02*
X021136Y016538D01*
X021113Y016439D02*
X019629Y016439D01*
X019189Y016439D02*
X018494Y016439D01*
X018494Y016413D02*
X018494Y016678D01*
X018484Y016717D01*
X018464Y016751D01*
X018436Y016779D01*
X018402Y016798D01*
X018364Y016809D01*
X018346Y016809D01*
X018382Y016818D01*
X018416Y016838D01*
X018444Y016866D01*
X018464Y016900D01*
X018474Y016938D01*
X018474Y017203D01*
X018118Y017203D01*
X018118Y016808D01*
X018138Y016808D01*
X018138Y016413D01*
X018494Y016413D01*
X018494Y016313D02*
X018138Y016313D01*
X018138Y015583D01*
X018038Y015583D01*
X018038Y015979D01*
X018038Y016313D01*
X018138Y016313D01*
X018138Y016413D01*
X018038Y016413D01*
X018038Y016809D01*
X018018Y016809D01*
X018018Y017203D01*
X018118Y017203D01*
X018118Y017303D01*
X018474Y017303D01*
X018474Y017568D01*
X018464Y017607D01*
X018444Y017641D01*
X018416Y017669D01*
X018382Y017688D01*
X018344Y017699D01*
X018118Y017699D01*
X018118Y017303D01*
X018018Y017303D01*
X018018Y017699D01*
X017792Y017699D01*
X017755Y017689D01*
X017725Y017719D01*
X017076Y017719D01*
X017063Y017750D01*
X017003Y017810D01*
X017003Y017827D01*
X017082Y017748D01*
X017735Y017748D01*
X017765Y017778D01*
X017802Y017768D01*
X018028Y017768D01*
X018028Y018013D01*
X018128Y018013D01*
X018128Y017768D01*
X018354Y017768D01*
X018392Y017778D01*
X018426Y017798D01*
X018454Y017826D01*
X018474Y017860D01*
X018484Y017898D01*
X018484Y018013D01*
X018673Y018013D01*
X018673Y016713D01*
X019189Y016713D01*
X019189Y015940D01*
X019131Y015882D01*
X019131Y015783D01*
X019030Y015783D01*
X018970Y015843D01*
X018849Y015893D01*
X018718Y015893D01*
X018596Y015843D01*
X018504Y015750D01*
X018494Y015727D01*
X018494Y015848D01*
X018609Y015848D01*
X018494Y015848D02*
X018484Y015887D01*
X018464Y015921D01*
X018436Y015948D01*
X018464Y015976D01*
X018484Y016010D01*
X018494Y016048D01*
X018494Y016313D01*
X018494Y016242D02*
X019189Y016242D01*
X019189Y016144D02*
X018494Y016144D01*
X018493Y016045D02*
X019189Y016045D01*
X019189Y015947D02*
X018438Y015947D01*
X018494Y015750D02*
X018503Y015750D01*
X018783Y015563D02*
X019398Y015563D01*
X019409Y015575D01*
X019409Y017037D01*
X019383Y017063D01*
X019283Y017163D01*
X019383Y017063D02*
X022283Y017063D01*
X022390Y017572D02*
X022383Y017578D01*
X022390Y017572D02*
X022756Y017572D01*
X022976Y017326D02*
X023535Y017326D01*
X023633Y017424D02*
X023052Y017424D01*
X023086Y017523D02*
X023732Y017523D01*
X023830Y017621D02*
X023086Y017621D01*
X023052Y017720D02*
X024229Y017720D01*
X024183Y017663D02*
X024507Y017987D01*
X024507Y018092D01*
X024507Y018317D01*
X024904Y018772D01*
X025294Y018092D02*
X025283Y018081D01*
X025283Y017763D01*
X025083Y017563D01*
X024883Y017563D01*
X024583Y017263D01*
X025083Y017263D02*
X025491Y017671D01*
X025491Y018092D01*
X025683Y018087D02*
X025688Y018092D01*
X025683Y018087D02*
X025683Y017363D01*
X025583Y017263D01*
X025883Y017063D02*
X025883Y018090D01*
X025885Y018092D01*
X026082Y018092D02*
X026083Y018090D01*
X026083Y016763D01*
X025983Y016663D01*
X024483Y016663D01*
X024383Y016563D01*
X024383Y016053D01*
X023883Y016053D02*
X023883Y016663D01*
X024083Y016863D01*
X025683Y016863D01*
X025883Y017063D01*
X026483Y016953D02*
X027283Y016153D01*
X027283Y016128D01*
X026818Y016144D02*
X026749Y016144D01*
X026749Y016242D02*
X026818Y016242D01*
X026818Y016307D02*
X026818Y015802D01*
X026826Y015793D01*
X026818Y015785D01*
X026818Y015132D01*
X026882Y015068D01*
X026877Y015063D01*
X026877Y014450D01*
X026977Y014350D01*
X027590Y014350D01*
X027690Y014450D01*
X027690Y015063D01*
X027685Y015068D01*
X027749Y015132D01*
X027749Y015785D01*
X027740Y015793D01*
X027749Y015802D01*
X027749Y016437D01*
X027818Y016367D01*
X027818Y015802D01*
X027826Y015793D01*
X027818Y015785D01*
X027818Y015132D01*
X027887Y015063D01*
X027877Y015053D01*
X027877Y014440D01*
X027977Y014340D01*
X028590Y014340D01*
X028690Y014440D01*
X028690Y015053D01*
X028680Y015063D01*
X028749Y015132D01*
X028749Y015707D01*
X028993Y015462D01*
X029121Y015335D01*
X029121Y015264D01*
X029221Y015164D01*
X029263Y015164D01*
X029263Y014970D01*
X029220Y015013D01*
X029099Y015063D01*
X028968Y015063D01*
X028846Y015013D01*
X028754Y014920D01*
X028703Y014799D01*
X028703Y014668D01*
X028754Y014546D01*
X028783Y014517D01*
X028783Y014090D01*
X028744Y014050D01*
X028693Y013929D01*
X028693Y013798D01*
X028728Y013713D01*
X028670Y013713D01*
X028670Y013870D01*
X028333Y013870D01*
X028333Y013713D01*
X028233Y013713D01*
X028233Y013870D01*
X027897Y013870D01*
X027897Y013713D01*
X027670Y013713D01*
X027670Y013880D01*
X027333Y013880D01*
X027333Y013980D01*
X027233Y013980D01*
X027233Y013880D01*
X026897Y013880D01*
X026897Y013713D01*
X026680Y013713D01*
X026680Y013870D01*
X026343Y013870D01*
X026343Y013970D01*
X026243Y013970D01*
X026243Y013870D01*
X025907Y013870D01*
X025907Y013713D01*
X025173Y013713D01*
X025173Y014142D01*
X025203Y014172D01*
X025203Y014213D01*
X025373Y014213D01*
X025373Y014198D01*
X025424Y014076D01*
X025516Y013984D01*
X025638Y013933D01*
X025769Y013933D01*
X025890Y013984D01*
X025907Y014000D01*
X025907Y013970D01*
X026243Y013970D01*
X026243Y014306D01*
X026037Y014306D01*
X026033Y014305D01*
X026033Y014329D01*
X026029Y014340D01*
X026600Y014340D01*
X026700Y014440D01*
X026700Y015053D01*
X026695Y015058D01*
X026749Y015112D01*
X026749Y015765D01*
X026740Y015773D01*
X026749Y015782D01*
X026749Y016377D01*
X026818Y016307D01*
X026785Y016341D02*
X026749Y016341D01*
X026749Y016045D02*
X026818Y016045D01*
X026818Y015947D02*
X026749Y015947D01*
X026749Y015848D02*
X026818Y015848D01*
X026818Y015750D02*
X026749Y015750D01*
X026749Y015651D02*
X026818Y015651D01*
X026818Y015553D02*
X026749Y015553D01*
X026749Y015454D02*
X026818Y015454D01*
X026818Y015356D02*
X026749Y015356D01*
X026749Y015257D02*
X026818Y015257D01*
X026818Y015159D02*
X026749Y015159D01*
X026697Y015060D02*
X026877Y015060D01*
X026877Y014962D02*
X026700Y014962D01*
X026700Y014863D02*
X026877Y014863D01*
X026877Y014765D02*
X026700Y014765D01*
X026700Y014666D02*
X026877Y014666D01*
X026877Y014568D02*
X026700Y014568D01*
X026700Y014469D02*
X026877Y014469D01*
X026956Y014371D02*
X026630Y014371D01*
X026587Y014296D02*
X026549Y014306D01*
X026343Y014306D01*
X026343Y013970D01*
X026680Y013970D01*
X026680Y014176D01*
X026669Y014214D01*
X026650Y014248D01*
X026622Y014276D01*
X026587Y014296D01*
X026626Y014272D02*
X026941Y014272D01*
X026927Y014258D02*
X026907Y014224D01*
X026897Y014186D01*
X026897Y013980D01*
X027233Y013980D01*
X027233Y014316D01*
X027027Y014316D01*
X026989Y014306D01*
X026955Y014286D01*
X026927Y014258D01*
X026897Y014174D02*
X026680Y014174D01*
X026680Y014075D02*
X026897Y014075D01*
X026897Y013878D02*
X026343Y013878D01*
X026293Y013920D02*
X027273Y013920D01*
X027283Y013930D01*
X028273Y013930D01*
X028283Y013920D01*
X028283Y013863D01*
X028233Y013870D02*
X028333Y013870D01*
X028333Y013970D01*
X028233Y013970D01*
X028233Y013870D01*
X028233Y013878D02*
X027670Y013878D01*
X027670Y013780D02*
X027897Y013780D01*
X027897Y013970D02*
X028233Y013970D01*
X028233Y014306D01*
X028027Y014306D01*
X027989Y014296D01*
X027955Y014276D01*
X027927Y014248D01*
X027907Y014214D01*
X027897Y014176D01*
X027897Y013970D01*
X027897Y013977D02*
X027333Y013977D01*
X027333Y013980D02*
X027670Y013980D01*
X027670Y014186D01*
X027659Y014224D01*
X027640Y014258D01*
X027612Y014286D01*
X027577Y014306D01*
X027539Y014316D01*
X027333Y014316D01*
X027333Y013980D01*
X027333Y014075D02*
X027233Y014075D01*
X027233Y013977D02*
X026680Y013977D01*
X026680Y013780D02*
X026897Y013780D01*
X027233Y014174D02*
X027333Y014174D01*
X027333Y014272D02*
X027233Y014272D01*
X027610Y014371D02*
X027946Y014371D01*
X027951Y014272D02*
X027626Y014272D01*
X027670Y014174D02*
X027897Y014174D01*
X027897Y014075D02*
X027670Y014075D01*
X027690Y014469D02*
X027877Y014469D01*
X027877Y014568D02*
X027690Y014568D01*
X027690Y014666D02*
X027877Y014666D01*
X027877Y014765D02*
X027690Y014765D01*
X027690Y014863D02*
X027877Y014863D01*
X027877Y014962D02*
X027690Y014962D01*
X027690Y015060D02*
X027884Y015060D01*
X027818Y015159D02*
X027749Y015159D01*
X027749Y015257D02*
X027818Y015257D01*
X027818Y015356D02*
X027749Y015356D01*
X027749Y015454D02*
X027818Y015454D01*
X027818Y015553D02*
X027749Y015553D01*
X027749Y015651D02*
X027818Y015651D01*
X027818Y015750D02*
X027749Y015750D01*
X027749Y015848D02*
X027818Y015848D01*
X027818Y015947D02*
X027749Y015947D01*
X027749Y016045D02*
X027818Y016045D01*
X027818Y016144D02*
X027749Y016144D01*
X027749Y016242D02*
X027818Y016242D01*
X027818Y016341D02*
X027749Y016341D01*
X027803Y016693D02*
X028283Y016213D01*
X028283Y016128D01*
X028523Y016178D01*
X028523Y017323D01*
X028283Y017573D01*
X028283Y018693D01*
X028193Y018783D01*
X028193Y018943D01*
X028193Y019293D01*
X028173Y019293D01*
X028095Y019371D01*
X027755Y019371D01*
X027755Y019568D02*
X026869Y019568D01*
X026869Y020078D01*
X026783Y020163D01*
X027755Y020163D01*
X027755Y020159D01*
X027760Y020163D01*
X027755Y020163D02*
X028503Y020163D01*
X029043Y019623D01*
X030223Y019623D01*
X030223Y018929D01*
X030178Y018883D01*
X030168Y018873D01*
X030168Y017973D01*
X030218Y018015D02*
X030643Y018015D01*
X030574Y018023D02*
X030574Y018288D01*
X030564Y018327D01*
X030544Y018361D01*
X030516Y018389D01*
X030482Y018408D01*
X030444Y018419D01*
X030218Y018419D01*
X030218Y018023D01*
X030574Y018023D01*
X030577Y017948D02*
X030552Y017923D01*
X030218Y017923D01*
X030218Y018023D01*
X030118Y018023D01*
X030118Y018419D01*
X029892Y018419D01*
X029855Y018409D01*
X029840Y018423D01*
X029865Y018448D01*
X029902Y018438D01*
X030128Y018438D01*
X030128Y018833D01*
X030228Y018833D01*
X030228Y018438D01*
X030454Y018438D01*
X030492Y018448D01*
X030526Y018468D01*
X030554Y018496D01*
X030574Y018530D01*
X030584Y018568D01*
X030584Y018833D01*
X030228Y018833D01*
X030228Y018933D01*
X030584Y018933D01*
X030584Y019198D01*
X030574Y019237D01*
X030554Y019271D01*
X030526Y019299D01*
X030492Y019318D01*
X030454Y019329D01*
X030228Y019329D01*
X030228Y018933D01*
X030128Y018933D01*
X030128Y019329D01*
X029902Y019329D01*
X029865Y019319D01*
X029835Y019349D01*
X029182Y019349D01*
X029103Y019270D01*
X029103Y019274D01*
X028974Y019403D01*
X028893Y019484D01*
X028893Y019764D01*
X028764Y019893D01*
X028603Y020054D01*
X028514Y020143D01*
X028901Y020143D01*
X028853Y020029D01*
X028853Y019898D01*
X028904Y019776D01*
X028996Y019684D01*
X029118Y019633D01*
X029249Y019633D01*
X029370Y019684D01*
X029430Y019743D01*
X029834Y019743D01*
X029984Y019893D01*
X030113Y020022D01*
X030113Y020812D01*
X030114Y020813D01*
X030824Y020813D01*
X031054Y021043D01*
X031633Y021043D01*
X031633Y020699D01*
X031602Y020730D01*
X031536Y020778D01*
X031463Y020815D01*
X031385Y020841D01*
X031313Y020852D01*
X031313Y020383D01*
X031213Y020383D01*
X031213Y020283D01*
X030745Y020283D01*
X030756Y020212D01*
X030781Y020134D01*
X030819Y020061D01*
X030867Y019995D01*
X030925Y019937D01*
X030991Y019889D01*
X031064Y019851D01*
X031086Y019844D01*
X030957Y019791D01*
X030806Y019639D01*
X030723Y019441D01*
X030723Y019226D01*
X030806Y019027D01*
X030957Y018876D01*
X031059Y018833D01*
X030957Y018791D01*
X030806Y018639D01*
X030723Y018441D01*
X030723Y018226D01*
X030761Y018135D01*
X030577Y017948D01*
X030574Y018114D02*
X030740Y018114D01*
X030729Y018212D02*
X030574Y018212D01*
X030568Y018311D02*
X030723Y018311D01*
X030723Y018409D02*
X030478Y018409D01*
X030561Y018508D02*
X030751Y018508D01*
X030792Y018606D02*
X030584Y018606D01*
X030584Y018705D02*
X030871Y018705D01*
X030987Y018803D02*
X030584Y018803D01*
X030584Y019000D02*
X030833Y019000D01*
X030776Y019099D02*
X030584Y019099D01*
X030584Y019197D02*
X030735Y019197D01*
X030723Y019296D02*
X030529Y019296D01*
X030723Y019394D02*
X028983Y019394D01*
X028893Y019493D02*
X030745Y019493D01*
X030786Y019591D02*
X028893Y019591D01*
X028893Y019690D02*
X028990Y019690D01*
X028899Y019788D02*
X028869Y019788D01*
X028858Y019887D02*
X028771Y019887D01*
X028853Y019985D02*
X028672Y019985D01*
X028574Y020084D02*
X028876Y020084D01*
X029183Y019963D02*
X029743Y019963D01*
X029893Y020113D01*
X029893Y020903D01*
X030023Y021033D01*
X030733Y021033D01*
X031283Y021583D01*
X030981Y020970D02*
X031633Y020970D01*
X031633Y020872D02*
X030883Y020872D01*
X030984Y020773D02*
X030113Y020773D01*
X030113Y020675D02*
X030869Y020675D01*
X030867Y020672D02*
X030819Y020606D01*
X030781Y020533D01*
X030756Y020455D01*
X030745Y020383D01*
X031213Y020383D01*
X031213Y020852D01*
X031142Y020841D01*
X031064Y020815D01*
X030991Y020778D01*
X030925Y020730D01*
X030867Y020672D01*
X030804Y020576D02*
X030113Y020576D01*
X030113Y020478D02*
X030764Y020478D01*
X030683Y020333D02*
X030223Y019873D01*
X030223Y019623D01*
X030228Y019296D02*
X030128Y019296D01*
X030128Y019197D02*
X030228Y019197D01*
X030228Y019099D02*
X030128Y019099D01*
X030128Y019000D02*
X030228Y019000D01*
X030213Y018919D02*
X030178Y018883D01*
X030228Y018902D02*
X030931Y018902D01*
X031263Y018333D02*
X030733Y017793D01*
X030733Y017443D01*
X030603Y017323D01*
X030343Y017323D01*
X029893Y017303D02*
X029893Y017163D01*
X029833Y017103D01*
X029113Y017103D01*
X029033Y017023D01*
X029013Y017023D01*
X029013Y016943D01*
X029103Y016853D01*
X030593Y016853D01*
X030991Y016456D01*
X031122Y016456D01*
X029665Y015551D02*
X029662Y015553D01*
X029213Y015553D01*
X028963Y015803D01*
X028963Y016593D01*
X028763Y016793D01*
X028763Y017433D01*
X028493Y017703D01*
X028493Y018603D01*
X029213Y018603D01*
X029469Y018859D01*
X029509Y018859D01*
X029509Y018883D01*
X029130Y019296D02*
X029082Y019296D01*
X028883Y019183D02*
X028883Y018973D01*
X028873Y018963D01*
X028883Y019183D02*
X028673Y019393D01*
X028673Y019673D01*
X028383Y019963D01*
X027757Y019963D01*
X027755Y019962D01*
X027755Y019765D02*
X027757Y019763D01*
X028253Y019763D01*
X028443Y019573D01*
X028443Y019223D01*
X028493Y019173D01*
X028493Y018603D01*
X028823Y018303D02*
X029153Y017973D01*
X029499Y017973D01*
X029123Y017598D01*
X029123Y017353D01*
X029843Y017353D01*
X029893Y017303D01*
X030118Y018114D02*
X030218Y018114D01*
X030218Y018212D02*
X030118Y018212D01*
X030118Y018311D02*
X030218Y018311D01*
X030218Y018409D02*
X030118Y018409D01*
X030128Y018508D02*
X030228Y018508D01*
X030228Y018606D02*
X030128Y018606D01*
X030128Y018705D02*
X030228Y018705D01*
X030228Y018803D02*
X030128Y018803D01*
X029858Y018409D02*
X029854Y018409D01*
X029377Y019690D02*
X030856Y019690D01*
X030955Y019788D02*
X029879Y019788D01*
X029978Y019887D02*
X030994Y019887D01*
X030876Y019985D02*
X030076Y019985D01*
X030113Y020084D02*
X030807Y020084D01*
X030766Y020182D02*
X030113Y020182D01*
X030113Y020281D02*
X030745Y020281D01*
X030683Y020333D02*
X031263Y020333D01*
X031213Y020379D02*
X030113Y020379D01*
X029453Y020293D02*
X029383Y020363D01*
X027763Y020363D01*
X027755Y020355D01*
X027755Y020552D02*
X027766Y020563D01*
X028383Y020563D01*
X028783Y020963D01*
X028783Y022929D01*
X028983Y023129D01*
X028518Y023137D02*
X027949Y023137D01*
X027949Y023039D02*
X028518Y023039D01*
X028518Y022940D02*
X027949Y022940D01*
X027949Y022842D02*
X028518Y022842D01*
X028563Y022743D02*
X027949Y022743D01*
X027949Y022645D02*
X028563Y022645D01*
X028563Y022546D02*
X027893Y022546D01*
X027483Y022929D02*
X027419Y022993D01*
X026193Y022993D01*
X026082Y022882D01*
X026082Y021635D01*
X025893Y021643D02*
X025885Y021635D01*
X025883Y021637D01*
X025893Y021643D02*
X025893Y022893D01*
X025818Y022969D01*
X024463Y022969D01*
X023998Y022940D02*
X023705Y022940D01*
X023709Y022953D02*
X023709Y023179D01*
X023313Y023179D01*
X023313Y023279D01*
X023709Y023279D01*
X023709Y023504D01*
X023699Y023542D01*
X023729Y023572D01*
X023729Y023943D01*
X023998Y023943D01*
X023998Y023312D01*
X024006Y023303D01*
X023998Y023295D01*
X023998Y022642D01*
X024098Y022543D01*
X024829Y022543D01*
X024929Y022642D01*
X024929Y022749D01*
X025110Y022749D01*
X025096Y022743D01*
X025004Y022650D01*
X024953Y022529D01*
X024953Y022398D01*
X025004Y022276D01*
X025063Y022217D01*
X025063Y021962D01*
X024381Y021962D01*
X024282Y021863D01*
X024282Y021565D01*
X023984Y021565D01*
X023893Y021474D01*
X023893Y021834D01*
X023764Y021963D01*
X022904Y022823D01*
X022600Y022823D01*
X022637Y022833D01*
X022671Y022853D01*
X022699Y022881D01*
X022718Y022915D01*
X022729Y022953D01*
X022729Y023179D01*
X022333Y023179D01*
X022333Y023279D01*
X022729Y023279D01*
X022729Y023504D01*
X022719Y023542D01*
X022749Y023572D01*
X022749Y024173D01*
X022798Y024173D01*
X022798Y023572D01*
X022828Y023542D01*
X022818Y023504D01*
X022818Y023279D01*
X023213Y023279D01*
X023213Y023179D01*
X022818Y023179D01*
X022818Y022953D01*
X022828Y022915D01*
X022848Y022881D01*
X022876Y022853D01*
X022910Y022833D01*
X022948Y022823D01*
X023213Y022823D01*
X023213Y023179D01*
X023313Y023179D01*
X023313Y022823D01*
X023578Y022823D01*
X023617Y022833D01*
X023651Y022853D01*
X023679Y022881D01*
X023698Y022915D01*
X023709Y022953D01*
X023709Y023039D02*
X023998Y023039D01*
X023998Y023137D02*
X023709Y023137D01*
X023709Y023334D02*
X023998Y023334D01*
X023998Y023236D02*
X023313Y023236D01*
X023263Y023229D02*
X022283Y023229D01*
X022248Y023193D01*
X021893Y023193D01*
X021793Y023293D01*
X021793Y023793D01*
X021689Y023898D01*
X021283Y023898D01*
X021293Y023908D01*
X021293Y024693D01*
X021273Y024713D01*
X021273Y025413D01*
X020693Y025993D01*
X020383Y025993D01*
X020273Y025993D01*
X020263Y025983D01*
X019623Y025983D01*
X019353Y025713D01*
X019353Y024423D01*
X019053Y024123D01*
X017283Y024123D01*
X016953Y023793D01*
X016953Y022623D01*
X017113Y022463D01*
X018103Y022463D01*
X018103Y021723D01*
X018103Y021489D01*
X018087Y021473D01*
X018098Y021463D01*
X018098Y020529D01*
X018073Y020529D01*
X018073Y020332D01*
X019155Y020332D01*
X019155Y020529D02*
X018098Y020529D01*
X018073Y020332D02*
X018073Y020135D01*
X019155Y020135D01*
X019155Y019938D02*
X018073Y019938D01*
X018073Y019743D01*
X018073Y019318D01*
X018118Y019273D01*
X018078Y019234D01*
X018078Y018213D01*
X018078Y017263D01*
X018068Y017253D01*
X018493Y017253D01*
X018683Y017063D01*
X018673Y017030D02*
X018474Y017030D01*
X018472Y016932D02*
X018673Y016932D01*
X018673Y016833D02*
X018408Y016833D01*
X018473Y016735D02*
X018673Y016735D01*
X018494Y016636D02*
X019189Y016636D01*
X019189Y016538D02*
X018494Y016538D01*
X018138Y016538D02*
X018038Y016538D01*
X018038Y016636D02*
X018138Y016636D01*
X018138Y016735D02*
X018038Y016735D01*
X018018Y016833D02*
X018118Y016833D01*
X018118Y016932D02*
X018018Y016932D01*
X018018Y017030D02*
X018118Y017030D01*
X018118Y017129D02*
X018018Y017129D01*
X018088Y017233D02*
X018068Y017253D01*
X018088Y017233D02*
X018088Y016363D01*
X018088Y015533D01*
X018038Y015454D02*
X018138Y015454D01*
X018138Y015356D02*
X018038Y015356D01*
X018038Y015257D02*
X018138Y015257D01*
X018138Y015159D02*
X018038Y015159D01*
X017663Y015060D02*
X022169Y015060D01*
X021483Y015163D02*
X020883Y015163D01*
X021373Y015553D02*
X021393Y015553D01*
X021393Y015651D02*
X021373Y015651D01*
X021373Y015750D02*
X021393Y015750D01*
X021393Y015848D02*
X021373Y015848D01*
X021373Y015947D02*
X021393Y015947D01*
X021393Y016144D02*
X021373Y016144D01*
X021373Y016242D02*
X021393Y016242D01*
X021393Y016341D02*
X021373Y016341D01*
X021373Y016439D02*
X021393Y016439D01*
X021393Y016538D02*
X021373Y016538D01*
X021631Y016538D02*
X021636Y016538D01*
X021873Y016538D02*
X021893Y016538D01*
X021893Y016439D02*
X021873Y016439D01*
X021873Y016341D02*
X021893Y016341D01*
X021893Y016242D02*
X021873Y016242D01*
X021873Y016144D02*
X021893Y016144D01*
X021893Y015947D02*
X021873Y015947D01*
X021873Y015848D02*
X021893Y015848D01*
X021893Y015750D02*
X021873Y015750D01*
X021873Y015651D02*
X021893Y015651D01*
X021893Y015553D02*
X021873Y015553D01*
X021647Y015553D02*
X021620Y015553D01*
X022120Y015553D02*
X022147Y015553D01*
X022373Y015553D02*
X022393Y015553D01*
X022393Y015651D02*
X022373Y015651D01*
X022373Y015750D02*
X022393Y015750D01*
X022393Y015848D02*
X022373Y015848D01*
X022373Y015947D02*
X022393Y015947D01*
X022620Y015553D02*
X022647Y015553D01*
X022873Y016144D02*
X022893Y016144D01*
X022893Y016242D02*
X022873Y016242D01*
X022873Y016341D02*
X022893Y016341D01*
X022893Y016439D02*
X022873Y016439D01*
X022873Y016538D02*
X022893Y016538D01*
X023383Y016053D02*
X023383Y015663D01*
X023583Y015463D01*
X025083Y015463D01*
X025383Y015163D01*
X025383Y014863D01*
X025701Y015406D02*
X025681Y015427D01*
X025681Y015689D01*
X025316Y016053D01*
X024883Y016053D01*
X026283Y016108D02*
X026283Y018087D01*
X026279Y018092D01*
X026475Y018092D02*
X026483Y018084D01*
X026483Y016953D01*
X026663Y017113D02*
X027083Y016693D01*
X027803Y016693D01*
X028193Y016953D02*
X028213Y016973D01*
X028213Y017283D01*
X028043Y017454D01*
X028043Y018584D01*
X027755Y018584D01*
X027755Y018387D02*
X027783Y018359D01*
X027783Y017263D01*
X027383Y017123D02*
X027383Y017463D01*
X027263Y017584D01*
X027263Y018092D01*
X027066Y018092D02*
X027066Y017346D01*
X026983Y017263D01*
X026663Y017113D02*
X026663Y018083D01*
X026672Y018092D01*
X026672Y018092D01*
X026663Y018092D01*
X026663Y018083D02*
X026663Y018133D01*
X026869Y018092D02*
X026869Y019568D01*
X026783Y020163D02*
X025688Y021259D01*
X025688Y021635D01*
X025688Y021068D01*
X025483Y020863D01*
X025483Y021627D01*
X025491Y021635D01*
X025519Y021635D02*
X025660Y021635D01*
X025519Y021635D01*
X025519Y021635D01*
X025660Y021635D02*
X025660Y021635D01*
X025688Y021635D02*
X025688Y020159D01*
X026279Y020749D01*
X027755Y020749D01*
X028049Y020749D01*
X028293Y020993D01*
X028293Y023793D01*
X028538Y023925D02*
X027948Y023925D01*
X027849Y024024D02*
X028538Y024024D01*
X028554Y024122D02*
X027270Y024122D01*
X026606Y024221D02*
X031633Y024221D01*
X031633Y024319D02*
X026626Y024319D01*
X026626Y024418D02*
X031633Y024418D01*
X031633Y024516D02*
X026626Y024516D01*
X026298Y023907D02*
X026308Y023898D01*
X025668Y023907D02*
X024733Y023907D01*
X024463Y023638D01*
X023998Y023630D02*
X023729Y023630D01*
X023729Y023728D02*
X023998Y023728D01*
X023998Y023827D02*
X023729Y023827D01*
X023729Y023925D02*
X023998Y023925D01*
X023998Y023531D02*
X023701Y023531D01*
X023709Y023433D02*
X023998Y023433D01*
X023313Y023137D02*
X023213Y023137D01*
X023213Y023039D02*
X023313Y023039D01*
X023313Y022940D02*
X023213Y022940D01*
X023213Y022842D02*
X023313Y022842D01*
X023083Y022645D02*
X023998Y022645D01*
X023998Y022743D02*
X022984Y022743D01*
X022895Y022842D02*
X022652Y022842D01*
X022725Y022940D02*
X022821Y022940D01*
X022818Y023039D02*
X022729Y023039D01*
X022729Y023137D02*
X022818Y023137D01*
X022818Y023334D02*
X022729Y023334D01*
X022729Y023433D02*
X022818Y023433D01*
X022825Y023531D02*
X022721Y023531D01*
X022749Y023630D02*
X022798Y023630D01*
X022798Y023728D02*
X022749Y023728D01*
X022749Y023827D02*
X022798Y023827D01*
X022798Y023925D02*
X022749Y023925D01*
X022749Y024024D02*
X022798Y024024D01*
X022798Y024122D02*
X022749Y024122D01*
X023263Y023898D02*
X023529Y024163D01*
X025668Y024163D01*
X025668Y024419D02*
X025668Y024463D01*
X025624Y024463D01*
X025097Y022743D02*
X024929Y022743D01*
X024929Y022645D02*
X025001Y022645D01*
X024961Y022546D02*
X024833Y022546D01*
X024953Y022448D02*
X023280Y022448D01*
X023181Y022546D02*
X024094Y022546D01*
X023998Y022842D02*
X023632Y022842D01*
X023378Y022349D02*
X024973Y022349D01*
X025029Y022251D02*
X023477Y022251D01*
X023575Y022152D02*
X025063Y022152D01*
X025063Y022054D02*
X023674Y022054D01*
X023772Y021955D02*
X024374Y021955D01*
X024282Y021857D02*
X023871Y021857D01*
X023893Y021758D02*
X024282Y021758D01*
X024282Y021660D02*
X023893Y021660D01*
X023893Y021561D02*
X023980Y021561D01*
X023673Y021743D02*
X023673Y020552D01*
X023112Y019765D02*
X022743Y020133D01*
X023112Y019765D02*
X024212Y019765D01*
X024212Y019962D02*
X024963Y019962D01*
X024539Y019890D02*
X024519Y019910D01*
X024519Y019913D01*
X025933Y019913D01*
X025933Y019813D01*
X024539Y019813D01*
X024539Y019890D01*
X024539Y019887D02*
X025933Y019887D01*
X025983Y019863D02*
X025688Y020159D01*
X025491Y019962D01*
X026279Y020749D02*
X026279Y021635D01*
X026302Y021955D02*
X026343Y021955D01*
X026302Y022054D02*
X028563Y022054D01*
X028563Y022152D02*
X026302Y022152D01*
X026302Y022251D02*
X028563Y022251D01*
X028563Y022349D02*
X026302Y022349D01*
X026302Y022448D02*
X028563Y022448D01*
X029003Y022448D02*
X029507Y022448D01*
X029605Y022546D02*
X029003Y022546D01*
X029003Y022645D02*
X029704Y022645D01*
X029743Y022743D02*
X029390Y022743D01*
X029449Y022842D02*
X029778Y022842D01*
X029877Y022940D02*
X029449Y022940D01*
X029449Y023039D02*
X029975Y023039D01*
X029994Y023137D02*
X029449Y023137D01*
X029449Y023236D02*
X029895Y023236D01*
X029797Y023334D02*
X029449Y023334D01*
X029449Y023433D02*
X029763Y023433D01*
X029763Y023531D02*
X029429Y023531D01*
X029429Y023925D02*
X029890Y023925D01*
X029988Y024024D02*
X029429Y024024D01*
X029412Y024122D02*
X031059Y024122D01*
X030960Y024024D02*
X030578Y024024D01*
X030677Y023925D02*
X030862Y023925D01*
X030333Y023925D02*
X030233Y023925D01*
X030233Y023827D02*
X030333Y023827D01*
X030333Y023728D02*
X030233Y023728D01*
X030233Y024024D02*
X030333Y024024D01*
X031508Y024122D02*
X031633Y024122D01*
X031633Y024024D02*
X031606Y024024D01*
X031633Y024615D02*
X028455Y024615D01*
X028463Y024713D02*
X031633Y024713D01*
X031633Y024812D02*
X028463Y024812D01*
X028463Y024910D02*
X031633Y024910D01*
X031633Y025009D02*
X030595Y025009D01*
X030629Y025107D02*
X031633Y025107D01*
X032133Y025107D02*
X032323Y025107D01*
X032323Y025009D02*
X032133Y025009D01*
X032133Y024910D02*
X032323Y024910D01*
X032323Y024812D02*
X032133Y024812D01*
X032133Y024713D02*
X032323Y024713D01*
X032323Y024615D02*
X032133Y024615D01*
X032133Y024516D02*
X032323Y024516D01*
X032323Y024418D02*
X032133Y024418D01*
X032133Y024319D02*
X032323Y024319D01*
X032323Y024221D02*
X032133Y024221D01*
X032133Y024122D02*
X032323Y024122D01*
X032323Y024024D02*
X032133Y024024D01*
X032133Y023925D02*
X032323Y023925D01*
X032323Y023827D02*
X032133Y023827D01*
X032133Y023728D02*
X032323Y023728D01*
X032323Y023630D02*
X032133Y023630D01*
X032133Y023531D02*
X032323Y023531D01*
X032323Y023433D02*
X032133Y023433D01*
X032133Y023334D02*
X032323Y023334D01*
X032323Y023236D02*
X032133Y023236D01*
X032133Y023137D02*
X032323Y023137D01*
X032323Y023039D02*
X032133Y023039D01*
X032133Y022940D02*
X032323Y022940D01*
X032323Y022842D02*
X032133Y022842D01*
X032133Y022743D02*
X032323Y022743D01*
X032323Y022645D02*
X032133Y022645D01*
X032133Y022546D02*
X032323Y022546D01*
X032323Y022448D02*
X032133Y022448D01*
X032133Y022349D02*
X032323Y022349D01*
X032323Y022251D02*
X032133Y022251D01*
X032133Y022152D02*
X032323Y022152D01*
X032323Y022054D02*
X032133Y022054D01*
X032133Y021955D02*
X032323Y021955D01*
X032323Y021857D02*
X032133Y021857D01*
X032133Y021758D02*
X032323Y021758D01*
X032323Y021660D02*
X032133Y021660D01*
X032133Y021561D02*
X032323Y021561D01*
X032323Y021463D02*
X032133Y021463D01*
X032133Y021364D02*
X032323Y021364D01*
X032323Y021266D02*
X032133Y021266D01*
X032133Y021167D02*
X032323Y021167D01*
X032323Y021069D02*
X032133Y021069D01*
X032133Y020970D02*
X032323Y020970D01*
X032323Y020872D02*
X032133Y020872D01*
X032133Y020773D02*
X032323Y020773D01*
X032323Y020675D02*
X032133Y020675D01*
X032133Y020576D02*
X032323Y020576D01*
X032323Y020478D02*
X032133Y020478D01*
X032133Y020379D02*
X032323Y020379D01*
X032323Y020281D02*
X032133Y020281D01*
X032133Y020182D02*
X032323Y020182D01*
X032323Y020084D02*
X032133Y020084D01*
X032133Y019985D02*
X032323Y019985D01*
X032323Y019887D02*
X032133Y019887D01*
X032133Y019788D02*
X032323Y019788D01*
X032323Y019690D02*
X032133Y019690D01*
X032133Y019591D02*
X032323Y019591D01*
X032323Y019493D02*
X032133Y019493D01*
X032133Y019394D02*
X032323Y019394D01*
X032323Y019296D02*
X032133Y019296D01*
X032133Y019197D02*
X032323Y019197D01*
X032323Y019099D02*
X032133Y019099D01*
X032133Y019000D02*
X032323Y019000D01*
X032323Y018902D02*
X032133Y018902D01*
X032133Y018803D02*
X032323Y018803D01*
X032323Y018705D02*
X032133Y018705D01*
X032133Y018606D02*
X032323Y018606D01*
X032323Y018508D02*
X032133Y018508D01*
X032133Y018409D02*
X032323Y018409D01*
X032323Y018311D02*
X032133Y018311D01*
X032133Y018212D02*
X032323Y018212D01*
X032323Y018114D02*
X032133Y018114D01*
X032133Y018015D02*
X032323Y018015D01*
X032323Y017917D02*
X032133Y017917D01*
X032133Y017818D02*
X032323Y017818D01*
X032323Y017720D02*
X032133Y017720D01*
X032133Y017621D02*
X032323Y017621D01*
X032323Y017523D02*
X032133Y017523D01*
X032133Y017424D02*
X032323Y017424D01*
X032323Y017326D02*
X032133Y017326D01*
X032133Y017227D02*
X032323Y017227D01*
X032323Y017129D02*
X032133Y017129D01*
X032133Y017030D02*
X032323Y017030D01*
X032323Y016932D02*
X032133Y016932D01*
X032133Y016833D02*
X032323Y016833D01*
X032323Y016735D02*
X032133Y016735D01*
X032133Y016636D02*
X032323Y016636D01*
X032323Y016538D02*
X032133Y016538D01*
X032133Y016439D02*
X032323Y016439D01*
X032323Y016341D02*
X032133Y016341D01*
X032133Y016242D02*
X032323Y016242D01*
X032323Y016144D02*
X032133Y016144D01*
X032133Y016045D02*
X032323Y016045D01*
X032323Y015947D02*
X032133Y015947D01*
X032133Y015848D02*
X032323Y015848D01*
X032323Y015750D02*
X032133Y015750D01*
X032133Y015651D02*
X032323Y015651D01*
X032323Y015553D02*
X032133Y015553D01*
X032133Y015454D02*
X032323Y015454D01*
X032323Y015356D02*
X032133Y015356D01*
X032133Y015257D02*
X032323Y015257D01*
X032323Y015159D02*
X032133Y015159D01*
X032120Y015060D02*
X032323Y015060D01*
X032323Y014962D02*
X032055Y014962D01*
X032323Y014863D02*
X030600Y014863D01*
X031432Y014765D02*
X032323Y014765D01*
X032323Y014666D02*
X031684Y014666D01*
X031846Y014568D02*
X032323Y014568D01*
X032323Y014469D02*
X031916Y014469D01*
X031952Y014371D02*
X032304Y014371D01*
X032364Y014272D02*
X031952Y014272D01*
X031926Y014174D02*
X032425Y014174D01*
X032483Y014075D02*
X031870Y014075D01*
X031916Y013977D02*
X032483Y013977D01*
X032483Y013878D02*
X031952Y013878D01*
X031952Y013780D02*
X032483Y013780D01*
X032483Y013681D02*
X031926Y013681D01*
X031870Y013583D02*
X032483Y013583D01*
X032483Y013484D02*
X031742Y013484D01*
X031424Y013484D02*
X030581Y013484D01*
X030619Y013583D02*
X031297Y013583D01*
X030392Y013386D02*
X032483Y013386D01*
X032483Y013287D02*
X030331Y013287D01*
X028701Y013780D02*
X028670Y013780D01*
X028693Y013878D02*
X028333Y013878D01*
X028333Y013970D02*
X028670Y013970D01*
X028670Y014176D01*
X028659Y014214D01*
X028640Y014248D01*
X028612Y014276D01*
X028577Y014296D01*
X028539Y014306D01*
X028333Y014306D01*
X028333Y013970D01*
X028333Y013977D02*
X028233Y013977D01*
X028233Y014075D02*
X028333Y014075D01*
X028333Y014174D02*
X028233Y014174D01*
X028233Y014272D02*
X028333Y014272D01*
X028616Y014272D02*
X028783Y014272D01*
X028783Y014174D02*
X028670Y014174D01*
X028670Y014075D02*
X028769Y014075D01*
X028713Y013977D02*
X028670Y013977D01*
X028333Y013780D02*
X028233Y013780D01*
X028620Y014371D02*
X028783Y014371D01*
X028783Y014469D02*
X028690Y014469D01*
X028690Y014568D02*
X028745Y014568D01*
X028704Y014666D02*
X028690Y014666D01*
X028690Y014765D02*
X028703Y014765D01*
X028690Y014863D02*
X028730Y014863D01*
X028690Y014962D02*
X028795Y014962D01*
X028683Y015060D02*
X028960Y015060D01*
X029106Y015060D02*
X029263Y015060D01*
X029263Y015159D02*
X028749Y015159D01*
X028749Y015257D02*
X029127Y015257D01*
X029100Y015356D02*
X028749Y015356D01*
X028749Y015454D02*
X029001Y015454D01*
X028903Y015553D02*
X028749Y015553D01*
X028749Y015651D02*
X028804Y015651D01*
X028283Y015459D02*
X028283Y014747D01*
X027283Y014757D02*
X027283Y015459D01*
X026293Y015319D02*
X026293Y014747D01*
X026243Y014272D02*
X026343Y014272D01*
X026343Y014174D02*
X026243Y014174D01*
X026243Y014075D02*
X026343Y014075D01*
X026343Y013977D02*
X026243Y013977D01*
X026293Y013920D02*
X026287Y013913D01*
X025503Y013913D01*
X025353Y014063D01*
X025293Y014063D01*
X025173Y014075D02*
X025425Y014075D01*
X025383Y014174D02*
X025203Y014174D01*
X025173Y013977D02*
X025533Y013977D01*
X025874Y013977D02*
X025907Y013977D01*
X025907Y013780D02*
X025173Y013780D01*
X025173Y013878D02*
X026243Y013878D01*
X024983Y014263D02*
X024883Y014163D01*
X023383Y014163D02*
X023383Y014463D01*
X021383Y014163D02*
X021383Y013763D01*
X020157Y015575D02*
X020183Y015601D01*
X020183Y016063D01*
X020466Y016242D02*
X021113Y016242D01*
X021113Y016341D02*
X020373Y016341D01*
X019189Y016341D02*
X018138Y016341D01*
X018138Y016439D02*
X018038Y016439D01*
X018038Y016242D02*
X018138Y016242D01*
X018138Y016144D02*
X018038Y016144D01*
X018038Y016045D02*
X018138Y016045D01*
X018138Y015947D02*
X018038Y015947D01*
X018038Y015848D02*
X018138Y015848D01*
X018138Y015750D02*
X018038Y015750D01*
X018038Y015651D02*
X018138Y015651D01*
X018958Y015848D02*
X019131Y015848D01*
X018673Y017129D02*
X018474Y017129D01*
X018474Y017326D02*
X018673Y017326D01*
X018673Y017424D02*
X018474Y017424D01*
X018474Y017523D02*
X018673Y017523D01*
X018673Y017621D02*
X018455Y017621D01*
X018446Y017818D02*
X018673Y017818D01*
X018673Y017720D02*
X017076Y017720D01*
X017012Y017818D02*
X017003Y017818D01*
X016783Y018003D02*
X016783Y017563D01*
X016563Y017810D02*
X016504Y017750D01*
X016453Y017629D01*
X016453Y017509D01*
X016383Y017545D01*
X016305Y017571D01*
X016233Y017582D01*
X016233Y017113D01*
X016133Y017113D01*
X016133Y017582D01*
X016062Y017571D01*
X015984Y017545D01*
X015911Y017508D01*
X015845Y017460D01*
X015833Y017449D01*
X015833Y018013D01*
X016563Y018013D01*
X016563Y017810D01*
X016563Y017818D02*
X015833Y017818D01*
X015833Y017720D02*
X016491Y017720D01*
X016453Y017621D02*
X015833Y017621D01*
X015833Y017523D02*
X015940Y017523D01*
X016133Y017523D02*
X016233Y017523D01*
X016233Y017424D02*
X016133Y017424D01*
X016133Y017326D02*
X016233Y017326D01*
X016233Y017227D02*
X016133Y017227D01*
X016133Y017129D02*
X016233Y017129D01*
X016183Y017063D02*
X016183Y018663D01*
X016783Y018003D02*
X016969Y018189D01*
X017409Y018189D01*
X017409Y018214D01*
X017409Y018213D01*
X017409Y018214D02*
X017409Y019273D01*
X017433Y019298D01*
X017433Y020743D01*
X017333Y020743D01*
X017339Y020749D01*
X017339Y021473D01*
X018103Y021723D02*
X019603Y021723D01*
X019603Y021363D01*
X019803Y021363D01*
X019803Y020972D01*
X019795Y020972D01*
X019603Y020972D02*
X019603Y021363D01*
X019598Y020972D02*
X019603Y020972D01*
X019401Y020972D02*
X018665Y020972D01*
X018653Y020983D01*
X019155Y020543D02*
X019155Y020529D01*
X019155Y019741D02*
X019063Y019741D01*
X019063Y019743D01*
X018073Y019743D01*
X018073Y019938D02*
X018073Y020135D01*
X017333Y020743D02*
X016183Y020743D01*
X016183Y020663D01*
X018118Y019273D02*
X018128Y019283D01*
X018473Y019283D01*
X019209Y018548D01*
X019209Y018253D01*
X018673Y017917D02*
X018484Y017917D01*
X018128Y017917D02*
X018028Y017917D01*
X018028Y017818D02*
X018128Y017818D01*
X018118Y017621D02*
X018018Y017621D01*
X018018Y017523D02*
X018118Y017523D01*
X018118Y017424D02*
X018018Y017424D01*
X018018Y017326D02*
X018118Y017326D01*
X018118Y017227D02*
X018673Y017227D01*
X017399Y017253D02*
X017073Y017253D01*
X016703Y016883D01*
X016703Y016453D01*
X016713Y016443D01*
X017233Y016363D02*
X016693Y015823D01*
X016693Y015583D01*
X016713Y015563D01*
X015933Y015553D02*
X015063Y015553D01*
X015063Y015651D02*
X015832Y015651D01*
X015733Y015750D02*
X015063Y015750D01*
X015063Y015848D02*
X015688Y015848D01*
X015647Y015947D02*
X015063Y015947D01*
X015063Y016045D02*
X015643Y016045D01*
X015643Y016144D02*
X015063Y016144D01*
X015063Y016242D02*
X015651Y016242D01*
X015552Y016341D02*
X015063Y016341D01*
X015063Y016439D02*
X015454Y016439D01*
X015365Y016538D02*
X015063Y016538D01*
X015063Y016636D02*
X015333Y016636D01*
X015333Y016735D02*
X015063Y016735D01*
X015063Y016833D02*
X015333Y016833D01*
X015333Y016932D02*
X015063Y016932D01*
X015063Y017030D02*
X015333Y017030D01*
X015333Y017129D02*
X015063Y017129D01*
X015063Y017227D02*
X015333Y017227D01*
X015333Y017326D02*
X015063Y017326D01*
X015063Y017424D02*
X015333Y017424D01*
X015333Y017523D02*
X015063Y017523D01*
X015063Y017621D02*
X015333Y017621D01*
X015333Y017720D02*
X015063Y017720D01*
X015063Y017818D02*
X015333Y017818D01*
X015333Y017917D02*
X015063Y017917D01*
X015833Y017917D02*
X016563Y017917D01*
X016453Y017523D02*
X016427Y017523D01*
X017233Y016363D02*
X017419Y016363D01*
X015933Y015454D02*
X015063Y015454D01*
X015063Y015356D02*
X015933Y015356D01*
X015933Y015257D02*
X015063Y015257D01*
X015063Y015159D02*
X015933Y015159D01*
X015933Y015060D02*
X015063Y015060D01*
X015063Y014962D02*
X015933Y014962D01*
X015933Y014863D02*
X015063Y014863D01*
X015063Y014765D02*
X015933Y014765D01*
X015682Y014666D02*
X015063Y014666D01*
X015063Y014568D02*
X015521Y014568D01*
X015451Y014469D02*
X015063Y014469D01*
X015074Y014371D02*
X015415Y014371D01*
X015415Y014272D02*
X015019Y014272D01*
X014958Y014174D02*
X015441Y014174D01*
X019918Y018253D02*
X019393Y018778D01*
X019393Y019495D01*
X019401Y019495D01*
X019598Y019495D02*
X019598Y018969D01*
X019823Y018743D01*
X020299Y018743D01*
X020769Y018273D01*
X021478Y018273D02*
X021493Y018289D01*
X021493Y018693D01*
X021203Y018983D01*
X019983Y018983D01*
X019795Y019172D01*
X019795Y019495D01*
X019992Y020972D02*
X020003Y020972D01*
X020003Y021993D01*
X019833Y022163D01*
X019263Y022163D01*
X019918Y022743D02*
X016723Y022743D01*
X016723Y022771D01*
X016641Y022969D01*
X016489Y023121D01*
X016387Y023163D01*
X016489Y023206D01*
X016641Y023357D01*
X016723Y023556D01*
X016723Y023771D01*
X016641Y023969D01*
X016489Y024121D01*
X016291Y024203D01*
X016076Y024203D01*
X015890Y024126D01*
X015977Y024213D01*
X017573Y024213D01*
X017665Y024251D01*
X017913Y024500D01*
X017913Y024273D01*
X018013Y024173D01*
X018754Y024173D01*
X018853Y024273D01*
X018853Y024714D01*
X018754Y024813D01*
X018073Y024813D01*
X018073Y025673D01*
X018754Y025673D01*
X018853Y025773D01*
X018853Y026214D01*
X018754Y026313D01*
X018013Y026313D01*
X017913Y026214D01*
X017913Y026057D01*
X017845Y026125D01*
X017775Y026195D01*
X017683Y026233D01*
X017659Y026233D01*
X017659Y026294D01*
X017559Y026394D01*
X016828Y026394D01*
X016728Y026294D01*
X016728Y026218D01*
X016096Y026218D01*
X016096Y026218D01*
X015992Y026322D01*
X015857Y026378D01*
X015710Y026378D01*
X015575Y026322D01*
X015471Y026218D01*
X015415Y026083D01*
X015415Y025936D01*
X015471Y025801D01*
X015508Y025763D01*
X015471Y025726D01*
X015415Y025591D01*
X015415Y025444D01*
X015471Y025309D01*
X015575Y025205D01*
X015710Y025149D01*
X015798Y025149D01*
X015860Y025087D01*
X015952Y025049D01*
X016728Y025049D01*
X016728Y024972D01*
X016828Y024873D01*
X017559Y024873D01*
X017573Y024887D01*
X017573Y024867D01*
X017420Y024713D01*
X015824Y024713D01*
X015732Y024675D01*
X015661Y024605D01*
X015371Y024315D01*
X015333Y024223D01*
X015333Y022743D01*
X015063Y022743D01*
X015063Y025453D01*
X015075Y025502D01*
X015063Y025521D01*
X015063Y025544D01*
X015028Y025579D01*
X014901Y025785D01*
X014893Y026913D01*
X014893Y026993D01*
X016188Y026993D01*
X016223Y026935D01*
X016223Y026893D01*
X016323Y026793D01*
X016464Y026793D01*
X016470Y026799D01*
X021523Y026799D01*
X021523Y024623D01*
X021623Y024523D01*
X022013Y024523D01*
X021947Y024458D01*
X021903Y024351D01*
X021903Y024310D01*
X021818Y024224D01*
X021818Y023572D01*
X021848Y023542D01*
X021838Y023504D01*
X021838Y023279D01*
X022233Y023279D01*
X022233Y023179D01*
X021838Y023179D01*
X021838Y022980D01*
X021749Y023069D01*
X021749Y023555D01*
X021719Y023585D01*
X021729Y023622D01*
X021729Y023848D01*
X021333Y023848D01*
X021333Y023948D01*
X021233Y023948D01*
X021233Y024304D01*
X020968Y024304D01*
X020930Y024294D01*
X020896Y024274D01*
X020868Y024246D01*
X020848Y024212D01*
X020838Y024174D01*
X020838Y023995D01*
X020749Y024084D01*
X020603Y024084D01*
X020603Y024173D01*
X020754Y024173D01*
X020853Y024273D01*
X020853Y024714D01*
X020754Y024813D01*
X020013Y024813D01*
X019913Y024714D01*
X019913Y024273D01*
X020013Y024173D01*
X020163Y024173D01*
X020163Y024084D01*
X020018Y024084D01*
X020017Y024083D01*
X019930Y024083D01*
X019870Y024143D01*
X019749Y024193D01*
X019618Y024193D01*
X019496Y024143D01*
X019437Y024083D01*
X018927Y024083D01*
X018872Y024029D01*
X018392Y024029D01*
X018383Y024020D01*
X018375Y024029D01*
X017722Y024029D01*
X017623Y023929D01*
X017623Y023866D01*
X017509Y023913D01*
X017378Y023913D01*
X017256Y023863D01*
X017164Y023770D01*
X017113Y023649D01*
X017113Y023518D01*
X017164Y023396D01*
X017256Y023304D01*
X017378Y023253D01*
X017509Y023253D01*
X017623Y023300D01*
X017623Y023198D01*
X017722Y023098D01*
X018375Y023098D01*
X018383Y023106D01*
X018392Y023098D01*
X019044Y023098D01*
X019144Y023198D01*
X019144Y023643D01*
X019437Y023643D01*
X019496Y023584D01*
X019618Y023533D01*
X019749Y023533D01*
X019870Y023584D01*
X019918Y023631D01*
X019918Y023332D01*
X019926Y023323D01*
X019918Y023315D01*
X019918Y022743D01*
X016723Y022743D01*
X016694Y022842D02*
X019918Y022842D01*
X019918Y022940D02*
X016653Y022940D01*
X016571Y023039D02*
X019918Y023039D01*
X019918Y023137D02*
X019084Y023137D01*
X019144Y023236D02*
X019918Y023236D01*
X019918Y023334D02*
X019144Y023334D01*
X019144Y023433D02*
X019918Y023433D01*
X019918Y023531D02*
X019144Y023531D01*
X019144Y023630D02*
X019450Y023630D01*
X019683Y023863D02*
X019018Y023863D01*
X018718Y023563D01*
X018049Y023563D02*
X017463Y023563D01*
X017443Y023583D01*
X017226Y023334D02*
X016618Y023334D01*
X016672Y023433D02*
X017148Y023433D01*
X017113Y023531D02*
X016713Y023531D01*
X016723Y023630D02*
X017113Y023630D01*
X017146Y023728D02*
X016723Y023728D01*
X016700Y023827D02*
X017220Y023827D01*
X017623Y023925D02*
X016659Y023925D01*
X016586Y024024D02*
X017718Y024024D01*
X017591Y024221D02*
X017965Y024221D01*
X017913Y024319D02*
X017733Y024319D01*
X017831Y024418D02*
X017913Y024418D01*
X018073Y024910D02*
X021523Y024910D01*
X021523Y024812D02*
X020755Y024812D01*
X020853Y024713D02*
X021523Y024713D01*
X021531Y024615D02*
X020853Y024615D01*
X020853Y024516D02*
X022006Y024516D01*
X021931Y024418D02*
X020853Y024418D01*
X020853Y024319D02*
X021903Y024319D01*
X021818Y024221D02*
X021713Y024221D01*
X021718Y024212D02*
X021699Y024246D01*
X021671Y024274D01*
X021637Y024294D01*
X021598Y024304D01*
X021333Y024304D01*
X021333Y023948D01*
X021729Y023948D01*
X021729Y024174D01*
X021718Y024212D01*
X021729Y024122D02*
X021818Y024122D01*
X021818Y024024D02*
X021729Y024024D01*
X021818Y023925D02*
X021333Y023925D01*
X021333Y024024D02*
X021233Y024024D01*
X021233Y024122D02*
X021333Y024122D01*
X021333Y024221D02*
X021233Y024221D01*
X020854Y024221D02*
X020801Y024221D01*
X020838Y024122D02*
X020603Y024122D01*
X020809Y024024D02*
X020838Y024024D01*
X020349Y023863D02*
X020383Y023658D01*
X020383Y024493D01*
X020163Y024122D02*
X019891Y024122D01*
X019965Y024221D02*
X018801Y024221D01*
X018853Y024319D02*
X019913Y024319D01*
X019913Y024418D02*
X018853Y024418D01*
X018853Y024516D02*
X019913Y024516D01*
X019913Y024615D02*
X018853Y024615D01*
X018853Y024713D02*
X019913Y024713D01*
X020011Y024812D02*
X018755Y024812D01*
X018073Y025009D02*
X021523Y025009D01*
X021523Y025107D02*
X018073Y025107D01*
X018073Y025206D02*
X021523Y025206D01*
X021523Y025304D02*
X018073Y025304D01*
X018073Y025403D02*
X021523Y025403D01*
X021523Y025501D02*
X018073Y025501D01*
X018073Y025600D02*
X021523Y025600D01*
X021523Y025698D02*
X020722Y025698D01*
X020703Y025693D02*
X020741Y025704D01*
X020775Y025723D01*
X020803Y025751D01*
X020823Y025785D01*
X020833Y025824D01*
X020833Y025968D01*
X020408Y025968D01*
X020408Y025693D01*
X020703Y025693D01*
X020826Y025797D02*
X021523Y025797D01*
X021523Y025895D02*
X020833Y025895D01*
X020833Y026018D02*
X020833Y026163D01*
X020823Y026201D01*
X020803Y026235D01*
X020775Y026263D01*
X020741Y026283D01*
X020703Y026293D01*
X020408Y026293D01*
X020408Y026018D01*
X020358Y026018D01*
X020358Y025968D01*
X020408Y025968D01*
X020408Y026018D01*
X020833Y026018D01*
X020833Y026092D02*
X021523Y026092D01*
X021523Y025994D02*
X020408Y025994D01*
X020358Y025994D02*
X018853Y025994D01*
X018853Y026092D02*
X019933Y026092D01*
X019933Y026163D02*
X019933Y026018D01*
X020358Y026018D01*
X020358Y026293D01*
X020064Y026293D01*
X020025Y026283D01*
X019991Y026263D01*
X019963Y026235D01*
X019944Y026201D01*
X019933Y026163D01*
X019941Y026191D02*
X018853Y026191D01*
X018778Y026289D02*
X020049Y026289D01*
X020358Y026289D02*
X020408Y026289D01*
X020408Y026191D02*
X020358Y026191D01*
X020358Y026092D02*
X020408Y026092D01*
X020358Y025968D02*
X019933Y025968D01*
X019933Y025824D01*
X019944Y025785D01*
X019963Y025751D01*
X019991Y025723D01*
X020025Y025704D01*
X020064Y025693D01*
X020358Y025693D01*
X020358Y025968D01*
X020358Y025895D02*
X020408Y025895D01*
X020408Y025797D02*
X020358Y025797D01*
X020358Y025698D02*
X020408Y025698D01*
X020045Y025698D02*
X018779Y025698D01*
X018853Y025797D02*
X019940Y025797D01*
X019933Y025895D02*
X018853Y025895D01*
X017989Y026289D02*
X017659Y026289D01*
X017565Y026388D02*
X021523Y026388D01*
X021523Y026486D02*
X014896Y026486D01*
X014897Y026388D02*
X016822Y026388D01*
X016728Y026289D02*
X016024Y026289D01*
X015542Y026289D02*
X014898Y026289D01*
X014899Y026191D02*
X015460Y026191D01*
X015419Y026092D02*
X014899Y026092D01*
X014900Y025994D02*
X015415Y025994D01*
X015432Y025895D02*
X014901Y025895D01*
X014901Y025797D02*
X015475Y025797D01*
X015460Y025698D02*
X014955Y025698D01*
X015015Y025600D02*
X015419Y025600D01*
X015415Y025501D02*
X015075Y025501D01*
X015063Y025403D02*
X015432Y025403D01*
X015475Y025304D02*
X015063Y025304D01*
X015063Y025206D02*
X015574Y025206D01*
X015840Y025107D02*
X015063Y025107D01*
X015063Y025009D02*
X016728Y025009D01*
X016790Y024910D02*
X015063Y024910D01*
X015063Y024812D02*
X017518Y024812D01*
X017420Y024713D02*
X015063Y024713D01*
X015063Y024615D02*
X015671Y024615D01*
X015573Y024516D02*
X015063Y024516D01*
X015063Y024418D02*
X015474Y024418D01*
X015376Y024319D02*
X015063Y024319D01*
X015063Y024221D02*
X015333Y024221D01*
X015333Y024122D02*
X015063Y024122D01*
X015063Y024024D02*
X015333Y024024D01*
X015333Y023925D02*
X015063Y023925D01*
X015063Y023827D02*
X015333Y023827D01*
X015333Y023728D02*
X015063Y023728D01*
X015063Y023630D02*
X015333Y023630D01*
X015333Y023531D02*
X015063Y023531D01*
X015063Y023433D02*
X015333Y023433D01*
X015333Y023334D02*
X015063Y023334D01*
X015063Y023236D02*
X015333Y023236D01*
X015333Y023137D02*
X015063Y023137D01*
X015063Y023039D02*
X015333Y023039D01*
X015333Y022940D02*
X015063Y022940D01*
X015063Y022842D02*
X015333Y022842D01*
X015333Y022743D02*
X015063Y022743D01*
X016450Y023137D02*
X017683Y023137D01*
X017623Y023236D02*
X016520Y023236D01*
X016486Y024122D02*
X019476Y024122D01*
X019683Y023863D02*
X020349Y023863D01*
X019918Y023630D02*
X019917Y023630D01*
X020354Y023200D02*
X020383Y022989D01*
X020383Y022743D01*
X020713Y022413D01*
X022393Y022413D01*
X022393Y022029D01*
X022378Y022013D01*
X022378Y021293D01*
X022378Y020725D01*
X022378Y020529D01*
X021669Y021293D02*
X020385Y021293D01*
X020385Y020972D01*
X020189Y020972D02*
X020189Y022013D01*
X021669Y022013D01*
X021903Y022603D02*
X022813Y022603D01*
X023673Y021743D01*
X021903Y022603D02*
X021283Y023223D01*
X021283Y023229D01*
X021749Y023236D02*
X022233Y023236D01*
X022333Y023236D02*
X023213Y023236D01*
X021838Y023334D02*
X021749Y023334D01*
X021749Y023433D02*
X021838Y023433D01*
X021845Y023531D02*
X021749Y023531D01*
X021729Y023630D02*
X021818Y023630D01*
X021818Y023728D02*
X021729Y023728D01*
X021729Y023827D02*
X021818Y023827D01*
X021838Y023137D02*
X021749Y023137D01*
X021779Y023039D02*
X021838Y023039D01*
X025283Y022463D02*
X025283Y021646D01*
X025294Y021635D01*
X026302Y022546D02*
X027074Y022546D01*
X027018Y022645D02*
X026302Y022645D01*
X026302Y022743D02*
X027018Y022743D01*
X027592Y021955D02*
X028563Y021955D01*
X028563Y021857D02*
X027685Y021857D01*
X027685Y021758D02*
X028563Y021758D01*
X028563Y021660D02*
X027685Y021660D01*
X027986Y021561D02*
X028563Y021561D01*
X028563Y021463D02*
X028082Y021463D01*
X028082Y021364D02*
X028563Y021364D01*
X028563Y021266D02*
X028082Y021266D01*
X028082Y021167D02*
X028563Y021167D01*
X028563Y021069D02*
X028082Y021069D01*
X028082Y020970D02*
X028479Y020970D01*
X028381Y020872D02*
X028082Y020872D01*
X029003Y021758D02*
X029026Y021758D01*
X029003Y021857D02*
X029263Y021857D01*
X029263Y021955D02*
X029003Y021955D01*
X029003Y022054D02*
X029263Y022054D01*
X029263Y022152D02*
X029003Y022152D01*
X029003Y022251D02*
X029310Y022251D01*
X029408Y022349D02*
X029003Y022349D01*
X029483Y022113D02*
X029943Y022573D01*
X030273Y022573D01*
X030283Y022583D01*
X029483Y022113D02*
X029483Y020763D01*
X029263Y021758D02*
X029181Y021758D01*
X028518Y023236D02*
X027949Y023236D01*
X027949Y023334D02*
X028518Y023334D01*
X028518Y023433D02*
X027949Y023433D01*
X027949Y023531D02*
X028538Y023531D01*
X028933Y024024D02*
X029033Y024024D01*
X029033Y024122D02*
X028933Y024122D01*
X028463Y025009D02*
X029732Y025009D01*
X029698Y025107D02*
X028463Y025107D01*
X028463Y025206D02*
X029698Y025206D01*
X029698Y025304D02*
X028463Y025304D01*
X028463Y025403D02*
X029698Y025403D01*
X029698Y025501D02*
X028463Y025501D01*
X028463Y025600D02*
X029698Y025600D01*
X029701Y025698D02*
X028463Y025698D01*
X028463Y025797D02*
X029698Y025797D01*
X029698Y025895D02*
X028463Y025895D01*
X028463Y025994D02*
X029698Y025994D01*
X029698Y026092D02*
X028463Y026092D01*
X028463Y026191D02*
X029698Y026191D01*
X029698Y026289D02*
X028463Y026289D01*
X028463Y026388D02*
X029722Y026388D01*
X030605Y026388D02*
X032483Y026388D01*
X032483Y026486D02*
X028463Y026486D01*
X028463Y026585D02*
X032483Y026585D01*
X032483Y026683D02*
X028463Y026683D01*
X028463Y026782D02*
X032483Y026782D01*
X032483Y026880D02*
X031145Y026880D01*
X031196Y026979D02*
X032483Y026979D01*
X032483Y026289D02*
X031824Y026289D01*
X031907Y026191D02*
X032483Y026191D01*
X032483Y026092D02*
X031948Y026092D01*
X031952Y025994D02*
X032483Y025994D01*
X032483Y025895D02*
X031935Y025895D01*
X031892Y025797D02*
X032483Y025797D01*
X032438Y025698D02*
X031907Y025698D01*
X031948Y025600D02*
X032378Y025600D01*
X032317Y025501D02*
X031953Y025501D01*
X032051Y025403D02*
X032323Y025403D01*
X032323Y025304D02*
X032118Y025304D01*
X032133Y025206D02*
X032323Y025206D01*
X031342Y026289D02*
X030629Y026289D01*
X031213Y020773D02*
X031313Y020773D01*
X031313Y020675D02*
X031213Y020675D01*
X031213Y020576D02*
X031313Y020576D01*
X031313Y020478D02*
X031213Y020478D01*
X031542Y020773D02*
X031633Y020773D01*
X024302Y018114D02*
X023913Y018114D01*
X023913Y018015D02*
X024302Y018015D01*
X024302Y017917D02*
X023880Y017917D01*
X023805Y017818D02*
X024327Y017818D01*
X024183Y017663D02*
X023483Y017663D01*
X022883Y017063D01*
X022882Y017063D01*
X022976Y017818D02*
X023362Y017818D01*
X023287Y017917D02*
X022743Y017917D01*
X022743Y018015D02*
X023253Y018015D01*
X023253Y018114D02*
X022743Y018114D01*
X022743Y018212D02*
X023288Y018212D01*
X023363Y018311D02*
X022743Y018311D01*
X022743Y018409D02*
X022971Y018409D01*
X022891Y018508D02*
X022743Y018508D01*
X022743Y018606D02*
X022853Y018606D01*
X022853Y018705D02*
X022743Y018705D01*
X022743Y018803D02*
X022884Y018803D01*
X022955Y018902D02*
X022743Y018902D01*
X022743Y019000D02*
X023009Y019000D01*
X023108Y019099D02*
X022743Y019099D01*
X022743Y019197D02*
X023206Y019197D01*
X023305Y019296D02*
X022973Y019296D01*
X022773Y019563D02*
X024207Y019563D01*
X024212Y019568D01*
X024212Y019371D02*
X024204Y019363D01*
X023683Y019363D01*
X023183Y018863D01*
X023183Y018663D01*
X023583Y018863D02*
X023894Y019174D01*
X024212Y019174D01*
X023884Y018803D02*
X023834Y018803D01*
X023803Y018705D02*
X023884Y018705D01*
X023884Y018606D02*
X023803Y018606D01*
X023803Y018508D02*
X023884Y018508D01*
X023884Y018409D02*
X023803Y018409D01*
X023803Y018311D02*
X023884Y018311D01*
X023879Y018212D02*
X023933Y018212D01*
X023583Y018063D02*
X023583Y018863D01*
X022136Y016538D02*
X022131Y016538D01*
X026283Y015439D02*
X026293Y015319D01*
X018387Y024024D02*
X018380Y024024D01*
X017913Y026092D02*
X017878Y026092D01*
X017913Y026191D02*
X017779Y026191D01*
X016236Y026880D02*
X014894Y026880D01*
X014894Y026782D02*
X021523Y026782D01*
X021523Y026683D02*
X014895Y026683D01*
X014896Y026585D02*
X021523Y026585D01*
X021523Y026289D02*
X020718Y026289D01*
X020826Y026191D02*
X021523Y026191D01*
X016197Y026979D02*
X014893Y026979D01*
D30*
X019683Y023863D03*
X017443Y023583D03*
X019263Y022163D03*
X018653Y020983D03*
X022743Y020133D03*
X022773Y019563D03*
X023183Y018663D03*
X023583Y018063D03*
X022756Y017572D03*
X023383Y016863D03*
X024583Y017263D03*
X025083Y017263D03*
X025583Y017263D03*
X026983Y017263D03*
X027383Y017123D03*
X027783Y017263D03*
X028193Y016953D03*
X028823Y018303D03*
X028873Y018963D03*
X028193Y018943D03*
X029183Y019963D03*
X029453Y020293D03*
X029483Y020763D03*
X029103Y021433D03*
X025283Y022463D03*
X030343Y017323D03*
X029033Y014733D03*
X029023Y013863D03*
X025703Y014263D03*
X025293Y014063D03*
X025383Y014863D03*
X025701Y015406D03*
X024383Y014963D03*
X022983Y014863D03*
X021483Y015163D03*
X020183Y016063D03*
X019993Y016593D03*
X019383Y017063D03*
X018683Y017063D03*
X018783Y015563D03*
X016713Y015563D03*
X016713Y016443D03*
X016783Y017563D03*
X020783Y013863D03*
D31*
X022193Y023908D02*
X022283Y023898D01*
X022193Y023908D02*
X022193Y024293D01*
X022363Y024463D01*
X023783Y024463D01*
X025624Y024463D01*
X023783Y024463D02*
X023783Y025663D01*
D32*
X017823Y025793D02*
X017823Y024763D01*
X017523Y024463D01*
X015873Y024463D01*
X015583Y024173D01*
X015583Y016663D01*
X016183Y016063D01*
X016183Y014508D01*
X016203Y014488D01*
X015962Y014488D01*
X015783Y014309D01*
X016203Y014488D02*
X017203Y014488D01*
X017267Y014552D01*
X019409Y014552D01*
X019409Y013489D01*
X019383Y013463D02*
X020183Y013463D01*
X021383Y013463D01*
X029513Y013463D01*
X029513Y015143D01*
X031883Y015143D01*
X031883Y025217D01*
X031583Y025517D01*
X031435Y025369D01*
X030163Y025369D01*
X030163Y026038D02*
X031555Y026038D01*
X031583Y026009D01*
X017823Y025793D02*
X017633Y025983D01*
X017209Y025983D01*
X017193Y025968D01*
X015825Y025968D01*
X015783Y026009D01*
X015783Y025517D02*
X016002Y025299D01*
X017193Y025299D01*
X017419Y015533D02*
X017413Y015528D01*
X017413Y015073D01*
X017203Y014863D01*
X017203Y014488D01*
X017203Y013819D02*
X015785Y013819D01*
X015783Y013817D01*
X020157Y013489D02*
X020157Y014552D01*
X020783Y014763D02*
X020783Y013863D01*
X021383Y014163D02*
X021383Y013463D01*
X020783Y014763D02*
X022183Y014763D01*
X022883Y015263D01*
X023283Y015263D01*
X023883Y014663D01*
X023883Y014163D01*
X024383Y014163D02*
X024383Y014963D01*
X024883Y014463D02*
X024883Y014163D01*
X024883Y014463D02*
X025583Y014463D01*
X025703Y014263D01*
X023383Y014463D02*
X022983Y014863D01*
X029033Y014733D02*
X029033Y013863D01*
X029023Y013863D01*
X029513Y013463D02*
X030153Y013463D01*
X030153Y013849D01*
X031583Y013849D01*
X031583Y013817D01*
X031583Y014309D02*
X031375Y014518D01*
X030153Y014518D01*
M02*
