G75*
%MOIN*%
%OFA0B0*%
%FSLAX24Y24*%
%IPPOS*%
%LPD*%
%AMOC8*
5,1,8,0,0,1.08239X$1,22.5*
%
%ADD10C,0.0040*%
%ADD11C,0.0000*%
%ADD12C,0.0080*%
%ADD13C,0.0050*%
%ADD14R,0.0059X0.0118*%
%ADD15R,0.0118X0.0118*%
%ADD16C,0.0060*%
%ADD17C,0.0030*%
D10*
X017673Y013456D02*
X017720Y013409D01*
X017907Y013409D01*
X017953Y013456D01*
X017953Y013549D01*
X017907Y013596D01*
X017953Y013704D02*
X017953Y013891D01*
X017953Y013797D02*
X017673Y013797D01*
X017767Y013704D01*
X017720Y013596D02*
X017673Y013549D01*
X017673Y013456D01*
X017720Y013999D02*
X017673Y014045D01*
X017673Y014139D01*
X017720Y014186D01*
X017767Y014186D01*
X017813Y014139D01*
X017860Y014186D01*
X017907Y014186D01*
X017953Y014139D01*
X017953Y014045D01*
X017907Y013999D01*
X017813Y014092D02*
X017813Y014139D01*
X018689Y014944D02*
X018735Y014898D01*
X018922Y014898D01*
X018969Y014944D01*
X018969Y015038D01*
X018922Y015084D01*
X018969Y015192D02*
X018782Y015379D01*
X018735Y015379D01*
X018689Y015332D01*
X018689Y015239D01*
X018735Y015192D01*
X018735Y015084D02*
X018689Y015038D01*
X018689Y014944D01*
X018969Y015192D02*
X018969Y015379D01*
X018922Y015487D02*
X018969Y015534D01*
X018969Y015627D01*
X018922Y015674D01*
X018876Y015674D01*
X018829Y015627D01*
X018829Y015580D01*
X018829Y015627D02*
X018782Y015674D01*
X018735Y015674D01*
X018689Y015627D01*
X018689Y015534D01*
X018735Y015487D01*
X018724Y015878D02*
X018911Y015878D01*
X018958Y015924D01*
X018958Y016018D01*
X018911Y016064D01*
X018958Y016172D02*
X018958Y016359D01*
X018958Y016266D02*
X018677Y016266D01*
X018771Y016172D01*
X018724Y016064D02*
X018677Y016018D01*
X018677Y015924D01*
X018724Y015878D01*
X018724Y016467D02*
X018677Y016514D01*
X018677Y016607D01*
X018724Y016654D01*
X018911Y016467D01*
X018958Y016514D01*
X018958Y016607D01*
X018911Y016654D01*
X018724Y016654D01*
X018724Y016467D02*
X018911Y016467D01*
X018873Y016927D02*
X018686Y016927D01*
X018639Y016974D01*
X018639Y017067D01*
X018686Y017114D01*
X018733Y017222D02*
X018639Y017315D01*
X018920Y017315D01*
X018920Y017222D02*
X018920Y017409D01*
X018920Y017516D02*
X018733Y017703D01*
X018686Y017703D01*
X018639Y017656D01*
X018639Y017563D01*
X018686Y017516D01*
X018920Y017516D02*
X018920Y017703D01*
X018883Y018188D02*
X018696Y018188D01*
X018649Y018234D01*
X018649Y018328D01*
X018696Y018374D01*
X018696Y018482D02*
X018649Y018529D01*
X018649Y018622D01*
X018696Y018669D01*
X018743Y018669D01*
X018789Y018622D01*
X018836Y018669D01*
X018883Y018669D01*
X018930Y018622D01*
X018930Y018529D01*
X018883Y018482D01*
X018883Y018374D02*
X018930Y018328D01*
X018930Y018234D01*
X018883Y018188D01*
X018789Y018576D02*
X018789Y018622D01*
X019033Y018725D02*
X019080Y018678D01*
X019173Y018678D01*
X019220Y018725D01*
X019328Y018678D02*
X019515Y018865D01*
X019515Y018912D01*
X019468Y018959D01*
X019375Y018959D01*
X019328Y018912D01*
X019220Y018912D02*
X019173Y018959D01*
X019080Y018959D01*
X019033Y018912D01*
X019033Y018725D01*
X019328Y018678D02*
X019515Y018678D01*
X019623Y018725D02*
X019669Y018678D01*
X019763Y018678D01*
X019809Y018725D01*
X019809Y018772D01*
X019763Y018818D01*
X019623Y018818D01*
X019623Y018725D01*
X019623Y018818D02*
X019716Y018912D01*
X019809Y018959D01*
X020509Y018942D02*
X020509Y018755D01*
X020556Y018708D01*
X020649Y018708D01*
X020696Y018755D01*
X020804Y018708D02*
X020991Y018895D01*
X020991Y018942D01*
X020944Y018989D01*
X020851Y018989D01*
X020804Y018942D01*
X020696Y018942D02*
X020649Y018989D01*
X020556Y018989D01*
X020509Y018942D01*
X020804Y018708D02*
X020991Y018708D01*
X021099Y018755D02*
X021145Y018708D01*
X021239Y018708D01*
X021286Y018755D01*
X021286Y018848D01*
X021239Y018895D01*
X021192Y018895D01*
X021099Y018848D01*
X021099Y018989D01*
X021286Y018989D01*
X018920Y017067D02*
X018873Y017114D01*
X018920Y017067D02*
X018920Y016974D01*
X018873Y016927D01*
X016635Y017710D02*
X016588Y017663D01*
X016494Y017663D01*
X016448Y017710D01*
X016541Y017803D02*
X016588Y017803D01*
X016635Y017756D01*
X016635Y017710D01*
X016588Y017803D02*
X016635Y017850D01*
X016635Y017897D01*
X016588Y017943D01*
X016494Y017943D01*
X016448Y017897D01*
X016340Y017897D02*
X016340Y017803D01*
X016293Y017756D01*
X016153Y017756D01*
X016153Y017663D02*
X016153Y017943D01*
X016293Y017943D01*
X016340Y017897D01*
X016045Y017943D02*
X015952Y017943D01*
X015998Y017943D02*
X015998Y017710D01*
X015952Y017663D01*
X015905Y017663D01*
X015858Y017710D01*
X015573Y017443D02*
X015527Y017489D01*
X015340Y017489D01*
X015293Y017443D01*
X015293Y017303D01*
X015573Y017303D01*
X015573Y017443D01*
X015573Y017195D02*
X015293Y017195D01*
X015293Y017008D02*
X015573Y017195D01*
X015573Y017008D02*
X015293Y017008D01*
X015340Y016900D02*
X015293Y016853D01*
X015293Y016760D01*
X015340Y016713D01*
X015527Y016713D01*
X015573Y016760D01*
X015573Y016853D01*
X015527Y016900D01*
X015433Y016900D01*
X015433Y016807D01*
X015293Y016484D02*
X015293Y016297D01*
X015293Y016391D02*
X015573Y016391D01*
X015573Y016189D02*
X015387Y016189D01*
X015293Y016096D01*
X015387Y016003D01*
X015573Y016003D01*
X015527Y015895D02*
X015573Y015848D01*
X015573Y015708D01*
X015293Y015708D01*
X015293Y015848D01*
X015340Y015895D01*
X015387Y015895D01*
X015433Y015848D01*
X015433Y015708D01*
X015480Y015600D02*
X015293Y015600D01*
X015293Y015413D02*
X015480Y015413D01*
X015573Y015507D01*
X015480Y015600D01*
X015433Y015848D02*
X015480Y015895D01*
X015527Y015895D01*
X015433Y016003D02*
X015433Y016189D01*
X015848Y015353D02*
X015848Y015073D01*
X015848Y015166D02*
X016035Y015353D01*
X016143Y015306D02*
X016190Y015353D01*
X016283Y015353D01*
X016330Y015306D01*
X016330Y015259D01*
X016283Y015213D01*
X016330Y015166D01*
X016330Y015119D01*
X016283Y015073D01*
X016190Y015073D01*
X016143Y015119D01*
X016035Y015073D02*
X015895Y015213D01*
X016237Y015213D02*
X016283Y015213D01*
X019468Y014141D02*
X019468Y013907D01*
X019514Y013860D01*
X019608Y013860D01*
X019655Y013907D01*
X019655Y014141D01*
X019762Y014094D02*
X019809Y014141D01*
X019903Y014141D01*
X019949Y014094D01*
X019949Y014047D01*
X019762Y013860D01*
X019949Y013860D01*
X021306Y013612D02*
X021306Y013379D01*
X021352Y013332D01*
X021446Y013332D01*
X021493Y013379D01*
X021493Y013612D01*
X021600Y013566D02*
X021647Y013612D01*
X021740Y013612D01*
X021787Y013566D01*
X021787Y013519D01*
X021740Y013472D01*
X021787Y013425D01*
X021787Y013379D01*
X021740Y013332D01*
X021647Y013332D01*
X021600Y013379D01*
X021694Y013472D02*
X021740Y013472D01*
X025606Y013473D02*
X025793Y013473D01*
X025793Y013520D02*
X025793Y013333D01*
X025901Y013333D02*
X025901Y013613D01*
X026041Y013613D01*
X026088Y013566D01*
X026088Y013473D01*
X026041Y013426D01*
X025901Y013426D01*
X025994Y013426D02*
X026088Y013333D01*
X026195Y013333D02*
X026195Y013613D01*
X026289Y013520D01*
X026382Y013613D01*
X026382Y013333D01*
X026880Y013329D02*
X026880Y013609D01*
X027020Y013609D01*
X027067Y013563D01*
X027067Y013516D01*
X027020Y013469D01*
X026880Y013469D01*
X026880Y013329D02*
X027020Y013329D01*
X027067Y013376D01*
X027067Y013423D01*
X027020Y013469D01*
X027175Y013376D02*
X027175Y013563D01*
X027222Y013609D01*
X027315Y013609D01*
X027362Y013563D01*
X027362Y013376D01*
X027315Y013329D01*
X027222Y013329D01*
X027175Y013376D01*
X027470Y013609D02*
X027656Y013609D01*
X027563Y013609D02*
X027563Y013329D01*
X028014Y013336D02*
X028014Y013616D01*
X028154Y013616D01*
X028201Y013569D01*
X028201Y013476D01*
X028154Y013429D01*
X028014Y013429D01*
X028309Y013336D02*
X028402Y013429D01*
X028495Y013336D01*
X028495Y013616D01*
X028603Y013616D02*
X028743Y013616D01*
X028790Y013569D01*
X028790Y013476D01*
X028743Y013429D01*
X028603Y013429D01*
X028603Y013336D02*
X028603Y013616D01*
X028697Y013429D02*
X028790Y013336D01*
X028309Y013336D02*
X028309Y013616D01*
X029393Y013583D02*
X029393Y013490D01*
X029440Y013443D01*
X029627Y013443D01*
X029673Y013490D01*
X029673Y013583D01*
X029627Y013630D01*
X029627Y013738D02*
X029673Y013738D01*
X029627Y013738D02*
X029440Y013925D01*
X029393Y013925D01*
X029393Y013738D01*
X029440Y013630D02*
X029393Y013583D01*
X031649Y015104D02*
X031649Y015384D01*
X031696Y015244D02*
X031836Y015104D01*
X031944Y015104D02*
X032130Y015104D01*
X032037Y015104D02*
X032037Y015384D01*
X031944Y015291D01*
X031836Y015384D02*
X031649Y015198D01*
X029720Y016815D02*
X029534Y016815D01*
X029627Y016815D02*
X029627Y017095D01*
X029534Y017002D01*
X029426Y017049D02*
X029426Y017095D01*
X029426Y017049D02*
X029332Y016955D01*
X029332Y016815D01*
X029332Y016955D02*
X029239Y017049D01*
X029239Y017095D01*
X028428Y016886D02*
X028382Y016932D01*
X028288Y016932D01*
X028242Y016886D01*
X028134Y016886D02*
X028087Y016932D01*
X027947Y016932D01*
X027947Y016652D01*
X027947Y016745D02*
X028087Y016745D01*
X028134Y016792D01*
X028134Y016886D01*
X028040Y016745D02*
X028134Y016652D01*
X028242Y016652D02*
X028428Y016839D01*
X028428Y016886D01*
X028428Y016652D02*
X028242Y016652D01*
X027534Y016693D02*
X027534Y016740D01*
X027487Y016786D01*
X027347Y016786D01*
X027347Y016693D01*
X027393Y016646D01*
X027487Y016646D01*
X027534Y016693D01*
X027347Y016786D02*
X027440Y016880D01*
X027534Y016926D01*
X027239Y016880D02*
X027192Y016926D01*
X027052Y016926D01*
X027052Y016646D01*
X027052Y016740D02*
X027192Y016740D01*
X027239Y016786D01*
X027239Y016880D01*
X027146Y016740D02*
X027239Y016646D01*
X026430Y016677D02*
X026383Y016630D01*
X026290Y016630D01*
X026243Y016677D01*
X026243Y016770D02*
X026337Y016817D01*
X026383Y016817D01*
X026430Y016770D01*
X026430Y016677D01*
X026243Y016770D02*
X026243Y016910D01*
X026430Y016910D01*
X026135Y016863D02*
X026135Y016770D01*
X026089Y016723D01*
X025949Y016723D01*
X026042Y016723D02*
X026135Y016630D01*
X025949Y016630D02*
X025949Y016910D01*
X026089Y016910D01*
X026135Y016863D01*
X029611Y018511D02*
X029658Y018464D01*
X029752Y018464D01*
X029798Y018511D01*
X029906Y018511D02*
X029953Y018464D01*
X030046Y018464D01*
X030093Y018511D01*
X030093Y018604D01*
X030046Y018651D01*
X030000Y018651D01*
X029906Y018604D01*
X029906Y018744D01*
X030093Y018744D01*
X029798Y018697D02*
X029752Y018744D01*
X029658Y018744D01*
X029611Y018697D01*
X029611Y018511D01*
X029639Y019335D02*
X029732Y019335D01*
X029779Y019381D01*
X029887Y019381D02*
X029933Y019335D01*
X030027Y019335D01*
X030074Y019381D01*
X030074Y019428D01*
X030027Y019475D01*
X029887Y019475D01*
X029887Y019381D01*
X029887Y019475D02*
X029980Y019568D01*
X030074Y019615D01*
X029779Y019568D02*
X029732Y019615D01*
X029639Y019615D01*
X029592Y019568D01*
X029592Y019381D01*
X029639Y019335D01*
X030084Y020721D02*
X030131Y020721D01*
X030177Y020767D01*
X030177Y021001D01*
X030131Y021001D02*
X030224Y021001D01*
X030332Y021001D02*
X030472Y021001D01*
X030519Y020954D01*
X030519Y020861D01*
X030472Y020814D01*
X030332Y020814D01*
X030332Y020721D02*
X030332Y021001D01*
X030626Y020908D02*
X030720Y021001D01*
X030720Y020721D01*
X030813Y020721D02*
X030626Y020721D01*
X030084Y020721D02*
X030037Y020767D01*
X031843Y020753D02*
X031843Y020613D01*
X032123Y020613D01*
X032123Y020753D01*
X032077Y020799D01*
X031890Y020799D01*
X031843Y020753D01*
X031843Y020505D02*
X032123Y020505D01*
X031843Y020318D01*
X032123Y020318D01*
X032077Y020210D02*
X032123Y020163D01*
X032123Y020070D01*
X032077Y020023D01*
X031890Y020023D01*
X031843Y020070D01*
X031843Y020163D01*
X031890Y020210D01*
X031983Y020210D02*
X031983Y020117D01*
X031983Y020210D02*
X032077Y020210D01*
X032060Y019807D02*
X031873Y019807D01*
X032060Y019807D02*
X032153Y019713D01*
X032060Y019620D01*
X031873Y019620D01*
X031920Y019512D02*
X031967Y019512D01*
X032013Y019465D01*
X032060Y019512D01*
X032107Y019512D01*
X032153Y019465D01*
X032153Y019372D01*
X032107Y019325D01*
X032107Y019225D02*
X032153Y019225D01*
X032153Y019178D01*
X032107Y019178D01*
X032107Y019225D01*
X032107Y019070D02*
X032153Y019023D01*
X032153Y018930D01*
X032107Y018883D01*
X032013Y018977D02*
X032013Y019023D01*
X032060Y019070D01*
X032107Y019070D01*
X032013Y019023D02*
X031967Y019070D01*
X031920Y019070D01*
X031873Y019023D01*
X031873Y018930D01*
X031920Y018883D01*
X031863Y018656D02*
X032143Y018656D01*
X032143Y018563D02*
X032143Y018749D01*
X031957Y018563D02*
X031863Y018656D01*
X031863Y018455D02*
X032143Y018268D01*
X032143Y018160D02*
X032050Y018067D01*
X032050Y018113D02*
X032050Y017973D01*
X032143Y017973D02*
X031863Y017973D01*
X031863Y018113D01*
X031910Y018160D01*
X032003Y018160D01*
X032050Y018113D01*
X031863Y018268D02*
X032143Y018455D01*
X032153Y017729D02*
X032153Y017543D01*
X032153Y017636D02*
X031873Y017636D01*
X031967Y017543D01*
X031873Y017435D02*
X032153Y017248D01*
X032153Y017435D02*
X031873Y017248D01*
X031873Y017140D02*
X031873Y016953D01*
X031873Y017047D02*
X032153Y017047D01*
X031920Y019325D02*
X031873Y019372D01*
X031873Y019465D01*
X031920Y019512D01*
X032013Y019465D02*
X032013Y019419D01*
X031920Y021213D02*
X032107Y021213D01*
X032153Y021260D01*
X032153Y021353D01*
X032107Y021400D01*
X032013Y021400D01*
X032013Y021307D01*
X031920Y021400D02*
X031873Y021353D01*
X031873Y021260D01*
X031920Y021213D01*
X031873Y021508D02*
X032153Y021695D01*
X031873Y021695D01*
X031873Y021803D02*
X031873Y021943D01*
X031920Y021989D01*
X032107Y021989D01*
X032153Y021943D01*
X032153Y021803D01*
X031873Y021803D01*
X031873Y021508D02*
X032153Y021508D01*
X030875Y024241D02*
X030688Y024241D01*
X030781Y024241D02*
X030781Y024522D01*
X030688Y024428D01*
X030580Y024522D02*
X030486Y024522D01*
X030533Y024522D02*
X030533Y024288D01*
X030486Y024241D01*
X030440Y024241D01*
X030393Y024288D01*
X029653Y024966D02*
X029607Y024919D01*
X029420Y024919D01*
X029373Y024966D01*
X029373Y025059D01*
X029420Y025106D01*
X029467Y025214D02*
X029373Y025307D01*
X029653Y025307D01*
X029653Y025214D02*
X029653Y025401D01*
X029513Y025509D02*
X029513Y025696D01*
X029373Y025649D02*
X029513Y025509D01*
X029653Y025649D02*
X029373Y025649D01*
X029607Y025106D02*
X029653Y025059D01*
X029653Y024966D01*
X029207Y024319D02*
X029020Y024319D01*
X029114Y024319D02*
X029114Y024599D01*
X029020Y024506D01*
X028913Y024552D02*
X028866Y024599D01*
X028772Y024599D01*
X028726Y024552D01*
X028726Y024365D01*
X028772Y024319D01*
X028866Y024319D01*
X028913Y024365D01*
X027830Y024405D02*
X027737Y024358D01*
X027644Y024264D01*
X027784Y024264D01*
X027830Y024218D01*
X027830Y024171D01*
X027784Y024124D01*
X027690Y024124D01*
X027644Y024171D01*
X027644Y024264D01*
X027536Y024124D02*
X027349Y024124D01*
X027442Y024124D02*
X027442Y024405D01*
X027349Y024311D01*
X027241Y024358D02*
X027194Y024405D01*
X027101Y024405D01*
X027054Y024358D01*
X027054Y024171D01*
X027101Y024124D01*
X027194Y024124D01*
X027241Y024171D01*
X026227Y023356D02*
X026041Y023356D01*
X026134Y023356D02*
X026134Y023636D01*
X026041Y023543D01*
X025933Y023543D02*
X025886Y023496D01*
X025746Y023496D01*
X025886Y023496D02*
X025933Y023449D01*
X025933Y023402D01*
X025886Y023356D01*
X025746Y023356D01*
X025746Y023636D01*
X025886Y023636D01*
X025933Y023589D01*
X025933Y023543D01*
X024979Y024455D02*
X024792Y024268D01*
X024792Y024221D01*
X024684Y024221D02*
X024497Y024221D01*
X024591Y024221D02*
X024591Y024501D01*
X024497Y024408D01*
X024390Y024455D02*
X024343Y024501D01*
X024249Y024501D01*
X024203Y024455D01*
X024203Y024268D01*
X024249Y024221D01*
X024343Y024221D01*
X024390Y024268D01*
X024792Y024501D02*
X024979Y024501D01*
X024979Y024455D01*
X023746Y024381D02*
X023559Y024381D01*
X023653Y024381D02*
X023653Y024661D01*
X023559Y024568D01*
X023451Y024381D02*
X023264Y024381D01*
X023358Y024381D02*
X023358Y024661D01*
X023264Y024568D01*
X023157Y024615D02*
X023110Y024661D01*
X023016Y024661D01*
X022970Y024615D01*
X022970Y024428D01*
X023016Y024381D01*
X023110Y024381D01*
X023157Y024428D01*
X022490Y024444D02*
X022490Y024630D01*
X022444Y024677D01*
X022350Y024677D01*
X022304Y024630D01*
X022304Y024584D01*
X022350Y024537D01*
X022490Y024537D01*
X022490Y024444D02*
X022444Y024397D01*
X022350Y024397D01*
X022304Y024444D01*
X022196Y024444D02*
X022149Y024397D01*
X022056Y024397D01*
X022009Y024444D01*
X022009Y024630D01*
X022056Y024677D01*
X022149Y024677D01*
X022196Y024630D01*
X021457Y024607D02*
X021457Y024654D01*
X021410Y024701D01*
X021317Y024701D01*
X021270Y024654D01*
X021162Y024654D02*
X021115Y024701D01*
X021022Y024701D01*
X020975Y024654D01*
X020975Y024467D01*
X021022Y024420D01*
X021115Y024420D01*
X021162Y024467D01*
X021270Y024420D02*
X021457Y024607D01*
X021457Y024420D02*
X021270Y024420D01*
X020675Y024176D02*
X020488Y024176D01*
X020582Y024176D02*
X020582Y024456D01*
X020488Y024363D01*
X020381Y024409D02*
X020381Y024316D01*
X020334Y024269D01*
X020194Y024269D01*
X020287Y024269D02*
X020381Y024176D01*
X020194Y024176D02*
X020194Y024456D01*
X020334Y024456D01*
X020381Y024409D01*
X020671Y025109D02*
X020625Y025156D01*
X020671Y025109D02*
X020765Y025109D01*
X020811Y025156D01*
X020811Y025203D01*
X020765Y025249D01*
X020671Y025249D01*
X020625Y025296D01*
X020625Y025343D01*
X020671Y025390D01*
X020765Y025390D01*
X020811Y025343D01*
X020919Y025296D02*
X021013Y025390D01*
X021013Y025109D01*
X021106Y025109D02*
X020919Y025109D01*
X023013Y026360D02*
X023013Y026594D01*
X023200Y026594D02*
X023200Y026360D01*
X023153Y026313D01*
X023060Y026313D01*
X023013Y026360D01*
X023308Y026360D02*
X023308Y026547D01*
X023355Y026594D01*
X023448Y026594D01*
X023495Y026547D01*
X023603Y026547D02*
X023603Y026500D01*
X023649Y026453D01*
X023743Y026453D01*
X023789Y026407D01*
X023789Y026360D01*
X023743Y026313D01*
X023649Y026313D01*
X023603Y026360D01*
X023495Y026360D02*
X023448Y026313D01*
X023355Y026313D01*
X023308Y026360D01*
X023603Y026547D02*
X023649Y026594D01*
X023743Y026594D01*
X023789Y026547D01*
X023897Y026594D02*
X024037Y026594D01*
X024084Y026547D01*
X024084Y026360D01*
X024037Y026313D01*
X023897Y026313D01*
X023897Y026594D01*
X024192Y026547D02*
X024239Y026594D01*
X024332Y026594D01*
X024379Y026547D01*
X024379Y026360D01*
X024332Y026313D01*
X024239Y026313D01*
X024192Y026360D01*
X024192Y026547D01*
X024285Y026407D02*
X024379Y026313D01*
X024487Y026360D02*
X024533Y026313D01*
X024673Y026313D01*
X024673Y026500D01*
X024828Y026500D02*
X024921Y026500D01*
X024968Y026453D01*
X024968Y026313D01*
X024828Y026313D01*
X024781Y026360D01*
X024828Y026407D01*
X024968Y026407D01*
X025076Y026453D02*
X025123Y026500D01*
X025263Y026500D01*
X025263Y026594D02*
X025263Y026313D01*
X025123Y026313D01*
X025076Y026360D01*
X025076Y026453D01*
X025371Y026360D02*
X025417Y026313D01*
X025511Y026313D01*
X025557Y026360D01*
X025665Y026360D02*
X025712Y026313D01*
X025805Y026313D01*
X025852Y026360D01*
X025852Y026453D01*
X025805Y026500D01*
X025712Y026500D01*
X025665Y026453D01*
X025665Y026360D01*
X025557Y026547D02*
X025511Y026594D01*
X025417Y026594D01*
X025371Y026547D01*
X025371Y026360D01*
X025960Y026313D02*
X026100Y026313D01*
X026147Y026360D01*
X026147Y026453D01*
X026100Y026500D01*
X025960Y026500D01*
X025960Y026220D01*
X026549Y026313D02*
X026549Y026594D01*
X026689Y026594D01*
X026736Y026547D01*
X026736Y026453D01*
X026689Y026407D01*
X026549Y026407D01*
X026643Y026407D02*
X026736Y026313D01*
X026844Y026360D02*
X026844Y026453D01*
X026891Y026500D01*
X026984Y026500D01*
X027031Y026453D01*
X027031Y026407D01*
X026844Y026407D01*
X026844Y026360D02*
X026891Y026313D01*
X026984Y026313D01*
X027138Y026500D02*
X027232Y026313D01*
X027325Y026500D01*
X027728Y026547D02*
X027728Y026360D01*
X027915Y026547D01*
X027915Y026360D01*
X027868Y026313D01*
X027774Y026313D01*
X027728Y026360D01*
X027728Y026547D02*
X027774Y026594D01*
X027868Y026594D01*
X027915Y026547D01*
X027392Y025886D02*
X027392Y025606D01*
X027485Y025606D02*
X027298Y025606D01*
X027191Y025606D02*
X027191Y025793D01*
X027097Y025886D01*
X027004Y025793D01*
X027004Y025606D01*
X027004Y025746D02*
X027191Y025746D01*
X027298Y025793D02*
X027392Y025886D01*
X030090Y026388D02*
X030090Y026668D01*
X030136Y026528D02*
X030277Y026388D01*
X030384Y026528D02*
X030571Y026528D01*
X030525Y026668D02*
X030384Y026528D01*
X030277Y026668D02*
X030090Y026481D01*
X030525Y026388D02*
X030525Y026668D01*
X024487Y026500D02*
X024487Y026360D01*
X024532Y022253D02*
X024532Y022019D01*
X024578Y021973D01*
X024672Y021973D01*
X024718Y022019D01*
X024718Y022253D01*
X024826Y022160D02*
X024920Y022253D01*
X024920Y021973D01*
X025013Y021973D02*
X024826Y021973D01*
X021419Y021885D02*
X021373Y021838D01*
X021279Y021838D01*
X021233Y021885D01*
X021419Y022072D01*
X021419Y021885D01*
X021233Y021885D02*
X021233Y022072D01*
X021279Y022119D01*
X021373Y022119D01*
X021419Y022072D01*
X021125Y021838D02*
X020938Y021838D01*
X021031Y021838D02*
X021031Y022119D01*
X020938Y022025D01*
X020830Y021978D02*
X020783Y021932D01*
X020643Y021932D01*
X020643Y021838D02*
X020643Y022119D01*
X020783Y022119D01*
X020830Y022072D01*
X020830Y021978D01*
X020737Y021932D02*
X020830Y021838D01*
X020883Y021429D02*
X021023Y021429D01*
X021070Y021382D01*
X021070Y021288D01*
X021023Y021242D01*
X020883Y021242D01*
X020883Y021148D02*
X020883Y021429D01*
X020977Y021242D02*
X021070Y021148D01*
X021178Y021195D02*
X021225Y021148D01*
X021318Y021148D01*
X021365Y021195D01*
X021365Y021242D01*
X021318Y021288D01*
X021271Y021288D01*
X021318Y021288D02*
X021365Y021335D01*
X021365Y021382D01*
X021318Y021429D01*
X021225Y021429D01*
X021178Y021382D01*
X019610Y021483D02*
X019423Y021483D01*
X019563Y021624D01*
X019563Y021343D01*
X019316Y021390D02*
X019316Y021624D01*
X019129Y021624D02*
X019129Y021390D01*
X019175Y021343D01*
X019269Y021343D01*
X019316Y021390D01*
X017953Y021948D02*
X017953Y022229D01*
X017813Y022088D01*
X017999Y022088D01*
X017705Y022135D02*
X017705Y022182D01*
X017658Y022229D01*
X017565Y022229D01*
X017518Y022182D01*
X017410Y022182D02*
X017363Y022229D01*
X017270Y022229D01*
X017223Y022182D01*
X017223Y021995D01*
X017270Y021948D01*
X017363Y021948D01*
X017410Y021995D01*
X017518Y021948D02*
X017705Y022135D01*
X017705Y021948D02*
X017518Y021948D01*
X018059Y022840D02*
X018153Y022840D01*
X018200Y022887D01*
X018307Y022840D02*
X018494Y022840D01*
X018401Y022840D02*
X018401Y023121D01*
X018307Y023027D01*
X018200Y023074D02*
X018153Y023121D01*
X018059Y023121D01*
X018013Y023074D01*
X018013Y022887D01*
X018059Y022840D01*
X018602Y022887D02*
X018649Y022840D01*
X018742Y022840D01*
X018789Y022887D01*
X018789Y022980D01*
X018742Y023027D01*
X018695Y023027D01*
X018602Y022980D01*
X018602Y023121D01*
X018789Y023121D01*
X017927Y024893D02*
X017740Y024893D01*
X017693Y024940D01*
X017693Y025033D01*
X017740Y025080D01*
X017740Y025188D02*
X017787Y025188D01*
X017833Y025235D01*
X017833Y025328D01*
X017880Y025375D01*
X017927Y025375D01*
X017973Y025328D01*
X017973Y025235D01*
X017927Y025188D01*
X017880Y025188D01*
X017833Y025235D01*
X017833Y025328D02*
X017787Y025375D01*
X017740Y025375D01*
X017693Y025328D01*
X017693Y025235D01*
X017740Y025188D01*
X017927Y025080D02*
X017973Y025033D01*
X017973Y024940D01*
X017927Y024893D01*
X016744Y024502D02*
X016697Y024549D01*
X016604Y024549D01*
X016557Y024502D01*
X016557Y024456D01*
X016604Y024409D01*
X016744Y024409D01*
X016744Y024502D02*
X016744Y024315D01*
X016697Y024269D01*
X016604Y024269D01*
X016557Y024315D01*
X016449Y024409D02*
X016403Y024362D01*
X016262Y024362D01*
X016262Y024269D02*
X016262Y024549D01*
X016403Y024549D01*
X016449Y024502D01*
X016449Y024409D01*
X016155Y024549D02*
X016061Y024549D01*
X016108Y024549D02*
X016108Y024315D01*
X016061Y024269D01*
X016014Y024269D01*
X015968Y024315D01*
X015573Y024089D02*
X015480Y023996D01*
X015480Y024043D02*
X015480Y023903D01*
X015573Y023903D02*
X015293Y023903D01*
X015293Y024043D01*
X015340Y024089D01*
X015433Y024089D01*
X015480Y024043D01*
X015293Y023795D02*
X015293Y023608D01*
X015293Y023701D02*
X015573Y023701D01*
X015527Y023500D02*
X015340Y023500D01*
X015293Y023453D01*
X015293Y023313D01*
X015573Y023313D01*
X015573Y023453D01*
X015527Y023500D01*
X015527Y023089D02*
X015573Y023043D01*
X015573Y022949D01*
X015527Y022903D01*
X015340Y023089D01*
X015527Y023089D01*
X015527Y022903D02*
X015340Y022903D01*
X015293Y022949D01*
X015293Y023043D01*
X015340Y023089D01*
X015293Y022795D02*
X015573Y022608D01*
X015573Y022500D02*
X015480Y022407D01*
X015480Y022453D02*
X015480Y022313D01*
X015573Y022313D02*
X015293Y022313D01*
X015293Y022453D01*
X015340Y022500D01*
X015433Y022500D01*
X015480Y022453D01*
X015293Y022608D02*
X015573Y022795D01*
X015527Y022089D02*
X015573Y022043D01*
X015573Y021949D01*
X015527Y021903D01*
X015340Y022089D01*
X015527Y022089D01*
X015527Y021903D02*
X015340Y021903D01*
X015293Y021949D01*
X015293Y022043D01*
X015340Y022089D01*
X015293Y021795D02*
X015573Y021608D01*
X015573Y021795D02*
X015293Y021608D01*
X015293Y021500D02*
X015293Y021313D01*
X015293Y021407D02*
X015573Y021407D01*
X015480Y021137D02*
X015293Y021137D01*
X015480Y021137D02*
X015573Y021043D01*
X015480Y020950D01*
X015293Y020950D01*
X015340Y020842D02*
X015293Y020795D01*
X015293Y020702D01*
X015340Y020655D01*
X015433Y020749D02*
X015433Y020795D01*
X015480Y020842D01*
X015527Y020842D01*
X015573Y020795D01*
X015573Y020702D01*
X015527Y020655D01*
X015527Y020555D02*
X015573Y020555D01*
X015573Y020508D01*
X015527Y020508D01*
X015527Y020555D01*
X015527Y020400D02*
X015573Y020353D01*
X015573Y020260D01*
X015527Y020213D01*
X015433Y020307D02*
X015433Y020353D01*
X015480Y020400D01*
X015527Y020400D01*
X015433Y020353D02*
X015387Y020400D01*
X015340Y020400D01*
X015293Y020353D01*
X015293Y020260D01*
X015340Y020213D01*
X015340Y019889D02*
X015293Y019843D01*
X015293Y019703D01*
X015573Y019703D01*
X015573Y019843D01*
X015527Y019889D01*
X015340Y019889D01*
X015293Y019595D02*
X015573Y019595D01*
X015293Y019408D01*
X015573Y019408D01*
X015527Y019300D02*
X015433Y019300D01*
X015433Y019207D01*
X015340Y019300D02*
X015293Y019253D01*
X015293Y019160D01*
X015340Y019113D01*
X015527Y019113D01*
X015573Y019160D01*
X015573Y019253D01*
X015527Y019300D01*
X015527Y018789D02*
X015340Y018789D01*
X015293Y018743D01*
X015293Y018603D01*
X015573Y018603D01*
X015573Y018743D01*
X015527Y018789D01*
X015573Y018495D02*
X015293Y018495D01*
X015293Y018308D02*
X015573Y018495D01*
X015573Y018308D02*
X015293Y018308D01*
X015340Y018200D02*
X015293Y018153D01*
X015293Y018060D01*
X015340Y018013D01*
X015527Y018013D01*
X015573Y018060D01*
X015573Y018153D01*
X015527Y018200D01*
X015433Y018200D01*
X015433Y018107D01*
X017293Y019765D02*
X017340Y019718D01*
X017433Y019718D01*
X017480Y019765D01*
X017588Y019858D02*
X017775Y019858D01*
X017728Y019718D02*
X017728Y019999D01*
X017588Y019858D01*
X017480Y019952D02*
X017433Y019999D01*
X017340Y019999D01*
X017293Y019952D01*
X017293Y019765D01*
X015433Y020795D02*
X015387Y020842D01*
X015340Y020842D01*
X016739Y026358D02*
X016739Y026639D01*
X016786Y026499D02*
X016926Y026358D01*
X017034Y026358D02*
X017221Y026545D01*
X017221Y026592D01*
X017174Y026639D01*
X017081Y026639D01*
X017034Y026592D01*
X016926Y026639D02*
X016739Y026452D01*
X017034Y026358D02*
X017221Y026358D01*
X025700Y013613D02*
X025606Y013520D01*
X025606Y013333D01*
X025793Y013520D02*
X025700Y013613D01*
D11*
X010333Y009253D02*
X009583Y007363D01*
X010293Y007363D01*
X010293Y007373D01*
X010295Y007441D01*
X010301Y007509D01*
X010311Y007577D01*
X010324Y007644D01*
X010342Y007710D01*
X010363Y007775D01*
X010388Y007838D01*
X010416Y007900D01*
X010448Y007960D01*
X010484Y008019D01*
X010522Y008075D01*
X010564Y008129D01*
X010609Y008180D01*
X010657Y008229D01*
X010707Y008275D01*
X010760Y008318D01*
X010815Y008358D01*
X010873Y008395D01*
X010933Y008428D01*
X010994Y008458D01*
X011057Y008484D01*
X011121Y008507D01*
X011187Y008526D01*
X011254Y008541D01*
X011321Y008552D01*
X011389Y008559D01*
X011457Y008563D01*
X011525Y008562D01*
X011593Y008558D01*
X011661Y008550D01*
X011728Y008537D01*
X011795Y008521D01*
X011860Y008502D01*
X011924Y008478D01*
X011987Y008451D01*
X012048Y008421D01*
X012107Y008386D01*
X012164Y008349D01*
X012219Y008308D01*
X012271Y008265D01*
X012321Y008218D01*
X012368Y008169D01*
X012412Y008116D01*
X012453Y008062D01*
X012491Y008005D01*
X012526Y007946D01*
X012557Y007886D01*
X012585Y007823D01*
X012609Y007759D01*
X012629Y007694D01*
X012645Y007628D01*
X012658Y007561D01*
X012667Y007493D01*
X012672Y007425D01*
X012673Y007357D01*
X012670Y007289D01*
X012663Y007221D01*
X012653Y007153D01*
X012638Y007087D01*
X012620Y007021D01*
X012598Y006956D01*
X012572Y006893D01*
X012543Y006831D01*
X012510Y006772D01*
X012474Y006714D01*
X012434Y006658D01*
X012392Y006605D01*
X012346Y006554D01*
X012298Y006506D01*
X012247Y006460D01*
X012193Y006418D01*
X012137Y006379D01*
X012079Y006343D01*
X012019Y006311D01*
X011957Y006282D01*
X011894Y006256D01*
X011829Y006234D01*
X011763Y006217D01*
X011697Y006202D01*
X011629Y006192D01*
X011561Y006186D01*
X011493Y006183D01*
X011493Y005443D01*
X011503Y005443D01*
X013393Y006193D01*
X013393Y007983D01*
X016393Y012883D01*
X016393Y012893D01*
X030993Y012893D01*
X030983Y012893D02*
X033983Y007993D01*
X033983Y006203D01*
X035873Y005453D01*
X035883Y005453D01*
X035883Y006193D01*
X035815Y006196D01*
X035747Y006202D01*
X035679Y006212D01*
X035613Y006227D01*
X035547Y006244D01*
X035482Y006266D01*
X035419Y006292D01*
X035357Y006321D01*
X035297Y006353D01*
X035239Y006389D01*
X035183Y006428D01*
X035129Y006470D01*
X035078Y006516D01*
X035030Y006564D01*
X034984Y006615D01*
X034942Y006668D01*
X034902Y006724D01*
X034866Y006782D01*
X034833Y006841D01*
X034804Y006903D01*
X034778Y006966D01*
X034756Y007031D01*
X034738Y007097D01*
X034723Y007163D01*
X034713Y007231D01*
X034706Y007299D01*
X034703Y007367D01*
X034704Y007435D01*
X034709Y007503D01*
X034718Y007571D01*
X034731Y007638D01*
X034747Y007704D01*
X034767Y007769D01*
X034791Y007833D01*
X034819Y007896D01*
X034850Y007956D01*
X034885Y008015D01*
X034923Y008072D01*
X034964Y008126D01*
X035008Y008179D01*
X035055Y008228D01*
X035105Y008275D01*
X035157Y008318D01*
X035212Y008359D01*
X035269Y008396D01*
X035328Y008431D01*
X035389Y008461D01*
X035452Y008488D01*
X035516Y008512D01*
X035581Y008531D01*
X035648Y008547D01*
X035715Y008560D01*
X035783Y008568D01*
X035851Y008572D01*
X035919Y008573D01*
X035987Y008569D01*
X036055Y008562D01*
X036122Y008551D01*
X036189Y008536D01*
X036255Y008517D01*
X036319Y008494D01*
X036382Y008468D01*
X036443Y008438D01*
X036503Y008405D01*
X036561Y008368D01*
X036616Y008328D01*
X036669Y008285D01*
X036719Y008239D01*
X036767Y008190D01*
X036812Y008139D01*
X036854Y008085D01*
X036892Y008029D01*
X036928Y007970D01*
X036960Y007910D01*
X036988Y007848D01*
X037013Y007785D01*
X037034Y007720D01*
X037052Y007654D01*
X037065Y007587D01*
X037075Y007519D01*
X037081Y007451D01*
X037083Y007383D01*
X037083Y007373D01*
X037793Y007373D01*
X037043Y009263D01*
X035633Y009263D01*
X032483Y014403D01*
X032493Y014393D02*
X032493Y025463D01*
X035643Y030603D01*
X037053Y030603D01*
X037803Y032493D01*
X037093Y032493D01*
X037093Y032483D01*
X037091Y032415D01*
X037085Y032347D01*
X037075Y032279D01*
X037062Y032212D01*
X037044Y032146D01*
X037023Y032081D01*
X036998Y032018D01*
X036970Y031956D01*
X036938Y031896D01*
X036902Y031837D01*
X036864Y031781D01*
X036822Y031727D01*
X036777Y031676D01*
X036729Y031627D01*
X036679Y031581D01*
X036626Y031538D01*
X036571Y031498D01*
X036513Y031461D01*
X036453Y031428D01*
X036392Y031398D01*
X036329Y031372D01*
X036265Y031349D01*
X036199Y031330D01*
X036132Y031315D01*
X036065Y031304D01*
X035997Y031297D01*
X035929Y031293D01*
X035861Y031294D01*
X035793Y031298D01*
X035725Y031306D01*
X035658Y031319D01*
X035591Y031335D01*
X035526Y031354D01*
X035462Y031378D01*
X035399Y031405D01*
X035338Y031435D01*
X035279Y031470D01*
X035222Y031507D01*
X035167Y031548D01*
X035115Y031591D01*
X035065Y031638D01*
X035018Y031687D01*
X034974Y031740D01*
X034933Y031794D01*
X034895Y031851D01*
X034860Y031910D01*
X034829Y031970D01*
X034801Y032033D01*
X034777Y032097D01*
X034757Y032162D01*
X034741Y032228D01*
X034728Y032295D01*
X034719Y032363D01*
X034714Y032431D01*
X034713Y032499D01*
X034716Y032567D01*
X034723Y032635D01*
X034733Y032703D01*
X034748Y032769D01*
X034766Y032835D01*
X034788Y032900D01*
X034814Y032963D01*
X034843Y033025D01*
X034876Y033084D01*
X034912Y033142D01*
X034952Y033198D01*
X034994Y033251D01*
X035040Y033302D01*
X035088Y033350D01*
X035139Y033396D01*
X035193Y033438D01*
X035249Y033477D01*
X035307Y033513D01*
X035367Y033545D01*
X035429Y033574D01*
X035492Y033600D01*
X035557Y033622D01*
X035623Y033639D01*
X035689Y033654D01*
X035757Y033664D01*
X035825Y033670D01*
X035893Y033673D01*
X035893Y034413D01*
X035883Y034413D01*
X033993Y033663D01*
X033993Y031873D01*
X030993Y026973D01*
X030993Y026969D02*
X016393Y026969D01*
X016393Y026963D02*
X016393Y026983D01*
X013393Y031883D01*
X013393Y033673D01*
X011503Y034423D01*
X011493Y034423D01*
X011493Y033683D01*
X011561Y033680D01*
X011629Y033674D01*
X011697Y033664D01*
X011763Y033649D01*
X011829Y033632D01*
X011894Y033610D01*
X011957Y033584D01*
X012019Y033555D01*
X012079Y033523D01*
X012137Y033487D01*
X012193Y033448D01*
X012247Y033406D01*
X012298Y033360D01*
X012346Y033312D01*
X012392Y033261D01*
X012434Y033208D01*
X012474Y033152D01*
X012510Y033094D01*
X012543Y033035D01*
X012572Y032973D01*
X012598Y032910D01*
X012620Y032845D01*
X012638Y032779D01*
X012653Y032713D01*
X012663Y032645D01*
X012670Y032577D01*
X012673Y032509D01*
X012672Y032441D01*
X012667Y032373D01*
X012658Y032305D01*
X012645Y032238D01*
X012629Y032172D01*
X012609Y032107D01*
X012585Y032043D01*
X012557Y031980D01*
X012526Y031920D01*
X012491Y031861D01*
X012453Y031804D01*
X012412Y031750D01*
X012368Y031697D01*
X012321Y031648D01*
X012271Y031601D01*
X012219Y031558D01*
X012164Y031517D01*
X012107Y031480D01*
X012048Y031445D01*
X011987Y031415D01*
X011924Y031388D01*
X011860Y031364D01*
X011795Y031345D01*
X011728Y031329D01*
X011661Y031316D01*
X011593Y031308D01*
X011525Y031304D01*
X011457Y031303D01*
X011389Y031307D01*
X011321Y031314D01*
X011254Y031325D01*
X011187Y031340D01*
X011121Y031359D01*
X011057Y031382D01*
X010994Y031408D01*
X010933Y031438D01*
X010873Y031471D01*
X010815Y031508D01*
X010760Y031548D01*
X010707Y031591D01*
X010657Y031637D01*
X010609Y031686D01*
X010564Y031737D01*
X010522Y031791D01*
X010484Y031847D01*
X010448Y031906D01*
X010416Y031966D01*
X010388Y032028D01*
X010363Y032091D01*
X010342Y032156D01*
X010324Y032222D01*
X010311Y032289D01*
X010301Y032357D01*
X010295Y032425D01*
X010293Y032493D01*
X010293Y032503D01*
X009583Y032503D01*
X010333Y030613D01*
X011743Y030613D01*
X014893Y025473D01*
X014893Y014393D01*
X011743Y009253D01*
X010333Y009253D01*
X012909Y009663D02*
X012911Y009702D01*
X012917Y009741D01*
X012927Y009779D01*
X012940Y009816D01*
X012957Y009851D01*
X012977Y009885D01*
X013001Y009916D01*
X013028Y009945D01*
X013057Y009971D01*
X013089Y009994D01*
X013123Y010014D01*
X013159Y010030D01*
X013196Y010042D01*
X013235Y010051D01*
X013274Y010056D01*
X013313Y010057D01*
X013352Y010054D01*
X013391Y010047D01*
X013428Y010036D01*
X013465Y010022D01*
X013500Y010004D01*
X013533Y009983D01*
X013564Y009958D01*
X013592Y009931D01*
X013617Y009901D01*
X013639Y009868D01*
X013658Y009834D01*
X013673Y009798D01*
X013685Y009760D01*
X013693Y009722D01*
X013697Y009683D01*
X013697Y009643D01*
X013693Y009604D01*
X013685Y009566D01*
X013673Y009528D01*
X013658Y009492D01*
X013639Y009458D01*
X013617Y009425D01*
X013592Y009395D01*
X013564Y009368D01*
X013533Y009343D01*
X013500Y009322D01*
X013465Y009304D01*
X013428Y009290D01*
X013391Y009279D01*
X013352Y009272D01*
X013313Y009269D01*
X013274Y009270D01*
X013235Y009275D01*
X013196Y009284D01*
X013159Y009296D01*
X013123Y009312D01*
X013089Y009332D01*
X013057Y009355D01*
X013028Y009381D01*
X013001Y009410D01*
X012977Y009441D01*
X012957Y009475D01*
X012940Y009510D01*
X012927Y009547D01*
X012917Y009585D01*
X012911Y009624D01*
X012909Y009663D01*
X025103Y014983D02*
X025082Y014985D01*
X025062Y014990D01*
X025043Y014999D01*
X025026Y015011D01*
X025011Y015026D01*
X024999Y015043D01*
X024990Y015062D01*
X024985Y015082D01*
X024983Y015103D01*
X024985Y015124D01*
X024990Y015144D01*
X024999Y015163D01*
X025011Y015180D01*
X025026Y015195D01*
X025043Y015207D01*
X025062Y015216D01*
X025082Y015221D01*
X025103Y015223D01*
X033679Y009673D02*
X033681Y009712D01*
X033687Y009751D01*
X033697Y009789D01*
X033710Y009826D01*
X033727Y009861D01*
X033747Y009895D01*
X033771Y009926D01*
X033798Y009955D01*
X033827Y009981D01*
X033859Y010004D01*
X033893Y010024D01*
X033929Y010040D01*
X033966Y010052D01*
X034005Y010061D01*
X034044Y010066D01*
X034083Y010067D01*
X034122Y010064D01*
X034161Y010057D01*
X034198Y010046D01*
X034235Y010032D01*
X034270Y010014D01*
X034303Y009993D01*
X034334Y009968D01*
X034362Y009941D01*
X034387Y009911D01*
X034409Y009878D01*
X034428Y009844D01*
X034443Y009808D01*
X034455Y009770D01*
X034463Y009732D01*
X034467Y009693D01*
X034467Y009653D01*
X034463Y009614D01*
X034455Y009576D01*
X034443Y009538D01*
X034428Y009502D01*
X034409Y009468D01*
X034387Y009435D01*
X034362Y009405D01*
X034334Y009378D01*
X034303Y009353D01*
X034270Y009332D01*
X034235Y009314D01*
X034198Y009300D01*
X034161Y009289D01*
X034122Y009282D01*
X034083Y009279D01*
X034044Y009280D01*
X034005Y009285D01*
X033966Y009294D01*
X033929Y009306D01*
X033893Y009322D01*
X033859Y009342D01*
X033827Y009365D01*
X033798Y009391D01*
X033771Y009420D01*
X033747Y009451D01*
X033727Y009485D01*
X033710Y009520D01*
X033697Y009557D01*
X033687Y009595D01*
X033681Y009634D01*
X033679Y009673D01*
X033649Y030203D02*
X033651Y030242D01*
X033657Y030281D01*
X033667Y030319D01*
X033680Y030356D01*
X033697Y030391D01*
X033717Y030425D01*
X033741Y030456D01*
X033768Y030485D01*
X033797Y030511D01*
X033829Y030534D01*
X033863Y030554D01*
X033899Y030570D01*
X033936Y030582D01*
X033975Y030591D01*
X034014Y030596D01*
X034053Y030597D01*
X034092Y030594D01*
X034131Y030587D01*
X034168Y030576D01*
X034205Y030562D01*
X034240Y030544D01*
X034273Y030523D01*
X034304Y030498D01*
X034332Y030471D01*
X034357Y030441D01*
X034379Y030408D01*
X034398Y030374D01*
X034413Y030338D01*
X034425Y030300D01*
X034433Y030262D01*
X034437Y030223D01*
X034437Y030183D01*
X034433Y030144D01*
X034425Y030106D01*
X034413Y030068D01*
X034398Y030032D01*
X034379Y029998D01*
X034357Y029965D01*
X034332Y029935D01*
X034304Y029908D01*
X034273Y029883D01*
X034240Y029862D01*
X034205Y029844D01*
X034168Y029830D01*
X034131Y029819D01*
X034092Y029812D01*
X034053Y029809D01*
X034014Y029810D01*
X033975Y029815D01*
X033936Y029824D01*
X033899Y029836D01*
X033863Y029852D01*
X033829Y029872D01*
X033797Y029895D01*
X033768Y029921D01*
X033741Y029950D01*
X033717Y029981D01*
X033697Y030015D01*
X033680Y030050D01*
X033667Y030087D01*
X033657Y030125D01*
X033651Y030164D01*
X033649Y030203D01*
X012919Y030193D02*
X012921Y030232D01*
X012927Y030271D01*
X012937Y030309D01*
X012950Y030346D01*
X012967Y030381D01*
X012987Y030415D01*
X013011Y030446D01*
X013038Y030475D01*
X013067Y030501D01*
X013099Y030524D01*
X013133Y030544D01*
X013169Y030560D01*
X013206Y030572D01*
X013245Y030581D01*
X013284Y030586D01*
X013323Y030587D01*
X013362Y030584D01*
X013401Y030577D01*
X013438Y030566D01*
X013475Y030552D01*
X013510Y030534D01*
X013543Y030513D01*
X013574Y030488D01*
X013602Y030461D01*
X013627Y030431D01*
X013649Y030398D01*
X013668Y030364D01*
X013683Y030328D01*
X013695Y030290D01*
X013703Y030252D01*
X013707Y030213D01*
X013707Y030173D01*
X013703Y030134D01*
X013695Y030096D01*
X013683Y030058D01*
X013668Y030022D01*
X013649Y029988D01*
X013627Y029955D01*
X013602Y029925D01*
X013574Y029898D01*
X013543Y029873D01*
X013510Y029852D01*
X013475Y029834D01*
X013438Y029820D01*
X013401Y029809D01*
X013362Y029802D01*
X013323Y029799D01*
X013284Y029800D01*
X013245Y029805D01*
X013206Y029814D01*
X013169Y029826D01*
X013133Y029842D01*
X013099Y029862D01*
X013067Y029885D01*
X013038Y029911D01*
X013011Y029940D01*
X012987Y029971D01*
X012967Y030005D01*
X012950Y030040D01*
X012937Y030077D01*
X012927Y030115D01*
X012921Y030154D01*
X012919Y030193D01*
D12*
X018777Y026243D02*
X019990Y026243D01*
X020383Y025732D02*
X020383Y024743D01*
X019990Y024243D02*
X018777Y024243D01*
X018383Y024755D02*
X018383Y025732D01*
X018883Y025243D02*
X018885Y025287D01*
X018891Y025331D01*
X018901Y025374D01*
X018914Y025416D01*
X018931Y025457D01*
X018952Y025496D01*
X018976Y025533D01*
X019003Y025568D01*
X019033Y025600D01*
X019066Y025630D01*
X019102Y025656D01*
X019139Y025680D01*
X019179Y025699D01*
X019220Y025716D01*
X019263Y025728D01*
X019306Y025737D01*
X019350Y025742D01*
X019394Y025743D01*
X019438Y025740D01*
X019482Y025733D01*
X019525Y025722D01*
X019567Y025708D01*
X019607Y025690D01*
X019646Y025668D01*
X019682Y025644D01*
X019716Y025616D01*
X019748Y025585D01*
X019777Y025551D01*
X019803Y025515D01*
X019825Y025477D01*
X019844Y025437D01*
X019859Y025395D01*
X019871Y025353D01*
X019879Y025309D01*
X019883Y025265D01*
X019883Y025221D01*
X019879Y025177D01*
X019871Y025133D01*
X019859Y025091D01*
X019844Y025049D01*
X019825Y025009D01*
X019803Y024971D01*
X019777Y024935D01*
X019748Y024901D01*
X019716Y024870D01*
X019682Y024842D01*
X019646Y024818D01*
X019607Y024796D01*
X019567Y024778D01*
X019525Y024764D01*
X019482Y024753D01*
X019438Y024746D01*
X019394Y024743D01*
X019350Y024744D01*
X019306Y024749D01*
X019263Y024758D01*
X019220Y024770D01*
X019179Y024787D01*
X019139Y024806D01*
X019102Y024830D01*
X019066Y024856D01*
X019033Y024886D01*
X019003Y024918D01*
X018976Y024953D01*
X018952Y024990D01*
X018931Y025029D01*
X018914Y025070D01*
X018901Y025112D01*
X018891Y025155D01*
X018885Y025199D01*
X018883Y025243D01*
X016683Y023913D02*
X016683Y023413D01*
X016433Y023163D01*
X016683Y022913D01*
X016683Y022413D01*
X016433Y022163D01*
X016683Y021913D01*
X016683Y021413D01*
X016433Y021163D01*
X016683Y020913D01*
X016683Y020413D01*
X016433Y020163D01*
X016683Y019913D01*
X016683Y019413D01*
X016433Y019163D01*
X016683Y018913D01*
X016683Y018413D01*
X016433Y018163D01*
X015933Y018163D01*
X015683Y018413D01*
X015683Y018913D01*
X015933Y019163D01*
X015683Y019413D01*
X015683Y019913D01*
X015933Y020163D01*
X015683Y020413D01*
X015683Y020913D01*
X015933Y021163D01*
X015683Y021413D01*
X015683Y021913D01*
X015933Y022163D01*
X015683Y022413D01*
X015683Y022913D01*
X015933Y023163D01*
X015683Y023413D01*
X015683Y023913D01*
X015933Y024163D01*
X016433Y024163D01*
X016683Y023913D01*
X024133Y025213D02*
X026033Y025213D01*
X025783Y025513D02*
X025933Y025663D01*
X025783Y025813D01*
X025933Y025663D02*
X025583Y025663D01*
X026033Y026113D02*
X024133Y026113D01*
X024212Y021635D02*
X024212Y021517D01*
X024212Y021635D02*
X024330Y021635D01*
X027637Y021635D02*
X027755Y021517D01*
X030763Y020583D02*
X030763Y020083D01*
X031013Y019833D01*
X030763Y019583D01*
X030763Y019083D01*
X031013Y018833D01*
X030763Y018583D01*
X030763Y018083D01*
X031013Y017833D01*
X030763Y017583D01*
X030763Y017083D01*
X031013Y016833D01*
X031513Y016833D01*
X031763Y017083D01*
X031763Y017583D01*
X031513Y017833D01*
X031763Y018083D01*
X031763Y018583D01*
X031513Y018833D01*
X031763Y019083D01*
X031763Y019583D01*
X031513Y019833D01*
X031763Y020083D01*
X031763Y020583D01*
X031513Y020833D01*
X031013Y020833D01*
X030763Y020583D01*
X027755Y018210D02*
X027755Y018092D01*
X027637Y018092D01*
X029409Y016121D02*
X029409Y015885D01*
X030157Y015373D02*
X030630Y015373D01*
X031378Y015885D02*
X031378Y016121D01*
X030630Y016633D02*
X030157Y016633D01*
X024330Y018092D02*
X024212Y018092D01*
X024212Y018210D01*
X016683Y017313D02*
X016683Y016813D01*
X016433Y016563D01*
X016683Y016313D01*
X016683Y015813D01*
X016433Y015563D01*
X015933Y015563D01*
X015683Y015813D01*
X015683Y016313D01*
X015933Y016563D01*
X015683Y016813D01*
X015683Y017313D01*
X015933Y017563D01*
X016433Y017563D01*
X016683Y017313D01*
D13*
X016630Y014949D02*
X015252Y014949D01*
X015252Y013178D01*
X016630Y013178D01*
X016630Y014949D01*
X019106Y020863D02*
X019263Y021021D01*
X016630Y024878D02*
X015252Y024878D01*
X015252Y026649D01*
X016630Y026649D01*
X016630Y024878D01*
X025737Y024557D02*
X026229Y024557D01*
X025914Y024463D02*
X025916Y024471D01*
X025921Y024477D01*
X025928Y024481D01*
X025936Y024481D01*
X025943Y024477D01*
X025948Y024471D01*
X025950Y024463D01*
X025948Y024455D01*
X025943Y024449D01*
X025936Y024445D01*
X025928Y024445D01*
X025921Y024449D01*
X025916Y024455D01*
X025914Y024463D01*
X025737Y023770D02*
X026229Y023770D01*
X030737Y024878D02*
X030737Y026649D01*
X032115Y026649D01*
X032115Y024878D01*
X030737Y024878D01*
X030737Y014949D02*
X032115Y014949D01*
X032115Y013178D01*
X030737Y013178D01*
X030737Y014949D01*
D14*
X028520Y014274D03*
X028047Y014274D03*
X027520Y014284D03*
X027047Y014284D03*
X026530Y014274D03*
X026057Y014274D03*
D15*
X026293Y014274D03*
X027283Y014284D03*
X028283Y014274D03*
D16*
X025103Y014653D02*
X025103Y014983D01*
X025103Y015223D01*
X025103Y015563D01*
X021163Y015563D02*
X021163Y014653D01*
X020343Y014744D02*
X020306Y014744D01*
X020343Y014744D02*
X020343Y015382D01*
X020306Y015382D01*
X019989Y015382D02*
X019578Y015382D01*
X019260Y015382D02*
X019223Y015382D01*
X019223Y014744D01*
X019260Y014744D01*
X019578Y014744D02*
X019615Y014744D01*
X019952Y014744D02*
X019989Y014744D01*
X019681Y018017D02*
X019445Y018017D01*
X019445Y018490D02*
X019681Y018490D01*
X021005Y018510D02*
X021241Y018510D01*
X021241Y018037D02*
X021005Y018037D01*
X017881Y019037D02*
X017645Y019037D01*
X017645Y019510D02*
X017881Y019510D01*
X021905Y021057D02*
X022141Y021057D01*
X022141Y021530D02*
X021905Y021530D01*
X021905Y021777D02*
X022141Y021777D01*
X022141Y022250D02*
X021905Y022250D01*
D17*
X025147Y016268D02*
X025460Y015955D01*
X025304Y015955D02*
X025304Y016268D01*
X025460Y016268D02*
X025147Y015955D01*
X025147Y016112D02*
X025460Y016112D01*
M02*
