G75*
%MOIN*%
%OFA0B0*%
%FSLAX24Y24*%
%IPPOS*%
%LPD*%
%AMOC8*
5,1,8,0,0,1.08239X$1,22.5*
%
%ADD10R,0.0740X0.0740*%
%ADD11OC8,0.0740*%
%ADD12C,0.0740*%
%ADD13C,0.0397*%
%ADD14C,0.0100*%
%ADD15C,0.0320*%
%ADD16C,0.0160*%
D10*
X031263Y017333D03*
X031283Y021583D03*
D11*
X030283Y021583D03*
X030283Y022583D03*
X030283Y023583D03*
X031283Y023583D03*
X031283Y022583D03*
D12*
X031263Y020333D03*
X031263Y019333D03*
X031263Y018333D03*
X016183Y018663D03*
X016183Y019663D03*
X016183Y020663D03*
X016183Y021663D03*
X016183Y022663D03*
X016183Y023663D03*
X016183Y017063D03*
X016183Y016063D03*
D13*
X015783Y014309D03*
X015783Y013817D03*
X031583Y013817D03*
X031583Y014309D03*
X031583Y025517D03*
X031583Y026009D03*
X015783Y026009D03*
X015783Y025517D03*
D14*
X016183Y023663D02*
X016263Y023583D01*
X017443Y023583D01*
X016183Y022663D02*
X017383Y021463D01*
X017383Y018863D01*
X018283Y017963D01*
X019783Y017963D01*
X021623Y015993D01*
X026683Y015993D01*
X026683Y017563D01*
X027283Y017563D01*
X027383Y017463D01*
X027383Y017123D01*
X026983Y017263D02*
X026983Y015783D01*
X021533Y015783D01*
X019683Y017763D01*
X018183Y017763D01*
X017183Y018763D01*
X017183Y020663D01*
X016183Y021663D01*
X018653Y020983D02*
X018653Y019293D01*
X018923Y019023D01*
X021663Y019023D01*
X022203Y019563D01*
X022773Y019563D01*
X023102Y019173D02*
X022767Y018838D01*
X022767Y017584D01*
X022756Y017572D01*
X023383Y016944D01*
X023383Y016863D01*
X024103Y017243D02*
X024743Y016603D01*
X026003Y016603D01*
X026003Y018413D01*
X026603Y019013D01*
X028123Y019013D01*
X028193Y018943D01*
X028193Y019033D01*
X028703Y019543D01*
X029583Y019543D01*
X029603Y019563D01*
X031033Y019563D01*
X031263Y019333D01*
X029603Y019563D02*
X029603Y020143D01*
X029453Y020293D01*
X029383Y020663D02*
X029483Y020763D01*
X029383Y020663D02*
X026983Y020663D01*
X025083Y018763D01*
X025083Y017263D01*
X025483Y017363D02*
X025583Y017263D01*
X025483Y017363D02*
X025483Y018663D01*
X027083Y020263D01*
X028883Y020263D01*
X029183Y019963D01*
X028873Y018963D02*
X028823Y018913D01*
X028823Y018303D01*
X028283Y018263D02*
X028963Y017653D01*
X030953Y017653D01*
X031263Y017333D01*
X030343Y017323D02*
X028953Y017323D01*
X028413Y017863D01*
X026483Y017863D01*
X026483Y016203D01*
X024503Y016203D01*
X023183Y017523D01*
X023183Y018663D01*
X023102Y019173D02*
X024013Y019173D01*
X024103Y019083D01*
X024103Y017243D01*
X024583Y017263D02*
X024583Y018663D01*
X026883Y020963D01*
X028683Y020963D01*
X029083Y021363D01*
X029103Y021433D01*
X029113Y021443D01*
X029113Y021923D01*
X029273Y022083D01*
X030963Y022083D01*
X031283Y022403D01*
X031283Y022583D01*
X031283Y023583D02*
X031303Y023603D01*
X031303Y023833D01*
X030873Y024263D01*
X029263Y024263D01*
X027463Y022463D01*
X025283Y022463D01*
X021623Y022463D01*
X021183Y022903D01*
X020253Y022903D01*
X019683Y023473D01*
X019683Y023863D01*
X019263Y022163D02*
X019243Y022143D01*
X019243Y021483D01*
X019323Y021403D01*
X021133Y021403D01*
X022403Y020133D01*
X022743Y020133D01*
X023583Y018063D02*
X023583Y017463D01*
X024663Y016383D01*
X026253Y016383D01*
X026253Y018263D01*
X028283Y018263D01*
X028353Y017263D02*
X027783Y017263D01*
X028193Y016953D02*
X028193Y016653D01*
X028203Y016943D02*
X028203Y015383D01*
X027883Y015063D01*
X025783Y015063D01*
X025783Y015324D01*
X025701Y015406D01*
X025683Y014863D02*
X025883Y014663D01*
X028383Y014663D01*
X028953Y015233D01*
X028953Y016663D01*
X028353Y017263D01*
X028193Y016953D02*
X028203Y016943D01*
X025683Y014863D02*
X025383Y014863D01*
X025649Y014309D02*
X025703Y014263D01*
X025293Y014063D02*
X024383Y014063D01*
X023183Y015263D01*
X022483Y015263D01*
X022383Y015163D01*
X021483Y015163D01*
X020183Y016063D02*
X019083Y016063D01*
X018683Y016463D01*
X016713Y016443D01*
X016183Y017063D02*
X018683Y017063D01*
X019153Y016593D01*
X019993Y016593D01*
X019383Y017063D02*
X018883Y017563D01*
X016783Y017563D01*
X016713Y015563D02*
X018783Y015563D01*
D15*
X018783Y015563D03*
X020183Y016063D03*
X019993Y016593D03*
X019383Y017063D03*
X018683Y017063D03*
X016783Y017563D03*
X016713Y016443D03*
X016713Y015563D03*
X020783Y013863D03*
X021483Y015163D03*
X022983Y014863D03*
X024383Y014963D03*
X025383Y014863D03*
X025701Y015406D03*
X025703Y014263D03*
X025293Y014063D03*
X029023Y013863D03*
X029033Y014733D03*
X028193Y016953D03*
X027783Y017263D03*
X027383Y017123D03*
X026983Y017263D03*
X025583Y017263D03*
X025083Y017263D03*
X024583Y017263D03*
X023383Y016863D03*
X022756Y017572D03*
X023583Y018063D03*
X023183Y018663D03*
X022773Y019563D03*
X022743Y020133D03*
X025283Y022463D03*
X029103Y021433D03*
X029483Y020763D03*
X029453Y020293D03*
X029183Y019963D03*
X028873Y018963D03*
X028193Y018943D03*
X028823Y018303D03*
X030343Y017323D03*
X019683Y023863D03*
X017443Y023583D03*
X019263Y022163D03*
X018653Y020983D03*
D16*
X016165Y012893D02*
X014893Y012893D01*
X014893Y014011D01*
X015051Y014269D01*
X015093Y014310D01*
X015093Y014337D01*
X015107Y014359D01*
X015093Y014417D01*
X015093Y025450D01*
X015107Y025507D01*
X015093Y025530D01*
X015093Y025556D01*
X015051Y025598D01*
X014893Y025856D01*
X014893Y026993D01*
X016153Y026993D01*
X016193Y026927D01*
X016193Y026880D01*
X016310Y026763D01*
X016476Y026763D01*
X016482Y026769D01*
X021493Y026769D01*
X021493Y024610D01*
X021610Y024493D01*
X028376Y024493D01*
X028493Y024610D01*
X028493Y026769D01*
X030944Y026769D01*
X030960Y026760D01*
X031000Y026769D01*
X031076Y026769D01*
X031100Y026793D01*
X031121Y026798D01*
X031145Y026838D01*
X031193Y026886D01*
X031193Y026917D01*
X031240Y026993D01*
X032493Y026993D01*
X032493Y025846D01*
X032335Y025588D01*
X032293Y025546D01*
X032293Y025520D01*
X032280Y025497D01*
X032293Y025440D01*
X032293Y014469D01*
X032270Y014369D01*
X032293Y014331D01*
X032293Y014310D01*
X032325Y014279D01*
X032493Y014004D01*
X032493Y012893D01*
X031218Y012893D01*
X031193Y012933D01*
X031193Y012976D01*
X031126Y013044D01*
X031111Y013068D01*
X031098Y013071D01*
X031076Y013093D01*
X031007Y013093D01*
X030950Y013107D01*
X030927Y013093D01*
X016433Y013093D01*
X016427Y013097D01*
X016411Y013093D01*
X016310Y013093D01*
X016279Y013061D01*
X016266Y013058D01*
X016251Y013034D01*
X016193Y012976D01*
X016193Y012940D01*
X016165Y012893D01*
X014893Y012893D01*
X014893Y013052D02*
X016262Y013052D01*
X016009Y013480D02*
X016113Y013583D01*
X020554Y013583D01*
X020579Y013558D01*
X020712Y013503D01*
X020855Y013503D01*
X020987Y013558D01*
X021089Y013659D01*
X021143Y013792D01*
X021143Y013935D01*
X021089Y014067D01*
X020987Y014169D01*
X020855Y014223D01*
X020712Y014223D01*
X020579Y014169D01*
X020554Y014143D01*
X016146Y014143D01*
X016182Y014230D01*
X016182Y014389D01*
X016121Y014535D01*
X016009Y014647D01*
X015863Y014708D01*
X015704Y014708D01*
X015558Y014647D01*
X015446Y014535D01*
X015385Y014389D01*
X015385Y014230D01*
X015446Y014084D01*
X015466Y014063D01*
X015446Y014043D01*
X015385Y013897D01*
X015385Y013738D01*
X015446Y013592D01*
X015558Y013480D01*
X015704Y013419D01*
X015863Y013419D01*
X016009Y013480D01*
X016057Y013527D02*
X020654Y013527D01*
X020913Y013527D02*
X023923Y013527D01*
X023765Y013686D02*
X021099Y013686D01*
X021143Y013844D02*
X023606Y013844D01*
X023448Y014003D02*
X021115Y014003D01*
X020994Y014161D02*
X023289Y014161D01*
X023131Y014320D02*
X016182Y014320D01*
X016153Y014161D02*
X020572Y014161D01*
X020783Y013863D02*
X015829Y013863D01*
X015783Y013817D01*
X015510Y013527D02*
X014893Y013527D01*
X014893Y013369D02*
X024082Y013369D01*
X024145Y013306D02*
X024248Y013263D01*
X028739Y013263D01*
X028842Y013306D01*
X028921Y013385D01*
X029039Y013503D01*
X029095Y013503D01*
X029227Y013558D01*
X029329Y013659D01*
X029383Y013792D01*
X029383Y013935D01*
X029344Y014029D01*
X031240Y014029D01*
X031185Y013897D01*
X031185Y013738D01*
X031246Y013592D01*
X031358Y013480D01*
X031504Y013419D01*
X031663Y013419D01*
X031809Y013480D01*
X031921Y013592D01*
X031982Y013738D01*
X031982Y013897D01*
X031921Y014043D01*
X031901Y014063D01*
X031921Y014084D01*
X031982Y014230D01*
X031982Y014389D01*
X031921Y014535D01*
X031809Y014647D01*
X031750Y014672D01*
X031832Y014706D01*
X031911Y014785D01*
X032121Y014995D01*
X032163Y015098D01*
X032163Y024539D01*
X032121Y024642D01*
X031644Y025119D01*
X031663Y025119D01*
X031809Y025180D01*
X031921Y025292D01*
X031982Y025438D01*
X031982Y025597D01*
X031921Y025743D01*
X031901Y025763D01*
X031921Y025784D01*
X031982Y025930D01*
X031982Y026089D01*
X031921Y026235D01*
X031809Y026347D01*
X031663Y026408D01*
X031504Y026408D01*
X031358Y026347D01*
X031300Y026289D01*
X031274Y026289D01*
X031171Y026247D01*
X031092Y026168D01*
X030905Y025981D01*
X030905Y025981D01*
X030826Y025902D01*
X030783Y025799D01*
X030783Y025248D01*
X030826Y025145D01*
X030905Y025066D01*
X031603Y024367D01*
X031603Y024069D01*
X031519Y024153D01*
X031337Y024153D01*
X031015Y024475D01*
X030923Y024513D01*
X029214Y024513D01*
X029122Y024475D01*
X029051Y024405D01*
X027360Y022713D01*
X025542Y022713D01*
X025487Y022769D01*
X025355Y022823D01*
X025212Y022823D01*
X025079Y022769D01*
X025024Y022713D01*
X021727Y022713D01*
X021395Y023045D01*
X021325Y023115D01*
X021233Y023153D01*
X020357Y023153D01*
X019933Y023577D01*
X019933Y023604D01*
X019989Y023659D01*
X020043Y023792D01*
X020043Y023935D01*
X019989Y024067D01*
X019887Y024169D01*
X019755Y024223D01*
X019612Y024223D01*
X019479Y024169D01*
X019378Y024067D01*
X019323Y023935D01*
X019323Y023792D01*
X019378Y023659D01*
X019433Y023604D01*
X019433Y023424D01*
X019471Y023332D01*
X020041Y022762D01*
X020112Y022691D01*
X020204Y022653D01*
X021080Y022653D01*
X021411Y022322D01*
X021482Y022251D01*
X021574Y022213D01*
X025024Y022213D01*
X025079Y022158D01*
X025212Y022103D01*
X025355Y022103D01*
X025487Y022158D01*
X025542Y022213D01*
X027513Y022213D01*
X027605Y022251D01*
X029367Y024013D01*
X029936Y024013D01*
X029733Y023811D01*
X029733Y023603D01*
X030263Y023603D01*
X030263Y023563D01*
X029733Y023563D01*
X029733Y023356D01*
X029991Y023097D01*
X029713Y022819D01*
X029713Y022347D01*
X029727Y022333D01*
X029224Y022333D01*
X029132Y022295D01*
X028972Y022135D01*
X028901Y022065D01*
X028863Y021973D01*
X028863Y021702D01*
X028798Y021637D01*
X028743Y021505D01*
X028743Y021377D01*
X028580Y021213D01*
X026834Y021213D01*
X026742Y021175D01*
X024442Y018875D01*
X024371Y018805D01*
X024353Y018761D01*
X024353Y019133D01*
X024315Y019225D01*
X024245Y019295D01*
X024155Y019385D01*
X024063Y019423D01*
X023105Y019423D01*
X023133Y019492D01*
X023133Y019635D01*
X023079Y019767D01*
X022982Y019863D01*
X023049Y019929D01*
X023103Y020062D01*
X023103Y020205D01*
X023049Y020337D01*
X022947Y020439D01*
X022815Y020493D01*
X022672Y020493D01*
X022539Y020439D01*
X022496Y020395D01*
X021275Y021615D01*
X021183Y021653D01*
X019493Y021653D01*
X019493Y021884D01*
X019569Y021959D01*
X019623Y022092D01*
X019623Y022235D01*
X019569Y022367D01*
X019467Y022469D01*
X019335Y022523D01*
X019192Y022523D01*
X019059Y022469D01*
X018958Y022367D01*
X018903Y022235D01*
X018903Y022092D01*
X018958Y021959D01*
X018993Y021924D01*
X018993Y021434D01*
X019031Y021342D01*
X019111Y021262D01*
X019182Y021191D01*
X019274Y021153D01*
X021030Y021153D01*
X022191Y019992D01*
X022262Y019921D01*
X022354Y019883D01*
X022484Y019883D01*
X022534Y019833D01*
X022514Y019813D01*
X022154Y019813D01*
X022062Y019775D01*
X021991Y019705D01*
X021560Y019273D01*
X019027Y019273D01*
X018903Y019397D01*
X018903Y020724D01*
X018959Y020779D01*
X019013Y020912D01*
X019013Y021055D01*
X018959Y021187D01*
X018857Y021289D01*
X018725Y021343D01*
X018582Y021343D01*
X018449Y021289D01*
X018348Y021187D01*
X018293Y021055D01*
X018293Y020912D01*
X018348Y020779D01*
X018403Y020724D01*
X018403Y019244D01*
X018441Y019152D01*
X018711Y018882D01*
X018782Y018811D01*
X018874Y018773D01*
X021713Y018773D01*
X021805Y018811D01*
X022307Y019313D01*
X022514Y019313D01*
X022569Y019258D01*
X022702Y019203D01*
X022779Y019203D01*
X022626Y019050D01*
X022555Y018980D01*
X022517Y018888D01*
X022517Y017843D01*
X022451Y017776D01*
X022396Y017644D01*
X022396Y017500D01*
X022451Y017368D01*
X022552Y017267D01*
X022684Y017212D01*
X022762Y017212D01*
X023028Y016946D01*
X023023Y016935D01*
X023023Y016792D01*
X023078Y016659D01*
X023179Y016558D01*
X023312Y016503D01*
X023455Y016503D01*
X023587Y016558D01*
X023689Y016659D01*
X023690Y016663D01*
X024110Y016243D01*
X021732Y016243D01*
X019997Y018101D01*
X019995Y018105D01*
X019963Y018137D01*
X019932Y018170D01*
X019928Y018172D01*
X019925Y018175D01*
X019883Y018193D01*
X019842Y018211D01*
X019837Y018212D01*
X019833Y018213D01*
X019788Y018213D01*
X019742Y018215D01*
X019738Y018213D01*
X018387Y018213D01*
X017633Y018967D01*
X017633Y021513D01*
X017595Y021605D01*
X016723Y022477D01*
X016753Y022550D01*
X016753Y022777D01*
X016667Y022986D01*
X016506Y023147D01*
X016466Y023163D01*
X016506Y023180D01*
X016659Y023333D01*
X017184Y023333D01*
X017239Y023278D01*
X017372Y023223D01*
X017515Y023223D01*
X017647Y023278D01*
X017749Y023379D01*
X017803Y023512D01*
X017803Y023655D01*
X017749Y023787D01*
X017647Y023889D01*
X017515Y023943D01*
X017372Y023943D01*
X017239Y023889D01*
X017184Y023833D01*
X016730Y023833D01*
X016667Y023986D01*
X016506Y024147D01*
X016297Y024233D01*
X016070Y024233D01*
X015863Y024148D01*
X015863Y025119D01*
X016009Y025180D01*
X016121Y025292D01*
X016182Y025438D01*
X016182Y025597D01*
X016121Y025743D01*
X016101Y025763D01*
X016121Y025784D01*
X016182Y025930D01*
X016182Y026089D01*
X016121Y026235D01*
X016009Y026347D01*
X015863Y026408D01*
X015704Y026408D01*
X015558Y026347D01*
X015446Y026235D01*
X015385Y026089D01*
X015385Y025930D01*
X015446Y025784D01*
X015466Y025763D01*
X015446Y025743D01*
X015385Y025597D01*
X015385Y025515D01*
X015346Y025476D01*
X015303Y025373D01*
X015303Y015508D01*
X015346Y015405D01*
X015425Y015326D01*
X016125Y014626D01*
X016228Y014583D01*
X018939Y014583D01*
X019042Y014626D01*
X019121Y014705D01*
X019699Y015283D01*
X023667Y015283D01*
X024023Y014927D01*
X024023Y014892D01*
X024078Y014759D01*
X024179Y014658D01*
X024312Y014603D01*
X024455Y014603D01*
X024587Y014658D01*
X024689Y014759D01*
X024743Y014892D01*
X024743Y015035D01*
X024689Y015167D01*
X024587Y015269D01*
X024455Y015323D01*
X024419Y015323D01*
X024209Y015533D01*
X025365Y015533D01*
X025341Y015477D01*
X025341Y015334D01*
X025387Y015223D01*
X025312Y015223D01*
X025179Y015169D01*
X025078Y015067D01*
X025023Y014935D01*
X025023Y014792D01*
X025078Y014659D01*
X025179Y014558D01*
X025312Y014503D01*
X025434Y014503D01*
X025398Y014467D01*
X025343Y014335D01*
X025343Y014192D01*
X025398Y014059D01*
X025499Y013958D01*
X025632Y013903D01*
X025775Y013903D01*
X025907Y013958D01*
X025979Y014029D01*
X028702Y014029D01*
X028663Y013935D01*
X028663Y013919D01*
X028567Y013823D01*
X024419Y013823D01*
X023343Y014899D01*
X023343Y014935D01*
X023289Y015067D01*
X023187Y015169D01*
X023055Y015223D01*
X022912Y015223D01*
X022779Y015169D01*
X022678Y015067D01*
X022623Y014935D01*
X022623Y014792D01*
X022678Y014659D01*
X022779Y014558D01*
X022912Y014503D01*
X022947Y014503D01*
X024145Y013306D01*
X024303Y013543D02*
X022983Y014863D01*
X022723Y015112D02*
X019528Y015112D01*
X019370Y014954D02*
X022631Y014954D01*
X022623Y014795D02*
X019211Y014795D01*
X019121Y014705D02*
X019121Y014705D01*
X019053Y014637D02*
X022701Y014637D01*
X022972Y014478D02*
X016145Y014478D01*
X016114Y014637D02*
X016019Y014637D01*
X015955Y014795D02*
X015093Y014795D01*
X015093Y014637D02*
X015547Y014637D01*
X015422Y014478D02*
X015093Y014478D01*
X015093Y014320D02*
X015385Y014320D01*
X015413Y014161D02*
X014986Y014161D01*
X014893Y014003D02*
X015429Y014003D01*
X015385Y013844D02*
X014893Y013844D01*
X014893Y013686D02*
X015407Y013686D01*
X014893Y013210D02*
X032493Y013210D01*
X032493Y013052D02*
X031121Y013052D01*
X031218Y012893D02*
X032493Y012893D01*
X032493Y013369D02*
X028905Y013369D01*
X028683Y013543D02*
X024303Y013543D01*
X024398Y013844D02*
X028588Y013844D01*
X028691Y014003D02*
X025952Y014003D01*
X025649Y014309D02*
X031583Y014309D01*
X031953Y014161D02*
X032397Y014161D01*
X032493Y014003D02*
X031938Y014003D01*
X031982Y013844D02*
X032493Y013844D01*
X032493Y013686D02*
X031960Y013686D01*
X031857Y013527D02*
X032493Y013527D01*
X032293Y014320D02*
X031982Y014320D01*
X031945Y014478D02*
X032293Y014478D01*
X032293Y014637D02*
X031819Y014637D01*
X031921Y014795D02*
X032293Y014795D01*
X032293Y014954D02*
X032080Y014954D01*
X032163Y015112D02*
X032293Y015112D01*
X032293Y015271D02*
X032163Y015271D01*
X032163Y015429D02*
X032293Y015429D01*
X032293Y015588D02*
X032163Y015588D01*
X032163Y015746D02*
X032293Y015746D01*
X032293Y015905D02*
X032163Y015905D01*
X032163Y016063D02*
X032293Y016063D01*
X032293Y016222D02*
X032163Y016222D01*
X032163Y016380D02*
X032293Y016380D01*
X032293Y016539D02*
X032163Y016539D01*
X032163Y016697D02*
X032293Y016697D01*
X032293Y016856D02*
X032163Y016856D01*
X032163Y017014D02*
X032293Y017014D01*
X032293Y017173D02*
X032163Y017173D01*
X032163Y017331D02*
X032293Y017331D01*
X032293Y017490D02*
X032163Y017490D01*
X032163Y017648D02*
X032293Y017648D01*
X032293Y017807D02*
X032163Y017807D01*
X032163Y017965D02*
X032293Y017965D01*
X032293Y018124D02*
X032163Y018124D01*
X032163Y018282D02*
X032293Y018282D01*
X032293Y018441D02*
X032163Y018441D01*
X032163Y018599D02*
X032293Y018599D01*
X032293Y018758D02*
X032163Y018758D01*
X032163Y018916D02*
X032293Y018916D01*
X032293Y019075D02*
X032163Y019075D01*
X032163Y019233D02*
X032293Y019233D01*
X032293Y019392D02*
X032163Y019392D01*
X032163Y019550D02*
X032293Y019550D01*
X032293Y019709D02*
X032163Y019709D01*
X032163Y019867D02*
X032293Y019867D01*
X032293Y020026D02*
X032163Y020026D01*
X032163Y020184D02*
X032293Y020184D01*
X032293Y020343D02*
X032163Y020343D01*
X032163Y020501D02*
X032293Y020501D01*
X032293Y020660D02*
X032163Y020660D01*
X032163Y020818D02*
X032293Y020818D01*
X032293Y020977D02*
X032163Y020977D01*
X032163Y021135D02*
X032293Y021135D01*
X032293Y021294D02*
X032163Y021294D01*
X032163Y021452D02*
X032293Y021452D01*
X032293Y021611D02*
X032163Y021611D01*
X032163Y021769D02*
X032293Y021769D01*
X032293Y021928D02*
X032163Y021928D01*
X032163Y022086D02*
X032293Y022086D01*
X032293Y022245D02*
X032163Y022245D01*
X032163Y022403D02*
X032293Y022403D01*
X032293Y022562D02*
X032163Y022562D01*
X032163Y022720D02*
X032293Y022720D01*
X032293Y022879D02*
X032163Y022879D01*
X032163Y023037D02*
X032293Y023037D01*
X032293Y023196D02*
X032163Y023196D01*
X032163Y023354D02*
X032293Y023354D01*
X032293Y023513D02*
X032163Y023513D01*
X032163Y023671D02*
X032293Y023671D01*
X032293Y023830D02*
X032163Y023830D01*
X032163Y023988D02*
X032293Y023988D01*
X032293Y024147D02*
X032163Y024147D01*
X032163Y024305D02*
X032293Y024305D01*
X032293Y024464D02*
X032163Y024464D01*
X032129Y024622D02*
X032293Y024622D01*
X032293Y024781D02*
X031982Y024781D01*
X031823Y024939D02*
X032293Y024939D01*
X032293Y025098D02*
X031665Y025098D01*
X031886Y025256D02*
X032293Y025256D01*
X032293Y025415D02*
X031972Y025415D01*
X031982Y025573D02*
X032321Y025573D01*
X032423Y025732D02*
X031926Y025732D01*
X031965Y025890D02*
X032493Y025890D01*
X032493Y026049D02*
X031982Y026049D01*
X031933Y026207D02*
X032493Y026207D01*
X032493Y026366D02*
X031764Y026366D01*
X031403Y026366D02*
X028493Y026366D01*
X028493Y026524D02*
X032493Y026524D01*
X032493Y026683D02*
X028493Y026683D01*
X028493Y026207D02*
X031131Y026207D01*
X031092Y026168D02*
X031092Y026168D01*
X030973Y026049D02*
X028493Y026049D01*
X028493Y025890D02*
X030821Y025890D01*
X030783Y025732D02*
X028493Y025732D01*
X028493Y025573D02*
X030783Y025573D01*
X030783Y025415D02*
X028493Y025415D01*
X028493Y025256D02*
X030783Y025256D01*
X030873Y025098D02*
X028493Y025098D01*
X028493Y024939D02*
X031031Y024939D01*
X031190Y024781D02*
X028493Y024781D01*
X028493Y024622D02*
X031348Y024622D01*
X031507Y024464D02*
X031026Y024464D01*
X031185Y024305D02*
X031603Y024305D01*
X031603Y024147D02*
X031526Y024147D01*
X031883Y024483D02*
X031063Y025303D01*
X031063Y025743D01*
X031329Y026009D01*
X031583Y026009D01*
X031148Y026841D02*
X032493Y026841D01*
X031883Y024483D02*
X031883Y015153D01*
X031673Y014943D01*
X029243Y014943D01*
X029033Y014733D01*
X029355Y014003D02*
X031229Y014003D01*
X031185Y013844D02*
X029383Y013844D01*
X029339Y013686D02*
X031207Y013686D01*
X031310Y013527D02*
X029153Y013527D01*
X029023Y013863D02*
X029003Y013863D01*
X028683Y013543D01*
X025455Y014003D02*
X024240Y014003D01*
X024081Y014161D02*
X025356Y014161D01*
X025343Y014320D02*
X023923Y014320D01*
X023764Y014478D02*
X025409Y014478D01*
X025101Y014637D02*
X024536Y014637D01*
X024703Y014795D02*
X025023Y014795D01*
X025031Y014954D02*
X024743Y014954D01*
X024711Y015112D02*
X025123Y015112D01*
X025368Y015271D02*
X024582Y015271D01*
X024313Y015429D02*
X025341Y015429D01*
X024383Y014963D02*
X023783Y015563D01*
X019583Y015563D01*
X018883Y014863D01*
X016283Y014863D01*
X015583Y015563D01*
X015583Y025317D01*
X015783Y025517D01*
X016086Y025256D02*
X021493Y025256D01*
X021493Y025098D02*
X015863Y025098D01*
X015863Y024939D02*
X021493Y024939D01*
X021493Y024781D02*
X015863Y024781D01*
X015863Y024622D02*
X021493Y024622D01*
X021493Y025415D02*
X016172Y025415D01*
X016182Y025573D02*
X021493Y025573D01*
X021493Y025732D02*
X016126Y025732D01*
X016165Y025890D02*
X021493Y025890D01*
X021493Y026049D02*
X016182Y026049D01*
X016133Y026207D02*
X021493Y026207D01*
X021493Y026366D02*
X015964Y026366D01*
X015603Y026366D02*
X014893Y026366D01*
X014893Y026524D02*
X021493Y026524D01*
X021493Y026683D02*
X014893Y026683D01*
X014893Y026841D02*
X016232Y026841D01*
X015434Y026207D02*
X014893Y026207D01*
X014893Y026049D02*
X015385Y026049D01*
X015401Y025890D02*
X014893Y025890D01*
X014969Y025732D02*
X015441Y025732D01*
X015385Y025573D02*
X015076Y025573D01*
X015093Y025415D02*
X015321Y025415D01*
X015303Y025256D02*
X015093Y025256D01*
X015093Y025098D02*
X015303Y025098D01*
X015303Y024939D02*
X015093Y024939D01*
X015093Y024781D02*
X015303Y024781D01*
X015303Y024622D02*
X015093Y024622D01*
X015093Y024464D02*
X015303Y024464D01*
X015303Y024305D02*
X015093Y024305D01*
X015093Y024147D02*
X015303Y024147D01*
X015303Y023988D02*
X015093Y023988D01*
X015093Y023830D02*
X015303Y023830D01*
X015303Y023671D02*
X015093Y023671D01*
X015093Y023513D02*
X015303Y023513D01*
X015303Y023354D02*
X015093Y023354D01*
X015093Y023196D02*
X015303Y023196D01*
X015303Y023037D02*
X015093Y023037D01*
X015093Y022879D02*
X015303Y022879D01*
X015303Y022720D02*
X015093Y022720D01*
X015093Y022562D02*
X015303Y022562D01*
X015303Y022403D02*
X015093Y022403D01*
X015093Y022245D02*
X015303Y022245D01*
X015303Y022086D02*
X015093Y022086D01*
X015093Y021928D02*
X015303Y021928D01*
X015303Y021769D02*
X015093Y021769D01*
X015093Y021611D02*
X015303Y021611D01*
X015303Y021452D02*
X015093Y021452D01*
X015093Y021294D02*
X015303Y021294D01*
X015303Y021135D02*
X015093Y021135D01*
X015093Y020977D02*
X015303Y020977D01*
X015303Y020818D02*
X015093Y020818D01*
X015093Y020660D02*
X015303Y020660D01*
X015303Y020501D02*
X015093Y020501D01*
X015093Y020343D02*
X015303Y020343D01*
X015303Y020184D02*
X015093Y020184D01*
X015093Y020026D02*
X015303Y020026D01*
X015303Y019867D02*
X015093Y019867D01*
X015093Y019709D02*
X015303Y019709D01*
X015303Y019550D02*
X015093Y019550D01*
X015093Y019392D02*
X015303Y019392D01*
X015303Y019233D02*
X015093Y019233D01*
X015093Y019075D02*
X015303Y019075D01*
X015303Y018916D02*
X015093Y018916D01*
X015093Y018758D02*
X015303Y018758D01*
X015303Y018599D02*
X015093Y018599D01*
X015093Y018441D02*
X015303Y018441D01*
X015303Y018282D02*
X015093Y018282D01*
X015093Y018124D02*
X015303Y018124D01*
X015303Y017965D02*
X015093Y017965D01*
X015093Y017807D02*
X015303Y017807D01*
X015303Y017648D02*
X015093Y017648D01*
X015093Y017490D02*
X015303Y017490D01*
X015303Y017331D02*
X015093Y017331D01*
X015093Y017173D02*
X015303Y017173D01*
X015303Y017014D02*
X015093Y017014D01*
X015093Y016856D02*
X015303Y016856D01*
X015303Y016697D02*
X015093Y016697D01*
X015093Y016539D02*
X015303Y016539D01*
X015303Y016380D02*
X015093Y016380D01*
X015093Y016222D02*
X015303Y016222D01*
X015303Y016063D02*
X015093Y016063D01*
X015093Y015905D02*
X015303Y015905D01*
X015303Y015746D02*
X015093Y015746D01*
X015093Y015588D02*
X015303Y015588D01*
X015336Y015429D02*
X015093Y015429D01*
X015093Y015271D02*
X015480Y015271D01*
X015638Y015112D02*
X015093Y015112D01*
X015093Y014954D02*
X015797Y014954D01*
X016668Y016803D02*
X016693Y016852D01*
X016720Y016935D01*
X016733Y017020D01*
X016733Y017043D01*
X016203Y017043D01*
X016203Y017083D01*
X016163Y017083D01*
X016163Y017613D01*
X016140Y017613D01*
X016055Y017600D01*
X015972Y017573D01*
X015895Y017534D01*
X015863Y017511D01*
X015863Y018216D01*
X015895Y018193D01*
X015972Y018154D01*
X016055Y018127D01*
X016140Y018113D01*
X016163Y018113D01*
X016163Y018643D01*
X016203Y018643D01*
X016203Y018113D01*
X016227Y018113D01*
X016312Y018127D01*
X016394Y018154D01*
X016472Y018193D01*
X016542Y018244D01*
X016603Y018305D01*
X016654Y018375D01*
X016693Y018452D01*
X016720Y018535D01*
X016733Y018620D01*
X016733Y018643D01*
X016203Y018643D01*
X016203Y018683D01*
X016733Y018683D01*
X016733Y018707D01*
X016720Y018792D01*
X016693Y018874D01*
X016654Y018952D01*
X016603Y019022D01*
X016542Y019083D01*
X016472Y019134D01*
X016437Y019151D01*
X016506Y019180D01*
X016667Y019340D01*
X016753Y019550D01*
X016753Y019777D01*
X016667Y019986D01*
X016506Y020147D01*
X016466Y020163D01*
X016506Y020180D01*
X016667Y020340D01*
X016753Y020550D01*
X016753Y020740D01*
X016933Y020560D01*
X016933Y018714D01*
X016971Y018622D01*
X017042Y018551D01*
X017780Y017813D01*
X017042Y017813D01*
X016987Y017869D01*
X016855Y017923D01*
X016712Y017923D01*
X016579Y017869D01*
X016478Y017767D01*
X016423Y017635D01*
X016423Y017558D01*
X016394Y017573D01*
X016312Y017600D01*
X016227Y017613D01*
X016203Y017613D01*
X016203Y017083D01*
X016733Y017083D01*
X016733Y017107D01*
X016720Y017192D01*
X016716Y017203D01*
X016855Y017203D01*
X016987Y017258D01*
X017042Y017313D01*
X018780Y017313D01*
X019023Y017070D01*
X019023Y016992D01*
X019078Y016859D01*
X019179Y016758D01*
X019312Y016703D01*
X019455Y016703D01*
X019587Y016758D01*
X019689Y016859D01*
X019743Y016992D01*
X019743Y017135D01*
X019689Y017267D01*
X019587Y017369D01*
X019455Y017423D01*
X019377Y017423D01*
X019287Y017513D01*
X019575Y017513D01*
X021135Y015843D01*
X020472Y015843D01*
X020489Y015859D01*
X020543Y015992D01*
X020543Y016135D01*
X020489Y016267D01*
X020387Y016369D01*
X020255Y016423D01*
X020112Y016423D01*
X019979Y016369D01*
X019924Y016313D01*
X019187Y016313D01*
X018894Y016606D01*
X018894Y016607D01*
X018859Y016641D01*
X018825Y016675D01*
X018824Y016676D01*
X018823Y016677D01*
X018778Y016695D01*
X018733Y016713D01*
X018732Y016713D01*
X018731Y016714D01*
X018682Y016713D01*
X018634Y016713D01*
X018632Y016713D01*
X016970Y016696D01*
X016917Y016749D01*
X016785Y016803D01*
X016668Y016803D01*
X016694Y016856D02*
X019082Y016856D01*
X019023Y017014D02*
X016732Y017014D01*
X016723Y017173D02*
X018920Y017173D01*
X018772Y016697D02*
X020337Y016697D01*
X020485Y016539D02*
X018961Y016539D01*
X019120Y016380D02*
X020008Y016380D01*
X020359Y016380D02*
X020633Y016380D01*
X020507Y016222D02*
X020781Y016222D01*
X020930Y016063D02*
X020543Y016063D01*
X020507Y015905D02*
X021078Y015905D01*
X021604Y016380D02*
X023973Y016380D01*
X023814Y016539D02*
X023541Y016539D01*
X023226Y016539D02*
X021456Y016539D01*
X021308Y016697D02*
X023062Y016697D01*
X023023Y016856D02*
X021160Y016856D01*
X021012Y017014D02*
X022960Y017014D01*
X022801Y017173D02*
X020864Y017173D01*
X020716Y017331D02*
X022487Y017331D01*
X022400Y017490D02*
X020568Y017490D01*
X020420Y017648D02*
X022398Y017648D01*
X022482Y017807D02*
X020272Y017807D01*
X020124Y017965D02*
X022517Y017965D01*
X022517Y018124D02*
X019976Y018124D01*
X019597Y017490D02*
X019310Y017490D01*
X019624Y017331D02*
X019745Y017331D01*
X019728Y017173D02*
X019893Y017173D01*
X020041Y017014D02*
X019743Y017014D01*
X019685Y016856D02*
X020189Y016856D01*
X019687Y015271D02*
X023680Y015271D01*
X023838Y015112D02*
X023243Y015112D01*
X023336Y014954D02*
X023997Y014954D01*
X024063Y014795D02*
X023447Y014795D01*
X023606Y014637D02*
X024231Y014637D01*
X022517Y018282D02*
X018318Y018282D01*
X018159Y018441D02*
X022517Y018441D01*
X022517Y018599D02*
X018001Y018599D01*
X017842Y018758D02*
X022517Y018758D01*
X022529Y018916D02*
X021910Y018916D01*
X022068Y019075D02*
X022650Y019075D01*
X022629Y019233D02*
X022227Y019233D01*
X021837Y019550D02*
X020663Y019550D01*
X020683Y019570D02*
X020566Y019453D01*
X019190Y019453D01*
X019073Y019570D01*
X019073Y020896D01*
X019190Y021013D01*
X020566Y021013D01*
X020683Y020896D01*
X020683Y019570D01*
X020683Y019709D02*
X021995Y019709D01*
X022157Y020026D02*
X020683Y020026D01*
X020683Y020184D02*
X021999Y020184D01*
X021840Y020343D02*
X020683Y020343D01*
X020683Y020501D02*
X021682Y020501D01*
X021523Y020660D02*
X020683Y020660D01*
X020683Y020818D02*
X021365Y020818D01*
X021206Y020977D02*
X020603Y020977D01*
X021048Y021135D02*
X018980Y021135D01*
X019013Y020977D02*
X019154Y020977D01*
X019073Y020818D02*
X018975Y020818D01*
X018903Y020660D02*
X019073Y020660D01*
X019073Y020501D02*
X018903Y020501D01*
X018903Y020343D02*
X019073Y020343D01*
X019073Y020184D02*
X018903Y020184D01*
X018903Y020026D02*
X019073Y020026D01*
X019073Y019867D02*
X018903Y019867D01*
X018903Y019709D02*
X019073Y019709D01*
X019093Y019550D02*
X018903Y019550D01*
X018908Y019392D02*
X021678Y019392D01*
X022500Y019867D02*
X020683Y019867D01*
X021913Y020977D02*
X026543Y020977D01*
X026385Y020818D02*
X022072Y020818D01*
X022230Y020660D02*
X026226Y020660D01*
X026068Y020501D02*
X022389Y020501D01*
X023043Y020343D02*
X025909Y020343D01*
X025751Y020184D02*
X023103Y020184D01*
X023088Y020026D02*
X025592Y020026D01*
X025434Y019867D02*
X022986Y019867D01*
X023103Y019709D02*
X025275Y019709D01*
X025117Y019550D02*
X023133Y019550D01*
X024139Y019392D02*
X024958Y019392D01*
X024800Y019233D02*
X024307Y019233D01*
X024353Y019075D02*
X024641Y019075D01*
X024483Y018916D02*
X024353Y018916D01*
X026702Y021135D02*
X021755Y021135D01*
X021596Y021294D02*
X028660Y021294D01*
X028743Y021452D02*
X021438Y021452D01*
X021279Y021611D02*
X028787Y021611D01*
X028863Y021769D02*
X019493Y021769D01*
X019537Y021928D02*
X028863Y021928D01*
X028923Y022086D02*
X019621Y022086D01*
X019619Y022245D02*
X021498Y022245D01*
X021411Y022322D02*
X021411Y022322D01*
X021330Y022403D02*
X019532Y022403D01*
X018994Y022403D02*
X016797Y022403D01*
X016753Y022562D02*
X021171Y022562D01*
X021561Y022879D02*
X027525Y022879D01*
X027367Y022720D02*
X025535Y022720D01*
X025031Y022720D02*
X021720Y022720D01*
X021403Y023037D02*
X027684Y023037D01*
X027842Y023196D02*
X020314Y023196D01*
X020156Y023354D02*
X028001Y023354D01*
X028159Y023513D02*
X019997Y023513D01*
X019993Y023671D02*
X028318Y023671D01*
X028476Y023830D02*
X020043Y023830D01*
X020021Y023988D02*
X028635Y023988D01*
X028793Y024147D02*
X019909Y024147D01*
X019458Y024147D02*
X016505Y024147D01*
X016664Y023988D02*
X019345Y023988D01*
X019323Y023830D02*
X017706Y023830D01*
X017797Y023671D02*
X019373Y023671D01*
X019433Y023513D02*
X017803Y023513D01*
X017723Y023354D02*
X019462Y023354D01*
X019607Y023196D02*
X016522Y023196D01*
X016615Y023037D02*
X019766Y023037D01*
X019924Y022879D02*
X016711Y022879D01*
X016753Y022720D02*
X020083Y022720D01*
X018907Y022245D02*
X016955Y022245D01*
X017114Y022086D02*
X018906Y022086D01*
X018990Y021928D02*
X017272Y021928D01*
X017431Y021769D02*
X018993Y021769D01*
X018993Y021611D02*
X017589Y021611D01*
X017633Y021452D02*
X018993Y021452D01*
X019079Y021294D02*
X018844Y021294D01*
X019111Y021262D02*
X019111Y021262D01*
X018462Y021294D02*
X017633Y021294D01*
X017633Y021135D02*
X018327Y021135D01*
X018293Y020977D02*
X017633Y020977D01*
X017633Y020818D02*
X018332Y020818D01*
X018403Y020660D02*
X017633Y020660D01*
X017633Y020501D02*
X018403Y020501D01*
X018403Y020343D02*
X017633Y020343D01*
X017633Y020184D02*
X018403Y020184D01*
X018403Y020026D02*
X017633Y020026D01*
X017633Y019867D02*
X018403Y019867D01*
X018403Y019709D02*
X017633Y019709D01*
X017633Y019550D02*
X018403Y019550D01*
X018403Y019392D02*
X017633Y019392D01*
X017633Y019233D02*
X018408Y019233D01*
X018518Y019075D02*
X017633Y019075D01*
X017684Y018916D02*
X018677Y018916D01*
X017628Y017965D02*
X015863Y017965D01*
X015863Y017807D02*
X016518Y017807D01*
X016429Y017648D02*
X015863Y017648D01*
X016163Y017490D02*
X016203Y017490D01*
X016203Y017331D02*
X016163Y017331D01*
X016163Y017173D02*
X016203Y017173D01*
X016968Y016697D02*
X017107Y016697D01*
X017469Y018124D02*
X016293Y018124D01*
X016203Y018124D02*
X016163Y018124D01*
X016074Y018124D02*
X015863Y018124D01*
X016163Y018282D02*
X016203Y018282D01*
X016203Y018441D02*
X016163Y018441D01*
X016163Y018599D02*
X016203Y018599D01*
X016580Y018282D02*
X017311Y018282D01*
X017152Y018441D02*
X016687Y018441D01*
X016730Y018599D02*
X016994Y018599D01*
X016933Y018758D02*
X016725Y018758D01*
X016672Y018916D02*
X016933Y018916D01*
X016933Y019075D02*
X016550Y019075D01*
X016559Y019233D02*
X016933Y019233D01*
X016933Y019392D02*
X016688Y019392D01*
X016753Y019550D02*
X016933Y019550D01*
X016933Y019709D02*
X016753Y019709D01*
X016716Y019867D02*
X016933Y019867D01*
X016933Y020026D02*
X016627Y020026D01*
X016510Y020184D02*
X016933Y020184D01*
X016933Y020343D02*
X016668Y020343D01*
X016733Y020501D02*
X016933Y020501D01*
X016833Y020660D02*
X016753Y020660D01*
X021395Y023045D02*
X021395Y023045D01*
X015863Y024305D02*
X028952Y024305D01*
X029110Y024464D02*
X015863Y024464D01*
X027589Y022245D02*
X029081Y022245D01*
X029377Y021833D02*
X029727Y021833D01*
X029713Y021819D01*
X029713Y021347D01*
X030047Y021013D01*
X030519Y021013D01*
X030713Y021207D01*
X030713Y021130D01*
X030830Y021013D01*
X031603Y021013D01*
X031603Y020766D01*
X031552Y020804D01*
X031474Y020843D01*
X031392Y020870D01*
X031307Y020883D01*
X031283Y020883D01*
X031283Y020353D01*
X031243Y020353D01*
X031243Y020313D01*
X030713Y020313D01*
X030713Y020290D01*
X030727Y020205D01*
X030754Y020122D01*
X030793Y020045D01*
X030844Y019975D01*
X030905Y019914D01*
X030975Y019863D01*
X031010Y019845D01*
X030940Y019817D01*
X030937Y019813D01*
X029853Y019813D01*
X029853Y020193D01*
X029815Y020285D01*
X029813Y020287D01*
X029813Y020365D01*
X029759Y020497D01*
X029742Y020513D01*
X029789Y020559D01*
X029843Y020692D01*
X029843Y020835D01*
X029789Y020967D01*
X029687Y021069D01*
X029555Y021123D01*
X029412Y021123D01*
X029279Y021069D01*
X029178Y020967D01*
X029156Y020913D01*
X028987Y020913D01*
X029147Y021073D01*
X029175Y021073D01*
X029307Y021128D01*
X029409Y021229D01*
X029463Y021362D01*
X029463Y021505D01*
X029409Y021637D01*
X029363Y021682D01*
X029363Y021820D01*
X029377Y021833D01*
X029363Y021769D02*
X029713Y021769D01*
X029713Y021611D02*
X029419Y021611D01*
X029463Y021452D02*
X029713Y021452D01*
X029767Y021294D02*
X029435Y021294D01*
X029314Y021135D02*
X029925Y021135D01*
X029779Y020977D02*
X031603Y020977D01*
X031603Y020818D02*
X031523Y020818D01*
X031283Y020818D02*
X031243Y020818D01*
X031243Y020883D02*
X031220Y020883D01*
X031135Y020870D01*
X031052Y020843D01*
X030975Y020804D01*
X030905Y020753D01*
X030844Y020692D01*
X030793Y020622D01*
X030754Y020544D01*
X030727Y020462D01*
X030713Y020377D01*
X030713Y020353D01*
X031243Y020353D01*
X031243Y020883D01*
X031243Y020660D02*
X031283Y020660D01*
X031283Y020501D02*
X031243Y020501D01*
X031243Y020343D02*
X029813Y020343D01*
X029853Y020184D02*
X030733Y020184D01*
X030807Y020026D02*
X029853Y020026D01*
X029853Y019867D02*
X030969Y019867D01*
X030740Y020501D02*
X029754Y020501D01*
X029830Y020660D02*
X030821Y020660D01*
X031004Y020818D02*
X029843Y020818D01*
X029188Y020977D02*
X029050Y020977D01*
X029713Y022403D02*
X027757Y022403D01*
X027915Y022562D02*
X029713Y022562D01*
X029713Y022720D02*
X028074Y022720D01*
X028232Y022879D02*
X029773Y022879D01*
X029931Y023037D02*
X028391Y023037D01*
X028549Y023196D02*
X029893Y023196D01*
X029734Y023354D02*
X028708Y023354D01*
X028866Y023513D02*
X029733Y023513D01*
X029733Y023671D02*
X029025Y023671D01*
X029183Y023830D02*
X029752Y023830D01*
X029911Y023988D02*
X029342Y023988D01*
X030641Y021135D02*
X030713Y021135D01*
M02*
