G75*
%MOIN*%
%OFA0B0*%
%FSLAX24Y24*%
%IPPOS*%
%LPD*%
%AMOC8*
5,1,8,0,0,1.08239X$1,22.5*
%
%ADD10C,0.0867*%
%ADD11R,0.0480X0.1080*%
%ADD12R,0.0395X0.0218*%
%ADD13R,0.0671X0.0592*%
%ADD14R,0.0592X0.0671*%
%ADD15R,0.0552X0.0552*%
%ADD16R,0.0820X0.0820*%
%ADD17OC8,0.0820*%
%ADD18C,0.0820*%
%ADD19C,0.0477*%
%ADD20R,0.0680X0.0380*%
%ADD21R,0.0297X0.0552*%
%ADD22R,0.0395X0.0190*%
%ADD23R,0.0190X0.0395*%
%ADD24R,0.3092X0.3092*%
%ADD25R,0.0320X0.0890*%
%ADD26R,0.0828X0.0513*%
%ADD27R,0.0194X0.0356*%
%ADD28R,0.0356X0.0194*%
%ADD29R,0.0395X0.0552*%
%ADD30C,0.0400*%
D10*
X013303Y009663D03*
X034073Y009673D03*
X034043Y030203D03*
X013313Y030193D03*
D11*
X023783Y025663D03*
X026383Y025663D03*
D12*
X026298Y024419D03*
X026298Y024163D03*
X026298Y023907D03*
X025668Y023907D03*
X025668Y024163D03*
X025668Y024419D03*
D13*
X024463Y023638D03*
X024463Y022969D03*
X023263Y023229D03*
X023263Y023898D03*
X022283Y023898D03*
X022283Y023229D03*
X021283Y023229D03*
X021283Y023898D03*
X020383Y023658D03*
X020383Y022989D03*
X017193Y025299D03*
X017193Y025968D03*
X027483Y023598D03*
X027483Y022929D03*
X028983Y023129D03*
X028983Y023798D03*
X030163Y025369D03*
X030163Y026038D03*
X028283Y016128D03*
X028283Y015459D03*
X027283Y015459D03*
X027283Y016128D03*
X026283Y016108D03*
X026283Y015439D03*
X030153Y014518D03*
X030153Y013849D03*
X017203Y013819D03*
X017203Y014488D03*
D14*
X017419Y015533D03*
X018088Y015533D03*
X018088Y016363D03*
X017419Y016363D03*
X017399Y017253D03*
X018068Y017253D03*
X018078Y018213D03*
X017409Y018213D03*
X017339Y021473D03*
X018087Y021473D03*
X018049Y023563D03*
X018718Y023563D03*
X029509Y018883D03*
X030178Y018883D03*
X030168Y017973D03*
X029499Y017973D03*
D15*
X028283Y014747D03*
X028283Y013920D03*
X027283Y013930D03*
X027283Y014757D03*
X026293Y014747D03*
X026293Y013920D03*
D16*
X031263Y017333D03*
X031283Y021583D03*
D17*
X030283Y021583D03*
X030283Y022583D03*
X030283Y023583D03*
X031283Y023583D03*
X031283Y022583D03*
D18*
X031263Y020333D03*
X031263Y019333D03*
X031263Y018333D03*
X016183Y018663D03*
X016183Y019663D03*
X016183Y020663D03*
X016183Y021663D03*
X016183Y022663D03*
X016183Y023663D03*
X016183Y017063D03*
X016183Y016063D03*
D19*
X015783Y014309D03*
X015783Y013817D03*
X031583Y013817D03*
X031583Y014309D03*
X031583Y025517D03*
X031583Y026009D03*
X015783Y026009D03*
X015783Y025517D03*
D20*
X018383Y025993D03*
X018383Y024493D03*
X020383Y024493D03*
X020383Y025993D03*
D21*
X020157Y015575D03*
X019409Y015575D03*
X019409Y014552D03*
X019783Y014552D03*
X020157Y014552D03*
D22*
X024212Y018387D03*
X024212Y018584D03*
X024212Y018781D03*
X024212Y018978D03*
X024212Y019174D03*
X024212Y019371D03*
X024212Y019568D03*
X024212Y019765D03*
X024212Y019962D03*
X024212Y020159D03*
X024212Y020355D03*
X024212Y020552D03*
X024212Y020749D03*
X024212Y020946D03*
X024212Y021143D03*
X024212Y021340D03*
X027755Y021340D03*
X027755Y021143D03*
X027755Y020946D03*
X027755Y020749D03*
X027755Y020552D03*
X027755Y020355D03*
X027755Y020159D03*
X027755Y019962D03*
X027755Y019765D03*
X027755Y019568D03*
X027755Y019371D03*
X027755Y019174D03*
X027755Y018978D03*
X027755Y018781D03*
X027755Y018584D03*
X027755Y018387D03*
D23*
X027460Y018092D03*
X027263Y018092D03*
X027066Y018092D03*
X026869Y018092D03*
X026672Y018092D03*
X026475Y018092D03*
X026279Y018092D03*
X026082Y018092D03*
X025885Y018092D03*
X025688Y018092D03*
X025491Y018092D03*
X025294Y018092D03*
X025098Y018092D03*
X024901Y018092D03*
X024704Y018092D03*
X024507Y018092D03*
X024507Y021635D03*
X024704Y021635D03*
X024901Y021635D03*
X025098Y021635D03*
X025294Y021635D03*
X025491Y021635D03*
X025688Y021635D03*
X025885Y021635D03*
X026082Y021635D03*
X026279Y021635D03*
X026475Y021635D03*
X026672Y021635D03*
X026869Y021635D03*
X027066Y021635D03*
X027263Y021635D03*
X027460Y021635D03*
D24*
X025983Y019863D03*
D25*
X024883Y016053D03*
X024383Y016053D03*
X023883Y016053D03*
X023383Y016053D03*
X022883Y016053D03*
X022383Y016053D03*
X021883Y016053D03*
X021383Y016053D03*
X021383Y014163D03*
X021883Y014163D03*
X022383Y014163D03*
X022883Y014163D03*
X023383Y014163D03*
X023883Y014163D03*
X024383Y014163D03*
X024883Y014163D03*
D26*
X029665Y015551D03*
X029665Y016456D03*
X031122Y016456D03*
X031122Y015551D03*
D27*
X020385Y019495D03*
X020189Y019495D03*
X019992Y019495D03*
X019795Y019495D03*
X019598Y019495D03*
X019401Y019495D03*
X019401Y020972D03*
X019598Y020972D03*
X019795Y020972D03*
X019992Y020972D03*
X020189Y020972D03*
X020385Y020972D03*
D28*
X020632Y020725D03*
X020632Y020529D03*
X020632Y020332D03*
X020632Y020135D03*
X020632Y019938D03*
X020632Y019741D03*
X019155Y019741D03*
X019155Y019938D03*
X019155Y020135D03*
X019155Y020332D03*
X019155Y020529D03*
X019155Y020725D03*
D29*
X018118Y019273D03*
X017409Y019273D03*
X019209Y018253D03*
X019918Y018253D03*
X020769Y018273D03*
X021478Y018273D03*
X021669Y021293D03*
X022378Y021293D03*
X022378Y022013D03*
X021669Y022013D03*
D30*
X022743Y020133D03*
X022773Y019563D03*
X023183Y018663D03*
X023583Y018063D03*
X022756Y017572D03*
X023383Y016863D03*
X024583Y017263D03*
X025083Y017263D03*
X025583Y017263D03*
X026983Y017263D03*
X027383Y017123D03*
X027783Y017263D03*
X028193Y016953D03*
X028823Y018303D03*
X028873Y018963D03*
X028193Y018943D03*
X029183Y019963D03*
X029453Y020293D03*
X029483Y020763D03*
X029103Y021433D03*
X025283Y022463D03*
X019683Y023863D03*
X017443Y023583D03*
X019263Y022163D03*
X018653Y020983D03*
X016783Y017563D03*
X016713Y016443D03*
X016713Y015563D03*
X018683Y017063D03*
X019383Y017063D03*
X019993Y016593D03*
X020183Y016063D03*
X018783Y015563D03*
X020783Y013863D03*
X021483Y015163D03*
X022983Y014863D03*
X024383Y014963D03*
X025383Y014863D03*
X025701Y015406D03*
X025703Y014263D03*
X025293Y014063D03*
X029023Y013863D03*
X029033Y014733D03*
X030343Y017323D03*
M02*
