G75*
%MOIN*%
%OFA0B0*%
%FSLAX24Y24*%
%IPPOS*%
%LPD*%
%AMOC8*
5,1,8,0,0,1.08239X$1,22.5*
%
%ADD10C,0.0030*%
%ADD11C,0.0000*%
%ADD12C,0.0080*%
%ADD13C,0.0050*%
%ADD14C,0.0060*%
%ADD15R,0.0059X0.0118*%
%ADD16R,0.0118X0.0118*%
%ADD17C,0.0160*%
%ADD18C,0.0040*%
D10*
X016693Y013148D02*
X016693Y013438D01*
X016742Y013293D02*
X016887Y013148D01*
X016988Y013196D02*
X017036Y013148D01*
X017133Y013148D01*
X017182Y013196D01*
X017182Y013244D01*
X017133Y013293D01*
X017085Y013293D01*
X017133Y013293D02*
X017182Y013341D01*
X017182Y013389D01*
X017133Y013438D01*
X017036Y013438D01*
X016988Y013389D01*
X016887Y013438D02*
X016693Y013244D01*
X018714Y014221D02*
X018762Y014173D01*
X018956Y014173D01*
X019004Y014221D01*
X019004Y014318D01*
X018956Y014366D01*
X019004Y014467D02*
X018810Y014661D01*
X018762Y014661D01*
X018714Y014612D01*
X018714Y014516D01*
X018762Y014467D01*
X018762Y014366D02*
X018714Y014318D01*
X018714Y014221D01*
X019004Y014467D02*
X019004Y014661D01*
X018956Y014762D02*
X019004Y014810D01*
X019004Y014907D01*
X018956Y014955D01*
X018907Y014955D01*
X018859Y014907D01*
X018859Y014859D01*
X018859Y014907D02*
X018810Y014955D01*
X018762Y014955D01*
X018714Y014907D01*
X018714Y014810D01*
X018762Y014762D01*
X018751Y015133D02*
X018944Y015133D01*
X018993Y015181D01*
X018993Y015278D01*
X018944Y015326D01*
X018993Y015427D02*
X018993Y015621D01*
X018993Y015524D02*
X018702Y015524D01*
X018799Y015427D01*
X018751Y015326D02*
X018702Y015278D01*
X018702Y015181D01*
X018751Y015133D01*
X018751Y015722D02*
X018702Y015770D01*
X018702Y015867D01*
X018751Y015915D01*
X018944Y015722D01*
X018993Y015770D01*
X018993Y015867D01*
X018944Y015915D01*
X018751Y015915D01*
X018733Y016042D02*
X018926Y016042D01*
X018975Y016090D01*
X018975Y016187D01*
X018926Y016236D01*
X018975Y016337D02*
X018975Y016530D01*
X018975Y016433D02*
X018684Y016433D01*
X018781Y016337D01*
X018733Y016236D02*
X018684Y016187D01*
X018684Y016090D01*
X018733Y016042D01*
X018751Y015722D02*
X018944Y015722D01*
X018975Y016631D02*
X018781Y016825D01*
X018733Y016825D01*
X018684Y016776D01*
X018684Y016680D01*
X018733Y016631D01*
X018975Y016631D02*
X018975Y016825D01*
X018926Y017203D02*
X018733Y017203D01*
X018684Y017251D01*
X018684Y017348D01*
X018733Y017396D01*
X018733Y017497D02*
X018684Y017546D01*
X018684Y017642D01*
X018733Y017691D01*
X018781Y017691D01*
X018829Y017642D01*
X018878Y017691D01*
X018926Y017691D01*
X018975Y017642D01*
X018975Y017546D01*
X018926Y017497D01*
X018926Y017396D02*
X018975Y017348D01*
X018975Y017251D01*
X018926Y017203D01*
X018829Y017594D02*
X018829Y017642D01*
X019734Y017143D02*
X019734Y016949D01*
X019783Y016901D01*
X019880Y016901D01*
X019928Y016949D01*
X020029Y016901D02*
X020223Y016901D01*
X020126Y016901D02*
X020126Y017191D01*
X020029Y017094D01*
X019928Y017143D02*
X019880Y017191D01*
X019783Y017191D01*
X019734Y017143D01*
X020324Y017046D02*
X020517Y017046D01*
X020469Y016901D02*
X020469Y017191D01*
X020324Y017046D01*
X022258Y017772D02*
X022307Y017723D01*
X022403Y017723D01*
X022452Y017772D01*
X022553Y017723D02*
X022746Y017723D01*
X022650Y017723D02*
X022650Y018014D01*
X022553Y017917D01*
X022452Y017965D02*
X022403Y018014D01*
X022307Y018014D01*
X022258Y017965D01*
X022258Y017772D01*
X022848Y017772D02*
X022896Y017723D01*
X022993Y017723D01*
X023041Y017772D01*
X023041Y017820D01*
X022993Y017868D01*
X022944Y017868D01*
X022993Y017868D02*
X023041Y017917D01*
X023041Y017965D01*
X022993Y018014D01*
X022896Y018014D01*
X022848Y017965D01*
X022856Y018755D02*
X022759Y018851D01*
X022807Y018851D02*
X022662Y018851D01*
X022662Y018755D02*
X022662Y019045D01*
X022807Y019045D01*
X022856Y018996D01*
X022856Y018900D01*
X022807Y018851D01*
X022957Y018803D02*
X022957Y018755D01*
X022957Y018803D02*
X023150Y018996D01*
X023150Y019045D01*
X022957Y019045D01*
X022874Y019416D02*
X022778Y019513D01*
X022826Y019513D02*
X022681Y019513D01*
X022681Y019416D02*
X022681Y019706D01*
X022826Y019706D01*
X022874Y019658D01*
X022874Y019561D01*
X022826Y019513D01*
X022975Y019561D02*
X023169Y019561D01*
X023121Y019706D02*
X022975Y019561D01*
X023121Y019416D02*
X023121Y019706D01*
X023121Y020436D02*
X023170Y020485D01*
X023170Y020678D01*
X023121Y020727D01*
X023024Y020727D01*
X022976Y020678D01*
X022976Y020630D01*
X023024Y020582D01*
X023170Y020582D01*
X023121Y020436D02*
X023024Y020436D01*
X022976Y020485D01*
X022875Y020436D02*
X022778Y020533D01*
X022827Y020533D02*
X022681Y020533D01*
X022681Y020436D02*
X022681Y020727D01*
X022827Y020727D01*
X022875Y020678D01*
X022875Y020582D01*
X022827Y020533D01*
X022896Y021175D02*
X022799Y021271D01*
X022847Y021271D02*
X022702Y021271D01*
X022702Y021175D02*
X022702Y021465D01*
X022847Y021465D01*
X022896Y021416D01*
X022896Y021320D01*
X022847Y021271D01*
X022997Y021271D02*
X023045Y021320D01*
X023142Y021320D01*
X023190Y021271D01*
X023190Y021223D01*
X023142Y021175D01*
X023045Y021175D01*
X022997Y021223D01*
X022997Y021271D01*
X023045Y021320D02*
X022997Y021368D01*
X022997Y021416D01*
X023045Y021465D01*
X023142Y021465D01*
X023190Y021416D01*
X023190Y021368D01*
X023142Y021320D01*
X023080Y022556D02*
X023128Y022604D01*
X023080Y022556D02*
X022983Y022556D01*
X022935Y022604D01*
X022935Y022798D01*
X022983Y022846D01*
X023080Y022846D01*
X023128Y022798D01*
X023229Y022749D02*
X023326Y022846D01*
X023326Y022556D01*
X023229Y022556D02*
X023423Y022556D01*
X023524Y022556D02*
X023718Y022556D01*
X023621Y022556D02*
X023621Y022846D01*
X023524Y022749D01*
X024246Y024156D02*
X024198Y024204D01*
X024198Y024398D01*
X024246Y024446D01*
X024343Y024446D01*
X024391Y024398D01*
X024492Y024349D02*
X024589Y024446D01*
X024589Y024156D01*
X024492Y024156D02*
X024686Y024156D01*
X024787Y024156D02*
X024787Y024204D01*
X024981Y024398D01*
X024981Y024446D01*
X024787Y024446D01*
X024391Y024204D02*
X024343Y024156D01*
X024246Y024156D01*
X025741Y023641D02*
X025741Y023351D01*
X025886Y023351D01*
X025934Y023399D01*
X025934Y023448D01*
X025886Y023496D01*
X025741Y023496D01*
X025886Y023496D02*
X025934Y023544D01*
X025934Y023593D01*
X025886Y023641D01*
X025741Y023641D01*
X026036Y023544D02*
X026132Y023641D01*
X026132Y023351D01*
X026036Y023351D02*
X026229Y023351D01*
X027049Y024168D02*
X027098Y024119D01*
X027194Y024119D01*
X027243Y024168D01*
X027344Y024119D02*
X027537Y024119D01*
X027441Y024119D02*
X027441Y024410D01*
X027344Y024313D01*
X027243Y024361D02*
X027194Y024410D01*
X027098Y024410D01*
X027049Y024361D01*
X027049Y024168D01*
X027639Y024168D02*
X027687Y024119D01*
X027784Y024119D01*
X027832Y024168D01*
X027832Y024216D01*
X027784Y024264D01*
X027639Y024264D01*
X027639Y024168D01*
X027639Y024264D02*
X027735Y024361D01*
X027832Y024410D01*
X028721Y024362D02*
X028769Y024314D01*
X028866Y024314D01*
X028914Y024362D01*
X029015Y024314D02*
X029209Y024314D01*
X029112Y024314D02*
X029112Y024604D01*
X029015Y024507D01*
X028914Y024556D02*
X028866Y024604D01*
X028769Y024604D01*
X028721Y024556D01*
X028721Y024362D01*
X027207Y025601D02*
X027013Y025601D01*
X027110Y025601D02*
X027110Y025891D01*
X027013Y025794D01*
X026912Y025794D02*
X026912Y025601D01*
X026912Y025746D02*
X026719Y025746D01*
X026719Y025794D02*
X026816Y025891D01*
X026912Y025794D01*
X026719Y025794D02*
X026719Y025601D01*
X026738Y026308D02*
X026641Y026405D01*
X026689Y026405D02*
X026544Y026405D01*
X026544Y026308D02*
X026544Y026599D01*
X026689Y026599D01*
X026738Y026550D01*
X026738Y026453D01*
X026689Y026405D01*
X026839Y026405D02*
X027032Y026405D01*
X027032Y026453D01*
X026984Y026502D01*
X026887Y026502D01*
X026839Y026453D01*
X026839Y026357D01*
X026887Y026308D01*
X026984Y026308D01*
X027133Y026502D02*
X027230Y026308D01*
X027327Y026502D01*
X027723Y026550D02*
X027723Y026357D01*
X027916Y026550D01*
X027916Y026357D01*
X027868Y026308D01*
X027771Y026308D01*
X027723Y026357D01*
X027723Y026550D02*
X027771Y026599D01*
X027868Y026599D01*
X027916Y026550D01*
X026148Y026453D02*
X026148Y026357D01*
X026100Y026308D01*
X025955Y026308D01*
X025955Y026212D02*
X025955Y026502D01*
X026100Y026502D01*
X026148Y026453D01*
X025854Y026453D02*
X025805Y026502D01*
X025709Y026502D01*
X025660Y026453D01*
X025660Y026357D01*
X025709Y026308D01*
X025805Y026308D01*
X025854Y026357D01*
X025854Y026453D01*
X025559Y026357D02*
X025511Y026308D01*
X025414Y026308D01*
X025366Y026357D01*
X025366Y026550D01*
X025414Y026599D01*
X025511Y026599D01*
X025559Y026550D01*
X025264Y026502D02*
X025119Y026502D01*
X025071Y026453D01*
X025071Y026357D01*
X025119Y026308D01*
X025264Y026308D01*
X025264Y026599D01*
X024970Y026453D02*
X024970Y026308D01*
X024825Y026308D01*
X024776Y026357D01*
X024825Y026405D01*
X024970Y026405D01*
X024970Y026453D02*
X024921Y026502D01*
X024825Y026502D01*
X024675Y026502D02*
X024675Y026308D01*
X024530Y026308D01*
X024482Y026357D01*
X024482Y026502D01*
X024380Y026550D02*
X024380Y026357D01*
X024332Y026308D01*
X024235Y026308D01*
X024187Y026357D01*
X024187Y026550D01*
X024235Y026599D01*
X024332Y026599D01*
X024380Y026550D01*
X024284Y026405D02*
X024380Y026308D01*
X024086Y026357D02*
X024086Y026550D01*
X024037Y026599D01*
X023892Y026599D01*
X023892Y026308D01*
X024037Y026308D01*
X024086Y026357D01*
X023791Y026357D02*
X023743Y026308D01*
X023646Y026308D01*
X023598Y026357D01*
X023496Y026357D02*
X023448Y026308D01*
X023351Y026308D01*
X023303Y026357D01*
X023303Y026550D01*
X023351Y026599D01*
X023448Y026599D01*
X023496Y026550D01*
X023598Y026550D02*
X023598Y026502D01*
X023646Y026453D01*
X023743Y026453D01*
X023791Y026405D01*
X023791Y026357D01*
X023791Y026550D02*
X023743Y026599D01*
X023646Y026599D01*
X023598Y026550D01*
X023202Y026599D02*
X023202Y026357D01*
X023153Y026308D01*
X023057Y026308D01*
X023008Y026357D01*
X023008Y026599D01*
X022444Y024682D02*
X022347Y024682D01*
X022299Y024634D01*
X022299Y024585D01*
X022347Y024537D01*
X022492Y024537D01*
X022492Y024634D02*
X022444Y024682D01*
X022492Y024634D02*
X022492Y024440D01*
X022444Y024392D01*
X022347Y024392D01*
X022299Y024440D01*
X022197Y024440D02*
X022149Y024392D01*
X022052Y024392D01*
X022004Y024440D01*
X022004Y024634D01*
X022052Y024682D01*
X022149Y024682D01*
X022197Y024634D01*
X021459Y024657D02*
X021410Y024706D01*
X021313Y024706D01*
X021265Y024657D01*
X021164Y024657D02*
X021115Y024706D01*
X021019Y024706D01*
X020970Y024657D01*
X020970Y024464D01*
X021019Y024415D01*
X021115Y024415D01*
X021164Y024464D01*
X021265Y024415D02*
X021459Y024609D01*
X021459Y024657D01*
X021459Y024415D02*
X021265Y024415D01*
X020677Y024411D02*
X020483Y024411D01*
X020580Y024411D02*
X020580Y024701D01*
X020483Y024604D01*
X020382Y024556D02*
X020334Y024508D01*
X020189Y024508D01*
X020286Y024508D02*
X020382Y024411D01*
X020382Y024556D02*
X020382Y024653D01*
X020334Y024701D01*
X020189Y024701D01*
X020189Y024411D01*
X020008Y025124D02*
X019814Y025124D01*
X019911Y025124D02*
X019911Y025415D01*
X019814Y025318D01*
X019713Y025366D02*
X019665Y025415D01*
X019568Y025415D01*
X019520Y025366D01*
X019520Y025318D01*
X019568Y025269D01*
X019665Y025269D01*
X019713Y025221D01*
X019713Y025173D01*
X019665Y025124D01*
X019568Y025124D01*
X019520Y025173D01*
X019537Y023316D02*
X019537Y023170D01*
X019634Y023219D01*
X019682Y023219D01*
X019731Y023170D01*
X019731Y023074D01*
X019682Y023025D01*
X019585Y023025D01*
X019537Y023074D01*
X019436Y023025D02*
X019242Y023025D01*
X019339Y023025D02*
X019339Y023316D01*
X019242Y023219D01*
X019141Y023267D02*
X019093Y023316D01*
X018996Y023316D01*
X018948Y023267D01*
X018948Y023074D01*
X018996Y023025D01*
X019093Y023025D01*
X019141Y023074D01*
X019537Y023316D02*
X019731Y023316D01*
X018694Y022692D02*
X018694Y022499D01*
X018500Y022692D01*
X018452Y022692D01*
X018404Y022644D01*
X018404Y022547D01*
X018452Y022499D01*
X018452Y022398D02*
X018404Y022349D01*
X018404Y022252D01*
X018452Y022204D01*
X018452Y022103D02*
X018404Y022055D01*
X018404Y021958D01*
X018452Y021909D01*
X018646Y021909D01*
X018694Y021958D01*
X018694Y022055D01*
X018646Y022103D01*
X018694Y022204D02*
X018500Y022398D01*
X018452Y022398D01*
X018694Y022398D02*
X018694Y022204D01*
X018614Y021217D02*
X018663Y021168D01*
X018663Y021072D01*
X018614Y021023D01*
X018421Y021217D01*
X018614Y021217D01*
X018421Y021217D02*
X018372Y021168D01*
X018372Y021072D01*
X018421Y021023D01*
X018614Y021023D01*
X018663Y020922D02*
X018663Y020729D01*
X018469Y020922D01*
X018421Y020922D01*
X018372Y020874D01*
X018372Y020777D01*
X018421Y020729D01*
X018421Y020627D02*
X018372Y020579D01*
X018372Y020482D01*
X018421Y020434D01*
X018614Y020434D01*
X018663Y020482D01*
X018663Y020579D01*
X018614Y020627D01*
X018625Y019747D02*
X018673Y019698D01*
X018673Y019602D01*
X018625Y019553D01*
X018577Y019553D01*
X018528Y019602D01*
X018528Y019698D01*
X018577Y019747D01*
X018625Y019747D01*
X018528Y019698D02*
X018480Y019747D01*
X018431Y019747D01*
X018383Y019698D01*
X018383Y019602D01*
X018431Y019553D01*
X018480Y019553D01*
X018528Y019602D01*
X018673Y019452D02*
X018673Y019259D01*
X018673Y019355D02*
X018383Y019355D01*
X018480Y019259D01*
X018431Y019157D02*
X018383Y019109D01*
X018383Y019012D01*
X018431Y018964D01*
X018625Y018964D01*
X018673Y019012D01*
X018673Y019109D01*
X018625Y019157D01*
X017203Y019802D02*
X017203Y019899D01*
X017155Y019947D01*
X017203Y020049D02*
X017203Y020242D01*
X017203Y020145D02*
X016913Y020145D01*
X017010Y020049D01*
X016961Y019947D02*
X016913Y019899D01*
X016913Y019802D01*
X016961Y019754D01*
X017155Y019754D01*
X017203Y019802D01*
X017155Y020343D02*
X017203Y020392D01*
X017203Y020488D01*
X017155Y020537D01*
X016961Y020537D01*
X016913Y020488D01*
X016913Y020392D01*
X016961Y020343D01*
X017010Y020343D01*
X017058Y020392D01*
X017058Y020537D01*
X017143Y021374D02*
X017191Y021422D01*
X017191Y021519D01*
X017143Y021567D01*
X017191Y021669D02*
X016998Y021862D01*
X016950Y021862D01*
X016901Y021814D01*
X016901Y021717D01*
X016950Y021669D01*
X016950Y021567D02*
X016901Y021519D01*
X016901Y021422D01*
X016950Y021374D01*
X017143Y021374D01*
X017191Y021669D02*
X017191Y021862D01*
X017191Y021963D02*
X017191Y022157D01*
X017191Y022060D02*
X016901Y022060D01*
X016998Y021963D01*
X015578Y021946D02*
X015530Y021898D01*
X015336Y022091D01*
X015530Y022091D01*
X015578Y022043D01*
X015578Y021946D01*
X015530Y021898D02*
X015336Y021898D01*
X015288Y021946D01*
X015288Y022043D01*
X015336Y022091D01*
X015288Y022308D02*
X015288Y022453D01*
X015336Y022502D01*
X015433Y022502D01*
X015482Y022453D01*
X015482Y022308D01*
X015578Y022308D02*
X015288Y022308D01*
X015482Y022405D02*
X015578Y022502D01*
X015578Y022603D02*
X015288Y022796D01*
X015336Y022898D02*
X015288Y022946D01*
X015288Y023043D01*
X015336Y023091D01*
X015530Y022898D01*
X015578Y022946D01*
X015578Y023043D01*
X015530Y023091D01*
X015336Y023091D01*
X015336Y022898D02*
X015530Y022898D01*
X015578Y022796D02*
X015288Y022603D01*
X015288Y023308D02*
X015288Y023453D01*
X015336Y023502D01*
X015530Y023502D01*
X015578Y023453D01*
X015578Y023308D01*
X015288Y023308D01*
X015288Y023603D02*
X015288Y023796D01*
X015288Y023700D02*
X015578Y023700D01*
X015578Y023898D02*
X015288Y023898D01*
X015288Y024043D01*
X015336Y024091D01*
X015433Y024091D01*
X015482Y024043D01*
X015482Y023898D01*
X015482Y023994D02*
X015578Y024091D01*
X015963Y024312D02*
X016011Y024264D01*
X016059Y024264D01*
X016108Y024312D01*
X016108Y024554D01*
X016156Y024554D02*
X016059Y024554D01*
X016257Y024554D02*
X016403Y024554D01*
X016451Y024506D01*
X016451Y024409D01*
X016403Y024361D01*
X016257Y024361D01*
X016257Y024264D02*
X016257Y024554D01*
X016552Y024506D02*
X016552Y024457D01*
X016600Y024409D01*
X016746Y024409D01*
X016746Y024506D02*
X016697Y024554D01*
X016600Y024554D01*
X016552Y024506D01*
X016746Y024506D02*
X016746Y024312D01*
X016697Y024264D01*
X016600Y024264D01*
X016552Y024312D01*
X016734Y026283D02*
X016734Y026574D01*
X016783Y026429D02*
X016928Y026283D01*
X017029Y026283D02*
X017223Y026477D01*
X017223Y026525D01*
X017174Y026574D01*
X017077Y026574D01*
X017029Y026525D01*
X016928Y026574D02*
X016734Y026380D01*
X017029Y026283D02*
X017223Y026283D01*
X015578Y021796D02*
X015288Y021603D01*
X015288Y021502D02*
X015288Y021308D01*
X015288Y021405D02*
X015578Y021405D01*
X015578Y021603D02*
X015288Y021796D01*
X015288Y021138D02*
X015482Y021138D01*
X015578Y021042D01*
X015482Y020945D01*
X015288Y020945D01*
X015336Y020844D02*
X015288Y020795D01*
X015288Y020699D01*
X015336Y020650D01*
X015433Y020747D02*
X015433Y020795D01*
X015482Y020844D01*
X015530Y020844D01*
X015578Y020795D01*
X015578Y020699D01*
X015530Y020650D01*
X015530Y020551D02*
X015578Y020551D01*
X015578Y020503D01*
X015530Y020503D01*
X015530Y020551D01*
X015530Y020402D02*
X015578Y020353D01*
X015578Y020257D01*
X015530Y020208D01*
X015433Y020305D02*
X015433Y020353D01*
X015482Y020402D01*
X015530Y020402D01*
X015433Y020353D02*
X015385Y020402D01*
X015336Y020402D01*
X015288Y020353D01*
X015288Y020257D01*
X015336Y020208D01*
X015336Y019891D02*
X015288Y019843D01*
X015288Y019698D01*
X015578Y019698D01*
X015578Y019843D01*
X015530Y019891D01*
X015336Y019891D01*
X015288Y019596D02*
X015578Y019596D01*
X015288Y019403D01*
X015578Y019403D01*
X015530Y019302D02*
X015433Y019302D01*
X015433Y019205D01*
X015336Y019108D02*
X015530Y019108D01*
X015578Y019157D01*
X015578Y019253D01*
X015530Y019302D01*
X015336Y019302D02*
X015288Y019253D01*
X015288Y019157D01*
X015336Y019108D01*
X015336Y018791D02*
X015288Y018743D01*
X015288Y018598D01*
X015578Y018598D01*
X015578Y018743D01*
X015530Y018791D01*
X015336Y018791D01*
X015288Y018496D02*
X015578Y018496D01*
X015288Y018303D01*
X015578Y018303D01*
X015530Y018202D02*
X015433Y018202D01*
X015433Y018105D01*
X015336Y018008D02*
X015530Y018008D01*
X015578Y018057D01*
X015578Y018153D01*
X015530Y018202D01*
X015336Y018202D02*
X015288Y018153D01*
X015288Y018057D01*
X015336Y018008D01*
X015853Y017706D02*
X015902Y017658D01*
X015950Y017658D01*
X015998Y017706D01*
X015998Y017948D01*
X015950Y017948D02*
X016047Y017948D01*
X016148Y017948D02*
X016293Y017948D01*
X016342Y017900D01*
X016342Y017803D01*
X016293Y017755D01*
X016148Y017755D01*
X016148Y017658D02*
X016148Y017948D01*
X016443Y017900D02*
X016491Y017948D01*
X016588Y017948D01*
X016636Y017900D01*
X016636Y017852D01*
X016588Y017803D01*
X016636Y017755D01*
X016636Y017706D01*
X016588Y017658D01*
X016491Y017658D01*
X016443Y017706D01*
X016539Y017803D02*
X016588Y017803D01*
X015578Y017443D02*
X015530Y017491D01*
X015336Y017491D01*
X015288Y017443D01*
X015288Y017298D01*
X015578Y017298D01*
X015578Y017443D01*
X015578Y017196D02*
X015288Y017196D01*
X015288Y017003D02*
X015578Y017196D01*
X015578Y017003D02*
X015288Y017003D01*
X015336Y016902D02*
X015288Y016853D01*
X015288Y016757D01*
X015336Y016708D01*
X015530Y016708D01*
X015578Y016757D01*
X015578Y016853D01*
X015530Y016902D01*
X015433Y016902D01*
X015433Y016805D01*
X015288Y016486D02*
X015288Y016292D01*
X015288Y016389D02*
X015578Y016389D01*
X015578Y016191D02*
X015385Y016191D01*
X015288Y016094D01*
X015385Y015998D01*
X015578Y015998D01*
X015530Y015896D02*
X015578Y015848D01*
X015578Y015703D01*
X015288Y015703D01*
X015288Y015848D01*
X015336Y015896D01*
X015385Y015896D01*
X015433Y015848D01*
X015433Y015703D01*
X015482Y015602D02*
X015288Y015602D01*
X015482Y015602D02*
X015578Y015505D01*
X015482Y015408D01*
X015288Y015408D01*
X015433Y015848D02*
X015482Y015896D01*
X015530Y015896D01*
X015433Y015998D02*
X015433Y016191D01*
X019463Y014146D02*
X019463Y013904D01*
X019511Y013855D01*
X019608Y013855D01*
X019656Y013904D01*
X019656Y014146D01*
X019757Y014097D02*
X019806Y014146D01*
X019903Y014146D01*
X019951Y014097D01*
X019951Y014049D01*
X019757Y013855D01*
X019951Y013855D01*
X021301Y013617D02*
X021301Y013375D01*
X021349Y013327D01*
X021446Y013327D01*
X021494Y013375D01*
X021494Y013617D01*
X021595Y013569D02*
X021644Y013617D01*
X021740Y013617D01*
X021789Y013569D01*
X021789Y013521D01*
X021740Y013472D01*
X021789Y013424D01*
X021789Y013375D01*
X021740Y013327D01*
X021644Y013327D01*
X021595Y013375D01*
X021692Y013472D02*
X021740Y013472D01*
X025147Y015955D02*
X025460Y016268D01*
X025304Y016268D02*
X025304Y015955D01*
X025460Y015955D02*
X025147Y016268D01*
X025147Y016112D02*
X025460Y016112D01*
X025944Y016625D02*
X025944Y016915D01*
X026089Y016915D01*
X026137Y016867D01*
X026137Y016770D01*
X026089Y016722D01*
X025944Y016722D01*
X026040Y016722D02*
X026137Y016625D01*
X026238Y016673D02*
X026287Y016625D01*
X026383Y016625D01*
X026432Y016673D01*
X026432Y016770D01*
X026383Y016818D01*
X026335Y016818D01*
X026238Y016770D01*
X026238Y016915D01*
X026432Y016915D01*
X027047Y016931D02*
X027047Y016641D01*
X027047Y016738D02*
X027192Y016738D01*
X027241Y016786D01*
X027241Y016883D01*
X027192Y016931D01*
X027047Y016931D01*
X027144Y016738D02*
X027241Y016641D01*
X027342Y016690D02*
X027390Y016641D01*
X027487Y016641D01*
X027535Y016690D01*
X027535Y016738D01*
X027487Y016786D01*
X027342Y016786D01*
X027342Y016690D01*
X027342Y016786D02*
X027439Y016883D01*
X027535Y016931D01*
X027942Y016937D02*
X027942Y016647D01*
X027942Y016744D02*
X028087Y016744D01*
X028136Y016792D01*
X028136Y016889D01*
X028087Y016937D01*
X027942Y016937D01*
X028039Y016744D02*
X028136Y016647D01*
X028237Y016647D02*
X028430Y016840D01*
X028430Y016889D01*
X028382Y016937D01*
X028285Y016937D01*
X028237Y016889D01*
X028237Y016647D02*
X028430Y016647D01*
X028994Y016390D02*
X028994Y016342D01*
X029091Y016245D01*
X029091Y016100D01*
X029091Y016245D02*
X029187Y016342D01*
X029187Y016390D01*
X029289Y016293D02*
X029385Y016390D01*
X029385Y016100D01*
X029289Y016100D02*
X029482Y016100D01*
X029505Y017549D02*
X029602Y017549D01*
X029650Y017597D01*
X029751Y017597D02*
X029799Y017549D01*
X029896Y017549D01*
X029945Y017597D01*
X029945Y017694D01*
X029896Y017742D01*
X029848Y017742D01*
X029751Y017694D01*
X029751Y017839D01*
X029945Y017839D01*
X029650Y017791D02*
X029602Y017839D01*
X029505Y017839D01*
X029456Y017791D01*
X029456Y017597D01*
X029505Y017549D01*
X029475Y018810D02*
X029572Y018810D01*
X029621Y018858D01*
X029722Y018858D02*
X029770Y018810D01*
X029867Y018810D01*
X029915Y018858D01*
X029915Y018906D01*
X029867Y018955D01*
X029722Y018955D01*
X029722Y018858D01*
X029722Y018955D02*
X029818Y019051D01*
X029915Y019100D01*
X030052Y019094D02*
X030100Y019046D01*
X030149Y019046D01*
X030197Y019094D01*
X030197Y019336D01*
X030149Y019336D02*
X030246Y019336D01*
X030347Y019336D02*
X030492Y019336D01*
X030540Y019288D01*
X030540Y019191D01*
X030492Y019142D01*
X030347Y019142D01*
X030347Y019046D02*
X030347Y019336D01*
X030641Y019239D02*
X030738Y019336D01*
X030738Y019046D01*
X030641Y019046D02*
X030835Y019046D01*
X031888Y018943D02*
X031888Y018798D01*
X032178Y018798D01*
X032178Y018943D01*
X032130Y018991D01*
X031936Y018991D01*
X031888Y018943D01*
X031888Y018696D02*
X032178Y018696D01*
X031888Y018503D01*
X032178Y018503D01*
X032130Y018402D02*
X032033Y018402D01*
X032033Y018305D01*
X031936Y018208D02*
X032130Y018208D01*
X032178Y018257D01*
X032178Y018353D01*
X032130Y018402D01*
X031936Y018402D02*
X031888Y018353D01*
X031888Y018257D01*
X031936Y018208D01*
X031888Y018038D02*
X032082Y018038D01*
X032178Y017942D01*
X032082Y017845D01*
X031888Y017845D01*
X031936Y017744D02*
X031985Y017744D01*
X032033Y017695D01*
X032082Y017744D01*
X032130Y017744D01*
X032178Y017695D01*
X032178Y017599D01*
X032130Y017550D01*
X032130Y017451D02*
X032178Y017451D01*
X032178Y017403D01*
X032130Y017403D01*
X032130Y017451D01*
X032130Y017302D02*
X032178Y017253D01*
X032178Y017157D01*
X032130Y017108D01*
X032178Y016991D02*
X032178Y016798D01*
X032178Y016894D02*
X031888Y016894D01*
X031985Y016798D01*
X031888Y016696D02*
X032178Y016503D01*
X032178Y016402D02*
X032082Y016305D01*
X032082Y016353D02*
X032082Y016208D01*
X032178Y016208D02*
X031888Y016208D01*
X031888Y016353D01*
X031936Y016402D01*
X032033Y016402D01*
X032082Y016353D01*
X031888Y016503D02*
X032178Y016696D01*
X031936Y017108D02*
X031888Y017157D01*
X031888Y017253D01*
X031936Y017302D01*
X031985Y017302D01*
X032033Y017253D01*
X032082Y017302D01*
X032130Y017302D01*
X032033Y017253D02*
X032033Y017205D01*
X031936Y017550D02*
X031888Y017599D01*
X031888Y017695D01*
X031936Y017744D01*
X032033Y017695D02*
X032033Y017647D01*
X032178Y015991D02*
X032178Y015798D01*
X032178Y015894D02*
X031888Y015894D01*
X031985Y015798D01*
X031888Y015696D02*
X032178Y015503D01*
X032178Y015696D02*
X031888Y015503D01*
X031888Y015402D02*
X031888Y015208D01*
X031888Y015305D02*
X032178Y015305D01*
X030585Y013449D02*
X030585Y013159D01*
X030489Y013159D02*
X030682Y013159D01*
X030489Y013353D02*
X030585Y013449D01*
X030387Y013449D02*
X030194Y013256D01*
X030242Y013304D02*
X030387Y013159D01*
X030194Y013159D02*
X030194Y013449D01*
X028792Y013476D02*
X028743Y013427D01*
X028598Y013427D01*
X028598Y013331D02*
X028598Y013621D01*
X028743Y013621D01*
X028792Y013572D01*
X028792Y013476D01*
X028695Y013427D02*
X028792Y013331D01*
X028497Y013331D02*
X028497Y013621D01*
X028304Y013621D02*
X028304Y013331D01*
X028400Y013427D01*
X028497Y013331D01*
X028202Y013476D02*
X028154Y013427D01*
X028009Y013427D01*
X028009Y013331D02*
X028009Y013621D01*
X028154Y013621D01*
X028202Y013572D01*
X028202Y013476D01*
X027658Y013614D02*
X027465Y013614D01*
X027561Y013614D02*
X027561Y013324D01*
X027363Y013373D02*
X027363Y013566D01*
X027315Y013614D01*
X027218Y013614D01*
X027170Y013566D01*
X027170Y013373D01*
X027218Y013324D01*
X027315Y013324D01*
X027363Y013373D01*
X027069Y013373D02*
X027069Y013421D01*
X027020Y013469D01*
X026875Y013469D01*
X026875Y013324D02*
X026875Y013614D01*
X027020Y013614D01*
X027069Y013566D01*
X027069Y013518D01*
X027020Y013469D01*
X027069Y013373D02*
X027020Y013324D01*
X026875Y013324D01*
X026384Y013328D02*
X026384Y013618D01*
X026287Y013521D01*
X026190Y013618D01*
X026190Y013328D01*
X026089Y013328D02*
X025992Y013425D01*
X026041Y013425D02*
X025896Y013425D01*
X025896Y013328D02*
X025896Y013618D01*
X026041Y013618D01*
X026089Y013570D01*
X026089Y013473D01*
X026041Y013425D01*
X025795Y013473D02*
X025601Y013473D01*
X025601Y013521D02*
X025698Y013618D01*
X025795Y013521D01*
X025795Y013328D01*
X025601Y013328D02*
X025601Y013521D01*
X029475Y018810D02*
X029427Y018858D01*
X029427Y019051D01*
X029475Y019100D01*
X029572Y019100D01*
X029621Y019051D01*
X031888Y019457D02*
X031936Y019408D01*
X032130Y019408D01*
X032178Y019457D01*
X032178Y019553D01*
X032130Y019602D01*
X032033Y019602D01*
X032033Y019505D01*
X031936Y019602D02*
X031888Y019553D01*
X031888Y019457D01*
X031888Y019703D02*
X032178Y019896D01*
X031888Y019896D01*
X031888Y019998D02*
X031888Y020143D01*
X031936Y020191D01*
X032130Y020191D01*
X032178Y020143D01*
X032178Y019998D01*
X031888Y019998D01*
X031888Y019703D02*
X032178Y019703D01*
X032030Y021508D02*
X032078Y021557D01*
X032078Y021653D01*
X032030Y021702D01*
X031982Y021702D01*
X031933Y021653D01*
X031933Y021605D01*
X031933Y021653D02*
X031885Y021702D01*
X031836Y021702D01*
X031788Y021653D01*
X031788Y021557D01*
X031836Y021508D01*
X032030Y021803D02*
X032030Y021851D01*
X032078Y021851D01*
X032078Y021803D01*
X032030Y021803D01*
X032030Y021950D02*
X032078Y021999D01*
X032078Y022095D01*
X032030Y022144D01*
X031982Y022144D01*
X031933Y022095D01*
X031933Y022047D01*
X031933Y022095D02*
X031885Y022144D01*
X031836Y022144D01*
X031788Y022095D01*
X031788Y021999D01*
X031836Y021950D01*
X031788Y022245D02*
X031982Y022245D01*
X032078Y022342D01*
X031982Y022438D01*
X031788Y022438D01*
X030876Y022516D02*
X030683Y022516D01*
X030779Y022516D02*
X030779Y022807D01*
X030683Y022710D01*
X030582Y022807D02*
X030485Y022807D01*
X030533Y022807D02*
X030533Y022565D01*
X030485Y022516D01*
X030436Y022516D01*
X030388Y022565D01*
X030435Y026313D02*
X030435Y026603D01*
X030289Y026458D01*
X030483Y026458D01*
X030188Y026603D02*
X029995Y026409D01*
X030043Y026458D02*
X030188Y026313D01*
X029995Y026313D02*
X029995Y026603D01*
X015433Y020795D02*
X015385Y020844D01*
X015336Y020844D01*
D11*
X010333Y009253D02*
X009583Y007363D01*
X010293Y007363D01*
X010293Y007373D01*
X010295Y007441D01*
X010301Y007509D01*
X010311Y007577D01*
X010324Y007644D01*
X010342Y007710D01*
X010363Y007775D01*
X010388Y007838D01*
X010416Y007900D01*
X010448Y007960D01*
X010484Y008019D01*
X010522Y008075D01*
X010564Y008129D01*
X010609Y008180D01*
X010657Y008229D01*
X010707Y008275D01*
X010760Y008318D01*
X010815Y008358D01*
X010873Y008395D01*
X010933Y008428D01*
X010994Y008458D01*
X011057Y008484D01*
X011121Y008507D01*
X011187Y008526D01*
X011254Y008541D01*
X011321Y008552D01*
X011389Y008559D01*
X011457Y008563D01*
X011525Y008562D01*
X011593Y008558D01*
X011661Y008550D01*
X011728Y008537D01*
X011795Y008521D01*
X011860Y008502D01*
X011924Y008478D01*
X011987Y008451D01*
X012048Y008421D01*
X012107Y008386D01*
X012164Y008349D01*
X012219Y008308D01*
X012271Y008265D01*
X012321Y008218D01*
X012368Y008169D01*
X012412Y008116D01*
X012453Y008062D01*
X012491Y008005D01*
X012526Y007946D01*
X012557Y007886D01*
X012585Y007823D01*
X012609Y007759D01*
X012629Y007694D01*
X012645Y007628D01*
X012658Y007561D01*
X012667Y007493D01*
X012672Y007425D01*
X012673Y007357D01*
X012670Y007289D01*
X012663Y007221D01*
X012653Y007153D01*
X012638Y007087D01*
X012620Y007021D01*
X012598Y006956D01*
X012572Y006893D01*
X012543Y006831D01*
X012510Y006772D01*
X012474Y006714D01*
X012434Y006658D01*
X012392Y006605D01*
X012346Y006554D01*
X012298Y006506D01*
X012247Y006460D01*
X012193Y006418D01*
X012137Y006379D01*
X012079Y006343D01*
X012019Y006311D01*
X011957Y006282D01*
X011894Y006256D01*
X011829Y006234D01*
X011763Y006217D01*
X011697Y006202D01*
X011629Y006192D01*
X011561Y006186D01*
X011493Y006183D01*
X011493Y005443D01*
X011503Y005443D01*
X013393Y006193D01*
X013393Y007983D01*
X016393Y012883D01*
X016393Y012893D01*
X030993Y012893D01*
X030983Y012893D02*
X033983Y007993D01*
X033983Y006203D01*
X035873Y005453D01*
X035883Y005453D01*
X035883Y006193D01*
X035815Y006196D01*
X035747Y006202D01*
X035679Y006212D01*
X035613Y006227D01*
X035547Y006244D01*
X035482Y006266D01*
X035419Y006292D01*
X035357Y006321D01*
X035297Y006353D01*
X035239Y006389D01*
X035183Y006428D01*
X035129Y006470D01*
X035078Y006516D01*
X035030Y006564D01*
X034984Y006615D01*
X034942Y006668D01*
X034902Y006724D01*
X034866Y006782D01*
X034833Y006841D01*
X034804Y006903D01*
X034778Y006966D01*
X034756Y007031D01*
X034738Y007097D01*
X034723Y007163D01*
X034713Y007231D01*
X034706Y007299D01*
X034703Y007367D01*
X034704Y007435D01*
X034709Y007503D01*
X034718Y007571D01*
X034731Y007638D01*
X034747Y007704D01*
X034767Y007769D01*
X034791Y007833D01*
X034819Y007896D01*
X034850Y007956D01*
X034885Y008015D01*
X034923Y008072D01*
X034964Y008126D01*
X035008Y008179D01*
X035055Y008228D01*
X035105Y008275D01*
X035157Y008318D01*
X035212Y008359D01*
X035269Y008396D01*
X035328Y008431D01*
X035389Y008461D01*
X035452Y008488D01*
X035516Y008512D01*
X035581Y008531D01*
X035648Y008547D01*
X035715Y008560D01*
X035783Y008568D01*
X035851Y008572D01*
X035919Y008573D01*
X035987Y008569D01*
X036055Y008562D01*
X036122Y008551D01*
X036189Y008536D01*
X036255Y008517D01*
X036319Y008494D01*
X036382Y008468D01*
X036443Y008438D01*
X036503Y008405D01*
X036561Y008368D01*
X036616Y008328D01*
X036669Y008285D01*
X036719Y008239D01*
X036767Y008190D01*
X036812Y008139D01*
X036854Y008085D01*
X036892Y008029D01*
X036928Y007970D01*
X036960Y007910D01*
X036988Y007848D01*
X037013Y007785D01*
X037034Y007720D01*
X037052Y007654D01*
X037065Y007587D01*
X037075Y007519D01*
X037081Y007451D01*
X037083Y007383D01*
X037083Y007373D01*
X037793Y007373D01*
X037043Y009263D01*
X035633Y009263D01*
X032483Y014403D01*
X032493Y014393D02*
X032493Y025463D01*
X035643Y030603D01*
X037053Y030603D01*
X037803Y032493D01*
X037093Y032493D01*
X037093Y032483D01*
X037091Y032415D01*
X037085Y032347D01*
X037075Y032279D01*
X037062Y032212D01*
X037044Y032146D01*
X037023Y032081D01*
X036998Y032018D01*
X036970Y031956D01*
X036938Y031896D01*
X036902Y031837D01*
X036864Y031781D01*
X036822Y031727D01*
X036777Y031676D01*
X036729Y031627D01*
X036679Y031581D01*
X036626Y031538D01*
X036571Y031498D01*
X036513Y031461D01*
X036453Y031428D01*
X036392Y031398D01*
X036329Y031372D01*
X036265Y031349D01*
X036199Y031330D01*
X036132Y031315D01*
X036065Y031304D01*
X035997Y031297D01*
X035929Y031293D01*
X035861Y031294D01*
X035793Y031298D01*
X035725Y031306D01*
X035658Y031319D01*
X035591Y031335D01*
X035526Y031354D01*
X035462Y031378D01*
X035399Y031405D01*
X035338Y031435D01*
X035279Y031470D01*
X035222Y031507D01*
X035167Y031548D01*
X035115Y031591D01*
X035065Y031638D01*
X035018Y031687D01*
X034974Y031740D01*
X034933Y031794D01*
X034895Y031851D01*
X034860Y031910D01*
X034829Y031970D01*
X034801Y032033D01*
X034777Y032097D01*
X034757Y032162D01*
X034741Y032228D01*
X034728Y032295D01*
X034719Y032363D01*
X034714Y032431D01*
X034713Y032499D01*
X034716Y032567D01*
X034723Y032635D01*
X034733Y032703D01*
X034748Y032769D01*
X034766Y032835D01*
X034788Y032900D01*
X034814Y032963D01*
X034843Y033025D01*
X034876Y033084D01*
X034912Y033142D01*
X034952Y033198D01*
X034994Y033251D01*
X035040Y033302D01*
X035088Y033350D01*
X035139Y033396D01*
X035193Y033438D01*
X035249Y033477D01*
X035307Y033513D01*
X035367Y033545D01*
X035429Y033574D01*
X035492Y033600D01*
X035557Y033622D01*
X035623Y033639D01*
X035689Y033654D01*
X035757Y033664D01*
X035825Y033670D01*
X035893Y033673D01*
X035893Y034413D01*
X035883Y034413D01*
X033993Y033663D01*
X033993Y031873D01*
X030993Y026973D01*
X030993Y026969D02*
X016393Y026969D01*
X016393Y026963D02*
X016393Y026983D01*
X013393Y031883D01*
X013393Y033673D01*
X011503Y034423D01*
X011493Y034423D01*
X011493Y033683D01*
X011561Y033680D01*
X011629Y033674D01*
X011697Y033664D01*
X011763Y033649D01*
X011829Y033632D01*
X011894Y033610D01*
X011957Y033584D01*
X012019Y033555D01*
X012079Y033523D01*
X012137Y033487D01*
X012193Y033448D01*
X012247Y033406D01*
X012298Y033360D01*
X012346Y033312D01*
X012392Y033261D01*
X012434Y033208D01*
X012474Y033152D01*
X012510Y033094D01*
X012543Y033035D01*
X012572Y032973D01*
X012598Y032910D01*
X012620Y032845D01*
X012638Y032779D01*
X012653Y032713D01*
X012663Y032645D01*
X012670Y032577D01*
X012673Y032509D01*
X012672Y032441D01*
X012667Y032373D01*
X012658Y032305D01*
X012645Y032238D01*
X012629Y032172D01*
X012609Y032107D01*
X012585Y032043D01*
X012557Y031980D01*
X012526Y031920D01*
X012491Y031861D01*
X012453Y031804D01*
X012412Y031750D01*
X012368Y031697D01*
X012321Y031648D01*
X012271Y031601D01*
X012219Y031558D01*
X012164Y031517D01*
X012107Y031480D01*
X012048Y031445D01*
X011987Y031415D01*
X011924Y031388D01*
X011860Y031364D01*
X011795Y031345D01*
X011728Y031329D01*
X011661Y031316D01*
X011593Y031308D01*
X011525Y031304D01*
X011457Y031303D01*
X011389Y031307D01*
X011321Y031314D01*
X011254Y031325D01*
X011187Y031340D01*
X011121Y031359D01*
X011057Y031382D01*
X010994Y031408D01*
X010933Y031438D01*
X010873Y031471D01*
X010815Y031508D01*
X010760Y031548D01*
X010707Y031591D01*
X010657Y031637D01*
X010609Y031686D01*
X010564Y031737D01*
X010522Y031791D01*
X010484Y031847D01*
X010448Y031906D01*
X010416Y031966D01*
X010388Y032028D01*
X010363Y032091D01*
X010342Y032156D01*
X010324Y032222D01*
X010311Y032289D01*
X010301Y032357D01*
X010295Y032425D01*
X010293Y032493D01*
X010293Y032503D01*
X009583Y032503D01*
X010333Y030613D01*
X011743Y030613D01*
X014893Y025473D01*
X014893Y014393D01*
X011743Y009253D01*
X010333Y009253D01*
X012909Y009663D02*
X012911Y009702D01*
X012917Y009741D01*
X012927Y009779D01*
X012940Y009816D01*
X012957Y009851D01*
X012977Y009885D01*
X013001Y009916D01*
X013028Y009945D01*
X013057Y009971D01*
X013089Y009994D01*
X013123Y010014D01*
X013159Y010030D01*
X013196Y010042D01*
X013235Y010051D01*
X013274Y010056D01*
X013313Y010057D01*
X013352Y010054D01*
X013391Y010047D01*
X013428Y010036D01*
X013465Y010022D01*
X013500Y010004D01*
X013533Y009983D01*
X013564Y009958D01*
X013592Y009931D01*
X013617Y009901D01*
X013639Y009868D01*
X013658Y009834D01*
X013673Y009798D01*
X013685Y009760D01*
X013693Y009722D01*
X013697Y009683D01*
X013697Y009643D01*
X013693Y009604D01*
X013685Y009566D01*
X013673Y009528D01*
X013658Y009492D01*
X013639Y009458D01*
X013617Y009425D01*
X013592Y009395D01*
X013564Y009368D01*
X013533Y009343D01*
X013500Y009322D01*
X013465Y009304D01*
X013428Y009290D01*
X013391Y009279D01*
X013352Y009272D01*
X013313Y009269D01*
X013274Y009270D01*
X013235Y009275D01*
X013196Y009284D01*
X013159Y009296D01*
X013123Y009312D01*
X013089Y009332D01*
X013057Y009355D01*
X013028Y009381D01*
X013001Y009410D01*
X012977Y009441D01*
X012957Y009475D01*
X012940Y009510D01*
X012927Y009547D01*
X012917Y009585D01*
X012911Y009624D01*
X012909Y009663D01*
X025103Y014983D02*
X025082Y014985D01*
X025062Y014990D01*
X025043Y014999D01*
X025026Y015011D01*
X025011Y015026D01*
X024999Y015043D01*
X024990Y015062D01*
X024985Y015082D01*
X024983Y015103D01*
X024985Y015124D01*
X024990Y015144D01*
X024999Y015163D01*
X025011Y015180D01*
X025026Y015195D01*
X025043Y015207D01*
X025062Y015216D01*
X025082Y015221D01*
X025103Y015223D01*
X033679Y009673D02*
X033681Y009712D01*
X033687Y009751D01*
X033697Y009789D01*
X033710Y009826D01*
X033727Y009861D01*
X033747Y009895D01*
X033771Y009926D01*
X033798Y009955D01*
X033827Y009981D01*
X033859Y010004D01*
X033893Y010024D01*
X033929Y010040D01*
X033966Y010052D01*
X034005Y010061D01*
X034044Y010066D01*
X034083Y010067D01*
X034122Y010064D01*
X034161Y010057D01*
X034198Y010046D01*
X034235Y010032D01*
X034270Y010014D01*
X034303Y009993D01*
X034334Y009968D01*
X034362Y009941D01*
X034387Y009911D01*
X034409Y009878D01*
X034428Y009844D01*
X034443Y009808D01*
X034455Y009770D01*
X034463Y009732D01*
X034467Y009693D01*
X034467Y009653D01*
X034463Y009614D01*
X034455Y009576D01*
X034443Y009538D01*
X034428Y009502D01*
X034409Y009468D01*
X034387Y009435D01*
X034362Y009405D01*
X034334Y009378D01*
X034303Y009353D01*
X034270Y009332D01*
X034235Y009314D01*
X034198Y009300D01*
X034161Y009289D01*
X034122Y009282D01*
X034083Y009279D01*
X034044Y009280D01*
X034005Y009285D01*
X033966Y009294D01*
X033929Y009306D01*
X033893Y009322D01*
X033859Y009342D01*
X033827Y009365D01*
X033798Y009391D01*
X033771Y009420D01*
X033747Y009451D01*
X033727Y009485D01*
X033710Y009520D01*
X033697Y009557D01*
X033687Y009595D01*
X033681Y009634D01*
X033679Y009673D01*
X033649Y030203D02*
X033651Y030242D01*
X033657Y030281D01*
X033667Y030319D01*
X033680Y030356D01*
X033697Y030391D01*
X033717Y030425D01*
X033741Y030456D01*
X033768Y030485D01*
X033797Y030511D01*
X033829Y030534D01*
X033863Y030554D01*
X033899Y030570D01*
X033936Y030582D01*
X033975Y030591D01*
X034014Y030596D01*
X034053Y030597D01*
X034092Y030594D01*
X034131Y030587D01*
X034168Y030576D01*
X034205Y030562D01*
X034240Y030544D01*
X034273Y030523D01*
X034304Y030498D01*
X034332Y030471D01*
X034357Y030441D01*
X034379Y030408D01*
X034398Y030374D01*
X034413Y030338D01*
X034425Y030300D01*
X034433Y030262D01*
X034437Y030223D01*
X034437Y030183D01*
X034433Y030144D01*
X034425Y030106D01*
X034413Y030068D01*
X034398Y030032D01*
X034379Y029998D01*
X034357Y029965D01*
X034332Y029935D01*
X034304Y029908D01*
X034273Y029883D01*
X034240Y029862D01*
X034205Y029844D01*
X034168Y029830D01*
X034131Y029819D01*
X034092Y029812D01*
X034053Y029809D01*
X034014Y029810D01*
X033975Y029815D01*
X033936Y029824D01*
X033899Y029836D01*
X033863Y029852D01*
X033829Y029872D01*
X033797Y029895D01*
X033768Y029921D01*
X033741Y029950D01*
X033717Y029981D01*
X033697Y030015D01*
X033680Y030050D01*
X033667Y030087D01*
X033657Y030125D01*
X033651Y030164D01*
X033649Y030203D01*
X012919Y030193D02*
X012921Y030232D01*
X012927Y030271D01*
X012937Y030309D01*
X012950Y030346D01*
X012967Y030381D01*
X012987Y030415D01*
X013011Y030446D01*
X013038Y030475D01*
X013067Y030501D01*
X013099Y030524D01*
X013133Y030544D01*
X013169Y030560D01*
X013206Y030572D01*
X013245Y030581D01*
X013284Y030586D01*
X013323Y030587D01*
X013362Y030584D01*
X013401Y030577D01*
X013438Y030566D01*
X013475Y030552D01*
X013510Y030534D01*
X013543Y030513D01*
X013574Y030488D01*
X013602Y030461D01*
X013627Y030431D01*
X013649Y030398D01*
X013668Y030364D01*
X013683Y030328D01*
X013695Y030290D01*
X013703Y030252D01*
X013707Y030213D01*
X013707Y030173D01*
X013703Y030134D01*
X013695Y030096D01*
X013683Y030058D01*
X013668Y030022D01*
X013649Y029988D01*
X013627Y029955D01*
X013602Y029925D01*
X013574Y029898D01*
X013543Y029873D01*
X013510Y029852D01*
X013475Y029834D01*
X013438Y029820D01*
X013401Y029809D01*
X013362Y029802D01*
X013323Y029799D01*
X013284Y029800D01*
X013245Y029805D01*
X013206Y029814D01*
X013169Y029826D01*
X013133Y029842D01*
X013099Y029862D01*
X013067Y029885D01*
X013038Y029911D01*
X013011Y029940D01*
X012987Y029971D01*
X012967Y030005D01*
X012950Y030040D01*
X012937Y030077D01*
X012927Y030115D01*
X012921Y030154D01*
X012919Y030193D01*
D12*
X017677Y026263D02*
X018890Y026263D01*
X019283Y025752D02*
X019283Y024763D01*
X018890Y024263D02*
X017677Y024263D01*
X017283Y024775D02*
X017283Y025752D01*
X017783Y025263D02*
X017785Y025307D01*
X017791Y025351D01*
X017801Y025394D01*
X017814Y025436D01*
X017831Y025477D01*
X017852Y025516D01*
X017876Y025553D01*
X017903Y025588D01*
X017933Y025620D01*
X017966Y025650D01*
X018002Y025676D01*
X018039Y025700D01*
X018079Y025719D01*
X018120Y025736D01*
X018163Y025748D01*
X018206Y025757D01*
X018250Y025762D01*
X018294Y025763D01*
X018338Y025760D01*
X018382Y025753D01*
X018425Y025742D01*
X018467Y025728D01*
X018507Y025710D01*
X018546Y025688D01*
X018582Y025664D01*
X018616Y025636D01*
X018648Y025605D01*
X018677Y025571D01*
X018703Y025535D01*
X018725Y025497D01*
X018744Y025457D01*
X018759Y025415D01*
X018771Y025373D01*
X018779Y025329D01*
X018783Y025285D01*
X018783Y025241D01*
X018779Y025197D01*
X018771Y025153D01*
X018759Y025111D01*
X018744Y025069D01*
X018725Y025029D01*
X018703Y024991D01*
X018677Y024955D01*
X018648Y024921D01*
X018616Y024890D01*
X018582Y024862D01*
X018546Y024838D01*
X018507Y024816D01*
X018467Y024798D01*
X018425Y024784D01*
X018382Y024773D01*
X018338Y024766D01*
X018294Y024763D01*
X018250Y024764D01*
X018206Y024769D01*
X018163Y024778D01*
X018120Y024790D01*
X018079Y024807D01*
X018039Y024826D01*
X018002Y024850D01*
X017966Y024876D01*
X017933Y024906D01*
X017903Y024938D01*
X017876Y024973D01*
X017852Y025010D01*
X017831Y025049D01*
X017814Y025090D01*
X017801Y025132D01*
X017791Y025175D01*
X017785Y025219D01*
X017783Y025263D01*
X016433Y024163D02*
X015933Y024163D01*
X015683Y023913D01*
X015683Y023413D01*
X015933Y023163D01*
X015683Y022913D01*
X015683Y022413D01*
X015933Y022163D01*
X015683Y021913D01*
X015683Y021413D01*
X015933Y021163D01*
X015683Y020913D01*
X015683Y020413D01*
X015933Y020163D01*
X015683Y019913D01*
X015683Y019413D01*
X015933Y019163D01*
X015683Y018913D01*
X015683Y018413D01*
X015933Y018163D01*
X016433Y018163D01*
X016683Y018413D01*
X016683Y018913D01*
X016433Y019163D01*
X016683Y019413D01*
X016683Y019913D01*
X016433Y020163D01*
X016683Y020413D01*
X016683Y020913D01*
X016433Y021163D01*
X016683Y021413D01*
X016683Y021913D01*
X016433Y022163D01*
X016683Y022413D01*
X016683Y022913D01*
X016433Y023163D01*
X016683Y023413D01*
X016683Y023913D01*
X016433Y024163D01*
X019114Y022033D02*
X019114Y021895D01*
X019114Y022033D02*
X019429Y022033D01*
X020138Y022033D02*
X020453Y022033D01*
X020453Y021895D01*
X020453Y020832D02*
X020453Y020694D01*
X020138Y020694D01*
X019429Y020694D02*
X019114Y020694D01*
X019114Y020832D01*
X019114Y019733D02*
X019429Y019733D01*
X019114Y019733D02*
X019114Y019595D01*
X020138Y019733D02*
X020453Y019733D01*
X020453Y019595D01*
X020453Y018532D02*
X020453Y018394D01*
X020138Y018394D01*
X019429Y018394D02*
X019114Y018394D01*
X019114Y018532D01*
X016683Y017313D02*
X016683Y016813D01*
X016433Y016563D01*
X016683Y016313D01*
X016683Y015813D01*
X016433Y015563D01*
X015933Y015563D01*
X015683Y015813D01*
X015683Y016313D01*
X015933Y016563D01*
X015683Y016813D01*
X015683Y017313D01*
X015933Y017563D01*
X016433Y017563D01*
X016683Y017313D01*
X024212Y018092D02*
X024212Y018210D01*
X024212Y018092D02*
X024330Y018092D01*
X027637Y018092D02*
X027755Y018092D01*
X027755Y018210D01*
X029565Y015948D02*
X029801Y015948D01*
X030313Y015200D02*
X030313Y014727D01*
X030783Y015413D02*
X031033Y015163D01*
X031533Y015163D01*
X031783Y015413D01*
X031783Y015913D01*
X031533Y016163D01*
X031783Y016413D01*
X031783Y016913D01*
X031533Y017163D01*
X031783Y017413D01*
X031783Y017913D01*
X031533Y018163D01*
X031783Y018413D01*
X031783Y018913D01*
X031533Y019163D01*
X031033Y019163D01*
X030783Y018913D01*
X030783Y018413D01*
X031033Y018163D01*
X030783Y017913D01*
X030783Y017413D01*
X031033Y017163D01*
X030783Y016913D01*
X030783Y016413D01*
X031033Y016163D01*
X030783Y015913D01*
X030783Y015413D01*
X029801Y013979D02*
X029565Y013979D01*
X029053Y014727D02*
X029053Y015200D01*
X027755Y021517D02*
X027637Y021635D01*
X024330Y021635D02*
X024212Y021635D01*
X024212Y021517D01*
X024133Y025213D02*
X026033Y025213D01*
X025783Y025513D02*
X025933Y025663D01*
X025783Y025813D01*
X025933Y025663D02*
X025583Y025663D01*
X026033Y026113D02*
X024133Y026113D01*
D13*
X025737Y024557D02*
X026229Y024557D01*
X025914Y024463D02*
X025916Y024471D01*
X025921Y024477D01*
X025928Y024481D01*
X025936Y024481D01*
X025943Y024477D01*
X025948Y024471D01*
X025950Y024463D01*
X025948Y024455D01*
X025943Y024449D01*
X025936Y024445D01*
X025928Y024445D01*
X025921Y024449D01*
X025916Y024455D01*
X025914Y024463D01*
X025737Y023770D02*
X026229Y023770D01*
X030737Y024878D02*
X030737Y026649D01*
X032115Y026649D01*
X032115Y024878D01*
X030737Y024878D01*
X030737Y014949D02*
X032115Y014949D01*
X032115Y013178D01*
X030737Y013178D01*
X030737Y014949D01*
X016630Y014949D02*
X016630Y013178D01*
X015252Y013178D01*
X015252Y014949D01*
X016630Y014949D01*
X016630Y024878D02*
X015252Y024878D01*
X015252Y026649D01*
X016630Y026649D01*
X016630Y024878D01*
D14*
X017665Y022700D02*
X017901Y022700D01*
X017901Y022227D02*
X017665Y022227D01*
X017665Y022000D02*
X017901Y022000D01*
X017901Y021527D02*
X017665Y021527D01*
X017665Y021200D02*
X017901Y021200D01*
X017901Y020727D02*
X017665Y020727D01*
X017665Y020400D02*
X017901Y020400D01*
X017901Y019927D02*
X017665Y019927D01*
X017665Y019600D02*
X017901Y019600D01*
X017901Y019127D02*
X017665Y019127D01*
X019893Y019940D02*
X019937Y019897D01*
X020023Y019897D01*
X020067Y019940D01*
X020067Y020157D01*
X019893Y020157D02*
X019893Y019940D01*
X020188Y020027D02*
X020361Y020027D01*
X020318Y019897D02*
X020318Y020157D01*
X020188Y020027D01*
X021865Y019800D02*
X022101Y019800D01*
X022101Y019327D02*
X021865Y019327D01*
X021865Y019100D02*
X022101Y019100D01*
X022101Y018627D02*
X021865Y018627D01*
X022020Y017981D02*
X022020Y017745D01*
X021547Y017745D02*
X021547Y017981D01*
X020301Y017800D02*
X020065Y017800D01*
X020065Y017327D02*
X020301Y017327D01*
X021163Y015563D02*
X021163Y014653D01*
X020343Y014744D02*
X020306Y014744D01*
X020343Y014744D02*
X020343Y015382D01*
X020306Y015382D01*
X019989Y015382D02*
X019578Y015382D01*
X019260Y015382D02*
X019223Y015382D01*
X019223Y014744D01*
X019260Y014744D01*
X019578Y014744D02*
X019615Y014744D01*
X019952Y014744D02*
X019989Y014744D01*
X025103Y014653D02*
X025103Y014983D01*
X025103Y015223D01*
X025103Y015563D01*
X022101Y020427D02*
X021865Y020427D01*
X021865Y020900D02*
X022101Y020900D01*
X022101Y021127D02*
X021865Y021127D01*
X021865Y021600D02*
X022101Y021600D01*
X020282Y022213D02*
X020239Y022170D01*
X020152Y022170D01*
X020109Y022213D01*
X020109Y022300D02*
X020195Y022344D01*
X020239Y022344D01*
X020282Y022300D01*
X020282Y022213D01*
X020109Y022300D02*
X020109Y022430D01*
X020282Y022430D01*
X019988Y022430D02*
X019988Y022213D01*
X019944Y022170D01*
X019857Y022170D01*
X019814Y022213D01*
X019814Y022430D01*
D15*
X026057Y014274D03*
X026530Y014274D03*
X027047Y014284D03*
X027520Y014284D03*
X028047Y014274D03*
X028520Y014274D03*
D16*
X028283Y014274D03*
X027283Y014284D03*
X026293Y014274D03*
D17*
X020630Y018453D02*
X020632Y018465D01*
X020637Y018476D01*
X020646Y018485D01*
X020657Y018490D01*
X020669Y018492D01*
X020681Y018490D01*
X020692Y018485D01*
X020701Y018476D01*
X020706Y018465D01*
X020708Y018453D01*
X020706Y018441D01*
X020701Y018430D01*
X020692Y018421D01*
X020681Y018416D01*
X020669Y018414D01*
X020657Y018416D01*
X020646Y018421D01*
X020637Y018430D01*
X020632Y018441D01*
X020630Y018453D01*
X018859Y021974D02*
X018861Y021986D01*
X018866Y021997D01*
X018875Y022006D01*
X018886Y022011D01*
X018898Y022013D01*
X018910Y022011D01*
X018921Y022006D01*
X018930Y021997D01*
X018935Y021986D01*
X018937Y021974D01*
X018935Y021962D01*
X018930Y021951D01*
X018921Y021942D01*
X018910Y021937D01*
X018898Y021935D01*
X018886Y021937D01*
X018875Y021942D01*
X018866Y021951D01*
X018861Y021962D01*
X018859Y021974D01*
D18*
X024532Y022019D02*
X024578Y021973D01*
X024672Y021973D01*
X024718Y022019D01*
X024718Y022253D01*
X024826Y022160D02*
X024920Y022253D01*
X024920Y021973D01*
X025013Y021973D02*
X024826Y021973D01*
X024532Y022019D02*
X024532Y022253D01*
M02*
