%
M48
M72
T01C0.0160
T02C0.0197
T03C0.0400
T04C0.0787
%
T01
X20783Y13863
X21483Y15163
X22983Y14863
X24383Y14963
X25383Y14863
X25701Y15406
X25703Y14263
X25293Y14063
X23383Y16863
X22756Y17572
X23583Y18063
X23183Y18663
X22783Y19363
X22983Y19763
X20953Y19483
X20773Y19883
X20293Y19983
X21143Y21563
X21553Y21953
X19683Y23863
X17443Y23583
X18083Y18753
X16783Y17563
X16783Y16463
X16883Y15563
X18783Y15563
X20183Y16063
X19993Y16593
X19383Y17063
X18683Y17063
X20483Y18053
X24583Y17263
X25083Y17263
X25583Y17263
X26983Y17263
X27383Y17123
X27783Y17263
X28193Y16953
X29383Y17763
X28873Y18963
X28193Y18943
X29183Y19963
X29483Y20763
X29183Y21363
X25283Y22463
X30083Y16363
X30783Y14663
X30783Y13863
T02
X31583Y13817
X31583Y14309
X31583Y25517
X31583Y26009
X15783Y26009
X15783Y25517
X15783Y14309
X15783Y13817
T03
X16183Y16063
X16183Y17063
X16183Y18663
X16183Y19663
X16183Y20663
X16183Y21663
X16183Y22663
X16183Y23663
X30283Y21863
X31283Y21863
X31283Y20863
X30283Y20863
X30283Y19863
X31283Y19863
X31283Y18663
X31283Y17663
X31283Y16663
X31283Y15663
T04
X13303Y9663
X34073Y9673
X34043Y30203
X13313Y30193
M30
