G75*
%MOIN*%
%OFA0B0*%
%FSLAX24Y24*%
%IPPOS*%
%LPD*%
%AMOC8*
5,1,8,0,0,1.08239X$1,22.5*
%
%ADD10C,0.0867*%
%ADD11R,0.0480X0.1080*%
%ADD12R,0.0395X0.0218*%
%ADD13R,0.0671X0.0592*%
%ADD14R,0.0592X0.0671*%
%ADD15R,0.0552X0.0395*%
%ADD16R,0.0395X0.0552*%
%ADD17R,0.0552X0.0552*%
%ADD18R,0.0820X0.0820*%
%ADD19OC8,0.0820*%
%ADD20C,0.0820*%
%ADD21C,0.0477*%
%ADD22R,0.0680X0.0380*%
%ADD23R,0.0297X0.0552*%
%ADD24R,0.0395X0.0178*%
%ADD25R,0.0178X0.0395*%
%ADD26R,0.0395X0.0190*%
%ADD27R,0.0190X0.0395*%
%ADD28R,0.3092X0.3092*%
%ADD29R,0.0320X0.0890*%
%ADD30R,0.0513X0.0828*%
%ADD31C,0.0400*%
D10*
X013303Y009663D03*
X034073Y009673D03*
X034043Y030203D03*
X013313Y030193D03*
D11*
X023783Y025663D03*
X026383Y025663D03*
D12*
X026298Y024419D03*
X026298Y024163D03*
X026298Y023907D03*
X025668Y023907D03*
X025668Y024163D03*
X025668Y024419D03*
D13*
X024463Y023638D03*
X024463Y022969D03*
X023263Y023229D03*
X023263Y023898D03*
X022283Y023898D03*
X022283Y023229D03*
X021283Y023229D03*
X021283Y023898D03*
X020383Y023898D03*
X020383Y023229D03*
X027483Y022929D03*
X027483Y023598D03*
X028983Y023798D03*
X028983Y023129D03*
X028283Y016128D03*
X028283Y015459D03*
X027283Y015459D03*
X027283Y016128D03*
X026283Y016108D03*
X026283Y015439D03*
D14*
X029349Y017063D03*
X030018Y017063D03*
X030018Y018363D03*
X029349Y018363D03*
X018718Y023563D03*
X018049Y023563D03*
X018118Y017363D03*
X017449Y017363D03*
X017449Y016463D03*
X018118Y016463D03*
X018118Y015563D03*
X017449Y015563D03*
X017449Y014663D03*
X018118Y014663D03*
D15*
X021783Y017509D03*
X021783Y018218D03*
D16*
X021629Y018863D03*
X021629Y019563D03*
X022338Y019563D03*
X022338Y018863D03*
X020538Y017563D03*
X019829Y017563D03*
X018138Y019363D03*
X017429Y019363D03*
X017429Y020163D03*
X018138Y020163D03*
X018138Y020963D03*
X017429Y020963D03*
X017429Y021763D03*
X018138Y021763D03*
X018138Y022463D03*
X017429Y022463D03*
X021629Y021363D03*
X021629Y020663D03*
X022338Y020663D03*
X022338Y021363D03*
D17*
X026293Y014747D03*
X026293Y013920D03*
X027283Y013930D03*
X027283Y014757D03*
X028283Y014747D03*
X028283Y013920D03*
D18*
X031283Y015663D03*
X031283Y019863D03*
D19*
X030283Y019863D03*
X030283Y020863D03*
X031283Y020863D03*
X031283Y021863D03*
X030283Y021863D03*
D20*
X031283Y018663D03*
X031283Y017663D03*
X031283Y016663D03*
X016183Y017063D03*
X016183Y016063D03*
X016183Y018663D03*
X016183Y019663D03*
X016183Y020663D03*
X016183Y021663D03*
X016183Y022663D03*
X016183Y023663D03*
D21*
X015783Y025517D03*
X015783Y026009D03*
X031583Y026009D03*
X031583Y025517D03*
X031583Y014309D03*
X031583Y013817D03*
X015783Y013817D03*
X015783Y014309D03*
D22*
X017283Y024513D03*
X017283Y026013D03*
X019283Y026013D03*
X019283Y024513D03*
D23*
X019409Y015575D03*
X020157Y015575D03*
X020157Y014552D03*
X019783Y014552D03*
X019409Y014552D03*
D24*
X019212Y018670D03*
X019212Y018866D03*
X019212Y019063D03*
X019212Y019260D03*
X019212Y019457D03*
X020354Y019457D03*
X020354Y019260D03*
X020354Y019063D03*
X020354Y018866D03*
X020354Y018670D03*
X020354Y020970D03*
X020354Y021166D03*
X020354Y021363D03*
X020354Y021560D03*
X020354Y021757D03*
X019212Y021757D03*
X019212Y021560D03*
X019212Y021363D03*
X019212Y021166D03*
X019212Y020970D03*
D25*
X019586Y020792D03*
X019783Y020792D03*
X019980Y020792D03*
X019980Y021934D03*
X019783Y021934D03*
X019586Y021934D03*
X019586Y019634D03*
X019783Y019634D03*
X019980Y019634D03*
X019980Y018492D03*
X019783Y018492D03*
X019586Y018492D03*
D26*
X024212Y018584D03*
X024212Y018781D03*
X024212Y018978D03*
X024212Y019174D03*
X024212Y019371D03*
X024212Y019568D03*
X024212Y019765D03*
X024212Y019962D03*
X024212Y020159D03*
X024212Y020355D03*
X024212Y020552D03*
X024212Y020749D03*
X024212Y020946D03*
X024212Y021143D03*
X024212Y021340D03*
X024212Y018387D03*
X027755Y018387D03*
X027755Y018584D03*
X027755Y018781D03*
X027755Y018978D03*
X027755Y019174D03*
X027755Y019371D03*
X027755Y019568D03*
X027755Y019765D03*
X027755Y019962D03*
X027755Y020159D03*
X027755Y020355D03*
X027755Y020552D03*
X027755Y020749D03*
X027755Y020946D03*
X027755Y021143D03*
X027755Y021340D03*
D27*
X027460Y021635D03*
X027263Y021635D03*
X027066Y021635D03*
X026869Y021635D03*
X026672Y021635D03*
X026475Y021635D03*
X026279Y021635D03*
X026082Y021635D03*
X025885Y021635D03*
X025688Y021635D03*
X025491Y021635D03*
X025294Y021635D03*
X025098Y021635D03*
X024901Y021635D03*
X024704Y021635D03*
X024507Y021635D03*
X024507Y018092D03*
X024704Y018092D03*
X024901Y018092D03*
X025098Y018092D03*
X025294Y018092D03*
X025491Y018092D03*
X025688Y018092D03*
X025885Y018092D03*
X026082Y018092D03*
X026279Y018092D03*
X026475Y018092D03*
X026672Y018092D03*
X026869Y018092D03*
X027066Y018092D03*
X027263Y018092D03*
X027460Y018092D03*
D28*
X025983Y019863D03*
D29*
X024883Y016053D03*
X024383Y016053D03*
X023883Y016053D03*
X023383Y016053D03*
X022883Y016053D03*
X022383Y016053D03*
X021883Y016053D03*
X021383Y016053D03*
X021383Y014163D03*
X021883Y014163D03*
X022383Y014163D03*
X022883Y014163D03*
X023383Y014163D03*
X023883Y014163D03*
X024383Y014163D03*
X024883Y014163D03*
D30*
X029231Y014235D03*
X030136Y014235D03*
X030136Y015692D03*
X029231Y015692D03*
D31*
X030083Y016363D03*
X028193Y016953D03*
X027783Y017263D03*
X027383Y017123D03*
X026983Y017263D03*
X025583Y017263D03*
X025083Y017263D03*
X024583Y017263D03*
X023383Y016863D03*
X022756Y017572D03*
X023583Y018063D03*
X023183Y018663D03*
X022783Y019363D03*
X022983Y019763D03*
X020953Y019483D03*
X020773Y019883D03*
X020293Y019983D03*
X021143Y021563D03*
X021553Y021953D03*
X019683Y023863D03*
X017443Y023583D03*
X018083Y018753D03*
X016783Y017563D03*
X016783Y016463D03*
X016883Y015563D03*
X018783Y015563D03*
X020183Y016063D03*
X019993Y016593D03*
X019383Y017063D03*
X018683Y017063D03*
X020483Y018053D03*
X021483Y015163D03*
X022983Y014863D03*
X024383Y014963D03*
X025383Y014863D03*
X025701Y015406D03*
X025703Y014263D03*
X025293Y014063D03*
X020783Y013863D03*
X028193Y018943D03*
X028873Y018963D03*
X029183Y019963D03*
X029483Y020763D03*
X029183Y021363D03*
X025283Y022463D03*
X029383Y017763D03*
X030783Y014663D03*
X030783Y013863D03*
M02*
