  0
SECTION
  2
HEADER
  9
$ACADVER
  1
AC1009
  9
$FILLMODE
 70
0
  9
$EXTMIN
 10
-15.4121
 20
-1.0160
 30
0.0000
  9
$EXTMAX
 10
265.4121
 20
131.9070
 30
0.0000
  0
ENDSEC
  0
SECTION
  2
TABLES
  0
TABLE
  2
LTYPE
 70
1
  0
LTYPE
  2
CONTINUOUS
 70
64
  3
Solid line
 72
65
 73
0
 40
0
  0
ENDTAB
  0
TABLE
  2
LAYER
 70
255
  0
LAYER
  2
20
 70
64
 62
7
  6
CONTINUOUS
  0
ENDTAB
  0
ENDSEC
  0
SECTION
  2
BLOCKS
  0
BLOCK
  8
0
  2
RECT
 70
64
 10
0.0000
 20
0.0000
 30
0.0000
  3
RECT
  0
SOLID
  8
0
 10
-0.5000
 20
-0.5000
 30
0.0000
 11
0.5000
 21
-0.5000
 31
0.0000
 12
-0.5000
 22
0.5000
 32
0.0000
 13
0.5000
 23
0.5000
 33
0.0000
  0
ENDBLK
  8
0
  0
BLOCK
  8
0
  2
PIE
 70
64
 10
0.0000
 20
0.0000
 30
0.0000
  3
PIE
  0
CIRCLE
  8
0
 10
0.0000
 20
0.0000
 30
0.0000
 40
0.5000
  0
ENDBLK
  8
0
  0
BLOCK
  8
0
  2
OCTAGONP
 70
64
 10
0.0000
 20
0.0000
 30
0.0000
  3
OCTAGONP
  0
POLYLINE
  8
0
 66
1
 10
0.0000
 20
0.0000
 30
0.0000
 40
0.0000
 41
0.0000
 70
1
  0
VERTEX
  8
0
 10
-0.5000
 20
-0.2071
 30
0.0000
  0
VERTEX
  8
0
 10
-0.5000
 20
0.2071
 30
0.0000
  0
VERTEX
  8
0
 10
-0.2071
 20
0.5000
 30
0.0000
  0
VERTEX
  8
0
 10
0.2071
 20
0.5000
 30
0.0000
  0
VERTEX
  8
0
 10
0.5000
 20
0.2071
 30
0.0000
  0
VERTEX
  8
0
 10
0.5000
 20
-0.2071
 30
0.0000
  0
VERTEX
  8
0
 10
0.2071
 20
-0.5000
 30
0.0000
  0
VERTEX
  8
0
 10
-0.2071
 20
-0.5000
 30
0.0000
  0
SEQEND
  8
0
  0
ENDBLK
  8
0
  0
BLOCK
  8
0
  2
SQUAREP
 70
64
 10
0.0000
 20
0.0000
 30
0.0000
  3
SQUAREP
  0
SOLID
  8
0
 10
-0.5000
 20
-0.5000
 30
0.0000
 11
0.5000
 21
-0.5000
 31
0.0000
 12
-0.5000
 22
0.5000
 32
0.0000
 13
0.5000
 23
0.5000
 33
0.0000
  0
ENDBLK
  8
0
  0
BLOCK
  8
0
  2
ROUNDP
 70
64
 10
0.0000
 20
0.0000
 30
0.0000
  3
ROUNDP
  0
CIRCLE
  8
0
 10
0.0000
 20
0.0000
 30
0.0000
 40
0.5000
  0
ENDBLK
  8
0
  0
BLOCK
  8
0
  2
ANNULUSP
 70
64
 10
0.0000
 20
0.0000
 30
0.0000
  3
ANNULUSP
  0
CIRCLE
  8
0
 10
0.0000
 20
0.0000
 30
0.0000
 40
0.5000
  0
ENDBLK
  8
0
  0
BLOCK
  8
0
  2
THERMALP
 70
64
 10
0.0000
 20
0.0000
 30
0.0000
  3
THERMALP
  0
LINE
  8
0
 10
-0.2379
 20
0.4500
 30
0.0000
 11
0.2379
 21
0.4500
 31
0.0000
  0
LINE
  8
0
 10
0.4500
 20
0.2379
 30
0.0000
 11
0.4500
 21
-0.2379
 31
0.0000
  0
LINE
  8
0
 10
0.2379
 20
-0.4500
 30
0.0000
 11
-0.2379
 21
-0.4500
 31
0.0000
  0
LINE
  8
0
 10
-0.4500
 20
-0.2379
 30
0.0000
 11
-0.4500
 21
0.2379
 31
0.0000
  0
ENDBLK
  8
0
  0
BLOCK
  8
0
  2
OCTAGONV
 70
64
 10
0.0000
 20
0.0000
 30
0.0000
  3
OCTAGONV
  0
POLYLINE
  8
0
 66
1
 10
0.0000
 20
0.0000
 30
0.0000
 40
0.0000
 41
0.0000
 70
1
  0
VERTEX
  8
0
 10
-0.5000
 20
-0.2071
 30
0.0000
  0
VERTEX
  8
0
 10
-0.5000
 20
0.2071
 30
0.0000
  0
VERTEX
  8
0
 10
-0.2071
 20
0.5000
 30
0.0000
  0
VERTEX
  8
0
 10
0.2071
 20
0.5000
 30
0.0000
  0
VERTEX
  8
0
 10
0.5000
 20
0.2071
 30
0.0000
  0
VERTEX
  8
0
 10
0.5000
 20
-0.2071
 30
0.0000
  0
VERTEX
  8
0
 10
0.2071
 20
-0.5000
 30
0.0000
  0
VERTEX
  8
0
 10
-0.2071
 20
-0.5000
 30
0.0000
  0
SEQEND
  8
0
  0
ENDBLK
  8
0
  0
BLOCK
  8
0
  2
SQUAREV
 70
64
 10
0.0000
 20
0.0000
 30
0.0000
  3
SQUAREV
  0
SOLID
  8
0
 10
-0.5000
 20
-0.5000
 30
0.0000
 11
0.5000
 21
-0.5000
 31
0.0000
 12
-0.5000
 22
0.5000
 32
0.0000
 13
0.5000
 23
0.5000
 33
0.0000
  0
ENDBLK
  8
0
  0
BLOCK
  8
0
  2
ROUNDV
 70
64
 10
0.0000
 20
0.0000
 30
0.0000
  3
ROUNDV
  0
CIRCLE
  8
0
 10
0.0000
 20
0.0000
 30
0.0000
 40
0.5000
  0
ENDBLK
  8
0
  0
BLOCK
  8
0
  2
ANNULUSV
 70
64
 10
0.0000
 20
0.0000
 30
0.0000
  3
ANNULUSV
  0
CIRCLE
  8
0
 10
0.0000
 20
0.0000
 30
0.0000
 40
0.5000
  0
ENDBLK
  8
0
  0
BLOCK
  8
0
  2
THERMALV
 70
64
 10
0.0000
 20
0.0000
 30
0.0000
  3
THERMALV
  0
LINE
  8
0
 10
-0.2379
 20
0.4500
 30
0.0000
 11
0.2379
 21
0.4500
 31
0.0000
  0
LINE
  8
0
 10
0.4500
 20
0.2379
 30
0.0000
 11
0.4500
 21
-0.2379
 31
0.0000
  0
LINE
  8
0
 10
0.2379
 20
-0.4500
 30
0.0000
 11
-0.2379
 21
-0.4500
 31
0.0000
  0
LINE
  8
0
 10
-0.4500
 20
-0.2379
 30
0.0000
 11
-0.4500
 21
0.2379
 31
0.0000
  0
ENDBLK
  8
0
  0
ENDSEC
  0
SECTION
  2
ENTITIES
  0
CIRCLE
  8
20
 10
24.0000
 20
72.5000
 30
0.0000
 40
23.8000
  0
CIRCLE
  8
20
 10
0.5000
 20
95.4500
 30
0.0000
 40
1.4000
  0
CIRCLE
  8
20
 10
0.5000
 20
49.5500
 30
0.0000
 40
1.4000
  0
CIRCLE
  8
20
 10
47.5000
 20
49.5500
 30
0.0000
 40
1.4000
  0
CIRCLE
  8
20
 10
47.5000
 20
95.4500
 30
0.0000
 40
1.4000
  0
CIRCLE
  8
20
 10
226.0000
 20
72.5000
 30
0.0000
 40
23.8000
  0
CIRCLE
  8
20
 10
202.5000
 20
95.4500
 30
0.0000
 40
1.4000
  0
CIRCLE
  8
20
 10
202.5000
 20
49.5500
 30
0.0000
 40
1.4000
  0
CIRCLE
  8
20
 10
249.5000
 20
49.5500
 30
0.0000
 40
1.4000
  0
CIRCLE
  8
20
 10
249.5000
 20
95.4500
 30
0.0000
 40
1.4000
  0
CIRCLE
  8
20
 10
167.4600
 20
111.4600
 30
0.0000
 40
1.7018
  0
CIRCLE
  8
20
 10
119.2000
 20
110.1900
 30
0.0000
 40
1.7018
  0
CIRCLE
  8
20
 10
162.3800
 20
59.3900
 30
0.0000
 40
1.7018
  0
CIRCLE
  8
20
 10
134.4400
 20
59.3900
 30
0.0000
 40
1.7018
  0
LINE
  8
20
 10
87.4780
 20
7.0740
 30
0.0000
 11
158.9280
 21
7.0740
 31
0.0000
  0
LINE
  8
20
 10
87.4780
 20
34.1020
 30
0.0000
 11
87.4780
 21
7.0740
 31
0.0000
  0
LINE
  8
20
 10
162.9380
 20
13.8140
 30
0.0000
 11
162.9380
 21
25.7900
 31
0.0000
  0
LINE
  8
20
 10
162.9380
 20
25.7900
 30
0.0000
 11
158.9330
 21
25.7900
 31
0.0000
  0
LINE
  8
20
 10
162.9380
 20
13.8140
 30
0.0000
 11
158.9280
 21
13.8140
 31
0.0000
  0
LINE
  8
20
 10
158.9280
 20
13.8140
 30
0.0000
 11
158.9280
 21
7.0740
 31
0.0000
  0
LINE
  8
20
 10
158.9330
 20
25.7910
 30
0.0000
 11
158.9330
 21
34.1020
 31
0.0000
  0
LINE
  8
20
 10
87.4780
 20
34.1020
 30
0.0000
 11
88.9380
 21
34.1020
 31
0.0000
  0
LINE
  8
20
 10
88.9380
 20
34.1020
 30
0.0000
 11
88.9380
 21
38.8140
 31
0.0000
  0
LINE
  8
20
 10
88.9380
 20
38.8140
 30
0.0000
 11
134.9380
 21
38.8140
 31
0.0000
  0
LINE
  8
20
 10
134.9380
 20
38.8140
 30
0.0000
 11
134.9380
 21
34.1020
 31
0.0000
  0
LINE
  8
20
 10
134.9380
 20
34.1020
 30
0.0000
 11
158.9330
 21
34.1020
 31
0.0000
  0
CIRCLE
  8
20
 10
160.4380
 20
5.3140
 30
0.0000
 40
1.4000
  0
CIRCLE
  8
20
 10
160.4380
 20
36.3140
 30
0.0000
 40
1.4000
  0
CIRCLE
  8
20
 10
85.4380
 20
5.3140
 30
0.0000
 40
1.4000
  0
CIRCLE
  8
20
 10
85.4380
 20
36.3140
 30
0.0000
 40
1.4000
  0
LINE
  8
20
 10
0.0000
 20
0.0000
 30
0.0000
 11
250.0000
 21
0.0000
 31
0.0000
  0
LINE
  8
20
 10
250.0000
 20
115.0000
 30
0.0000
 11
0.0000
 21
115.0000
 31
0.0000
  0
ARC
  8
20
 10
99.5929
 20
57.5000
 30
0.0000
 40
115.0000
 50
150.0000
 51
210.0000
  0
ARC
  8
20
 10
150.4071
 20
57.5000
 30
0.0000
 40
115.0000
 50
330.0000
 51
30.0000
  0
CIRCLE
  8
20
 10
3.2700
 20
4.7700
 30
0.0000
 40
1.4000
  0
CIRCLE
  8
20
 10
246.7300
 20
4.7700
 30
0.0000
 40
1.4000
  0
CIRCLE
  8
20
 10
246.0950
 20
110.8650
 30
0.0000
 40
1.4000
  0
CIRCLE
  8
20
 10
3.2700
 20
110.2300
 30
0.0000
 40
1.4000
  0
ENDSEC
  0
EOF
