G75*
%MOIN*%
%OFA0B0*%
%FSLAX24Y24*%
%IPPOS*%
%LPD*%
%AMOC8*
5,1,8,0,0,1.08239X$1,22.5*
%
%ADD10C,0.0740*%
%ADD11R,0.0740X0.0740*%
%ADD12OC8,0.0740*%
%ADD13C,0.0630*%
%ADD14R,0.0768X0.0768*%
%ADD15C,0.0768*%
%ADD16R,0.0476X0.0476*%
%ADD17C,0.0476*%
%ADD18C,0.1181*%
%ADD19C,0.0600*%
%ADD20OC8,0.0630*%
%ADD21C,0.0630*%
%ADD22C,0.0660*%
%ADD23C,0.0100*%
%ADD24C,0.0400*%
%ADD25C,0.0357*%
%ADD26C,0.0396*%
%ADD27C,0.0400*%
%ADD28C,0.0160*%
D10*
X052893Y027133D03*
X053893Y027133D03*
X054893Y027133D03*
X055893Y027133D03*
X056893Y027133D03*
X057893Y027133D03*
X056555Y033728D03*
X057000Y036523D03*
X058000Y036523D03*
X056000Y036523D03*
X046323Y036543D03*
X045323Y036543D03*
X044323Y036543D03*
X037637Y043433D03*
X036637Y043433D03*
X026555Y041590D03*
X026555Y040590D03*
X020433Y041189D03*
X024586Y037352D03*
X024086Y036602D03*
X025086Y036602D03*
X026594Y036941D03*
X024074Y034988D03*
X022128Y034653D03*
X022128Y035653D03*
X026594Y033941D03*
D11*
X022128Y033653D03*
X047323Y036543D03*
X055000Y036523D03*
X048815Y026354D03*
D12*
X047815Y026354D03*
X046815Y026354D03*
X046815Y025354D03*
X047815Y025354D03*
X048815Y025354D03*
D13*
X031732Y025913D03*
X031732Y026700D03*
X031732Y027488D03*
X031732Y020598D03*
X031732Y019811D03*
X031732Y019023D03*
X071102Y019023D03*
X071102Y019811D03*
X071102Y020598D03*
X071102Y025913D03*
X071102Y026700D03*
X071102Y027488D03*
D14*
X091181Y038511D03*
X091181Y005047D03*
X073464Y003078D03*
X063622Y003078D03*
X045905Y003078D03*
X034094Y003078D03*
X016378Y005047D03*
X016378Y038511D03*
D15*
X016378Y040480D03*
X011653Y040480D03*
X011653Y038511D03*
X011653Y007015D03*
X011653Y005047D03*
X016378Y007015D03*
X029370Y005047D03*
X029370Y003078D03*
X034094Y005047D03*
X041181Y005047D03*
X041181Y003078D03*
X045905Y005047D03*
X058897Y005047D03*
X058897Y003078D03*
X063622Y005047D03*
X068740Y005047D03*
X068740Y003078D03*
X073464Y005047D03*
X086456Y005047D03*
X086456Y007015D03*
X091181Y007015D03*
X086456Y038511D03*
X086456Y040480D03*
X091181Y040480D03*
D16*
X054173Y011937D03*
D17*
X053385Y011937D03*
X052598Y011937D03*
X051811Y011937D03*
X051023Y011937D03*
X050236Y011937D03*
X049448Y011937D03*
X048661Y011937D03*
D18*
X036240Y016366D03*
X036240Y019712D03*
D19*
X034000Y038996D02*
X033400Y038996D01*
X033400Y039996D02*
X034000Y039996D01*
X034000Y040996D02*
X033400Y040996D01*
D20*
X030571Y040098D03*
X027843Y038531D03*
D21*
X029243Y038531D03*
X030571Y041098D03*
D22*
X022874Y041496D03*
X022874Y037496D03*
D23*
X036653Y035224D02*
X036653Y035106D01*
X036653Y035224D02*
X052263Y035224D01*
X052271Y035226D01*
X052277Y035230D01*
X052281Y035236D01*
X052283Y035244D01*
X053090Y034437D01*
X053090Y033984D01*
X052795Y034319D02*
X052126Y034988D01*
X052106Y035027D01*
X037342Y035027D01*
X036988Y034673D01*
X041319Y034574D02*
X041574Y034830D01*
X044665Y034830D01*
X044803Y034693D01*
X044448Y034378D02*
X044212Y034614D01*
X044173Y034633D01*
X042539Y034633D01*
X041456Y033551D01*
X046063Y033964D02*
X046102Y033984D01*
X046968Y034850D01*
X050236Y034850D01*
X050354Y034732D01*
X050905Y035559D02*
X050945Y035598D01*
X050945Y035952D01*
X051830Y035952D02*
X051830Y035578D01*
X051811Y035559D01*
X051811Y035539D01*
X053602Y034653D02*
X054173Y035224D01*
X065354Y035224D01*
X070649Y029929D01*
X070649Y027311D01*
X071102Y026858D01*
X071102Y026700D01*
X070610Y027094D02*
X070452Y027252D01*
X070452Y029870D01*
X065295Y035027D01*
X054232Y035027D01*
X053937Y034732D01*
X053937Y033196D01*
X055689Y032606D02*
X055689Y031622D01*
X053976Y031622D02*
X053976Y031228D01*
X048740Y029811D02*
X048740Y028177D01*
X045393Y027133D02*
X052893Y027133D01*
X053582Y027685D02*
X053582Y027724D01*
X053582Y027685D02*
X057421Y027685D01*
X057893Y027212D01*
X057893Y027133D01*
X049704Y026307D02*
X049567Y026228D01*
X049448Y026346D01*
X048819Y026346D01*
X048815Y026354D01*
X049606Y026208D02*
X049704Y026307D01*
X046815Y026354D02*
X046811Y026366D01*
X045748Y026366D01*
X044685Y027429D01*
X046437Y025854D02*
X046437Y025354D01*
X047460Y023610D02*
X047598Y023610D01*
X047637Y023590D01*
X048858Y023590D01*
X048838Y023256D02*
X048858Y023216D01*
X048897Y023177D01*
X048897Y023098D01*
X048838Y023256D02*
X047126Y023256D01*
X047086Y023295D01*
X044134Y017232D02*
X041968Y017232D01*
X042263Y012842D02*
X053897Y012842D01*
X053917Y012803D01*
X053917Y012193D01*
X054173Y011937D01*
X070649Y020421D02*
X071102Y019968D01*
X071102Y019811D01*
X070649Y020421D02*
X070649Y020775D01*
X070925Y021051D01*
X071299Y021051D01*
X071555Y021307D01*
X071555Y024830D01*
X070610Y025775D01*
X070610Y027094D01*
X071102Y027488D02*
X071102Y027901D01*
X071752Y027252D01*
X071752Y021248D01*
X071102Y020598D01*
X071102Y027901D02*
X071102Y029732D01*
X065197Y035637D01*
X060039Y032094D02*
X060039Y031622D01*
X049448Y035559D02*
X049448Y035972D01*
X049468Y036051D01*
X049429Y036011D01*
X046063Y033964D02*
X046063Y030657D01*
X045216Y029811D01*
X044508Y029811D01*
X042421Y029811D01*
X041437Y030165D02*
X044941Y030165D01*
X044960Y030204D01*
X045472Y030716D01*
X044921Y030578D02*
X027441Y030578D01*
X030925Y029122D02*
X030925Y029102D01*
X030925Y025913D02*
X030925Y025696D01*
X030925Y025913D02*
X031732Y025913D01*
X031732Y019023D02*
X030925Y019023D01*
X030925Y018964D01*
X018366Y005933D02*
X018366Y001307D01*
X035807Y001307D02*
X035807Y005696D01*
X074114Y005696D02*
X074114Y001307D01*
X093169Y007763D02*
X099448Y007763D01*
X043582Y035559D02*
X043582Y035834D01*
X043563Y036011D01*
X043563Y035874D01*
X041929Y035756D02*
X041929Y035559D01*
X037637Y044063D02*
X037618Y044220D01*
X091948Y043433D02*
X091948Y041582D01*
D24*
X091948Y041582D03*
X072224Y036661D03*
X060885Y027803D03*
X049704Y026307D03*
X047460Y023610D03*
X047086Y023295D03*
X048897Y023098D03*
X042421Y029811D03*
X041456Y033551D03*
X041319Y034574D03*
X044803Y034693D03*
X037637Y035559D03*
X027441Y030578D03*
X030925Y029102D03*
X042263Y012842D03*
X035807Y005696D03*
X018366Y005933D03*
X074114Y005696D03*
X093169Y007763D03*
D25*
X059330Y027173D03*
X053976Y031228D03*
X055689Y032606D03*
X053937Y033196D03*
X053090Y033984D03*
X052795Y034319D03*
X053602Y034653D03*
X050354Y034732D03*
X044921Y030578D03*
X044508Y029811D03*
X048740Y029811D03*
X048740Y028177D03*
X045393Y027133D03*
X046437Y025854D03*
X041968Y017232D03*
X036988Y034673D03*
X036653Y035106D03*
D26*
X041929Y035756D03*
X043563Y036011D03*
X044448Y034378D03*
X049468Y036051D03*
X050945Y035952D03*
X051830Y035952D03*
X053385Y037527D03*
X049448Y037527D03*
X060039Y032094D03*
X063031Y031622D03*
X053582Y027724D03*
X048858Y023590D03*
X044685Y027429D03*
X041437Y030165D03*
X045472Y030716D03*
X035177Y029594D03*
X044134Y017232D03*
X072224Y019220D03*
X072224Y025992D03*
X063031Y036346D03*
D27*
X003385Y043433D02*
X003385Y001307D01*
X018366Y001307D01*
X035807Y001307D01*
X051811Y001307D01*
X074114Y001307D01*
X099448Y001307D01*
X099448Y007763D01*
X099448Y043433D01*
X091948Y043433D01*
X065197Y043433D01*
X065197Y035637D01*
X065197Y035559D01*
X063031Y035559D02*
X063031Y036346D01*
X063031Y035559D02*
X059252Y035559D01*
X055649Y035559D01*
X054173Y035559D01*
X054173Y043433D01*
X048661Y043433D02*
X048661Y035559D01*
X049448Y035559D01*
X050905Y035559D01*
X051811Y035559D01*
X054173Y035559D01*
X053385Y037527D02*
X049448Y037527D01*
X048661Y035559D02*
X043582Y035559D01*
X041929Y035559D01*
X037637Y035559D01*
X037637Y043433D01*
X037618Y043433D02*
X037618Y044220D01*
X035354Y044220D01*
X035354Y043433D01*
X035354Y039996D01*
X033700Y039996D01*
X033700Y038996D02*
X036637Y038996D01*
X036637Y043433D01*
X035354Y043433D02*
X003385Y043433D01*
X022145Y035637D02*
X023860Y037352D01*
X024586Y037352D01*
X025765Y038531D01*
X027843Y038531D01*
X029243Y038531D02*
X029243Y033941D01*
X026594Y033941D01*
X026397Y033866D01*
X022342Y033866D01*
X022145Y033669D01*
X022128Y033653D01*
X022145Y034653D02*
X022128Y034653D01*
X022145Y034653D02*
X022480Y034988D01*
X024074Y034988D01*
X030925Y029102D02*
X030925Y025696D01*
X030925Y025381D01*
X030925Y018964D01*
X030925Y017921D01*
X036240Y017921D01*
X036240Y019712D01*
X053976Y031622D02*
X055689Y031622D01*
X060039Y031622D01*
X063031Y031622D01*
D28*
X060885Y027803D02*
X060885Y026051D01*
X056063Y026051D01*
X055366Y025354D01*
X048815Y025354D01*
X046815Y025354D02*
X046437Y025354D01*
X030925Y025354D01*
X030925Y025381D01*
X030925Y029102D02*
X030925Y029594D01*
X035177Y029594D01*
X055893Y027133D02*
X055893Y026051D01*
X056063Y026051D01*
X057893Y027133D02*
X057933Y027173D01*
X059330Y027173D01*
X072224Y025992D02*
X072224Y019220D01*
X072224Y019023D01*
X072224Y025992D02*
X072224Y036661D01*
X059252Y035559D02*
X059153Y035657D01*
X055767Y035559D02*
X055649Y035559D01*
X051811Y011937D02*
X051811Y001307D01*
M02*
