G75*
%MOIN*%
%OFA0B0*%
%FSLAX24Y24*%
%IPPOS*%
%LPD*%
%AMOC8*
5,1,8,0,0,1.08239X$1,22.5*
%
%ADD10R,0.0395X0.0552*%
%ADD11R,0.0552X0.0395*%
%ADD12C,0.0820*%
%ADD13R,0.0380X0.0680*%
%ADD14R,0.0190X0.0395*%
%ADD15R,0.0395X0.0190*%
%ADD16R,0.3092X0.3092*%
%ADD17R,0.2442X0.1064*%
%ADD18R,0.1064X0.0474*%
%ADD19R,0.0828X0.0513*%
%ADD20R,0.0820X0.0820*%
%ADD21OC8,0.0820*%
%ADD22C,0.0710*%
%ADD23R,0.0395X0.0218*%
%ADD24R,0.1080X0.0480*%
%ADD25R,0.0848X0.0848*%
%ADD26C,0.0848*%
%ADD27C,0.0631*%
%ADD28R,0.0556X0.0556*%
%ADD29C,0.0556*%
%ADD30C,0.1261*%
%ADD31C,0.1182*%
%ADD32C,0.0680*%
%ADD33OC8,0.0710*%
%ADD34C,0.0710*%
%ADD35C,0.0740*%
%ADD36C,0.0480*%
%ADD37C,0.0437*%
%ADD38C,0.0476*%
D10*
X029409Y021779D03*
X030118Y021779D03*
X030118Y028669D03*
X029409Y028669D03*
X041185Y033039D03*
X041893Y033039D03*
X041893Y034043D03*
X041185Y034043D03*
X044527Y033000D03*
X045236Y033000D03*
X045393Y029153D03*
X044685Y029153D03*
X044685Y027941D03*
X045393Y027941D03*
X071102Y023748D03*
X071811Y023748D03*
X071811Y016858D03*
X071102Y016858D03*
X051358Y010716D03*
X050649Y010716D03*
X049370Y011110D03*
X048661Y011110D03*
D11*
X052598Y014004D03*
X052598Y014712D03*
X053681Y014712D03*
X053681Y014004D03*
X047086Y005759D03*
X047086Y005051D03*
X035275Y005051D03*
X035275Y005759D03*
X017952Y006311D03*
X017952Y007019D03*
X047500Y027763D03*
X047500Y028472D03*
X047500Y029161D03*
X048228Y029161D03*
X046771Y029161D03*
X046063Y029161D03*
X046063Y029870D03*
X046771Y029870D03*
X047500Y029870D03*
X048228Y029870D03*
X043673Y032326D03*
X043673Y033035D03*
X050236Y036779D03*
X051023Y036779D03*
X051811Y036779D03*
X051811Y037488D03*
X051023Y037488D03*
X050236Y037488D03*
X059271Y032763D03*
X059271Y032055D03*
X059744Y031326D03*
X060452Y031326D03*
X060452Y030618D03*
X059744Y030618D03*
X056653Y029319D03*
X055945Y029319D03*
X055197Y029319D03*
X054468Y029319D03*
X054468Y028610D03*
X055197Y028610D03*
X055945Y028610D03*
X056653Y028610D03*
X092362Y040484D03*
X092362Y041193D03*
X092362Y007728D03*
X092362Y007019D03*
X074645Y005759D03*
X074645Y005051D03*
X064803Y005051D03*
X064803Y005759D03*
X017952Y040480D03*
X017952Y041189D03*
D12*
X020433Y041189D03*
X026555Y041590D03*
X026555Y040590D03*
X024586Y037352D03*
X024086Y036602D03*
X025086Y036602D03*
X026594Y036941D03*
X024074Y034988D03*
X022128Y034653D03*
X022128Y035653D03*
X026594Y033941D03*
X044323Y036543D03*
X045323Y036543D03*
X046323Y036543D03*
X056000Y036523D03*
X057000Y036523D03*
X058000Y036523D03*
X056555Y033728D03*
X056893Y027133D03*
X055893Y027133D03*
X054893Y027133D03*
X053893Y027133D03*
X052893Y027133D03*
X057893Y027133D03*
X037637Y043433D03*
X036637Y043433D03*
D13*
X040273Y029586D03*
X041773Y029586D03*
X041773Y027586D03*
X040273Y027586D03*
D14*
X049941Y029850D03*
X050137Y029850D03*
X050334Y029850D03*
X050531Y029850D03*
X050728Y029850D03*
X050925Y029850D03*
X051122Y029850D03*
X051319Y029850D03*
X051515Y029850D03*
X051712Y029850D03*
X051909Y029850D03*
X052106Y029850D03*
X052303Y029850D03*
X052500Y029850D03*
X052697Y029850D03*
X052893Y029850D03*
X052893Y033393D03*
X052697Y033393D03*
X052500Y033393D03*
X052303Y033393D03*
X052106Y033393D03*
X051909Y033393D03*
X051712Y033393D03*
X051515Y033393D03*
X051319Y033393D03*
X051122Y033393D03*
X050925Y033393D03*
X050728Y033393D03*
X050531Y033393D03*
X050334Y033393D03*
X050137Y033393D03*
X049941Y033393D03*
D15*
X049645Y033098D03*
X049645Y032901D03*
X049645Y032704D03*
X049645Y032507D03*
X049645Y032311D03*
X049645Y032114D03*
X049645Y031917D03*
X049645Y031720D03*
X049645Y031523D03*
X049645Y031326D03*
X049645Y031130D03*
X049645Y030933D03*
X049645Y030736D03*
X049645Y030539D03*
X049645Y030342D03*
X049645Y030145D03*
X053189Y030145D03*
X053189Y030342D03*
X053189Y030539D03*
X053189Y030736D03*
X053189Y030933D03*
X053189Y031130D03*
X053189Y031326D03*
X053189Y031523D03*
X053189Y031720D03*
X053189Y031917D03*
X053189Y032114D03*
X053189Y032311D03*
X053189Y032507D03*
X053189Y032704D03*
X053189Y032901D03*
X053189Y033098D03*
D16*
X051417Y031622D03*
D17*
X038362Y033543D03*
D18*
X040362Y034043D03*
X040362Y033043D03*
D19*
X057421Y031523D03*
X057421Y030618D03*
X058878Y030618D03*
X058878Y031523D03*
D20*
X055000Y036523D03*
X047323Y036543D03*
X048815Y026354D03*
X022128Y033653D03*
D21*
X046815Y026354D03*
X047815Y026354D03*
X047815Y025354D03*
X048815Y025354D03*
X046815Y025354D03*
D22*
X031732Y025913D03*
X031732Y026700D03*
X031732Y027488D03*
X031732Y020598D03*
X031732Y019811D03*
X031732Y019023D03*
X071102Y019023D03*
X071102Y019811D03*
X071102Y020598D03*
X071102Y025913D03*
X071102Y026700D03*
X071102Y027488D03*
D23*
X051732Y038059D03*
X051732Y038315D03*
X051732Y038570D03*
X051102Y038570D03*
X051102Y038315D03*
X051102Y038059D03*
D24*
X051417Y039377D03*
X051417Y041977D03*
D25*
X016378Y038511D03*
X016378Y005047D03*
X034094Y003078D03*
X045905Y003078D03*
X063622Y003078D03*
X073464Y003078D03*
X091181Y005047D03*
X091181Y038511D03*
D26*
X011653Y005047D03*
X011653Y007015D03*
X016378Y007015D03*
X029370Y005047D03*
X029370Y003078D03*
X034094Y005047D03*
X041181Y005047D03*
X041181Y003078D03*
X045905Y005047D03*
X058897Y005047D03*
X058897Y003078D03*
X063622Y005047D03*
X068740Y005047D03*
X068740Y003078D03*
X073464Y005047D03*
X086456Y005047D03*
X086456Y007015D03*
X091181Y007015D03*
X086456Y038511D03*
X086456Y040480D03*
X091181Y040480D03*
X016378Y040480D03*
X011653Y040480D03*
X011653Y038511D03*
D27*
X014015Y037724D03*
X014015Y041267D03*
X014015Y007803D03*
X014015Y004259D03*
X031732Y005834D03*
X031732Y002291D03*
X043543Y002291D03*
X043543Y005834D03*
X061260Y005834D03*
X061260Y002291D03*
X071102Y002291D03*
X071102Y005834D03*
X088819Y004259D03*
X088819Y007803D03*
X088819Y037724D03*
X088819Y041267D03*
D28*
X054173Y011937D03*
D29*
X053385Y011937D03*
X052598Y011937D03*
X051811Y011937D03*
X051023Y011937D03*
X050236Y011937D03*
X049448Y011937D03*
X048661Y011937D03*
D30*
X036240Y016366D03*
X036240Y019712D03*
D31*
X023110Y013905D03*
X004921Y013905D03*
X004921Y031622D03*
X023110Y031622D03*
X079724Y031622D03*
X097913Y031622D03*
X097913Y013905D03*
X079724Y013905D03*
D32*
X034000Y038996D02*
X033400Y038996D01*
X033400Y039996D02*
X034000Y039996D01*
X034000Y040996D02*
X033400Y040996D01*
D33*
X030571Y040098D03*
X027843Y038531D03*
D34*
X029243Y038531D03*
X030571Y041098D03*
D35*
X022874Y041496D03*
X022874Y037496D03*
D36*
X027441Y030578D03*
X030925Y029102D03*
X041456Y033551D03*
X041319Y034574D03*
X044803Y034693D03*
X037637Y035559D03*
X042421Y029811D03*
X049704Y026307D03*
X047460Y023610D03*
X047086Y023295D03*
X048897Y023098D03*
X060885Y027803D03*
X072224Y036661D03*
X091948Y041582D03*
X042263Y012842D03*
X035807Y005696D03*
X018366Y005933D03*
X074114Y005696D03*
X093169Y007763D03*
D37*
X059330Y027173D03*
X053976Y031228D03*
X055689Y032606D03*
X053937Y033196D03*
X053090Y033984D03*
X052795Y034319D03*
X053602Y034653D03*
X050354Y034732D03*
X044921Y030578D03*
X044508Y029811D03*
X048740Y029811D03*
X048740Y028177D03*
X045393Y027133D03*
X046437Y025854D03*
X041968Y017232D03*
X036988Y034673D03*
X036653Y035106D03*
D38*
X041929Y035756D03*
X043563Y036011D03*
X044448Y034378D03*
X049468Y036051D03*
X050945Y035952D03*
X051830Y035952D03*
X053385Y037527D03*
X049448Y037527D03*
X060039Y032094D03*
X063031Y031622D03*
X053582Y027724D03*
X048858Y023590D03*
X044685Y027429D03*
X041437Y030165D03*
X045472Y030716D03*
X035177Y029594D03*
X044134Y017232D03*
X072224Y019220D03*
X072224Y025992D03*
X063031Y036346D03*
M02*
