%
M48
M72
T01C0.0197
T02C0.0236
T03C0.0240
T04C0.0276
T05C0.0320
T06C0.0354
T07C0.0400
T08C0.0440
T09C0.0512
T10C0.0551
T11C0.0787
T12C0.1102
%
T01
X41968Y17232
X46437Y25854
X45393Y27133
X48740Y28177
X48740Y29811
X44921Y30578
X44508Y29811
X53090Y33984
X52795Y34319
X53602Y34653
X53937Y33196
X55689Y32606
X53976Y31228
X50354Y34732
X36988Y34673
X36653Y35106
X59330Y27173
T02
X53582Y27724
X48858Y23590
X44685Y27429
X41437Y30165
X45472Y30716
X44448Y34378
X43563Y36011
X41929Y35756
X49468Y36051
X50945Y35952
X51830Y35952
X53385Y37527
X49448Y37527
X60039Y32094
X63031Y31622
X63031Y36346
X72224Y25992
X72224Y19220
X44134Y17232
X35177Y29594
T03
X30925Y29102
X27441Y30578
X37637Y35559
X41319Y34574
X41456Y33551
X44803Y34693
X42421Y29811
X49704Y26307
X47460Y23610
X47086Y23295
X48897Y23098
X60885Y27803
X72224Y36661
X91948Y41582
X42263Y12842
X35807Y5696
X18366Y5933
X74114Y5696
X93169Y7763
T04
X71102Y19023
X71102Y19811
X71102Y20598
X71102Y25913
X71102Y26700
X71102Y27488
X54173Y11937
X53385Y11937
X52598Y11937
X51811Y11937
X51023Y11937
X50236Y11937
X49448Y11937
X48661Y11937
X31732Y19023
X31732Y19811
X31732Y20598
X31732Y25913
X31732Y26700
X31732Y27488
T05
X25086Y36602
X24586Y37352
X24086Y36602
X27843Y38531
X29243Y38531
X30571Y40098
X30571Y41098
X26555Y41590
X26555Y40590
T06
X26594Y36941
X26594Y33941
T07
X24074Y34988
X22128Y34653
X22128Y33653
X22128Y35653
X20433Y41189
X33700Y40996
X33700Y39996
X33700Y38996
X36637Y43433
X37637Y43433
X44323Y36543
X45323Y36543
X46323Y36543
X47323Y36543
X55000Y36523
X56000Y36523
X57000Y36523
X58000Y36523
X56555Y33728
X56893Y27133
X55893Y27133
X54893Y27133
X53893Y27133
X52893Y27133
X48815Y26354
X47815Y26354
X46815Y26354
X46815Y25354
X47815Y25354
X48815Y25354
X57893Y27133
T08
X22874Y37496
X22874Y41496
T09
X11653Y5047
X11653Y7015
X16378Y7015
X16378Y5047
X29370Y5047
X29370Y3078
X34094Y3078
X34094Y5047
X41181Y5047
X41181Y3078
X45905Y3078
X45905Y5047
X58897Y5047
X58897Y3078
X63622Y3078
X63622Y5047
X68740Y5047
X68740Y3078
X73464Y3078
X73464Y5047
X86456Y5047
X86456Y7015
X91181Y7015
X91181Y5047
X91181Y38511
X91181Y40480
X86456Y40480
X86456Y38511
X16378Y38511
X16378Y40480
X11653Y40480
X11653Y38511
T10
X14015Y37724
X14015Y41267
X14015Y7803
X14015Y4259
X31732Y5834
X31732Y2291
X43543Y2291
X43543Y5834
X61260Y5834
X61260Y2291
X71102Y2291
X71102Y5834
X88819Y4259
X88819Y7803
X88819Y37724
X88819Y41267
T11
X36240Y19712
X36240Y16366
T12
X23110Y13905
X4921Y13905
X4921Y31622
X23110Y31622
X79724Y31622
X97913Y31622
X97913Y13905
X79724Y13905
M30
