G75*
%MOIN*%
%OFA0B0*%
%FSLAX24Y24*%
%IPPOS*%
%LPD*%
%AMOC8*
5,1,8,0,0,1.08239X$1,22.5*
%
%ADD10C,0.0820*%
%ADD11R,0.0820X0.0820*%
%ADD12OC8,0.0820*%
%ADD13C,0.0710*%
%ADD14R,0.0848X0.0848*%
%ADD15C,0.0848*%
%ADD16C,0.0631*%
%ADD17R,0.0556X0.0556*%
%ADD18C,0.0556*%
%ADD19C,0.1261*%
%ADD20C,0.1182*%
%ADD21C,0.0680*%
%ADD22OC8,0.0710*%
%ADD23C,0.0710*%
%ADD24C,0.0740*%
%ADD25C,0.0480*%
%ADD26C,0.0437*%
%ADD27C,0.0476*%
D10*
X052893Y027133D03*
X053893Y027133D03*
X054893Y027133D03*
X055893Y027133D03*
X056893Y027133D03*
X057893Y027133D03*
X056555Y033728D03*
X057000Y036523D03*
X058000Y036523D03*
X056000Y036523D03*
X046323Y036543D03*
X045323Y036543D03*
X044323Y036543D03*
X037637Y043433D03*
X036637Y043433D03*
X026555Y041590D03*
X026555Y040590D03*
X020433Y041189D03*
X024586Y037352D03*
X024086Y036602D03*
X025086Y036602D03*
X026594Y036941D03*
X024074Y034988D03*
X022128Y034653D03*
X022128Y035653D03*
X026594Y033941D03*
D11*
X022128Y033653D03*
X047323Y036543D03*
X055000Y036523D03*
X048815Y026354D03*
D12*
X047815Y026354D03*
X046815Y026354D03*
X046815Y025354D03*
X047815Y025354D03*
X048815Y025354D03*
D13*
X031732Y025913D03*
X031732Y026700D03*
X031732Y027488D03*
X031732Y020598D03*
X031732Y019811D03*
X031732Y019023D03*
X071102Y019023D03*
X071102Y019811D03*
X071102Y020598D03*
X071102Y025913D03*
X071102Y026700D03*
X071102Y027488D03*
D14*
X091181Y038511D03*
X091181Y005047D03*
X073464Y003078D03*
X063622Y003078D03*
X045905Y003078D03*
X034094Y003078D03*
X016378Y005047D03*
X016378Y038511D03*
D15*
X011653Y005047D03*
X011653Y007015D03*
X016378Y007015D03*
X029370Y005047D03*
X029370Y003078D03*
X034094Y005047D03*
X041181Y005047D03*
X041181Y003078D03*
X045905Y005047D03*
X058897Y005047D03*
X058897Y003078D03*
X063622Y005047D03*
X068740Y005047D03*
X068740Y003078D03*
X073464Y005047D03*
X086456Y005047D03*
X086456Y007015D03*
X091181Y007015D03*
X086456Y038511D03*
X086456Y040480D03*
X091181Y040480D03*
X016378Y040480D03*
X011653Y040480D03*
X011653Y038511D03*
D16*
X014015Y037724D03*
X014015Y041267D03*
X014015Y007803D03*
X014015Y004259D03*
X031732Y005834D03*
X031732Y002291D03*
X043543Y002291D03*
X043543Y005834D03*
X061260Y005834D03*
X061260Y002291D03*
X071102Y002291D03*
X071102Y005834D03*
X088819Y004259D03*
X088819Y007803D03*
X088819Y037724D03*
X088819Y041267D03*
D17*
X054173Y011937D03*
D18*
X053385Y011937D03*
X052598Y011937D03*
X051811Y011937D03*
X051023Y011937D03*
X050236Y011937D03*
X049448Y011937D03*
X048661Y011937D03*
D19*
X036240Y016366D03*
X036240Y019712D03*
D20*
X023110Y013905D03*
X004921Y013905D03*
X004921Y031622D03*
X023110Y031622D03*
X079724Y031622D03*
X097913Y031622D03*
X097913Y013905D03*
X079724Y013905D03*
D21*
X034000Y038996D02*
X033400Y038996D01*
X033400Y039996D02*
X034000Y039996D01*
X034000Y040996D02*
X033400Y040996D01*
D22*
X030571Y040098D03*
X027843Y038531D03*
D23*
X029243Y038531D03*
X030571Y041098D03*
D24*
X022874Y041496D03*
X022874Y037496D03*
D25*
X027441Y030578D03*
X030925Y029102D03*
X041456Y033551D03*
X041319Y034574D03*
X044803Y034693D03*
X037637Y035559D03*
X042421Y029811D03*
X049704Y026307D03*
X047460Y023610D03*
X047086Y023295D03*
X048897Y023098D03*
X060885Y027803D03*
X072224Y036661D03*
X091948Y041582D03*
X042263Y012842D03*
X035807Y005696D03*
X018366Y005933D03*
X074114Y005696D03*
X093169Y007763D03*
D26*
X059330Y027173D03*
X053976Y031228D03*
X055689Y032606D03*
X053937Y033196D03*
X053090Y033984D03*
X052795Y034319D03*
X053602Y034653D03*
X050354Y034732D03*
X044921Y030578D03*
X044508Y029811D03*
X048740Y029811D03*
X048740Y028177D03*
X045393Y027133D03*
X046437Y025854D03*
X041968Y017232D03*
X036988Y034673D03*
X036653Y035106D03*
D27*
X041929Y035756D03*
X043563Y036011D03*
X044448Y034378D03*
X049468Y036051D03*
X050945Y035952D03*
X051830Y035952D03*
X053385Y037527D03*
X049448Y037527D03*
X060039Y032094D03*
X063031Y031622D03*
X053582Y027724D03*
X048858Y023590D03*
X044685Y027429D03*
X041437Y030165D03*
X045472Y030716D03*
X035177Y029594D03*
X044134Y017232D03*
X072224Y019220D03*
X072224Y025992D03*
X063031Y036346D03*
M02*
